<svg width="70" height="337" viewBox="0 0 70 337" fill="none" xmlns="http://www.w3.org/2000/svg">
<mask id="path-1-inside-1_86_5027" fill="white">
<path d="M71 331L71 337L62 337L62 331L71 331ZM71 301L71 312L67 312L67 301L71 301ZM71 276L71 287L67 287L67 276L71 276ZM71 241L71 252L62 252L62 241L71 241ZM71 231L71 237L62 237L62 231L71 231ZM67 15L67 41L71 41L71 61L67 61L67 65L71 65L71 70L67 70L67 86L71 86L71 91L67 91L67 100L71 100L71 111L67 111L67 115L71 115L71 137L67 137L67 161L71 161L71 166L67 166L67 191L71 191L71 202L67 202L67 211L62 211L62 15L67 15ZM67 -10L67 -14L62 -14L62 -25L67 -25L67 -40L62 -40L62 -60L67 -60L67 -86L71 -86L71 11L67 11L67 1L62 1L62 -10L67 -10ZM71 -110L71 -105L67 -105L67 -110L71 -110ZM59 15L59 36L55 36L55 40L59 40L59 61L55 61L55 65L59 65L59 86L55 86L55 90L59 90L59 111L55 111L55 115L59 115L59 136L55 136L55 141L59 141L59 162L55 162L55 166L59 166L59 187L55 187L55 191L59 191L59 212L55 212L55 216L59 216L59 237L55 237L55 241L59 241L59 262L55 262L55 287L50 287L50 15L59 15ZM59 -10L59 11L49 11L49 -10L59 -10ZM59 -35L59 -14L49 -14L49 -35L59 -35ZM59 -61L59 -40L49 -40L49 -61L59 -61ZM59 -86L59 -65L49 -65L49 -86L59 -86ZM59 -110L59 -105L50 -105L50 -110L59 -110ZM47 165L47 187L37 187L37 165L47 165ZM41 90L41 65L47 65L47 136L41 136L41 111L37 111L37 90L41 90ZM47 40L47 61L37 61L37 40L47 40ZM47 15L47 36L37 36L37 15L47 15ZM47 -10L47 11L37 11L37 -10L47 -10ZM47 -86L47 -65L37 -65L37 -86L47 -86ZM47 -101L47 -90L37 -90L37 -101L47 -101ZM46 291L46 302L42 302L42 291L46 291ZM46 276L46 287L42 287L42 276L46 276ZM46 156L46 161L42 161L42 156L46 156ZM46 146L46 151L42 151L42 146L46 146ZM46 -20L46 -15L37 -15L37 -20L46 -20ZM46 -30L46 -25L37 -25L37 -30L46 -30ZM46 -40L46 -35L37 -35L37 -40L46 -40ZM46 -49L46 -44L37 -44L37 -49L46 -49ZM42 326L42 337L38 337L38 326L42 326ZM34 -10L34 11L24 11L24 -10L34 -10ZM34 -35L34 -14L24 -14L24 -35L34 -35ZM34 -61L34 -40L24 -40L24 -61L34 -61ZM34 -86L34 -65L24 -65L24 -86L34 -86ZM33 65L33 86L25 86L25 65L33 65ZM33 40L33 61L25 61L25 40L33 40ZM33 15L33 36L25 36L25 15L33 15ZM33 -110L33 -89L29 -89L29 -110L33 -110ZM29 326L29 337L25 337L25 326L29 326ZM29 126L29 137L25 137L25 126L29 126ZM29 91L29 102L25 102L25 91L29 91ZM21 65L21 86L17 86L17 111L21 111L21 116L17 116L17 146L21 146L21 151L17 151L17 156L21 156L21 161L17 161L17 166L21 166L21 187L17 187L17 191L21 191L21 212L17 212L17 216L21 216L21 237L17 237L17 260L21 260L21 271L17 271L17 276L21 276L21 287L17 287L17 291L21 291L21 312L17 312L17 337L12 337L12 65L21 65ZM21 5L21 11L12 11L12 5L21 5ZM21 -35L21 -14L12 -14L12 -35L21 -35ZM21 -61L21 -40L12 -40L12 -61L21 -61ZM21 -86L21 -65L12 -65L12 -86L21 -86ZM17 15L17 61L12 61L12 15L17 15ZM16 -110L16 -99L12 -99L12 -110L16 -110ZM4 267L4 262L8.94367e-07 262L1.14479e-06 241L4 241L4 202L1.60986e-06 202L1.74103e-06 191L4 191L4 187L1.78873e-06 187L1.91991e-06 176L4 176L4 161L2.09878e-06 161L2.64732e-06 115L9 115L9 337L4 337L4 287L5.96244e-07 287L8.34742e-07 267L4 267ZM9 91L9 111L4 111L4 91L9 91ZM4 -10L4 -55L4.67455e-06 -55L4.73418e-06 -60L4 -60L4 -65L4.7938e-06 -65L4.85343e-06 -70L4 -70L4.00001 -110L9.00001 -110L9 11L3.88751e-06 11L4.13793e-06 -10L4 -10Z"/>
</mask>
<path d="M71 331L72 331L72 330L71 330L71 331ZM71 337L71 338L72 338L72 337L71 337ZM62 337L61 337L61 338L62 338L62 337ZM62 331L62 330L61 330L61 331L62 331ZM71 301L72 301L72 300L71 300L71 301ZM71 312L71 313L72 313L72 312L71 312ZM67 312L66 312L66 313L67 313L67 312ZM67 301L67 300L66 300L66 301L67 301ZM71 276L72 276L72 275L71 275L71 276ZM71 287L71 288L72 288L72 287L71 287ZM67 287L66 287L66 288L67 288L67 287ZM67 276L67 275L66 275L66 276L67 276ZM71 241L72 241L72 240L71 240L71 241ZM71 252L71 253L72 253L72 252L71 252ZM62 252L61 252L61 253L62 253L62 252ZM62 241L62 240L61 240L61 241L62 241ZM71 231L72 231L72 230L71 230L71 231ZM71 237L71 238L72 238L72 237L71 237ZM62 237L61 237L61 238L62 238L62 237ZM62 231L62 230L61 230L61 231L62 231ZM67 15L68 15L68 14L67 14L67 15ZM67 41L66 41L66 42L67 42L67 41ZM71 41L72 41L72 40L71 40L71 41ZM71 61L71 62L72 62L72 61L71 61ZM67 61L67 60L66 60L66 61L67 61ZM67 65L66 65L66 66L67 66L67 65ZM71 65L72 65L72 64L71 64L71 65ZM71 70L71 71L72 71L72 70L71 70ZM67 70L67 69L66 69L66 70L67 70ZM67 86L66 86L66 87L67 87L67 86ZM71 86L72 86L72 85L71 85L71 86ZM71 91L71 92L72 92L72 91L71 91ZM67 91L67 90L66 90L66 91L67 91ZM67 100L66 100L66 101L67 101L67 100ZM71 100L72 100L72 99L71 99L71 100ZM71 111L71 112L72 112L72 111L71 111ZM67 111L67 110L66 110L66 111L67 111ZM67 115L66 115L66 116L67 116L67 115ZM71 115L72 115L72 114L71 114L71 115ZM71 137L71 138L72 138L72 137L71 137ZM67 137L67 136L66 136L66 137L67 137ZM67 161L66 161L66 162L67 162L67 161ZM71 161L72 161L72 160L71 160L71 161ZM71 166L71 167L72 167L72 166L71 166ZM67 166L67 165L66 165L66 166L67 166ZM67 191L66 191L66 192L67 192L67 191ZM71 191L72 191L72 190L71 190L71 191ZM71 202L71 203L72 203L72 202L71 202ZM67 202L67 201L66 201L66 202L67 202ZM67 211L67 212L68 212L68 211L67 211ZM62 211L61 211L61 212L62 212L62 211ZM62 15L62 14L61 14L61 15L62 15ZM67 -10L67 -9L68 -9L68 -10L67 -10ZM67 -14L68 -14L68 -15L67 -15L67 -14ZM62 -14L61 -14L61 -13L62 -13L62 -14ZM62 -25L62 -26L61 -26L61 -25L62 -25ZM67 -25L67 -24L68 -24L68 -25L67 -25ZM67 -40L68 -40L68 -41L67 -41L67 -40ZM62 -40L61 -40L61 -39L62 -39L62 -40ZM62 -60L62 -61L61 -61L61 -60L62 -60ZM67 -60L67 -59L68 -59L68 -60L67 -60ZM67 -86L67 -87L66 -87L66 -86L67 -86ZM71 -86L72 -86L72 -87L71 -87L71 -86ZM71 11L71 12L72 12L72 11L71 11ZM67 11L66 11L66 12L67 12L67 11ZM67 1L68 1L68 8.10892e-07L67 7.98967e-07L67 1ZM62 1L61 1L61 2L62 2L62 1ZM62 -10L62 -11L61 -11L61 -10L62 -10ZM71 -110L72 -110L72 -111L71 -111L71 -110ZM71 -105L71 -104L72 -104L72 -105L71 -105ZM67 -105L66 -105L66 -104L67 -104L67 -105ZM67 -110L67 -111L66 -111L66 -110L67 -110ZM59 15L60 15L60 14L59 14L59 15ZM59 36L59 37L60 37L60 36L59 36ZM55 36L55 35L54 35L54 36L55 36ZM55 40L54 40L54 41L55 41L55 40ZM59 40L60 40L60 39L59 39L59 40ZM59 61L59 62L60 62L60 61L59 61ZM55 61L55 60L54 60L54 61L55 61ZM55 65L54 65L54 66L55 66L55 65ZM59 65L60 65L60 64L59 64L59 65ZM59 86L59 87L60 87L60 86L59 86ZM55 86L55 85L54 85L54 86L55 86ZM55 90L54 90L54 91L55 91L55 90ZM59 90L60 90L60 89L59 89L59 90ZM59 111L59 112L60 112L60 111L59 111ZM55 111L55 110L54 110L54 111L55 111ZM55 115L54 115L54 116L55 116L55 115ZM59 115L60 115L60 114L59 114L59 115ZM59 136L59 137L60 137L60 136L59 136ZM55 136L55 135L54 135L54 136L55 136ZM55 141L54 141L54 142L55 142L55 141ZM59 141L60 141L60 140L59 140L59 141ZM59 162L59 163L60 163L60 162L59 162ZM55 162L55 161L54 161L54 162L55 162ZM55 166L54 166L54 167L55 167L55 166ZM59 166L60 166L60 165L59 165L59 166ZM59 187L59 188L60 188L60 187L59 187ZM55 187L55 186L54 186L54 187L55 187ZM55 191L54 191L54 192L55 192L55 191ZM59 191L60 191L60 190L59 190L59 191ZM59 212L59 213L60 213L60 212L59 212ZM55 212L55 211L54 211L54 212L55 212ZM55 216L54 216L54 217L55 217L55 216ZM59 216L60 216L60 215L59 215L59 216ZM59 237L59 238L60 238L60 237L59 237ZM55 237L55 236L54 236L54 237L55 237ZM55 241L54 241L54 242L55 242L55 241ZM59 241L60 241L60 240L59 240L59 241ZM59 262L59 263L60 263L60 262L59 262ZM55 262L55 261L54 261L54 262L55 262ZM55 287L55 288L56 288L56 287L55 287ZM50 287L49 287L49 288L50 288L50 287ZM50 15L50 14L49 14L49 15L50 15ZM59 -10L60 -10L60 -11L59 -11L59 -10ZM59 11L59 12L60 12L60 11L59 11ZM49 11L48 11L48 12L49 12L49 11ZM49 -10L49 -11L48 -11L48 -10L49 -10ZM59 -35L60 -35L60 -36L59 -36L59 -35ZM59 -14L59 -13L60 -13L60 -14L59 -14ZM49 -14L48 -14L48 -13L49 -13L49 -14ZM49 -35L49 -36L48 -36L48 -35L49 -35ZM59 -61L60 -61L60 -62L59 -62L59 -61ZM59 -40L59 -39L60 -39L60 -40L59 -40ZM49 -40L48 -40L48 -39L49 -39L49 -40ZM49 -61L49 -62L48 -62L48 -61L49 -61ZM59 -86L60 -86L60 -87L59 -87L59 -86ZM59 -65L59 -64L60 -64L60 -65L59 -65ZM49 -65L48 -65L48 -64L49 -64L49 -65ZM49 -86L49 -87L48 -87L48 -86L49 -86ZM59 -110L60 -110L60 -111L59 -111L59 -110ZM59 -105L59 -104L60 -104L60 -105L59 -105ZM50 -105L49 -105L49 -104L50 -104L50 -105ZM50 -110L50 -111L49 -111L49 -110L50 -110ZM47 165L48 165L48 164L47 164L47 165ZM47 187L47 188L48 188L48 187L47 187ZM37 187L36 187L36 188L37 188L37 187ZM37 165L37 164L36 164L36 165L37 165ZM41 90L41 91L42 91L42 90L41 90ZM41 65L41 64L40 64L40 65L41 65ZM47 65L48 65L48 64L47 64L47 65ZM47 136L47 137L48 137L48 136L47 136ZM41 136L40 136L40 137L41 137L41 136ZM41 111L42 111L42 110L41 110L41 111ZM37 111L36 111L36 112L37 112L37 111ZM37 90L37 89L36 89L36 90L37 90ZM47 40L48 40L48 39L47 39L47 40ZM47 61L47 62L48 62L48 61L47 61ZM37 61L36 61L36 62L37 62L37 61ZM37 40L37 39L36 39L36 40L37 40ZM47 15L48 15L48 14L47 14L47 15ZM47 36L47 37L48 37L48 36L47 36ZM37 36L36 36L36 37L37 37L37 36ZM37 15L37 14L36 14L36 15L37 15ZM47 -10L48 -10L48 -11L47 -11L47 -10ZM47 11L47 12L48 12L48 11L47 11ZM37 11L36 11L36 12L37 12L37 11ZM37 -10L37 -11L36 -11L36 -10L37 -10ZM47 -86L48 -86L48 -87L47 -87L47 -86ZM47 -65L47 -64L48 -64L48 -65L47 -65ZM37 -65L36 -65L36 -64L37 -64L37 -65ZM37 -86L37 -87L36 -87L36 -86L37 -86ZM47 -101L48 -101L48 -102L47 -102L47 -101ZM47 -90L47 -89L48 -89L48 -90L47 -90ZM37 -90L36 -90L36 -89L37 -89L37 -90ZM37 -101L37 -102L36 -102L36 -101L37 -101ZM46 291L47 291L47 290L46 290L46 291ZM46 302L46 303L47 303L47 302L46 302ZM42 302L41 302L41 303L42 303L42 302ZM42 291L42 290L41 290L41 291L42 291ZM46 276L47 276L47 275L46 275L46 276ZM46 287L46 288L47 288L47 287L46 287ZM42 287L41 287L41 288L42 288L42 287ZM42 276L42 275L41 275L41 276L42 276ZM46 156L47 156L47 155L46 155L46 156ZM46 161L46 162L47 162L47 161L46 161ZM42 161L41 161L41 162L42 162L42 161ZM42 156L42 155L41 155L41 156L42 156ZM46 146L47 146L47 145L46 145L46 146ZM46 151L46 152L47 152L47 151L46 151ZM42 151L41 151L41 152L42 152L42 151ZM42 146L42 145L41 145L41 146L42 146ZM46 -20L47 -20L47 -21L46 -21L46 -20ZM46 -15L46 -14L47 -14L47 -15L46 -15ZM37 -15L36 -15L36 -14L37 -14L37 -15ZM37 -20L37 -21L36 -21L36 -20L37 -20ZM46 -30L47 -30L47 -31L46 -31L46 -30ZM46 -25L46 -24L47 -24L47 -25L46 -25ZM37 -25L36 -25L36 -24L37 -24L37 -25ZM37 -30L37 -31L36 -31L36 -30L37 -30ZM46 -40L47 -40L47 -41L46 -41L46 -40ZM46 -35L46 -34L47 -34L47 -35L46 -35ZM37 -35L36 -35L36 -34L37 -34L37 -35ZM37 -40L37 -41L36 -41L36 -40L37 -40ZM46 -49L47 -49L47 -50L46 -50L46 -49ZM46 -44L46 -43L47 -43L47 -44L46 -44ZM37 -44L36 -44L36 -43L37 -43L37 -44ZM37 -49L37 -50L36 -50L36 -49L37 -49ZM42 326L43 326L43 325L42 325L42 326ZM42 337L42 338L43 338L43 337L42 337ZM38 337L37 337L37 338L38 338L38 337ZM38 326L38 325L37 325L37 326L38 326ZM34 -10L35 -10L35 -11L34 -11L34 -10ZM34 11L34 12L35 12L35 11L34 11ZM24 11L23 11L23 12L24 12L24 11ZM24 -10L24 -11L23 -11L23 -10L24 -10ZM34 -35L35 -35L35 -36L34 -36L34 -35ZM34 -14L34 -13L35 -13L35 -14L34 -14ZM24 -14L23 -14L23 -13L24 -13L24 -14ZM24 -35L24 -36L23 -36L23 -35L24 -35ZM34 -61L35 -61L35 -62L34 -62L34 -61ZM34 -40L34 -39L35 -39L35 -40L34 -40ZM24 -40L23 -40L23 -39L24 -39L24 -40ZM24 -61L24 -62L23 -62L23 -61L24 -61ZM34 -86L35 -86L35 -87L34 -87L34 -86ZM34 -65L34 -64L35 -64L35 -65L34 -65ZM24 -65L23 -65L23 -64L24 -64L24 -65ZM24 -86L24 -87L23 -87L23 -86L24 -86ZM33 65L34 65L34 64L33 64L33 65ZM33 86L33 87L34 87L34 86L33 86ZM25 86L24 86L24 87L25 87L25 86ZM25 65L25 64L24 64L24 65L25 65ZM33 40L34 40L34 39L33 39L33 40ZM33 61L33 62L34 62L34 61L33 61ZM25 61L24 61L24 62L25 62L25 61ZM25 40L25 39L24 39L24 40L25 40ZM33 15L34 15L34 14L33 14L33 15ZM33 36L33 37L34 37L34 36L33 36ZM25 36L24 36L24 37L25 37L25 36ZM25 15L25 14L24 14L24 15L25 15ZM33 -110L34 -110L34 -111L33 -111L33 -110ZM33 -89L33 -88L34 -88L34 -89L33 -89ZM29 -89L28 -89L28 -88L29 -88L29 -89ZM29 -110L29 -111L28 -111L28 -110L29 -110ZM29 326L30 326L30 325L29 325L29 326ZM29 337L29 338L30 338L30 337L29 337ZM25 337L24 337L24 338L25 338L25 337ZM25 326L25 325L24 325L24 326L25 326ZM29 126L30 126L30 125L29 125L29 126ZM29 137L29 138L30 138L30 137L29 137ZM25 137L24 137L24 138L25 138L25 137ZM25 126L25 125L24 125L24 126L25 126ZM29 91L30 91L30 90L29 90L29 91ZM29 102L29 103L30 103L30 102L29 102ZM25 102L24 102L24 103L25 103L25 102ZM25 91L25 90L24 90L24 91L25 91ZM21 65L22 65L22 64L21 64L21 65ZM21 86L21 87L22 87L22 86L21 86ZM17 86L17 85L16 85L16 86L17 86ZM17 111L16 111L16 112L17 112L17 111ZM21 111L22 111L22 110L21 110L21 111ZM21 116L21 117L22 117L22 116L21 116ZM17 116L17 115L16 115L16 116L17 116ZM17 146L16 146L16 147L17 147L17 146ZM21 146L22 146L22 145L21 145L21 146ZM21 151L21 152L22 152L22 151L21 151ZM17 151L17 150L16 150L16 151L17 151ZM17 156L16 156L16 157L17 157L17 156ZM21 156L22 156L22 155L21 155L21 156ZM21 161L21 162L22 162L22 161L21 161ZM17 161L17 160L16 160L16 161L17 161ZM17 166L16 166L16 167L17 167L17 166ZM21 166L22 166L22 165L21 165L21 166ZM21 187L21 188L22 188L22 187L21 187ZM17 187L17 186L16 186L16 187L17 187ZM17 191L16 191L16 192L17 192L17 191ZM21 191L22 191L22 190L21 190L21 191ZM21 212L21 213L22 213L22 212L21 212ZM17 212L17 211L16 211L16 212L17 212ZM17 216L16 216L16 217L17 217L17 216ZM21 216L22 216L22 215L21 215L21 216ZM21 237L21 238L22 238L22 237L21 237ZM17 237L17 236L16 236L16 237L17 237ZM17 260L16 260L16 261L17 261L17 260ZM21 260L22 260L22 259L21 259L21 260ZM21 271L21 272L22 272L22 271L21 271ZM17 271L17 270L16 270L16 271L17 271ZM17 276L16 276L16 277L17 277L17 276ZM21 276L22 276L22 275L21 275L21 276ZM21 287L21 288L22 288L22 287L21 287ZM17 287L17 286L16 286L16 287L17 287ZM17 291L16 291L16 292L17 292L17 291ZM21 291L22 291L22 290L21 290L21 291ZM21 312L21 313L22 313L22 312L21 312ZM17 312L17 311L16 311L16 312L17 312ZM17 337L17 338L18 338L18 337L17 337ZM12 337L11 337L11 338L12 338L12 337ZM12 65L12 64L11 64L11 65L12 65ZM21 5L22 5L22 4L21 4L21 5ZM21 11L21 12L22 12L22 11L21 11ZM12 11L11 11L11 12L12 12L12 11ZM12 5L12 4L11 4L11 5L12 5ZM21 -35L22 -35L22 -36L21 -36L21 -35ZM21 -14L21 -13L22 -13L22 -14L21 -14ZM12 -14L11 -14L11 -13L12 -13L12 -14ZM12 -35L12 -36L11 -36L11 -35L12 -35ZM21 -61L22 -61L22 -62L21 -62L21 -61ZM21 -40L21 -39L22 -39L22 -40L21 -40ZM12 -40L11 -40L11 -39L12 -39L12 -40ZM12 -61L12 -62L11 -62L11 -61L12 -61ZM21 -86L22 -86L22 -87L21 -87L21 -86ZM21 -65L21 -64L22 -64L22 -65L21 -65ZM12 -65L11 -65L11 -64L12 -64L12 -65ZM12 -86L12 -87L11 -87L11 -86L12 -86ZM17 15L18 15L18 14L17 14L17 15ZM17 61L17 62L18 62L18 61L17 61ZM12 61L11 61L11 62L12 62L12 61ZM12 15L12 14L11 14L11 15L12 15ZM16 -110L17 -110L17 -111L16 -111L16 -110ZM16 -99L16 -98L17 -98L17 -99L16 -99ZM12 -99L11 -99L11 -98L12 -98L12 -99ZM12 -110L12 -111L11 -111L11 -110L12 -110ZM4 267L4 268L5 268L5 267L4 267ZM4 262L5 262L5 261L4 261L4 262ZM8.94367e-07 262L-0.999999 262L-0.999999 263L8.82442e-07 263L8.94367e-07 262ZM1.14479e-06 241L1.15671e-06 240L-0.999999 240L-0.999999 241L1.14479e-06 241ZM4 241L4 242L5 242L5 241L4 241ZM4 202L5 202L5 201L4 201L4 202ZM1.60986e-06 202L-0.999998 202L-0.999998 203L1.59793e-06 203L1.60986e-06 202ZM1.74103e-06 191L1.75296e-06 190L-0.999998 190L-0.999998 191L1.74103e-06 191ZM4 191L4 192L5 192L5 191L4 191ZM4 187L5 187L5 186L4 186L4 187ZM1.78873e-06 187L-0.999998 187L-0.999998 188L1.77681e-06 188L1.78873e-06 187ZM1.91991e-06 176L1.93183e-06 175L-0.999998 175L-0.999998 176L1.91991e-06 176ZM4 176L4 177L5 177L5 176L4 176ZM4 161L5 161L5 160L4 160L4 161ZM2.09878e-06 161L-0.999998 161L-0.999998 162L2.08686e-06 162L2.09878e-06 161ZM2.64732e-06 115L2.65925e-06 114L-0.999997 114L-0.999997 115L2.64732e-06 115ZM9 115L10 115L10 114L9 114L9 115ZM9 337L9 338L10 338L10 337L9 337ZM4 337L3 337L3 338L4 338L4 337ZM4 287L5 287L5 286L4 286L4 287ZM5.96244e-07 287L-0.999999 287L-0.999999 288L5.84319e-07 288L5.96244e-07 287ZM8.34742e-07 267L8.46667e-07 266L-0.999999 266L-0.999999 267L8.34742e-07 267ZM9 91L10 91L10 90L9 90L9 91ZM9 111L9 112L10 112L10 111L9 111ZM4 111L3 111L3 112L4 112L4 111ZM4 91L4 90L3 90L3 91L4 91ZM4 -10L4 -9L5 -9L5 -10L4 -10ZM4 -55L5 -55L5 -56L4 -56L4 -55ZM4.67455e-06 -55L-0.999995 -55L-0.999995 -54L4.66263e-06 -54L4.67455e-06 -55ZM4.73418e-06 -60L4.7461e-06 -61L-0.999995 -61L-0.999995 -60L4.73418e-06 -60ZM4 -60L4 -59L5 -59L5 -60L4 -60ZM4 -65L5 -65L5 -66L4 -66L4 -65ZM4.7938e-06 -65L-0.999995 -65L-0.999995 -64L4.78188e-06 -64L4.7938e-06 -65ZM4.85343e-06 -70L4.86535e-06 -71L-0.999995 -71L-0.999995 -70L4.85343e-06 -70ZM4 -70L4 -69L5 -69L5 -70L4 -70ZM4.00001 -110L4.00001 -111L3.00001 -111L3.00001 -110L4.00001 -110ZM9.00001 -110L10 -110L10 -111L9.00001 -111L9.00001 -110ZM9 11L9 12L10 12L10 11L9 11ZM3.88751e-06 11L-0.999996 11L-0.999996 12L3.87559e-06 12L3.88751e-06 11ZM4.13793e-06 -10L4.14986e-06 -11L-0.999996 -11L-0.999996 -10L4.13793e-06 -10ZM71 331L70 331L70 337L71 337L72 337L72 331L71 331ZM71 337L71 336L62 336L62 337L62 338L71 338L71 337ZM62 337L63 337L63 331L62 331L61 331L61 337L62 337ZM62 331L62 332L71 332L71 331L71 330L62 330L62 331ZM71 301L70 301L70 312L71 312L72 312L72 301L71 301ZM71 312L71 311L67 311L67 312L67 313L71 313L71 312ZM67 312L68 312L68 301L67 301L66 301L66 312L67 312ZM67 301L67 302L71 302L71 301L71 300L67 300L67 301ZM71 276L70 276L70 287L71 287L72 287L72 276L71 276ZM71 287L71 286L67 286L67 287L67 288L71 288L71 287ZM67 287L68 287L68 276L67 276L66 276L66 287L67 287ZM67 276L67 277L71 277L71 276L71 275L67 275L67 276ZM71 241L70 241L70 252L71 252L72 252L72 241L71 241ZM71 252L71 251L62 251L62 252L62 253L71 253L71 252ZM62 252L63 252L63 241L62 241L61 241L61 252L62 252ZM62 241L62 242L71 242L71 241L71 240L62 240L62 241ZM71 231L70 231L70 237L71 237L72 237L72 231L71 231ZM71 237L71 236L62 236L62 237L62 238L71 238L71 237ZM62 237L63 237L63 231L62 231L61 231L61 237L62 237ZM62 231L62 232L71 232L71 231L71 230L62 230L62 231ZM67 15L66 15L66 41L67 41L68 41L68 15L67 15ZM67 41L67 42L71 42L71 41L71 40L67 40L67 41ZM71 41L70 41L70 61L71 61L72 61L72 41L71 41ZM71 61L71 60L67 60L67 61L67 62L71 62L71 61ZM67 61L66 61L66 65L67 65L68 65L68 61L67 61ZM67 65L67 66L71 66L71 65L71 64L67 64L67 65ZM71 65L70 65L70 70L71 70L72 70L72 65L71 65ZM71 70L71 69L67 69L67 70L67 71L71 71L71 70ZM67 70L66 70L66 86L67 86L68 86L68 70L67 70ZM67 86L67 87L71 87L71 86L71 85L67 85L67 86ZM71 86L70 86L70 91L71 91L72 91L72 86L71 86ZM71 91L71 90L67 90L67 91L67 92L71 92L71 91ZM67 91L66 91L66 100L67 100L68 100L68 91L67 91ZM67 100L67 101L71 101L71 100L71 99L67 99L67 100ZM71 100L70 100L70 111L71 111L72 111L72 100L71 100ZM71 111L71 110L67 110L67 111L67 112L71 112L71 111ZM67 111L66 111L66 115L67 115L68 115L68 111L67 111ZM67 115L67 116L71 116L71 115L71 114L67 114L67 115ZM71 115L70 115L70 137L71 137L72 137L72 115L71 115ZM71 137L71 136L67 136L67 137L67 138L71 138L71 137ZM67 137L66 137L66 161L67 161L68 161L68 137L67 137ZM67 161L67 162L71 162L71 161L71 160L67 160L67 161ZM71 161L70 161L70 166L71 166L72 166L72 161L71 161ZM71 166L71 165L67 165L67 166L67 167L71 167L71 166ZM67 166L66 166L66 191L67 191L68 191L68 166L67 166ZM67 191L67 192L71 192L71 191L71 190L67 190L67 191ZM71 191L70 191L70 202L71 202L72 202L72 191L71 191ZM71 202L71 201L67 201L67 202L67 203L71 203L71 202ZM67 202L66 202L66 211L67 211L68 211L68 202L67 202ZM67 211L67 210L62 210L62 211L62 212L67 212L67 211ZM62 211L63 211L63 15L62 15L61 15L61 211L62 211ZM62 15L62 16L67 16L67 15L67 14L62 14L62 15ZM67 -10L68 -10L68 -14L67 -14L66 -14L66 -10L67 -10ZM67 -14L67 -15L62 -15L62 -14L62 -13L67 -13L67 -14ZM62 -14L63 -14L63 -25L62 -25L61 -25L61 -14L62 -14ZM62 -25L62 -24L67 -24L67 -25L67 -26L62 -26L62 -25ZM67 -25L68 -25L68 -40L67 -40L66 -40L66 -25L67 -25ZM67 -40L67 -41L62 -41L62 -40L62 -39L67 -39L67 -40ZM62 -40L63 -40L63 -60L62 -60L61 -60L61 -40L62 -40ZM62 -60L62 -59L67 -59L67 -60L67 -61L62 -61L62 -60ZM67 -60L68 -60L68 -86L67 -86L66 -86L66 -60L67 -60ZM67 -86L67 -85L71 -85L71 -86L71 -87L67 -87L67 -86ZM71 -86L70 -86L70 11L71 11L72 11L72 -86L71 -86ZM71 11L71 10L67 10L67 11L67 12L71 12L71 11ZM67 11L68 11L68 1L67 1L66 1L66 11L67 11ZM67 1L67 7.98967e-07L62 7.39343e-07L62 1L62 2L67 2L67 1ZM62 1L63 1L63 -10L62 -10L61 -10L61 1L62 1ZM62 -10L62 -9L67 -9L67 -10L67 -11L62 -11L62 -10ZM71 -110L70 -110L70 -105L71 -105L72 -105L72 -110L71 -110ZM71 -105L71 -106L67 -106L67 -105L67 -104L71 -104L71 -105ZM67 -105L68 -105L68 -110L67 -110L66 -110L66 -105L67 -105ZM67 -110L67 -109L71 -109L71 -110L71 -111L67 -111L67 -110ZM59 15L58 15L58 36L59 36L60 36L60 15L59 15ZM59 36L59 35L55 35L55 36L55 37L59 37L59 36ZM55 36L54 36L54 40L55 40L56 40L56 36L55 36ZM55 40L55 41L59 41L59 40L59 39L55 39L55 40ZM59 40L58 40L58 61L59 61L60 61L60 40L59 40ZM59 61L59 60L55 60L55 61L55 62L59 62L59 61ZM55 61L54 61L54 65L55 65L56 65L56 61L55 61ZM55 65L55 66L59 66L59 65L59 64L55 64L55 65ZM59 65L58 65L58 86L59 86L60 86L60 65L59 65ZM59 86L59 85L55 85L55 86L55 87L59 87L59 86ZM55 86L54 86L54 90L55 90L56 90L56 86L55 86ZM55 90L55 91L59 91L59 90L59 89L55 89L55 90ZM59 90L58 90L58 111L59 111L60 111L60 90L59 90ZM59 111L59 110L55 110L55 111L55 112L59 112L59 111ZM55 111L54 111L54 115L55 115L56 115L56 111L55 111ZM55 115L55 116L59 116L59 115L59 114L55 114L55 115ZM59 115L58 115L58 136L59 136L60 136L60 115L59 115ZM59 136L59 135L55 135L55 136L55 137L59 137L59 136ZM55 136L54 136L54 141L55 141L56 141L56 136L55 136ZM55 141L55 142L59 142L59 141L59 140L55 140L55 141ZM59 141L58 141L58 162L59 162L60 162L60 141L59 141ZM59 162L59 161L55 161L55 162L55 163L59 163L59 162ZM55 162L54 162L54 166L55 166L56 166L56 162L55 162ZM55 166L55 167L59 167L59 166L59 165L55 165L55 166ZM59 166L58 166L58 187L59 187L60 187L60 166L59 166ZM59 187L59 186L55 186L55 187L55 188L59 188L59 187ZM55 187L54 187L54 191L55 191L56 191L56 187L55 187ZM55 191L55 192L59 192L59 191L59 190L55 190L55 191ZM59 191L58 191L58 212L59 212L60 212L60 191L59 191ZM59 212L59 211L55 211L55 212L55 213L59 213L59 212ZM55 212L54 212L54 216L55 216L56 216L56 212L55 212ZM55 216L55 217L59 217L59 216L59 215L55 215L55 216ZM59 216L58 216L58 237L59 237L60 237L60 216L59 216ZM59 237L59 236L55 236L55 237L55 238L59 238L59 237ZM55 237L54 237L54 241L55 241L56 241L56 237L55 237ZM55 241L55 242L59 242L59 241L59 240L55 240L55 241ZM59 241L58 241L58 262L59 262L60 262L60 241L59 241ZM59 262L59 261L55 261L55 262L55 263L59 263L59 262ZM55 262L54 262L54 287L55 287L56 287L56 262L55 262ZM55 287L55 286L50 286L50 287L50 288L55 288L55 287ZM50 287L51 287L51 15L50 15L49 15L49 287L50 287ZM50 15L50 16L59 16L59 15L59 14L50 14L50 15ZM59 -10L58 -10L58 11L59 11L60 11L60 -10L59 -10ZM59 11L59 10L49 10L49 11L49 12L59 12L59 11ZM49 11L50 11L50 -10L49 -10L48 -10L48 11L49 11ZM49 -10L49 -9L59 -9L59 -10L59 -11L49 -11L49 -10ZM59 -35L58 -35L58 -14L59 -14L60 -14L60 -35L59 -35ZM59 -14L59 -15L49 -15L49 -14L49 -13L59 -13L59 -14ZM49 -14L50 -14L50 -35L49 -35L48 -35L48 -14L49 -14ZM49 -35L49 -34L59 -34L59 -35L59 -36L49 -36L49 -35ZM59 -61L58 -61L58 -40L59 -40L60 -40L60 -61L59 -61ZM59 -40L59 -41L49 -41L49 -40L49 -39L59 -39L59 -40ZM49 -40L50 -40L50 -61L49 -61L48 -61L48 -40L49 -40ZM49 -61L49 -60L59 -60L59 -61L59 -62L49 -62L49 -61ZM59 -86L58 -86L58 -65L59 -65L60 -65L60 -86L59 -86ZM59 -65L59 -66L49 -66L49 -65L49 -64L59 -64L59 -65ZM49 -65L50 -65L50 -86L49 -86L48 -86L48 -65L49 -65ZM49 -86L49 -85L59 -85L59 -86L59 -87L49 -87L49 -86ZM59 -110L58 -110L58 -105L59 -105L60 -105L60 -110L59 -110ZM59 -105L59 -106L50 -106L50 -105L50 -104L59 -104L59 -105ZM50 -105L51 -105L51 -110L50 -110L49 -110L49 -105L50 -105ZM50 -110L50 -109L59 -109L59 -110L59 -111L50 -111L50 -110ZM47 165L46 165L46 187L47 187L48 187L48 165L47 165ZM47 187L47 186L37 186L37 187L37 188L47 188L47 187ZM37 187L38 187L38 165L37 165L36 165L36 187L37 187ZM37 165L37 166L47 166L47 165L47 164L37 164L37 165ZM41 90L42 90L42 65L41 65L40 65L40 90L41 90ZM41 65L41 66L47 66L47 65L47 64L41 64L41 65ZM47 65L46 65L46 136L47 136L48 136L48 65L47 65ZM47 136L47 135L41 135L41 136L41 137L47 137L47 136ZM41 136L42 136L42 111L41 111L40 111L40 136L41 136ZM41 111L41 110L37 110L37 111L37 112L41 112L41 111ZM37 111L38 111L38 90L37 90L36 90L36 111L37 111ZM37 90L37 91L41 91L41 90L41 89L37 89L37 90ZM47 40L46 40L46 61L47 61L48 61L48 40L47 40ZM47 61L47 60L37 60L37 61L37 62L47 62L47 61ZM37 61L38 61L38 40L37 40L36 40L36 61L37 61ZM37 40L37 41L47 41L47 40L47 39L37 39L37 40ZM47 15L46 15L46 36L47 36L48 36L48 15L47 15ZM47 36L47 35L37 35L37 36L37 37L47 37L47 36ZM37 36L38 36L38 15L37 15L36 15L36 36L37 36ZM37 15L37 16L47 16L47 15L47 14L37 14L37 15ZM47 -10L46 -10L46 11L47 11L48 11L48 -10L47 -10ZM47 11L47 10L37 10L37 11L37 12L47 12L47 11ZM37 11L38 11L38 -10L37 -10L36 -10L36 11L37 11ZM37 -10L37 -9L47 -9L47 -10L47 -11L37 -11L37 -10ZM47 -86L46 -86L46 -65L47 -65L48 -65L48 -86L47 -86ZM47 -65L47 -66L37 -66L37 -65L37 -64L47 -64L47 -65ZM37 -65L38 -65L38 -86L37 -86L36 -86L36 -65L37 -65ZM37 -86L37 -85L47 -85L47 -86L47 -87L37 -87L37 -86ZM47 -101L46 -101L46 -90L47 -90L48 -90L48 -101L47 -101ZM47 -90L47 -91L37 -91L37 -90L37 -89L47 -89L47 -90ZM37 -90L38 -90L38 -101L37 -101L36 -101L36 -90L37 -90ZM37 -101L37 -100L47 -100L47 -101L47 -102L37 -102L37 -101ZM46 291L45 291L45 302L46 302L47 302L47 291L46 291ZM46 302L46 301L42 301L42 302L42 303L46 303L46 302ZM42 302L43 302L43 291L42 291L41 291L41 302L42 302ZM42 291L42 292L46 292L46 291L46 290L42 290L42 291ZM46 276L45 276L45 287L46 287L47 287L47 276L46 276ZM46 287L46 286L42 286L42 287L42 288L46 288L46 287ZM42 287L43 287L43 276L42 276L41 276L41 287L42 287ZM42 276L42 277L46 277L46 276L46 275L42 275L42 276ZM46 156L45 156L45 161L46 161L47 161L47 156L46 156ZM46 161L46 160L42 160L42 161L42 162L46 162L46 161ZM42 161L43 161L43 156L42 156L41 156L41 161L42 161ZM42 156L42 157L46 157L46 156L46 155L42 155L42 156ZM46 146L45 146L45 151L46 151L47 151L47 146L46 146ZM46 151L46 150L42 150L42 151L42 152L46 152L46 151ZM42 151L43 151L43 146L42 146L41 146L41 151L42 151ZM42 146L42 147L46 147L46 146L46 145L42 145L42 146ZM46 -20L45 -20L45 -15L46 -15L47 -15L47 -20L46 -20ZM46 -15L46 -16L37 -16L37 -15L37 -14L46 -14L46 -15ZM37 -15L38 -15L38 -20L37 -20L36 -20L36 -15L37 -15ZM37 -20L37 -19L46 -19L46 -20L46 -21L37 -21L37 -20ZM46 -30L45 -30L45 -25L46 -25L47 -25L47 -30L46 -30ZM46 -25L46 -26L37 -26L37 -25L37 -24L46 -24L46 -25ZM37 -25L38 -25L38 -30L37 -30L36 -30L36 -25L37 -25ZM37 -30L37 -29L46 -29L46 -30L46 -31L37 -31L37 -30ZM46 -40L45 -40L45 -35L46 -35L47 -35L47 -40L46 -40ZM46 -35L46 -36L37 -36L37 -35L37 -34L46 -34L46 -35ZM37 -35L38 -35L38 -40L37 -40L36 -40L36 -35L37 -35ZM37 -40L37 -39L46 -39L46 -40L46 -41L37 -41L37 -40ZM46 -49L45 -49L45 -44L46 -44L47 -44L47 -49L46 -49ZM46 -44L46 -45L37 -45L37 -44L37 -43L46 -43L46 -44ZM37 -44L38 -44L38 -49L37 -49L36 -49L36 -44L37 -44ZM37 -49L37 -48L46 -48L46 -49L46 -50L37 -50L37 -49ZM42 326L41 326L41 337L42 337L43 337L43 326L42 326ZM42 337L42 336L38 336L38 337L38 338L42 338L42 337ZM38 337L39 337L39 326L38 326L37 326L37 337L38 337ZM38 326L38 327L42 327L42 326L42 325L38 325L38 326ZM34 -10L33 -10L33 11L34 11L35 11L35 -10L34 -10ZM34 11L34 10L24 10L24 11L24 12L34 12L34 11ZM24 11L25 11L25 -10L24 -10L23 -10L23 11L24 11ZM24 -10L24 -9L34 -9L34 -10L34 -11L24 -11L24 -10ZM34 -35L33 -35L33 -14L34 -14L35 -14L35 -35L34 -35ZM34 -14L34 -15L24 -15L24 -14L24 -13L34 -13L34 -14ZM24 -14L25 -14L25 -35L24 -35L23 -35L23 -14L24 -14ZM24 -35L24 -34L34 -34L34 -35L34 -36L24 -36L24 -35ZM34 -61L33 -61L33 -40L34 -40L35 -40L35 -61L34 -61ZM34 -40L34 -41L24 -41L24 -40L24 -39L34 -39L34 -40ZM24 -40L25 -40L25 -61L24 -61L23 -61L23 -40L24 -40ZM24 -61L24 -60L34 -60L34 -61L34 -62L24 -62L24 -61ZM34 -86L33 -86L33 -65L34 -65L35 -65L35 -86L34 -86ZM34 -65L34 -66L24 -66L24 -65L24 -64L34 -64L34 -65ZM24 -65L25 -65L25 -86L24 -86L23 -86L23 -65L24 -65ZM24 -86L24 -85L34 -85L34 -86L34 -87L24 -87L24 -86ZM33 65L32 65L32 86L33 86L34 86L34 65L33 65ZM33 86L33 85L25 85L25 86L25 87L33 87L33 86ZM25 86L26 86L26 65L25 65L24 65L24 86L25 86ZM25 65L25 66L33 66L33 65L33 64L25 64L25 65ZM33 40L32 40L32 61L33 61L34 61L34 40L33 40ZM33 61L33 60L25 60L25 61L25 62L33 62L33 61ZM25 61L26 61L26 40L25 40L24 40L24 61L25 61ZM25 40L25 41L33 41L33 40L33 39L25 39L25 40ZM33 15L32 15L32 36L33 36L34 36L34 15L33 15ZM33 36L33 35L25 35L25 36L25 37L33 37L33 36ZM25 36L26 36L26 15L25 15L24 15L24 36L25 36ZM25 15L25 16L33 16L33 15L33 14L25 14L25 15ZM33 -110L32 -110L32 -89L33 -89L34 -89L34 -110L33 -110ZM33 -89L33 -90L29 -90L29 -89L29 -88L33 -88L33 -89ZM29 -89L30 -89L30 -110L29 -110L28 -110L28 -89L29 -89ZM29 -110L29 -109L33 -109L33 -110L33 -111L29 -111L29 -110ZM29 326L28 326L28 337L29 337L30 337L30 326L29 326ZM29 337L29 336L25 336L25 337L25 338L29 338L29 337ZM25 337L26 337L26 326L25 326L24 326L24 337L25 337ZM25 326L25 327L29 327L29 326L29 325L25 325L25 326ZM29 126L28 126L28 137L29 137L30 137L30 126L29 126ZM29 137L29 136L25 136L25 137L25 138L29 138L29 137ZM25 137L26 137L26 126L25 126L24 126L24 137L25 137ZM25 126L25 127L29 127L29 126L29 125L25 125L25 126ZM29 91L28 91L28 102L29 102L30 102L30 91L29 91ZM29 102L29 101L25 101L25 102L25 103L29 103L29 102ZM25 102L26 102L26 91L25 91L24 91L24 102L25 102ZM25 91L25 92L29 92L29 91L29 90L25 90L25 91ZM21 65L20 65L20 86L21 86L22 86L22 65L21 65ZM21 86L21 85L17 85L17 86L17 87L21 87L21 86ZM17 86L16 86L16 111L17 111L18 111L18 86L17 86ZM17 111L17 112L21 112L21 111L21 110L17 110L17 111ZM21 111L20 111L20 116L21 116L22 116L22 111L21 111ZM21 116L21 115L17 115L17 116L17 117L21 117L21 116ZM17 116L16 116L16 146L17 146L18 146L18 116L17 116ZM17 146L17 147L21 147L21 146L21 145L17 145L17 146ZM21 146L20 146L20 151L21 151L22 151L22 146L21 146ZM21 151L21 150L17 150L17 151L17 152L21 152L21 151ZM17 151L16 151L16 156L17 156L18 156L18 151L17 151ZM17 156L17 157L21 157L21 156L21 155L17 155L17 156ZM21 156L20 156L20 161L21 161L22 161L22 156L21 156ZM21 161L21 160L17 160L17 161L17 162L21 162L21 161ZM17 161L16 161L16 166L17 166L18 166L18 161L17 161ZM17 166L17 167L21 167L21 166L21 165L17 165L17 166ZM21 166L20 166L20 187L21 187L22 187L22 166L21 166ZM21 187L21 186L17 186L17 187L17 188L21 188L21 187ZM17 187L16 187L16 191L17 191L18 191L18 187L17 187ZM17 191L17 192L21 192L21 191L21 190L17 190L17 191ZM21 191L20 191L20 212L21 212L22 212L22 191L21 191ZM21 212L21 211L17 211L17 212L17 213L21 213L21 212ZM17 212L16 212L16 216L17 216L18 216L18 212L17 212ZM17 216L17 217L21 217L21 216L21 215L17 215L17 216ZM21 216L20 216L20 237L21 237L22 237L22 216L21 216ZM21 237L21 236L17 236L17 237L17 238L21 238L21 237ZM17 237L16 237L16 260L17 260L18 260L18 237L17 237ZM17 260L17 261L21 261L21 260L21 259L17 259L17 260ZM21 260L20 260L20 271L21 271L22 271L22 260L21 260ZM21 271L21 270L17 270L17 271L17 272L21 272L21 271ZM17 271L16 271L16 276L17 276L18 276L18 271L17 271ZM17 276L17 277L21 277L21 276L21 275L17 275L17 276ZM21 276L20 276L20 287L21 287L22 287L22 276L21 276ZM21 287L21 286L17 286L17 287L17 288L21 288L21 287ZM17 287L16 287L16 291L17 291L18 291L18 287L17 287ZM17 291L17 292L21 292L21 291L21 290L17 290L17 291ZM21 291L20 291L20 312L21 312L22 312L22 291L21 291ZM21 312L21 311L17 311L17 312L17 313L21 313L21 312ZM17 312L16 312L16 337L17 337L18 337L18 312L17 312ZM17 337L17 336L12 336L12 337L12 338L17 338L17 337ZM12 337L13 337L13 65L12 65L11 65L11 337L12 337ZM12 65L12 66L21 66L21 65L21 64L12 64L12 65ZM21 5L20 5L20 11L21 11L22 11L22 5L21 5ZM21 11L21 10L12 10L12 11L12 12L21 12L21 11ZM12 11L13 11L13 5L12 5L11 5L11 11L12 11ZM12 5L12 6L21 6L21 5L21 4L12 4L12 5ZM21 -35L20 -35L20 -14L21 -14L22 -14L22 -35L21 -35ZM21 -14L21 -15L12 -15L12 -14L12 -13L21 -13L21 -14ZM12 -14L13 -14L13 -35L12 -35L11 -35L11 -14L12 -14ZM12 -35L12 -34L21 -34L21 -35L21 -36L12 -36L12 -35ZM21 -61L20 -61L20 -40L21 -40L22 -40L22 -61L21 -61ZM21 -40L21 -41L12 -41L12 -40L12 -39L21 -39L21 -40ZM12 -40L13 -40L13 -61L12 -61L11 -61L11 -40L12 -40ZM12 -61L12 -60L21 -60L21 -61L21 -62L12 -62L12 -61ZM21 -86L20 -86L20 -65L21 -65L22 -65L22 -86L21 -86ZM21 -65L21 -66L12 -66L12 -65L12 -64L21 -64L21 -65ZM12 -65L13 -65L13 -86L12 -86L11 -86L11 -65L12 -65ZM12 -86L12 -85L21 -85L21 -86L21 -87L12 -87L12 -86ZM17 15L16 15L16 61L17 61L18 61L18 15L17 15ZM17 61L17 60L12 60L12 61L12 62L17 62L17 61ZM12 61L13 61L13 15L12 15L11 15L11 61L12 61ZM12 15L12 16L17 16L17 15L17 14L12 14L12 15ZM16 -110L15 -110L15 -99L16 -99L17 -99L17 -110L16 -110ZM16 -99L16 -100L12 -100L12 -99L12 -98L16 -98L16 -99ZM12 -99L13 -99L13 -110L12 -110L11 -110L11 -99L12 -99ZM12 -110L12 -109L16 -109L16 -110L16 -111L12 -111L12 -110ZM4 267L5 267L5 262L4 262L3 262L3 267L4 267ZM4 262L4 261L9.06292e-07 261L8.94367e-07 262L8.82442e-07 263L4 263L4 262ZM8.94367e-07 262L1 262L1 241L1.14479e-06 241L-0.999999 241L-0.999999 262L8.94367e-07 262ZM1.14479e-06 241L1.13286e-06 242L4 242L4 241L4 240L1.15671e-06 240L1.14479e-06 241ZM4 241L5 241L5 202L4 202L3 202L3 241L4 241ZM4 202L4 201L1.62178e-06 201L1.60986e-06 202L1.59793e-06 203L4 203L4 202ZM1.60986e-06 202L1 202L1 191L1.74103e-06 191L-0.999998 191L-0.999998 202L1.60986e-06 202ZM1.74103e-06 191L1.72911e-06 192L4 192L4 191L4 190L1.75296e-06 190L1.74103e-06 191ZM4 191L5 191L5 187L4 187L3 187L3 191L4 191ZM4 187L4 186L1.80066e-06 186L1.78873e-06 187L1.77681e-06 188L4 188L4 187ZM1.78873e-06 187L1 187L1 176L1.91991e-06 176L-0.999998 176L-0.999998 187L1.78873e-06 187ZM1.91991e-06 176L1.90798e-06 177L4 177L4 176L4 175L1.93183e-06 175L1.91991e-06 176ZM4 176L5 176L5 161L4 161L3 161L3 176L4 176ZM4 161L4 160L2.1107e-06 160L2.09878e-06 161L2.08686e-06 162L4 162L4 161ZM2.09878e-06 161L1 161L1 115L2.64732e-06 115L-0.999997 115L-0.999998 161L2.09878e-06 161ZM2.64732e-06 115L2.6354e-06 116L9 116L9 115L9 114L2.65925e-06 114L2.64732e-06 115ZM9 115L8 115L8 337L9 337L10 337L10 115L9 115ZM9 337L9 336L4 336L4 337L4 338L9 338L9 337ZM4 337L5 337L5 287L4 287L3 287L3 337L4 337ZM4 287L4 286L6.08169e-07 286L5.96244e-07 287L5.84319e-07 288L4 288L4 287ZM5.96244e-07 287L1 287L1 267L8.34742e-07 267L-0.999999 267L-0.999999 287L5.96244e-07 287ZM8.34742e-07 267L8.22817e-07 268L4 268L4 267L4 266L8.46667e-07 266L8.34742e-07 267ZM9 91L8 91L8 111L9 111L10 111L10 91L9 91ZM9 111L9 110L4 110L4 111L4 112L9 112L9 111ZM4 111L5 111L5 91L4 91L3 91L3 111L4 111ZM4 91L4 92L9 92L9 91L9 90L4 90L4 91ZM4 -10L5 -10L5 -55L4 -55L3 -55L3 -10L4 -10ZM4 -55L4 -56L4.68648e-06 -56L4.67455e-06 -55L4.66263e-06 -54L4 -54L4 -55ZM4.67455e-06 -55L1 -55L1 -60L4.73418e-06 -60L-0.999995 -60L-0.999995 -55L4.67455e-06 -55ZM4.73418e-06 -60L4.72225e-06 -59L4 -59L4 -60L4 -61L4.7461e-06 -61L4.73418e-06 -60ZM4 -60L5 -60L5 -65L4 -65L3 -65L3 -60L4 -60ZM4 -65L4 -66L4.80573e-06 -66L4.7938e-06 -65L4.78188e-06 -64L4 -64L4 -65ZM4.7938e-06 -65L1 -65L1 -70L4.85343e-06 -70L-0.999995 -70L-0.999995 -65L4.7938e-06 -65ZM4.85343e-06 -70L4.8415e-06 -69L4 -69L4 -70L4 -71L4.86535e-06 -71L4.85343e-06 -70ZM4 -70L5 -70L5.00001 -110L4.00001 -110L3.00001 -110L3 -70L4 -70ZM4.00001 -110L4.00001 -109L9.00001 -109L9.00001 -110L9.00001 -111L4.00001 -111L4.00001 -110ZM9.00001 -110L8.00001 -110L8 11L9 11L10 11L10 -110L9.00001 -110ZM9 11L9 10L3.89944e-06 10L3.88751e-06 11L3.87559e-06 12L9 12L9 11ZM3.88751e-06 11L1 11L1 -10L4.13793e-06 -10L-0.999996 -10L-0.999996 11L3.88751e-06 11ZM4.13793e-06 -10L4.12601e-06 -9L4 -9L4 -10L4 -11L4.14986e-06 -11L4.13793e-06 -10Z" fill="#F2013C" mask="url(#path-1-inside-1_86_5027)"/>
</svg>
