<svg width="10" height="944" viewBox="0 0 10 944" fill="none" xmlns="http://www.w3.org/2000/svg">
<g opacity="0.25">
<rect y="944" width="944" height="3" transform="rotate(-90 0 944)" fill="black"/>
<rect x="7" y="926.667" width="22.6667" height="3" transform="rotate(-90 7 926.667)" fill="black"/>
<rect x="7" y="894.667" width="97.3333" height="3" transform="rotate(-90 7 894.667)" fill="black"/>
<rect x="7" y="329.333" width="253.333" height="3" transform="rotate(-90 7 329.333)" fill="black"/>
<rect x="7" y="777.333" width="20" height="3" transform="rotate(-90 7 777.333)" fill="black"/>
<rect x="7" y="742.667" width="20" height="3" transform="rotate(-90 7 742.667)" fill="black"/>
<rect x="7" y="709.333" width="20" height="3" transform="rotate(-90 7 709.333)" fill="black"/>
<rect x="7" y="674.667" width="20" height="3" transform="rotate(-90 7 674.667)" fill="black"/>
<rect x="7" y="581.333" width="5.33333" height="3" transform="rotate(-90 7 581.333)" fill="black"/>
<rect x="7" y="568" width="5.33333" height="3" transform="rotate(-90 7 568)" fill="black"/>
<rect x="7" y="533.333" width="5.33333" height="3" transform="rotate(-90 7 533.333)" fill="black"/>
<rect x="7" y="500" width="5.33333" height="3" transform="rotate(-90 7 500)" fill="black"/>
<rect x="7" y="8" width="5.33333" height="3" transform="rotate(-90 7 8)" fill="black"/>
<rect x="7" y="465.333" width="5.33333" height="3" transform="rotate(-90 7 465.333)" fill="black"/>
<rect x="7" y="432" width="5.33333" height="3" transform="rotate(-90 7 432)" fill="black"/>
<rect x="7" y="397.333" width="5.33333" height="3" transform="rotate(-90 7 397.333)" fill="black"/>
<rect x="7" y="364" width="5.33333" height="3" transform="rotate(-90 7 364)" fill="black"/>
</g>
</svg>
