<svg width="402" height="70" viewBox="0 0 402 70" fill="none" xmlns="http://www.w3.org/2000/svg">
<path d="M3.12234 5.835H0.906635V3.61929L1.65192 0.900011H3.02163V1.40358L1.71235 3.61929H3.12234V5.835ZM6.3452 5.835H4.12949V3.61929L4.87477 0.900011H6.24448V1.40358L4.9352 3.61929H6.3452V5.835Z" fill="black"/>
<path d="M12.657 7.64786L19.5458 15H17.1488L10.5823 7.97014V15H8.76942V0.900011H10.5823V7.527L16.7057 0.900011H18.9415L12.657 7.64786Z" fill="black"/>
<path d="M23.5053 13.6706L26.3857 4.92858H28.0979L23.3039 19.0286H21.6925L23.0622 15H22.196L18.6307 4.92858H20.4235L23.4046 13.6706H23.5053Z" fill="black"/>
<path d="M33.3895 15.2014C32.4495 15.2014 31.6169 14.9798 30.8917 14.5367C30.18 14.0936 29.6227 13.4758 29.2199 12.6836C28.817 11.8913 28.6156 10.9849 28.6156 9.96428C28.6156 8.94371 28.817 8.03728 29.2199 7.245C29.6227 6.45272 30.18 5.835 30.8917 5.39186C31.6169 4.94872 32.4495 4.72715 33.3895 4.72715C34.3294 4.72715 35.162 4.94872 35.8872 5.39186C36.6123 5.835 37.1763 6.45272 37.5792 7.245C37.982 8.03728 38.1834 8.94371 38.1834 9.96428C38.1834 10.9849 37.982 11.8913 37.5792 12.6836C37.1763 13.4758 36.6123 14.0936 35.8872 14.5367C35.162 14.9798 34.3294 15.2014 33.3895 15.2014ZM33.3895 13.6907C34.3563 13.6907 35.1083 13.3617 35.6454 12.7037C36.196 12.0323 36.4713 11.1191 36.4713 9.96428C36.4713 8.80943 36.196 7.903 35.6454 7.245C35.1083 6.57357 34.3563 6.23786 33.3895 6.23786C32.436 6.23786 31.684 6.57357 31.1335 7.245C30.5963 7.903 30.3277 8.80943 30.3277 9.96428C30.3277 11.1191 30.5963 12.0323 31.1335 12.7037C31.684 13.3617 32.436 13.6907 33.3895 13.6907Z" fill="black"/>
<path d="M43.2223 15.2014C42.2017 15.2014 41.3893 14.8523 40.785 14.154C40.1942 13.4423 39.8987 12.4821 39.8987 11.2736V4.92858H41.6109V11.0721C41.6109 11.9047 41.7922 12.5493 42.1547 13.0058C42.5307 13.4624 43.0544 13.6907 43.7259 13.6907C44.2496 13.6907 44.7263 13.5564 45.156 13.2878C45.5857 13.0058 45.9214 12.6298 46.1631 12.1598C46.4183 11.6764 46.5459 11.146 46.5459 10.5686V4.92858H48.258V15H46.6466V13.1871H46.5459C45.673 14.53 44.5651 15.2014 43.2223 15.2014Z" fill="black"/>
<path d="M54.3668 9.68228L59.3421 15H57.1062L52.4935 9.98442V15H50.7814V0.900011H52.4935V9.54128L56.7638 4.92858H58.8385L54.3668 9.68228Z" fill="black"/>
<path d="M68.9241 13.6907V15H68.2191C67.6685 15 67.2455 14.8523 66.9501 14.5568C66.6546 14.2614 66.5069 13.8384 66.5069 13.2878V13.0864H66.4062C66.0034 13.7847 65.4864 14.3151 64.8552 14.6777C64.2375 15.0268 63.5594 15.2014 62.8208 15.2014C61.8808 15.2014 61.1019 14.9328 60.4842 14.3957C59.8665 13.8586 59.5577 13.1334 59.5577 12.2203C59.5577 11.2534 59.9135 10.4679 60.6252 9.86357C61.3369 9.25928 62.2568 8.95714 63.3848 8.95714H66.2048V8.55428C66.2048 7.80228 66.0168 7.23157 65.6408 6.84214C65.2648 6.43929 64.7008 6.23786 63.9488 6.23786C63.2908 6.23786 62.7402 6.38557 62.2971 6.681C61.8674 6.97643 61.5652 7.41957 61.3906 8.01043L59.8598 7.74857C60.1284 6.822 60.6051 6.09015 61.2899 5.553C61.9748 5.00243 62.8611 4.72715 63.9488 4.72715C65.2111 4.72715 66.1846 5.07629 66.8695 5.77457C67.5678 6.47286 67.9169 7.39943 67.9169 8.55428V12.9857C67.9169 13.2274 67.9639 13.4087 68.0579 13.5296C68.1519 13.637 68.3064 13.6907 68.5212 13.6907H68.9241ZM63.0826 13.6907C63.6601 13.6907 64.1838 13.5631 64.6538 13.308C65.1372 13.0528 65.5132 12.6903 65.7818 12.2203C66.0638 11.7368 66.2048 11.1863 66.2048 10.5686V10.3671H63.4855C62.8275 10.3671 62.2904 10.5216 61.8741 10.8304C61.4712 11.1259 61.2698 11.5556 61.2698 12.1196C61.2698 12.6164 61.4309 13.0058 61.7532 13.2878C62.0755 13.5564 62.5186 13.6907 63.0826 13.6907Z" fill="black"/>
<path d="M79.0191 15.2014C77.5688 15.2014 76.3535 14.8456 75.3732 14.1338C74.3929 13.4221 73.7282 12.4016 73.3791 11.0721L74.9905 10.7901C75.5814 12.6567 76.9242 13.59 79.0191 13.59C80.0128 13.59 80.7782 13.3818 81.3154 12.9656C81.8659 12.5493 82.1412 11.9181 82.1412 11.0721C82.1412 10.5216 81.9868 10.0851 81.6779 9.76285C81.3691 9.44057 80.9796 9.19885 80.5096 9.03771C80.0531 8.86314 79.4219 8.67514 78.6162 8.47371C77.6494 8.24543 76.8638 8.01043 76.2595 7.76871C75.6552 7.51357 75.1382 7.13086 74.7085 6.62057C74.2922 6.09686 74.0841 5.38515 74.0841 4.48543C74.0841 3.70658 74.2855 3.03515 74.6884 2.47115C75.1047 1.89372 75.6687 1.4573 76.3804 1.16187C77.1055 0.853012 77.9179 0.698583 78.8176 0.698583C80.1471 0.698583 81.2482 1.02758 82.1211 1.68558C82.9939 2.34358 83.5714 3.25672 83.8534 4.425L82.2419 4.707C81.8256 3.10901 80.6842 2.31001 78.8176 2.31001C77.9448 2.31001 77.2398 2.49129 76.7027 2.85386C76.1655 3.21644 75.8969 3.76029 75.8969 4.48543C75.8969 5.02258 76.0514 5.45229 76.3602 5.77457C76.6691 6.09686 77.0518 6.33857 77.5084 6.49972C77.9649 6.66086 78.5894 6.84214 79.3816 7.04357C80.3619 7.28529 81.1542 7.527 81.7585 7.76871C82.3628 8.01043 82.8798 8.39986 83.3095 8.937C83.7392 9.46071 83.9541 10.1724 83.9541 11.0721C83.9541 12.3747 83.5109 13.3886 82.6246 14.1137C81.7518 14.8388 80.5499 15.2014 79.0191 15.2014Z" fill="black"/>
<path d="M88.9961 15.2014C87.9755 15.2014 87.1631 14.8523 86.5588 14.154C85.9679 13.4423 85.6725 12.4821 85.6725 11.2736V4.92858H87.3846V11.0721C87.3846 11.9047 87.5659 12.5493 87.9285 13.0058C88.3045 13.4624 88.8282 13.6907 89.4996 13.6907C90.0233 13.6907 90.5001 13.5564 90.9298 13.2878C91.3595 13.0058 91.6952 12.6298 91.9369 12.1598C92.1921 11.6764 92.3196 11.146 92.3196 10.5686V4.92858H94.0318V15H92.4203V13.1871H92.3196C91.4468 14.53 90.3389 15.2014 88.9961 15.2014Z" fill="black"/>
<path d="M98.227 15H96.5551V4.92858H98.227V15ZM98.2471 3.11572H96.535V1.30287H98.2471V3.11572Z" fill="black"/>
<path d="M104.872 19.0286C103.65 19.0286 102.629 18.7398 101.81 18.1624C101.004 17.5984 100.481 16.8128 100.239 15.8057L101.75 15.5438C101.924 16.175 102.28 16.6584 102.817 16.9941C103.354 17.3433 104.039 17.5178 104.872 17.5178C105.906 17.5178 106.665 17.2426 107.148 16.692C107.645 16.1548 107.893 15.3223 107.893 14.1943V12.885H107.793C107.443 13.4758 106.973 13.9458 106.383 14.295C105.805 14.6307 105.154 14.7986 104.429 14.7986C103.596 14.7986 102.851 14.5837 102.193 14.154C101.548 13.7108 101.045 13.1066 100.682 12.3411C100.32 11.5757 100.138 10.7163 100.138 9.76285C100.138 8.80943 100.32 7.95 100.682 7.18457C101.045 6.41914 101.548 5.82157 102.193 5.39186C102.851 4.94872 103.596 4.72715 104.429 4.72715C105.154 4.72715 105.812 4.90172 106.403 5.25086C106.994 5.58657 107.49 6.08343 107.893 6.74143H107.994V4.92858H109.605V14.1943C109.605 15.7117 109.189 16.8934 108.357 17.7394C107.524 18.5988 106.362 19.0286 104.872 19.0286ZM104.771 13.2878C105.698 13.2878 106.45 12.9656 107.027 12.321C107.605 11.663 107.893 10.8103 107.893 9.76285C107.893 8.71543 107.605 7.86943 107.027 7.22486C106.45 6.56686 105.698 6.23786 104.771 6.23786C103.871 6.23786 103.16 6.55343 102.636 7.18457C102.112 7.81571 101.85 8.67514 101.85 9.76285C101.85 10.8506 102.112 11.71 102.636 12.3411C103.16 12.9723 103.871 13.2878 104.771 13.2878Z" fill="black"/>
<path d="M120.776 9.66214C120.776 9.91728 120.749 10.1859 120.696 10.4679H113.142C113.223 11.4884 113.531 12.2807 114.069 12.8447C114.619 13.4087 115.344 13.6907 116.244 13.6907C116.862 13.6907 117.406 13.5564 117.876 13.2878C118.346 13.0193 118.701 12.6298 118.943 12.1196L120.474 12.3814C120.152 13.2677 119.615 13.9593 118.863 14.4561C118.111 14.953 117.238 15.2014 116.244 15.2014C115.291 15.2014 114.445 14.9798 113.706 14.5367C112.981 14.0936 112.417 13.4758 112.014 12.6836C111.611 11.8913 111.41 10.9849 111.41 9.96428C111.41 8.94371 111.604 8.03728 111.994 7.245C112.397 6.45272 112.954 5.835 113.666 5.39186C114.391 4.94872 115.217 4.72715 116.143 4.72715C117.043 4.72715 117.842 4.93529 118.54 5.35157C119.252 5.76786 119.803 6.352 120.192 7.104C120.581 7.856 120.776 8.70871 120.776 9.66214ZM116.143 6.23786C115.338 6.23786 114.673 6.48629 114.149 6.98314C113.639 7.48 113.317 8.17157 113.182 9.05785H119.124C119.017 8.185 118.695 7.50014 118.158 7.00329C117.634 6.493 116.962 6.23786 116.143 6.23786Z" fill="black"/>
<path d="M125.724 15C124.112 15 123.307 14.1271 123.307 12.3814V6.33857H121.292V4.92858H123.307L124.112 2.20929H125.019V4.92858H127.939V6.33857H125.019V12.3814C125.019 12.7708 125.099 13.0528 125.26 13.2274C125.422 13.402 125.677 13.4893 126.026 13.4893H128.04V15H125.724Z" fill="black"/>
<path d="M133.083 15.2014C131.941 15.2014 131.001 14.9261 130.263 14.3756C129.524 13.825 129.021 13.0596 128.752 12.0793L130.283 11.8174C130.444 12.462 130.766 12.9387 131.25 13.2476C131.747 13.543 132.358 13.6907 133.083 13.6907C133.754 13.6907 134.291 13.5698 134.694 13.3281C135.097 13.073 135.299 12.6903 135.299 12.18C135.299 11.8308 135.184 11.5556 134.956 11.3541C134.741 11.1393 134.466 10.9781 134.13 10.8707C133.808 10.7633 133.358 10.6559 132.781 10.5484C132.042 10.4007 131.438 10.2463 130.968 10.0851C130.498 9.91057 130.095 9.62857 129.759 9.23914C129.424 8.84971 129.256 8.30586 129.256 7.60757C129.256 6.74814 129.605 6.05657 130.303 5.53286C131.015 4.99572 131.894 4.72715 132.942 4.72715C133.989 4.72715 134.855 4.98229 135.54 5.49257C136.225 6.00286 136.682 6.72129 136.91 7.64786L135.399 7.90971C135.278 7.35914 135.003 6.94286 134.573 6.66086C134.144 6.37886 133.6 6.23786 132.942 6.23786C132.364 6.23786 131.888 6.352 131.512 6.58029C131.149 6.79514 130.968 7.13757 130.968 7.60757C130.968 8.091 131.169 8.44014 131.572 8.655C131.988 8.85643 132.613 9.031 133.445 9.17871C134.211 9.33985 134.829 9.50771 135.299 9.68228C135.769 9.84342 136.171 10.1254 136.507 10.5283C136.843 10.9177 137.011 11.4683 137.011 12.18C137.011 13.1066 136.648 13.8451 135.923 14.3957C135.211 14.9328 134.265 15.2014 133.083 15.2014Z" fill="black"/>
<path d="M141.95 15.2014C140.929 15.2014 140.117 14.8523 139.512 14.154C138.922 13.4423 138.626 12.4821 138.626 11.2736V4.92858H140.338V11.0721C140.338 11.9047 140.52 12.5493 140.882 13.0058C141.258 13.4624 141.782 13.6907 142.453 13.6907C142.977 13.6907 143.454 13.5564 143.883 13.2878C144.313 13.0058 144.649 12.6298 144.891 12.1598C145.146 11.6764 145.273 11.146 145.273 10.5686V4.92858H146.985V15H145.374V13.1871H145.273C144.4 14.53 143.293 15.2014 141.95 15.2014Z" fill="black"/>
<path d="M150.576 5.835H149.207V5.33143L150.516 3.11572H149.106V0.900011H151.322V3.11572L150.576 5.835ZM153.799 5.835H152.429V5.33143L153.739 3.11572H152.329V0.900011H154.544V3.11572L153.799 5.835Z" fill="black"/>
<path d="M165.378 19.4314C164.277 18.2766 163.39 16.833 162.719 15.1007C162.047 13.3684 161.712 11.5891 161.712 9.76285C161.712 7.93657 162.047 6.15729 162.719 4.425C163.39 2.69272 164.277 1.24915 165.378 0.0942993L166.546 0.940298C165.539 2.20258 164.78 3.55215 164.27 4.989C163.773 6.41243 163.525 8.00371 163.525 9.76285C163.525 11.522 163.773 13.12 164.27 14.5568C164.78 15.9803 165.539 17.3231 166.546 18.5854L165.378 19.4314Z" fill="black"/>
<path d="M170.131 15H168.358V0.900011H170.977L175.609 13.026H175.71L180.343 0.900011H182.861V15H181.088V3.43801H180.988L176.556 15H174.663L170.231 3.43801H170.131V15Z" fill="black"/>
<path d="M187.355 15H185.683V4.92858H187.355V15ZM187.375 3.11572H185.663V1.30287H187.375V3.11572Z" fill="black"/>
<path d="M189.871 15V4.92858H191.482V6.74143H191.583C191.999 6.13715 192.449 5.68729 192.932 5.39186C193.416 5.083 193.973 4.92858 194.604 4.92858H195.41V6.47957H194.504C193.59 6.47957 192.872 6.75486 192.348 7.30543C191.838 7.84257 191.583 8.561 191.583 9.46071V15H189.871Z" fill="black"/>
<path d="M196.716 15V4.92858H198.328V6.74143H198.428C198.845 6.13715 199.294 5.68729 199.778 5.39186C200.261 5.083 200.819 4.92858 201.45 4.92858H202.255V6.47957H201.349C200.436 6.47957 199.717 6.75486 199.194 7.30543C198.683 7.84257 198.428 8.561 198.428 9.46071V15H196.716Z" fill="black"/>
<path d="M207.534 15.2014C206.594 15.2014 205.762 14.9798 205.037 14.5367C204.325 14.0936 203.768 13.4758 203.365 12.6836C202.962 11.8913 202.761 10.9849 202.761 9.96428C202.761 8.94371 202.962 8.03728 203.365 7.245C203.768 6.45272 204.325 5.835 205.037 5.39186C205.762 4.94872 206.594 4.72715 207.534 4.72715C208.474 4.72715 209.307 4.94872 210.032 5.39186C210.757 5.835 211.321 6.45272 211.724 7.245C212.127 8.03728 212.328 8.94371 212.328 9.96428C212.328 10.9849 212.127 11.8913 211.724 12.6836C211.321 13.4758 210.757 14.0936 210.032 14.5367C209.307 14.9798 208.474 15.2014 207.534 15.2014ZM207.534 13.6907C208.501 13.6907 209.253 13.3617 209.79 12.7037C210.341 12.0323 210.616 11.1191 210.616 9.96428C210.616 8.80943 210.341 7.903 209.79 7.245C209.253 6.57357 208.501 6.23786 207.534 6.23786C206.581 6.23786 205.829 6.57357 205.278 7.245C204.741 7.903 204.473 8.80943 204.473 9.96428C204.473 11.1191 204.741 12.0323 205.278 12.7037C205.829 13.3617 206.581 13.6907 207.534 13.6907Z" fill="black"/>
<path d="M214.144 15V4.92858H215.756V6.74143H215.856C216.273 6.13715 216.723 5.68729 217.206 5.39186C217.689 5.083 218.247 4.92858 218.878 4.92858H219.684V6.47957H218.777C217.864 6.47957 217.146 6.75486 216.622 7.30543C216.112 7.84257 215.856 8.561 215.856 9.46071V15H214.144Z" fill="black"/>
<path d="M234.001 0.900011V2.51144H227.354V7.14429H233.396V8.75571H227.354V15H225.541V0.900011H234.001Z" fill="black"/>
<path d="M237.733 15H236.021V0.900011H237.733V15Z" fill="black"/>
<path d="M244.417 15.2014C243.477 15.2014 242.644 14.9798 241.919 14.5367C241.208 14.0936 240.65 13.4758 240.247 12.6836C239.845 11.8913 239.643 10.9849 239.643 9.96428C239.643 8.94371 239.845 8.03728 240.247 7.245C240.65 6.45272 241.208 5.835 241.919 5.39186C242.644 4.94872 243.477 4.72715 244.417 4.72715C245.357 4.72715 246.19 4.94872 246.915 5.39186C247.64 5.835 248.204 6.45272 248.607 7.245C249.01 8.03728 249.211 8.94371 249.211 9.96428C249.211 10.9849 249.01 11.8913 248.607 12.6836C248.204 13.4758 247.64 14.0936 246.915 14.5367C246.19 14.9798 245.357 15.2014 244.417 15.2014ZM244.417 13.6907C245.384 13.6907 246.136 13.3617 246.673 12.7037C247.224 12.0323 247.499 11.1191 247.499 9.96428C247.499 8.80943 247.224 7.903 246.673 7.245C246.136 6.57357 245.384 6.23786 244.417 6.23786C243.464 6.23786 242.712 6.57357 242.161 7.245C241.624 7.903 241.355 8.80943 241.355 9.96428C241.355 11.1191 241.624 12.0323 242.161 12.7037C242.712 13.3617 243.464 13.6907 244.417 13.6907Z" fill="black"/>
<path d="M254.798 15H252.563L249.823 4.92858H251.555L253.65 13.2476H253.751L255.926 4.92858H258.102L260.277 13.2476H260.378L262.473 4.92858H264.125L261.385 15H259.21L257.054 6.74143H256.954L254.798 15Z" fill="black"/>
<path d="M274.109 9.66214C274.109 9.91728 274.082 10.1859 274.029 10.4679H266.475C266.556 11.4884 266.865 12.2807 267.402 12.8447C267.952 13.4087 268.678 13.6907 269.577 13.6907C270.195 13.6907 270.739 13.5564 271.209 13.2878C271.679 13.0193 272.035 12.6298 272.276 12.1196L273.807 12.3814C273.485 13.2677 272.948 13.9593 272.196 14.4561C271.444 14.953 270.571 15.2014 269.577 15.2014C268.624 15.2014 267.778 14.9798 267.039 14.5367C266.314 14.0936 265.75 13.4758 265.347 12.6836C264.944 11.8913 264.743 10.9849 264.743 9.96428C264.743 8.94371 264.938 8.03728 265.327 7.245C265.73 6.45272 266.287 5.835 266.999 5.39186C267.724 4.94872 268.55 4.72715 269.477 4.72715C270.376 4.72715 271.175 4.93529 271.874 5.35157C272.585 5.76786 273.136 6.352 273.525 7.104C273.915 7.856 274.109 8.70871 274.109 9.66214ZM269.477 6.23786C268.671 6.23786 268.006 6.48629 267.482 6.98314C266.972 7.48 266.65 8.17157 266.516 9.05785H272.458C272.35 8.185 272.028 7.50014 271.491 7.00329C270.967 6.493 270.296 6.23786 269.477 6.23786Z" fill="black"/>
<path d="M275.93 15V4.92858H277.542V6.74143H277.642C278.059 6.13715 278.508 5.68729 278.992 5.39186C279.475 5.083 280.033 4.92858 280.664 4.92858H281.469V6.47957H280.563C279.65 6.47957 278.931 6.75486 278.408 7.30543C277.897 7.84257 277.642 8.561 277.642 9.46071V15H275.93Z" fill="black"/>
<path d="M282.744 17.7193H281.374V17.2157L282.683 15H281.273V12.7843H283.489V15L282.744 17.7193Z" fill="black"/>
<path d="M295.034 15H292.576L288.951 0.900011H290.763L293.785 13.1066H293.886L297.108 0.900011H299.385L302.607 13.1066H302.708L305.73 0.900011H307.482L303.856 15H301.419L298.277 3.05529H298.176L295.034 15Z" fill="black"/>
<path d="M316.952 13.6907V15H316.247C315.697 15 315.274 14.8523 314.978 14.5568C314.683 14.2614 314.535 13.8384 314.535 13.2878V13.0864H314.434C314.032 13.7847 313.515 14.3151 312.883 14.6777C312.266 15.0268 311.587 15.2014 310.849 15.2014C309.909 15.2014 309.13 14.9328 308.512 14.3957C307.895 13.8586 307.586 13.1334 307.586 12.2203C307.586 11.2534 307.942 10.4679 308.653 9.86357C309.365 9.25928 310.285 8.95714 311.413 8.95714H314.233V8.55428C314.233 7.80228 314.045 7.23157 313.669 6.84214C313.293 6.43929 312.729 6.23786 311.977 6.23786C311.319 6.23786 310.768 6.38557 310.325 6.681C309.895 6.97643 309.593 7.41957 309.419 8.01043L307.888 7.74857C308.157 6.822 308.633 6.09015 309.318 5.553C310.003 5.00243 310.889 4.72715 311.977 4.72715C313.239 4.72715 314.213 5.07629 314.898 5.77457C315.596 6.47286 315.945 7.39943 315.945 8.55428V12.9857C315.945 13.2274 315.992 13.4087 316.086 13.5296C316.18 13.637 316.334 13.6907 316.549 13.6907H316.952ZM311.111 13.6907C311.688 13.6907 312.212 13.5631 312.682 13.308C313.165 13.0528 313.541 12.6903 313.81 12.2203C314.092 11.7368 314.233 11.1863 314.233 10.5686V10.3671H311.514C310.856 10.3671 310.319 10.5216 309.902 10.8304C309.499 11.1259 309.298 11.5556 309.298 12.1196C309.298 12.6164 309.459 13.0058 309.781 13.2878C310.104 13.5564 310.547 13.6907 311.111 13.6907Z" fill="black"/>
<path d="M321.585 15C319.974 15 319.168 14.1271 319.168 12.3814V6.33857H317.154V4.92858H319.168L319.974 2.20929H320.88V4.92858H323.801V6.33857H320.88V12.3814C320.88 12.7708 320.961 13.0528 321.122 13.2274C321.283 13.402 321.538 13.4893 321.887 13.4893H323.901V15H321.585Z" fill="black"/>
<path d="M334.085 9.66214C334.085 9.91728 334.059 10.1859 334.005 10.4679H326.451C326.532 11.4884 326.841 12.2807 327.378 12.8447C327.928 13.4087 328.654 13.6907 329.553 13.6907C330.171 13.6907 330.715 13.5564 331.185 13.2878C331.655 13.0193 332.011 12.6298 332.252 12.1196L333.783 12.3814C333.461 13.2677 332.924 13.9593 332.172 14.4561C331.42 14.953 330.547 15.2014 329.553 15.2014C328.6 15.2014 327.754 14.9798 327.015 14.5367C326.29 14.0936 325.726 13.4758 325.323 12.6836C324.92 11.8913 324.719 10.9849 324.719 9.96428C324.719 8.94371 324.914 8.03728 325.303 7.245C325.706 6.45272 326.263 5.835 326.975 5.39186C327.7 4.94872 328.526 4.72715 329.453 4.72715C330.352 4.72715 331.151 4.93529 331.85 5.35157C332.561 5.76786 333.112 6.352 333.501 7.104C333.891 7.856 334.085 8.70871 334.085 9.66214ZM329.453 6.23786C328.647 6.23786 327.982 6.48629 327.458 6.98314C326.948 7.48 326.626 8.17157 326.492 9.05785H332.434C332.326 8.185 332.004 7.50014 331.467 7.00329C330.943 6.493 330.272 6.23786 329.453 6.23786Z" fill="black"/>
<path d="M335.906 15V4.92858H337.518V6.74143H337.618C338.035 6.13715 338.484 5.68729 338.968 5.39186C339.451 5.083 340.009 4.92858 340.64 4.92858H341.445V6.47957H340.539C339.626 6.47957 338.907 6.75486 338.384 7.30543C337.873 7.84257 337.618 8.561 337.618 9.46071V15H335.906Z" fill="black"/>
<path d="M349.075 15H347.303V0.900011H349.921L354.554 13.026H354.655L359.288 0.900011H361.805V15H360.033V3.43801H359.932L355.501 15H353.607L349.176 3.43801H349.075V15Z" fill="black"/>
<path d="M368.697 15.2014C367.757 15.2014 366.924 14.9798 366.199 14.5367C365.487 14.0936 364.93 13.4758 364.527 12.6836C364.124 11.8913 363.923 10.9849 363.923 9.96428C363.923 8.94371 364.124 8.03728 364.527 7.245C364.93 6.45272 365.487 5.835 366.199 5.39186C366.924 4.94872 367.757 4.72715 368.697 4.72715C369.637 4.72715 370.469 4.94872 371.194 5.39186C371.919 5.835 372.483 6.45272 372.886 7.245C373.289 8.03728 373.491 8.94371 373.491 9.96428C373.491 10.9849 373.289 11.8913 372.886 12.6836C372.483 13.4758 371.919 14.0936 371.194 14.5367C370.469 14.9798 369.637 15.2014 368.697 15.2014ZM368.697 13.6907C369.663 13.6907 370.415 13.3617 370.953 12.7037C371.503 12.0323 371.778 11.1191 371.778 9.96428C371.778 8.80943 371.503 7.903 370.953 7.245C370.415 6.57357 369.663 6.23786 368.697 6.23786C367.743 6.23786 366.991 6.57357 366.441 7.245C365.903 7.903 365.635 8.80943 365.635 9.96428C365.635 11.1191 365.903 12.0323 366.441 12.7037C366.991 13.3617 367.743 13.6907 368.697 13.6907Z" fill="black"/>
<path d="M379.476 15.2014C378.536 15.2014 377.704 14.9798 376.978 14.5367C376.267 14.0936 375.709 13.4758 375.307 12.6836C374.904 11.8913 374.702 10.9849 374.702 9.96428C374.702 8.94371 374.904 8.03728 375.307 7.245C375.709 6.45272 376.267 5.835 376.978 5.39186C377.704 4.94872 378.536 4.72715 379.476 4.72715C380.416 4.72715 381.249 4.94872 381.974 5.39186C382.699 5.835 383.263 6.45272 383.666 7.245C384.069 8.03728 384.27 8.94371 384.27 9.96428C384.27 10.9849 384.069 11.8913 383.666 12.6836C383.263 13.4758 382.699 14.0936 381.974 14.5367C381.249 14.9798 380.416 15.2014 379.476 15.2014ZM379.476 13.6907C380.443 13.6907 381.195 13.3617 381.732 12.7037C382.283 12.0323 382.558 11.1191 382.558 9.96428C382.558 8.80943 382.283 7.903 381.732 7.245C381.195 6.57357 380.443 6.23786 379.476 6.23786C378.523 6.23786 377.771 6.57357 377.22 7.245C376.683 7.903 376.414 8.80943 376.414 9.96428C376.414 11.1191 376.683 12.0323 377.22 12.7037C377.771 13.3617 378.523 13.6907 379.476 13.6907Z" fill="black"/>
<path d="M386.086 15V4.92858H387.698V6.74143H387.798C388.671 5.39857 389.799 4.72715 391.182 4.72715C392.216 4.72715 393.035 5.083 393.64 5.79472C394.244 6.493 394.546 7.44643 394.546 8.655V15H392.834V8.85643C392.834 8.02386 392.646 7.37929 392.27 6.92272C391.894 6.46614 391.364 6.23786 390.679 6.23786C390.142 6.23786 389.651 6.37886 389.208 6.66086C388.765 6.92943 388.416 7.30543 388.161 7.78886C387.919 8.25886 387.798 8.78257 387.798 9.36V15H386.086Z" fill="black"/>
<path d="M395.959 18.5854C396.966 17.3231 397.718 15.9803 398.215 14.5568C398.726 13.12 398.981 11.522 398.981 9.76285C398.981 8.00371 398.726 6.41243 398.215 4.989C397.718 3.55215 396.966 2.20258 395.959 0.940298L397.128 0.0942993C398.229 1.24915 399.115 2.69272 399.786 4.425C400.458 6.15729 400.794 7.93657 400.794 9.76285C400.794 11.5891 400.458 13.3684 399.786 15.1007C399.115 16.833 398.229 18.2766 397.128 19.4314L395.959 18.5854Z" fill="black"/>
<path d="M2.98134 40H1.30949V29.9286H2.98134V40ZM3.00149 28.1157H1.28935V26.3029H3.00149V28.1157Z" fill="black"/>
<path d="M8.92127 40.2014C7.77985 40.2014 6.83985 39.9261 6.10128 39.3756C5.36271 38.825 4.85914 38.0596 4.59057 37.0793L6.12142 36.8174C6.28256 37.462 6.60485 37.9387 7.08828 38.2476C7.58513 38.543 8.19613 38.6907 8.92127 38.6907C9.5927 38.6907 10.1298 38.5698 10.5327 38.3281C10.9356 38.073 11.137 37.6903 11.137 37.18C11.137 36.8309 11.0228 36.5556 10.7946 36.3541C10.5797 36.1393 10.3044 35.9781 9.9687 35.8707C9.64642 35.7633 9.19656 35.6559 8.61913 35.5484C7.88056 35.4007 7.27628 35.2463 6.80628 35.0851C6.33628 34.9106 5.93342 34.6286 5.59771 34.2391C5.26199 33.8497 5.09414 33.3059 5.09414 32.6076C5.09414 31.7481 5.44328 31.0566 6.14156 30.5329C6.85328 29.9957 7.73285 29.7271 8.78027 29.7271C9.8277 29.7271 10.6938 29.9823 11.3787 30.4926C12.0636 31.0029 12.5201 31.7213 12.7484 32.6479L11.2377 32.9097C11.1168 32.3591 10.8416 31.9429 10.4118 31.6609C9.98213 31.3789 9.43827 31.2379 8.78027 31.2379C8.20285 31.2379 7.72613 31.352 7.35013 31.5803C6.98756 31.7951 6.80628 32.1376 6.80628 32.6076C6.80628 33.091 7.00771 33.4401 7.41056 33.655C7.82685 33.8564 8.45127 34.031 9.28384 34.1787C10.0493 34.3399 10.667 34.5077 11.137 34.6823C11.607 34.8434 12.0098 35.1254 12.3456 35.5283C12.6813 35.9177 12.8491 36.4683 12.8491 37.18C12.8491 38.1066 12.4866 38.8451 11.7614 39.3957C11.0497 39.9328 10.103 40.2014 8.92127 40.2014Z" fill="black"/>
<path d="M27.5762 38.6907V40H26.8712C26.3206 40 25.8976 39.8523 25.6022 39.5568C25.3068 39.2614 25.1591 38.8384 25.1591 38.2878V38.0864H25.0583C24.6555 38.7847 24.1385 39.3151 23.5074 39.6777C22.8896 40.0268 22.2115 40.2014 21.4729 40.2014C20.5329 40.2014 19.7541 39.9328 19.1364 39.3957C18.5186 38.8586 18.2098 38.1334 18.2098 37.2203C18.2098 36.2534 18.5656 35.4679 19.2774 34.8636C19.9891 34.2593 20.9089 33.9571 22.0369 33.9571H24.8569V33.5543C24.8569 32.8023 24.6689 32.2316 24.2929 31.8421C23.9169 31.4393 23.3529 31.2379 22.6009 31.2379C21.9429 31.2379 21.3924 31.3856 20.9492 31.681C20.5195 31.9764 20.2174 32.4196 20.0428 33.0104L18.5119 32.7486C18.7805 31.822 19.2572 31.0901 19.9421 30.553C20.6269 30.0024 21.5132 29.7271 22.6009 29.7271C23.8632 29.7271 24.8368 30.0763 25.5216 30.7746C26.2199 31.4729 26.5691 32.3994 26.5691 33.5543V37.9857C26.5691 38.2274 26.6161 38.4087 26.7101 38.5296C26.8041 38.637 26.9585 38.6907 27.1733 38.6907H27.5762ZM21.7348 38.6907C22.3122 38.6907 22.8359 38.5631 23.3059 38.308C23.7894 38.0528 24.1654 37.6903 24.4339 37.2203C24.7159 36.7368 24.8569 36.1863 24.8569 35.5686V35.3671H22.1376C21.4796 35.3671 20.9425 35.5216 20.5262 35.8304C20.1234 36.1258 19.9219 36.5556 19.9219 37.1196C19.9219 37.6164 20.0831 38.0058 20.4054 38.2878C20.7276 38.5564 21.1708 38.6907 21.7348 38.6907Z" fill="black"/>
<path d="M35.9994 40.141C34.8714 40.141 33.9314 39.812 33.1794 39.154C32.4274 38.4826 31.9439 37.556 31.7291 36.3743L33.3405 36.0923C33.4882 36.8846 33.7837 37.4888 34.2268 37.9051C34.6699 38.3214 35.2608 38.5296 35.9994 38.5296C36.7245 38.5296 37.2684 38.3013 37.6309 37.8447C37.9935 37.3881 38.1748 36.6966 38.1748 35.77V25.9H39.9876V35.77C39.9876 37.1397 39.6318 38.214 38.9201 38.9928C38.2218 39.7583 37.2482 40.141 35.9994 40.141Z" fill="black"/>
<path d="M51.3778 38.6907V40H50.6728C50.1222 40 49.6992 39.8523 49.4038 39.5568C49.1084 39.2614 48.9606 38.8384 48.9606 38.2878V38.0864H48.8599C48.4571 38.7847 47.9401 39.3151 47.3089 39.6777C46.6912 40.0268 46.0131 40.2014 45.2745 40.2014C44.3345 40.2014 43.5556 39.9328 42.9379 39.3957C42.3202 38.8586 42.0114 38.1334 42.0114 37.2203C42.0114 36.2534 42.3672 35.4679 43.0789 34.8636C43.7906 34.2593 44.7105 33.9571 45.8385 33.9571H48.6585V33.5543C48.6585 32.8023 48.4705 32.2316 48.0945 31.8421C47.7185 31.4393 47.1545 31.2379 46.4025 31.2379C45.7445 31.2379 45.1939 31.3856 44.7508 31.681C44.3211 31.9764 44.0189 32.4196 43.8444 33.0104L42.3135 32.7486C42.5821 31.822 43.0588 31.0901 43.7436 30.553C44.4285 30.0024 45.3148 29.7271 46.4025 29.7271C47.6648 29.7271 48.6384 30.0763 49.3232 30.7746C50.0215 31.4729 50.3706 32.3994 50.3706 33.5543V37.9857C50.3706 38.2274 50.4176 38.4087 50.5116 38.5296C50.6056 38.637 50.7601 38.6907 50.9749 38.6907H51.3778ZM45.5364 38.6907C46.1138 38.6907 46.6375 38.5631 47.1075 38.308C47.5909 38.0528 47.9669 37.6903 48.2355 37.2203C48.5175 36.7368 48.6585 36.1863 48.6585 35.5686V35.3671H45.9392C45.2812 35.3671 44.7441 35.5216 44.3278 35.8304C43.9249 36.1258 43.7235 36.5556 43.7235 37.1196C43.7235 37.6164 43.8846 38.0058 44.2069 38.2878C44.5292 38.5564 44.9724 38.6907 45.5364 38.6907Z" fill="black"/>
<path d="M52.8838 44.0285V29.9286H54.4952V31.7414H54.5959C54.9988 31.0834 55.5023 30.5866 56.1066 30.2509C56.7109 29.9017 57.3823 29.7271 58.1209 29.7271C58.9669 29.7271 59.7189 29.9487 60.3769 30.3919C61.0349 30.835 61.5452 31.4527 61.9077 32.245C62.2703 33.0373 62.4516 33.9437 62.4516 34.9643C62.4516 35.9849 62.2703 36.8913 61.9077 37.6836C61.5452 38.4758 61.0349 39.0936 60.3769 39.5367C59.7189 39.9798 58.9669 40.2014 58.1209 40.2014C57.3823 40.2014 56.7109 40.0336 56.1066 39.6978C55.5158 39.3621 55.0458 38.8921 54.6966 38.2878H54.5959V44.0285H52.8838ZM57.7785 38.6907C58.705 38.6907 59.4302 38.3617 59.9539 37.7037C60.4776 37.0457 60.7395 36.1326 60.7395 34.9643C60.7395 33.796 60.4776 32.8829 59.9539 32.2249C59.4302 31.5669 58.705 31.2379 57.7785 31.2379C56.825 31.2379 56.0529 31.5803 55.462 32.2651C54.8846 32.9366 54.5959 33.8363 54.5959 34.9643C54.5959 36.0923 54.8846 36.9987 55.462 37.6836C56.0529 38.355 56.825 38.6907 57.7785 38.6907Z" fill="black"/>
<path d="M73.0352 38.6907V40H72.3302C71.7797 40 71.3567 39.8523 71.0612 39.5568C70.7658 39.2614 70.6181 38.8384 70.6181 38.2878V38.0864H70.5174C70.1145 38.7847 69.5975 39.3151 68.9664 39.6777C68.3487 40.0268 67.6705 40.2014 66.932 40.2014C65.992 40.2014 65.2131 39.9328 64.5954 39.3957C63.9777 38.8586 63.6688 38.1334 63.6688 37.2203C63.6688 36.2534 64.0247 35.4679 64.7364 34.8636C65.4481 34.2593 66.368 33.9571 67.496 33.9571H70.316V33.5543C70.316 32.8023 70.128 32.2316 69.752 31.8421C69.376 31.4393 68.812 31.2379 68.06 31.2379C67.402 31.2379 66.8514 31.3856 66.4083 31.681C65.9785 31.9764 65.6764 32.4196 65.5018 33.0104L63.971 32.7486C64.2395 31.822 64.7163 31.0901 65.4011 30.553C66.086 30.0024 66.9723 29.7271 68.06 29.7271C69.3223 29.7271 70.2958 30.0763 70.9807 30.7746C71.679 31.4729 72.0281 32.3994 72.0281 33.5543V37.9857C72.0281 38.2274 72.0751 38.4087 72.1691 38.5296C72.2631 38.637 72.4175 38.6907 72.6324 38.6907H73.0352ZM67.1938 38.6907C67.7713 38.6907 68.295 38.5631 68.765 38.308C69.2484 38.0528 69.6244 37.6903 69.893 37.2203C70.175 36.7368 70.316 36.1863 70.316 35.5686V35.3671H67.5967C66.9387 35.3671 66.4015 35.5216 65.9853 35.8304C65.5824 36.1258 65.381 36.5556 65.381 37.1196C65.381 37.6164 65.5421 38.0058 65.8644 38.2878C66.1867 38.5564 66.6298 38.6907 67.1938 38.6907Z" fill="black"/>
<path d="M74.5412 40V29.9286H76.1527V31.7414H76.2534C77.1262 30.3986 78.2542 29.7271 79.6374 29.7271C80.6714 29.7271 81.4905 30.083 82.0948 30.7947C82.6991 31.493 83.0012 32.4464 83.0012 33.655V40H81.2891V33.8564C81.2891 33.0239 81.1011 32.3793 80.7251 31.9227C80.3491 31.4661 79.8187 31.2379 79.1338 31.2379C78.5967 31.2379 78.1065 31.3789 77.6634 31.6609C77.2202 31.9294 76.8711 32.3054 76.6159 32.7889C76.3742 33.2589 76.2534 33.7826 76.2534 34.36V40H74.5412Z" fill="black"/>
<path d="M94.0829 34.6621C94.0829 34.9173 94.0561 35.1859 94.0023 35.4679H86.4488C86.5294 36.4884 86.8382 37.2807 87.3754 37.8447C87.9259 38.4087 88.6511 38.6907 89.5508 38.6907C90.1685 38.6907 90.7124 38.5564 91.1824 38.2878C91.6523 38.0193 92.0082 37.6298 92.2499 37.1196L93.7808 37.3814C93.4585 38.2677 92.9213 38.9593 92.1693 39.4561C91.4174 39.953 90.5445 40.2014 89.5508 40.2014C88.5974 40.2014 87.7514 39.9798 87.0128 39.5367C86.2876 39.0936 85.7236 38.4758 85.3208 37.6836C84.9179 36.8913 84.7165 35.9849 84.7165 34.9643C84.7165 33.9437 84.9112 33.0373 85.3007 32.245C85.7035 31.4527 86.2608 30.835 86.9725 30.3919C87.6976 29.9487 88.5235 29.7271 89.4501 29.7271C90.3498 29.7271 91.1488 29.9353 91.8471 30.3516C92.5588 30.7679 93.1094 31.352 93.4988 32.104C93.8882 32.856 94.0829 33.7087 94.0829 34.6621ZM89.4501 31.2379C88.6444 31.2379 87.9796 31.4863 87.4559 31.9831C86.9456 32.48 86.6234 33.1716 86.4891 34.0579H92.4312C92.3238 33.185 92.0015 32.5001 91.4644 32.0033C90.9406 31.493 90.2692 31.2379 89.4501 31.2379Z" fill="black"/>
<path d="M99.3279 40.2014C98.1865 40.2014 97.2465 39.9261 96.5079 39.3756C95.7694 38.825 95.2658 38.0596 94.9972 37.0793L96.5281 36.8174C96.6892 37.462 97.0115 37.9387 97.4949 38.2476C97.9918 38.543 98.6028 38.6907 99.3279 38.6907C99.9993 38.6907 100.536 38.5698 100.939 38.3281C101.342 38.073 101.544 37.6903 101.544 37.18C101.544 36.8309 101.429 36.5556 101.201 36.3541C100.986 36.1393 100.711 35.9781 100.375 35.8707C100.053 35.7633 99.6032 35.6559 99.0258 35.5484C98.2872 35.4007 97.6829 35.2463 97.2129 35.0851C96.7429 34.9106 96.3401 34.6286 96.0044 34.2391C95.6686 33.8497 95.5008 33.3059 95.5008 32.6076C95.5008 31.7481 95.8499 31.0566 96.5482 30.5329C97.2599 29.9957 98.1395 29.7271 99.1869 29.7271C100.234 29.7271 101.1 29.9823 101.785 30.4926C102.47 31.0029 102.927 31.7213 103.155 32.6479L101.644 32.9097C101.523 32.3591 101.248 31.9429 100.818 31.6609C100.389 31.3789 99.8449 31.2379 99.1869 31.2379C98.6095 31.2379 98.1328 31.352 97.7568 31.5803C97.3942 31.7951 97.2129 32.1376 97.2129 32.6076C97.2129 33.091 97.4144 33.4401 97.8172 33.655C98.2335 33.8564 98.8579 34.031 99.6905 34.1787C100.456 34.3399 101.074 34.5077 101.544 34.6823C102.014 34.8434 102.416 35.1254 102.752 35.5283C103.088 35.9177 103.256 36.4683 103.256 37.18C103.256 38.1066 102.893 38.8451 102.168 39.3957C101.456 39.9328 100.51 40.2014 99.3279 40.2014Z" fill="black"/>
<path d="M113.734 34.6621C113.734 34.9173 113.707 35.1859 113.653 35.4679H106.1C106.18 36.4884 106.489 37.2807 107.026 37.8447C107.577 38.4087 108.302 38.6907 109.202 38.6907C109.82 38.6907 110.363 38.5564 110.833 38.2878C111.303 38.0193 111.659 37.6298 111.901 37.1196L113.432 37.3814C113.11 38.2677 112.572 38.9593 111.82 39.4561C111.068 39.953 110.196 40.2014 109.202 40.2014C108.248 40.2014 107.402 39.9798 106.664 39.5367C105.939 39.0936 105.375 38.4758 104.972 37.6836C104.569 36.8913 104.368 35.9849 104.368 34.9643C104.368 33.9437 104.562 33.0373 104.952 32.245C105.355 31.4527 105.912 30.835 106.624 30.3919C107.349 29.9487 108.175 29.7271 109.101 29.7271C110.001 29.7271 110.8 29.9353 111.498 30.3516C112.21 30.7679 112.76 31.352 113.15 32.104C113.539 32.856 113.734 33.7087 113.734 34.6621ZM109.101 31.2379C108.295 31.2379 107.631 31.4863 107.107 31.9831C106.597 32.48 106.274 33.1716 106.14 34.0579H112.082C111.975 33.185 111.653 32.5001 111.115 32.0033C110.592 31.493 109.92 31.2379 109.101 31.2379Z" fill="black"/>
<path d="M121.576 40H119.904V29.9286H121.576V40ZM121.596 28.1157H119.884V26.3029H121.596V28.1157Z" fill="black"/>
<path d="M127.818 40.2014C126.972 40.2014 126.22 39.9798 125.562 39.5367C124.904 39.0936 124.394 38.4758 124.031 37.6836C123.669 36.8913 123.487 35.9849 123.487 34.9643C123.487 33.9437 123.669 33.0373 124.031 32.245C124.394 31.4527 124.904 30.835 125.562 30.3919C126.22 29.9487 126.972 29.7271 127.818 29.7271C128.557 29.7271 129.221 29.895 129.812 30.2307C130.417 30.5664 130.893 31.0364 131.242 31.6407H131.343V25.9H133.055V40H131.444V38.1871H131.343C130.94 38.8451 130.437 39.3487 129.832 39.6978C129.228 40.0336 128.557 40.2014 127.818 40.2014ZM128.161 38.6907C129.114 38.6907 129.879 38.355 130.457 37.6836C131.048 36.9987 131.343 36.0923 131.343 34.9643C131.343 33.8363 131.048 32.9366 130.457 32.2651C129.879 31.5803 129.114 31.2379 128.161 31.2379C127.234 31.2379 126.509 31.5669 125.985 32.2249C125.461 32.8829 125.2 33.796 125.2 34.9643C125.2 36.1326 125.461 37.0457 125.985 37.7037C126.509 38.3617 127.234 38.6907 128.161 38.6907Z" fill="black"/>
<path d="M137.352 40H135.68V29.9286H137.352V40ZM137.372 28.1157H135.66V26.3029H137.372V28.1157Z" fill="black"/>
<path d="M144.037 40.2014C143.097 40.2014 142.265 39.9798 141.54 39.5367C140.828 39.0936 140.271 38.4758 139.868 37.6836C139.465 36.8913 139.263 35.9849 139.263 34.9643C139.263 33.9437 139.465 33.0373 139.868 32.245C140.271 31.4527 140.828 30.835 141.54 30.3919C142.265 29.9487 143.097 29.7271 144.037 29.7271C144.977 29.7271 145.81 29.9487 146.535 30.3919C147.26 30.835 147.824 31.4527 148.227 32.245C148.63 33.0373 148.831 33.9437 148.831 34.9643C148.831 35.9849 148.63 36.8913 148.227 37.6836C147.824 38.4758 147.26 39.0936 146.535 39.5367C145.81 39.9798 144.977 40.2014 144.037 40.2014ZM144.037 38.6907C145.004 38.6907 145.756 38.3617 146.293 37.7037C146.844 37.0323 147.119 36.1191 147.119 34.9643C147.119 33.8094 146.844 32.903 146.293 32.245C145.756 31.5736 145.004 31.2379 144.037 31.2379C143.084 31.2379 142.332 31.5736 141.781 32.245C141.244 32.903 140.976 33.8094 140.976 34.9643C140.976 36.1191 141.244 37.0323 141.781 37.7037C142.332 38.3617 143.084 38.6907 144.037 38.6907Z" fill="black"/>
<path d="M150.647 40V29.9286H152.259V31.6407H152.359C152.695 31.0364 153.132 30.5664 153.669 30.2307C154.219 29.895 154.81 29.7271 155.441 29.7271C156.099 29.7271 156.67 29.9151 157.153 30.2911C157.637 30.6537 157.986 31.1707 158.201 31.8421H158.302C159.161 30.4321 160.289 29.7271 161.686 29.7271C162.679 29.7271 163.451 30.0696 164.002 30.7544C164.566 31.4259 164.848 32.3591 164.848 33.5543V40H163.136V33.7557C163.136 32.9231 162.975 32.2987 162.652 31.8824C162.33 31.4527 161.853 31.2379 161.222 31.2379C160.457 31.2379 159.826 31.5266 159.329 32.104C158.845 32.668 158.604 33.3864 158.604 34.2593V40H156.892V33.7557C156.892 32.9231 156.73 32.2987 156.408 31.8824C156.086 31.4527 155.609 31.2379 154.978 31.2379C154.213 31.2379 153.581 31.5266 153.085 32.104C152.601 32.668 152.359 33.3864 152.359 34.2593V40H150.647Z" fill="black"/>
<path d="M171.813 40V29.9286H173.424V31.7414H173.525C173.941 31.1371 174.391 30.6873 174.875 30.3919C175.358 30.083 175.915 29.9286 176.547 29.9286H177.352V31.4796H176.446C175.533 31.4796 174.814 31.7549 174.291 32.3054C173.78 32.8426 173.525 33.561 173.525 34.4607V40H171.813Z" fill="black"/>
<path d="M187.224 34.6621C187.224 34.9173 187.197 35.1859 187.143 35.4679H179.59C179.67 36.4884 179.979 37.2807 180.516 37.8447C181.067 38.4087 181.792 38.6907 182.692 38.6907C183.309 38.6907 183.853 38.5564 184.323 38.2878C184.793 38.0193 185.149 37.6298 185.391 37.1196L186.922 37.3814C186.599 38.2677 186.062 38.9593 185.31 39.4561C184.558 39.953 183.685 40.2014 182.692 40.2014C181.738 40.2014 180.892 39.9798 180.154 39.5367C179.429 39.0936 178.865 38.4758 178.462 37.6836C178.059 36.8913 177.857 35.9849 177.857 34.9643C177.857 33.9437 178.052 33.0373 178.442 32.245C178.844 31.4527 179.402 30.835 180.113 30.3919C180.839 29.9487 181.664 29.7271 182.591 29.7271C183.491 29.7271 184.29 29.9353 184.988 30.3516C185.7 30.7679 186.25 31.352 186.64 32.104C187.029 32.856 187.224 33.7087 187.224 34.6621ZM182.591 31.2379C181.785 31.2379 181.121 31.4863 180.597 31.9831C180.087 32.48 179.764 33.1716 179.63 34.0579H185.572C185.465 33.185 185.142 32.5001 184.605 32.0033C184.082 31.493 183.41 31.2379 182.591 31.2379Z" fill="black"/>
<path d="M192.474 27.31C192.124 27.31 191.869 27.4107 191.708 27.6122C191.547 27.8002 191.466 28.1023 191.466 28.5186V29.9286H194.286V31.3386H191.466V40H189.754V31.3386H187.74V29.9286H189.754V28.5186C189.754 27.6726 189.962 27.028 190.379 26.5849C190.795 26.1283 191.393 25.9 192.171 25.9H194.387V27.31H192.474Z" fill="black"/>
<path d="M204.062 34.6621C204.062 34.9173 204.035 35.1859 203.981 35.4679H196.428C196.508 36.4884 196.817 37.2807 197.354 37.8447C197.905 38.4087 198.63 38.6907 199.53 38.6907C200.147 38.6907 200.691 38.5564 201.161 38.2878C201.631 38.0193 201.987 37.6298 202.229 37.1196L203.76 37.3814C203.437 38.2677 202.9 38.9593 202.148 39.4561C201.396 39.953 200.523 40.2014 199.53 40.2014C198.576 40.2014 197.73 39.9798 196.992 39.5367C196.267 39.0936 195.703 38.4758 195.3 37.6836C194.897 36.8913 194.696 35.9849 194.696 34.9643C194.696 33.9437 194.89 33.0373 195.28 32.245C195.683 31.4527 196.24 30.835 196.952 30.3919C197.677 29.9487 198.503 29.7271 199.429 29.7271C200.329 29.7271 201.128 29.9353 201.826 30.3516C202.538 30.7679 203.088 31.352 203.478 32.104C203.867 32.856 204.062 33.7087 204.062 34.6621ZM199.429 31.2379C198.623 31.2379 197.959 31.4863 197.435 31.9831C196.925 32.48 196.602 33.1716 196.468 34.0579H202.41C202.303 33.185 201.981 32.5001 201.443 32.0033C200.92 31.493 200.248 31.2379 199.429 31.2379Z" fill="black"/>
<path d="M205.883 40V29.9286H207.494V31.7414H207.595C208.011 31.1371 208.461 30.6873 208.944 30.3919C209.428 30.083 209.985 29.9286 210.616 29.9286H211.422V31.4796H210.516C209.602 31.4796 208.884 31.7549 208.36 32.3054C207.85 32.8426 207.595 33.561 207.595 34.4607V40H205.883Z" fill="black"/>
<path d="M212.728 40V29.9286H214.339V31.7414H214.44C214.856 31.1371 215.306 30.6873 215.79 30.3919C216.273 30.083 216.83 29.9286 217.462 29.9286H218.267V31.4796H217.361C216.448 31.4796 215.729 31.7549 215.206 32.3054C214.695 32.8426 214.44 33.561 214.44 34.4607V40H212.728Z" fill="black"/>
<path d="M221.346 40H219.674V29.9286H221.346V40ZM221.366 28.1157H219.654V26.3029H221.366V28.1157Z" fill="black"/>
<path d="M223.862 40V29.9286H225.473V31.7414H225.574C226.447 30.3986 227.575 29.7271 228.958 29.7271C229.992 29.7271 230.811 30.083 231.415 30.7947C232.02 31.493 232.322 32.4464 232.322 33.655V40H230.61V33.8564C230.61 33.0239 230.422 32.3793 230.046 31.9227C229.67 31.4661 229.139 31.2379 228.454 31.2379C227.917 31.2379 227.427 31.3789 226.984 31.6609C226.541 31.9294 226.192 32.3054 225.936 32.7889C225.695 33.2589 225.574 33.7826 225.574 34.36V40H223.862Z" fill="black"/>
<path d="M238.771 44.0285C237.549 44.0285 236.528 43.7398 235.709 43.1624C234.903 42.5984 234.379 41.8128 234.138 40.8057L235.648 40.5438C235.823 41.175 236.179 41.6584 236.716 41.9941C237.253 42.3433 237.938 42.5178 238.771 42.5178C239.805 42.5178 240.563 42.2426 241.047 41.692C241.544 41.1548 241.792 40.3223 241.792 39.1943V37.885H241.691C241.342 38.4758 240.872 38.9458 240.281 39.295C239.704 39.6307 239.053 39.7986 238.327 39.7986C237.495 39.7986 236.75 39.5837 236.092 39.154C235.447 38.7108 234.943 38.1066 234.581 37.3411C234.218 36.5757 234.037 35.7163 234.037 34.7629C234.037 33.8094 234.218 32.95 234.581 32.1846C234.943 31.4191 235.447 30.8216 236.092 30.3919C236.75 29.9487 237.495 29.7271 238.327 29.7271C239.053 29.7271 239.711 29.9017 240.301 30.2509C240.892 30.5866 241.389 31.0834 241.792 31.7414H241.893V29.9286H243.504V39.1943C243.504 40.7117 243.088 41.8934 242.255 42.7394C241.423 43.5988 240.261 44.0285 238.771 44.0285ZM238.67 38.2878C239.596 38.2878 240.348 37.9656 240.926 37.321C241.503 36.663 241.792 35.8103 241.792 34.7629C241.792 33.7154 241.503 32.8694 240.926 32.2249C240.348 31.5669 239.596 31.2379 238.67 31.2379C237.77 31.2379 237.058 31.5534 236.535 32.1846C236.011 32.8157 235.749 33.6751 235.749 34.7629C235.749 35.8506 236.011 36.71 236.535 37.3411C237.058 37.9723 237.77 38.2878 238.67 38.2878Z" fill="black"/>
<path d="M253.485 40C251.874 40 251.068 39.1271 251.068 37.3814V31.3386H249.054V29.9286H251.068L251.874 27.2093H252.78V29.9286H255.701V31.3386H252.78V37.3814C252.78 37.7708 252.861 38.0528 253.022 38.2274C253.183 38.402 253.438 38.4893 253.787 38.4893H255.801V40H253.485Z" fill="black"/>
<path d="M261.393 40.2014C260.453 40.2014 259.62 39.9798 258.895 39.5367C258.183 39.0936 257.626 38.4758 257.223 37.6836C256.82 36.8913 256.619 35.9849 256.619 34.9643C256.619 33.9437 256.82 33.0373 257.223 32.245C257.626 31.4527 258.183 30.835 258.895 30.3919C259.62 29.9487 260.453 29.7271 261.393 29.7271C262.333 29.7271 263.165 29.9487 263.891 30.3919C264.616 30.835 265.18 31.4527 265.583 32.245C265.985 33.0373 266.187 33.9437 266.187 34.9643C266.187 35.9849 265.985 36.8913 265.583 37.6836C265.18 38.4758 264.616 39.0936 263.891 39.5367C263.165 39.9798 262.333 40.2014 261.393 40.2014ZM261.393 38.6907C262.36 38.6907 263.112 38.3617 263.649 37.7037C264.199 37.0323 264.475 36.1191 264.475 34.9643C264.475 33.8094 264.199 32.903 263.649 32.245C263.112 31.5736 262.36 31.2379 261.393 31.2379C260.439 31.2379 259.687 31.5736 259.137 32.245C258.6 32.903 258.331 33.8094 258.331 34.9643C258.331 36.1191 258.6 37.0323 259.137 37.7037C259.687 38.3617 260.439 38.6907 261.393 38.6907Z" fill="black"/>
<path d="M275.283 40.2014C274.141 40.2014 273.201 39.9261 272.463 39.3756C271.724 38.825 271.22 38.0596 270.952 37.0793L272.483 36.8174C272.644 37.462 272.966 37.9387 273.45 38.2476C273.946 38.543 274.557 38.6907 275.283 38.6907C275.954 38.6907 276.491 38.5698 276.894 38.3281C277.297 38.073 277.498 37.6903 277.498 37.18C277.498 36.8309 277.384 36.5556 277.156 36.3541C276.941 36.1393 276.666 35.9781 276.33 35.8707C276.008 35.7633 275.558 35.6559 274.98 35.5484C274.242 35.4007 273.638 35.2463 273.168 35.0851C272.698 34.9106 272.295 34.6286 271.959 34.2391C271.623 33.8497 271.455 33.3059 271.455 32.6076C271.455 31.7481 271.805 31.0566 272.503 30.5329C273.215 29.9957 274.094 29.7271 275.142 29.7271C276.189 29.7271 277.055 29.9823 277.74 30.4926C278.425 31.0029 278.881 31.7213 279.11 32.6479L277.599 32.9097C277.478 32.3591 277.203 31.9429 276.773 31.6609C276.343 31.3789 275.8 31.2379 275.142 31.2379C274.564 31.2379 274.087 31.352 273.711 31.5803C273.349 31.7951 273.168 32.1376 273.168 32.6076C273.168 33.091 273.369 33.4401 273.772 33.655C274.188 33.8564 274.813 34.031 275.645 34.1787C276.411 34.3399 277.028 34.5077 277.498 34.6823C277.968 34.8434 278.371 35.1254 278.707 35.5283C279.043 35.9177 279.21 36.4683 279.21 37.18C279.21 38.1066 278.848 38.8451 278.123 39.3957C277.411 39.9328 276.464 40.2014 275.283 40.2014Z" fill="black"/>
<path d="M285.096 40.2014C284.156 40.2014 283.323 39.9798 282.598 39.5367C281.887 39.0936 281.329 38.4758 280.926 37.6836C280.524 36.8913 280.322 35.9849 280.322 34.9643C280.322 33.9437 280.524 33.0373 280.926 32.245C281.329 31.4527 281.887 30.835 282.598 30.3919C283.323 29.9487 284.156 29.7271 285.096 29.7271C286.036 29.7271 286.869 29.9487 287.594 30.3919C288.319 30.835 288.883 31.4527 289.286 32.245C289.689 33.0373 289.89 33.9437 289.89 34.9643C289.89 35.9849 289.689 36.8913 289.286 37.6836C288.883 38.4758 288.319 39.0936 287.594 39.5367C286.869 39.9798 286.036 40.2014 285.096 40.2014ZM285.096 38.6907C286.063 38.6907 286.815 38.3617 287.352 37.7037C287.903 37.0323 288.178 36.1191 288.178 34.9643C288.178 33.8094 287.903 32.903 287.352 32.245C286.815 31.5736 286.063 31.2379 285.096 31.2379C284.143 31.2379 283.391 31.5736 282.84 32.245C282.303 32.903 282.034 33.8094 282.034 34.9643C282.034 36.1191 282.303 37.0323 282.84 37.7037C283.391 38.3617 284.143 38.6907 285.096 38.6907Z" fill="black"/>
<path d="M291.706 40V29.9286H293.317V31.6407H293.418C293.754 31.0364 294.19 30.5664 294.727 30.2307C295.278 29.895 295.869 29.7271 296.5 29.7271C297.158 29.7271 297.729 29.9151 298.212 30.2911C298.696 30.6537 299.045 31.1707 299.26 31.8421H299.36C300.22 30.4321 301.348 29.7271 302.744 29.7271C303.738 29.7271 304.51 30.0696 305.061 30.7544C305.625 31.4259 305.907 32.3591 305.907 33.5543V40H304.195V33.7557C304.195 32.9231 304.033 32.2987 303.711 31.8824C303.389 31.4527 302.912 31.2379 302.281 31.2379C301.516 31.2379 300.884 31.5266 300.388 32.104C299.904 32.668 299.662 33.3864 299.662 34.2593V40H297.95V33.7557C297.95 32.9231 297.789 32.2987 297.467 31.8824C297.145 31.4527 296.668 31.2379 296.037 31.2379C295.271 31.2379 294.64 31.5266 294.143 32.104C293.66 32.668 293.418 33.3864 293.418 34.2593V40H291.706Z" fill="black"/>
<path d="M316.992 34.6621C316.992 34.9173 316.965 35.1859 316.911 35.4679H309.357C309.438 36.4884 309.747 37.2807 310.284 37.8447C310.835 38.4087 311.56 38.6907 312.459 38.6907C313.077 38.6907 313.621 38.5564 314.091 38.2878C314.561 38.0193 314.917 37.6298 315.159 37.1196L316.689 37.3814C316.367 38.2677 315.83 38.9593 315.078 39.4561C314.326 39.953 313.453 40.2014 312.459 40.2014C311.506 40.2014 310.66 39.9798 309.921 39.5367C309.196 39.0936 308.632 38.4758 308.229 37.6836C307.827 36.8913 307.625 35.9849 307.625 34.9643C307.625 33.9437 307.82 33.0373 308.209 32.245C308.612 31.4527 309.169 30.835 309.881 30.3919C310.606 29.9487 311.432 29.7271 312.359 29.7271C313.258 29.7271 314.057 29.9353 314.756 30.3516C315.467 30.7679 316.018 31.352 316.407 32.104C316.797 32.856 316.992 33.7087 316.992 34.6621ZM312.359 31.2379C311.553 31.2379 310.888 31.4863 310.365 31.9831C309.854 32.48 309.532 33.1716 309.398 34.0579H315.34C315.232 33.185 314.91 32.5001 314.373 32.0033C313.849 31.493 313.178 31.2379 312.359 31.2379Z" fill="black"/>
<path d="M321.939 40C320.328 40 319.522 39.1271 319.522 37.3814V31.3386H317.508V29.9286H319.522L320.328 27.2093H321.234V29.9286H324.155V31.3386H321.234V37.3814C321.234 37.7708 321.315 38.0528 321.476 38.2274C321.637 38.402 321.892 38.4893 322.241 38.4893H324.256V40H321.939Z" fill="black"/>
<path d="M325.975 40V25.9H327.687V31.6407H327.788C328.15 31.0499 328.607 30.5866 329.157 30.2509C329.708 29.9017 330.346 29.7271 331.071 29.7271C332.105 29.7271 332.924 30.083 333.528 30.7947C334.133 31.493 334.435 32.4464 334.435 33.655V40H332.723V33.8564C332.723 33.0239 332.535 32.3793 332.159 31.9227C331.783 31.4661 331.252 31.2379 330.567 31.2379C330.03 31.2379 329.54 31.3789 329.097 31.6609C328.654 31.9294 328.305 32.3054 328.049 32.7889C327.808 33.2589 327.687 33.7826 327.687 34.36V40H325.975Z" fill="black"/>
<path d="M338.525 40H336.853V29.9286H338.525V40ZM338.545 28.1157H336.833V26.3029H338.545V28.1157Z" fill="black"/>
<path d="M341.04 40V29.9286H342.652V31.7414H342.752C343.625 30.3986 344.753 29.7271 346.136 29.7271C347.17 29.7271 347.989 30.083 348.594 30.7947C349.198 31.493 349.5 32.4464 349.5 33.655V40H347.788V33.8564C347.788 33.0239 347.6 32.3793 347.224 31.9227C346.848 31.4661 346.318 31.2379 345.633 31.2379C345.096 31.2379 344.605 31.3789 344.162 31.6609C343.719 31.9294 343.37 32.3054 343.115 32.7889C342.873 33.2589 342.752 33.7826 342.752 34.36V40H341.04Z" fill="black"/>
<path d="M355.949 44.0285C354.727 44.0285 353.706 43.7398 352.887 43.1624C352.082 42.5984 351.558 41.8128 351.316 40.8057L352.827 40.5438C353.001 41.175 353.357 41.6584 353.894 41.9941C354.432 42.3433 355.116 42.5178 355.949 42.5178C356.983 42.5178 357.742 42.2426 358.225 41.692C358.722 41.1548 358.97 40.3223 358.97 39.1943V37.885H358.87C358.521 38.4758 358.051 38.9458 357.46 39.295C356.882 39.6307 356.231 39.7986 355.506 39.7986C354.673 39.7986 353.928 39.5837 353.27 39.154C352.625 38.7108 352.122 38.1066 351.759 37.3411C351.397 36.5757 351.215 35.7163 351.215 34.7629C351.215 33.8094 351.397 32.95 351.759 32.1846C352.122 31.4191 352.625 30.8216 353.27 30.3919C353.928 29.9487 354.673 29.7271 355.506 29.7271C356.231 29.7271 356.889 29.9017 357.48 30.2509C358.071 30.5866 358.568 31.0834 358.97 31.7414H359.071V29.9286H360.683V39.1943C360.683 40.7117 360.266 41.8934 359.434 42.7394C358.601 43.5988 357.44 44.0285 355.949 44.0285ZM355.848 38.2878C356.775 38.2878 357.527 37.9656 358.104 37.321C358.682 36.663 358.97 35.8103 358.97 34.7629C358.97 33.7154 358.682 32.8694 358.104 32.2249C357.527 31.5669 356.775 31.2379 355.848 31.2379C354.949 31.2379 354.237 31.5534 353.713 32.1846C353.189 32.8157 352.928 33.6751 352.928 34.7629C352.928 35.8506 353.189 36.71 353.713 37.3411C354.237 37.9723 354.949 38.2878 355.848 38.2878Z" fill="black"/>
<path d="M370.664 40C369.052 40 368.246 39.1271 368.246 37.3814V31.3386H366.232V29.9286H368.246L369.052 27.2093H369.958V29.9286H372.879V31.3386H369.958V37.3814C369.958 37.7708 370.039 38.0528 370.2 38.2274C370.361 38.402 370.616 38.4893 370.966 38.4893H372.98V40H370.664Z" fill="black"/>
<path d="M374.699 40V25.9H376.411V31.6407H376.512C376.875 31.0499 377.331 30.5866 377.882 30.2509C378.432 29.9017 379.07 29.7271 379.795 29.7271C380.829 29.7271 381.648 30.083 382.253 30.7947C382.857 31.493 383.159 32.4464 383.159 33.655V40H381.447V33.8564C381.447 33.0239 381.259 32.3793 380.883 31.9227C380.507 31.4661 379.977 31.2379 379.292 31.2379C378.755 31.2379 378.264 31.3789 377.821 31.6609C377.378 31.9294 377.029 32.3054 376.774 32.7889C376.532 33.2589 376.411 33.7826 376.411 34.36V40H374.699Z" fill="black"/>
<path d="M394.238 38.6907V40H393.533C392.983 40 392.56 39.8523 392.264 39.5568C391.969 39.2614 391.821 38.8384 391.821 38.2878V38.0864H391.721C391.318 38.7847 390.801 39.3151 390.17 39.6777C389.552 40.0268 388.874 40.2014 388.135 40.2014C387.195 40.2014 386.416 39.9328 385.799 39.3957C385.181 38.8586 384.872 38.1334 384.872 37.2203C384.872 36.2534 385.228 35.4679 385.94 34.8636C386.651 34.2593 387.571 33.9571 388.699 33.9571H391.519V33.5543C391.519 32.8023 391.331 32.2316 390.955 31.8421C390.579 31.4393 390.015 31.2379 389.263 31.2379C388.605 31.2379 388.055 31.3856 387.611 31.681C387.182 31.9764 386.88 32.4196 386.705 33.0104L385.174 32.7486C385.443 31.822 385.919 31.0901 386.604 30.553C387.289 30.0024 388.176 29.7271 389.263 29.7271C390.525 29.7271 391.499 30.0763 392.184 30.7746C392.882 31.4729 393.231 32.3994 393.231 33.5543V37.9857C393.231 38.2274 393.278 38.4087 393.372 38.5296C393.466 38.637 393.621 38.6907 393.836 38.6907H394.238ZM388.397 38.6907C388.974 38.6907 389.498 38.5631 389.968 38.308C390.452 38.0528 390.828 37.6903 391.096 37.2203C391.378 36.7368 391.519 36.1863 391.519 35.5686V35.3671H388.8C388.142 35.3671 387.605 35.5216 387.189 35.8304C386.786 36.1258 386.584 36.5556 386.584 37.1196C386.584 37.6164 386.745 38.0058 387.068 38.2878C387.39 38.5564 387.833 38.6907 388.397 38.6907Z" fill="black"/>
<path d="M398.871 40C397.26 40 396.454 39.1271 396.454 37.3814V31.3386H394.44V29.9286H396.454L397.26 27.2093H398.166V29.9286H401.087V31.3386H398.166V37.3814C398.166 37.7708 398.247 38.0528 398.408 38.2274C398.569 38.402 398.824 38.4893 399.173 38.4893H401.188V40H398.871Z" fill="black"/>
<path d="M9.9709 59.6621C9.9709 59.9173 9.94405 60.1859 9.89033 60.4679H2.33677C2.41735 61.4884 2.7262 62.2807 3.26334 62.8447C3.81392 63.4087 4.53906 63.6907 5.43877 63.6907C6.05648 63.6907 6.60034 63.5564 7.07034 63.2878C7.54034 63.0193 7.89619 62.6298 8.13791 62.1196L9.66876 62.3814C9.34648 63.2677 8.80933 63.9593 8.05734 64.4561C7.30534 64.953 6.43248 65.2014 5.43877 65.2014C4.48534 65.2014 3.63934 64.9798 2.90077 64.5367C2.17563 64.0936 1.61163 63.4758 1.20878 62.6836C0.80592 61.8913 0.604492 60.9849 0.604492 59.9643C0.604492 58.9437 0.799206 58.0373 1.18863 57.245C1.59149 56.4527 2.14878 55.835 2.86049 55.3919C3.58563 54.9487 4.41149 54.7271 5.33806 54.7271C6.23777 54.7271 7.03677 54.9353 7.73505 55.3516C8.44676 55.7679 8.99733 56.352 9.38676 57.104C9.77619 57.856 9.9709 58.7087 9.9709 59.6621ZM5.33806 56.2379C4.53234 56.2379 3.86763 56.4863 3.34392 56.9831C2.83363 57.48 2.51135 58.1716 2.37706 59.0579H8.31919C8.21176 58.185 7.88948 57.5001 7.35234 57.0033C6.82862 56.493 6.1572 56.2379 5.33806 56.2379Z" fill="black"/>
<path d="M19.1532 54.9286L15.8296 59.9039L19.3546 65H17.4209L14.8426 61.193H14.7419L12.1636 65H10.2904L13.8153 59.9039L10.4918 54.9286H12.3852L14.8023 58.6147H14.9031L17.3202 54.9286H19.1532Z" fill="black"/>
<path d="M22.4357 65H20.7638V54.9286H22.4357V65ZM22.4558 53.1157H20.7437V51.3029H22.4558V53.1157Z" fill="black"/>
<path d="M28.3756 65.2014C27.2342 65.2014 26.2942 64.9261 25.5556 64.3756C24.8171 63.825 24.3135 63.0596 24.0449 62.0793L25.5758 61.8174C25.7369 62.462 26.0592 62.9387 26.5426 63.2476C27.0395 63.543 27.6505 63.6907 28.3756 63.6907C29.047 63.6907 29.5842 63.5698 29.987 63.3281C30.3899 63.073 30.5913 62.6903 30.5913 62.18C30.5913 61.8309 30.4772 61.5556 30.2489 61.3541C30.034 61.1393 29.7588 60.9781 29.423 60.8707C29.1008 60.7633 28.6509 60.6559 28.0735 60.5484C27.3349 60.4007 26.7306 60.2463 26.2606 60.0851C25.7906 59.9106 25.3878 59.6286 25.0521 59.2391C24.7163 58.8497 24.5485 58.3059 24.5485 57.6076C24.5485 56.7481 24.8976 56.0566 25.5959 55.5329C26.3076 54.9957 27.1872 54.7271 28.2346 54.7271C29.282 54.7271 30.1482 54.9823 30.833 55.4926C31.5179 56.0029 31.9745 56.7213 32.2028 57.6479L30.692 57.9097C30.5712 57.3591 30.2959 56.9429 29.8662 56.6609C29.4365 56.3789 28.8926 56.2379 28.2346 56.2379C27.6572 56.2379 27.1805 56.352 26.8045 56.5803C26.4419 56.7951 26.2606 57.1376 26.2606 57.6076C26.2606 58.091 26.462 58.4401 26.8649 58.655C27.2812 58.8564 27.9056 59.031 28.7382 59.1787C29.5036 59.3399 30.1213 59.5077 30.5913 59.6823C31.0613 59.8434 31.4642 60.1254 31.7999 60.5283C32.1356 60.9177 32.3035 61.4683 32.3035 62.18C32.3035 63.1066 31.9409 63.8451 31.2158 64.3957C30.504 64.9328 29.5573 65.2014 28.3756 65.2014Z" fill="black"/>
<path d="M37.1464 65C35.535 65 34.7293 64.1271 34.7293 62.3814V56.3386H32.715V54.9286H34.7293L35.535 52.2093H36.4414V54.9286H39.3621V56.3386H36.4414V62.3814C36.4414 62.7708 36.522 63.0528 36.6831 63.2274C36.8443 63.402 37.0994 63.4893 37.4485 63.4893H39.4628V65H37.1464Z" fill="black"/>
<path d="M44.5056 65.2014C43.3642 65.2014 42.4242 64.9261 41.6856 64.3756C40.947 63.825 40.4435 63.0596 40.1749 62.0793L41.7058 61.8174C41.8669 62.462 42.1892 62.9387 42.6726 63.2476C43.1695 63.543 43.7805 63.6907 44.5056 63.6907C45.177 63.6907 45.7142 63.5698 46.117 63.3281C46.5199 63.073 46.7213 62.6903 46.7213 62.18C46.7213 61.8309 46.6072 61.5556 46.3789 61.3541C46.164 61.1393 45.8888 60.9781 45.553 60.8707C45.2308 60.7633 44.7809 60.6559 44.2035 60.5484C43.4649 60.4007 42.8606 60.2463 42.3906 60.0851C41.9206 59.9106 41.5178 59.6286 41.182 59.2391C40.8463 58.8497 40.6785 58.3059 40.6785 57.6076C40.6785 56.7481 41.0276 56.0566 41.7259 55.5329C42.4376 54.9957 43.3172 54.7271 44.3646 54.7271C45.412 54.7271 46.2782 54.9823 46.963 55.4926C47.6479 56.0029 48.1045 56.7213 48.3327 57.6479L46.822 57.9097C46.7012 57.3591 46.4259 56.9429 45.9962 56.6609C45.5665 56.3789 45.0226 56.2379 44.3646 56.2379C43.7872 56.2379 43.3105 56.352 42.9345 56.5803C42.5719 56.7951 42.3906 57.1376 42.3906 57.6076C42.3906 58.091 42.592 58.4401 42.9949 58.655C43.4112 58.8564 44.0356 59.031 44.8682 59.1787C45.6336 59.3399 46.2513 59.5077 46.7213 59.6823C47.1913 59.8434 47.5942 60.1254 47.9299 60.5283C48.2656 60.9177 48.4335 61.4683 48.4335 62.18C48.4335 63.1066 48.0709 63.8451 47.3457 64.3957C46.634 64.9328 45.6873 65.2014 44.5056 65.2014Z" fill="black"/>
<path d="M59.7363 65.2014C58.9977 65.2014 58.3263 65.0336 57.722 64.6978C57.1177 64.3487 56.6141 63.8451 56.2113 63.1871H56.1106V65H54.4991V50.9H56.2113V56.6407H56.312C56.6611 56.0364 57.1311 55.5664 57.722 55.2307C58.3263 54.895 58.9977 54.7271 59.7363 54.7271C60.5823 54.7271 61.3343 54.9487 61.9923 55.3919C62.6503 55.835 63.1605 56.4527 63.5231 57.245C63.8857 58.0373 64.067 58.9437 64.067 59.9643C64.067 60.9849 63.8857 61.8913 63.5231 62.6836C63.1605 63.4758 62.6503 64.0936 61.9923 64.5367C61.3343 64.9798 60.5823 65.2014 59.7363 65.2014ZM59.3938 63.6907C60.3204 63.6907 61.0455 63.3617 61.5693 62.7037C62.093 62.0457 62.3548 61.1326 62.3548 59.9643C62.3548 58.796 62.093 57.8829 61.5693 57.2249C61.0455 56.5669 60.3204 56.2379 59.3938 56.2379C58.4404 56.2379 57.6683 56.5803 57.0774 57.2651C56.5 57.9366 56.2113 58.8363 56.2113 59.9643C56.2113 61.0923 56.5 61.9987 57.0774 62.6836C57.6683 63.355 58.4404 63.6907 59.3938 63.6907Z" fill="black"/>
<path d="M69.109 65.2014C68.0884 65.2014 67.276 64.8523 66.6717 64.154C66.0808 63.4423 65.7854 62.4821 65.7854 61.2736V54.9286H67.4975V61.0721C67.4975 61.9047 67.6788 62.5493 68.0414 63.0058C68.4174 63.4624 68.9411 63.6907 69.6125 63.6907C70.1362 63.6907 70.613 63.5564 71.0427 63.2878C71.4724 63.0058 71.8081 62.6298 72.0498 62.1598C72.305 61.6764 72.4325 61.146 72.4325 60.5686V54.9286H74.1447V65H72.5332V63.1871H72.4325C71.5597 64.53 70.4518 65.2014 69.109 65.2014Z" fill="black"/>
<path d="M79.8909 65C78.2795 65 77.4737 64.1271 77.4737 62.3814V56.3386H75.4595V54.9286H77.4737L78.2794 52.2093H79.1859V54.9286H82.1066V56.3386H79.1859V62.3814C79.1859 62.7708 79.2664 63.0528 79.4276 63.2274C79.5887 63.402 79.8439 63.4893 80.193 63.4893H82.2073V65H79.8909Z" fill="black"/>
<path d="M89.8473 65H88.1754V54.9286H89.8473V65ZM89.8674 53.1157H88.1553V51.3029H89.8674V53.1157Z" fill="black"/>
<path d="M95.7872 65.2014C94.6458 65.2014 93.7058 64.9261 92.9672 64.3756C92.2286 63.825 91.7251 63.0596 91.4565 62.0793L92.9873 61.8174C93.1485 62.462 93.4708 62.9387 93.9542 63.2476C94.451 63.543 95.062 63.6907 95.7872 63.6907C96.4586 63.6907 96.9958 63.5698 97.3986 63.3281C97.8015 63.073 98.0029 62.6903 98.0029 62.18C98.0029 61.8309 97.8888 61.5556 97.6605 61.3541C97.4456 61.1393 97.1703 60.9781 96.8346 60.8707C96.5123 60.7633 96.0625 60.6559 95.485 60.5484C94.7465 60.4007 94.1422 60.2463 93.6722 60.0851C93.2022 59.9106 92.7993 59.6286 92.4636 59.2391C92.1279 58.8497 91.9601 58.3059 91.9601 57.6076C91.9601 56.7481 92.3092 56.0566 93.0075 55.5329C93.7192 54.9957 94.5988 54.7271 95.6462 54.7271C96.6936 54.7271 97.5598 54.9823 98.2446 55.4926C98.9295 56.0029 99.386 56.7213 99.6143 57.6479L98.1036 57.9097C97.9828 57.3591 97.7075 56.9429 97.2778 56.6609C96.848 56.3789 96.3042 56.2379 95.6462 56.2379C95.0688 56.2379 94.592 56.352 94.216 56.5803C93.8535 56.7951 93.6722 57.1376 93.6722 57.6076C93.6722 58.091 93.8736 58.4401 94.2765 58.655C94.6928 58.8564 95.3172 59.031 96.1498 59.1787C96.9152 59.3399 97.5329 59.5077 98.0029 59.6823C98.4729 59.8434 98.8758 60.1254 99.2115 60.5283C99.5472 60.9177 99.715 61.4683 99.715 62.18C99.715 63.1066 99.3525 63.8451 98.6273 64.3957C97.9156 64.9328 96.9689 65.2014 95.7872 65.2014Z" fill="black"/>
<path d="M105.68 65V54.9286H107.291V56.7414H107.392C108.265 55.3986 109.393 54.7271 110.776 54.7271C111.81 54.7271 112.629 55.083 113.234 55.7947C113.838 56.493 114.14 57.4464 114.14 58.655V65H112.428V58.8564C112.428 58.0239 112.24 57.3793 111.864 56.9227C111.488 56.4661 110.957 56.2379 110.273 56.2379C109.735 56.2379 109.245 56.3789 108.802 56.6609C108.359 56.9294 108.01 57.3054 107.755 57.7889C107.513 58.2589 107.392 58.7826 107.392 59.36V65H105.68Z" fill="black"/>
<path d="M120.629 65.2014C119.689 65.2014 118.857 64.9798 118.131 64.5367C117.42 64.0936 116.862 63.4758 116.46 62.6836C116.057 61.8913 115.855 60.9849 115.855 59.9643C115.855 58.9437 116.057 58.0373 116.46 57.245C116.862 56.4527 117.42 55.835 118.131 55.3919C118.857 54.9487 119.689 54.7271 120.629 54.7271C121.569 54.7271 122.402 54.9487 123.127 55.3919C123.852 55.835 124.416 56.4527 124.819 57.245C125.222 58.0373 125.423 58.9437 125.423 59.9643C125.423 60.9849 125.222 61.8913 124.819 62.6836C124.416 63.4758 123.852 64.0936 123.127 64.5367C122.402 64.9798 121.569 65.2014 120.629 65.2014ZM120.629 63.6907C121.596 63.6907 122.348 63.3617 122.885 62.7037C123.436 62.0323 123.711 61.1191 123.711 59.9643C123.711 58.8094 123.436 57.903 122.885 57.245C122.348 56.5736 121.596 56.2379 120.629 56.2379C119.676 56.2379 118.924 56.5736 118.373 57.245C117.836 57.903 117.567 58.8094 117.567 59.9643C117.567 61.1191 117.836 62.0323 118.373 62.7037C118.924 63.3617 119.676 63.6907 120.629 63.6907Z" fill="black"/>
<path d="M130.366 65C128.755 65 127.949 64.1271 127.949 62.3814V56.3386H125.935V54.9286H127.949L128.755 52.2093H129.661V54.9286H132.582V56.3386H129.661V62.3814C129.661 62.7708 129.742 63.0528 129.903 63.2274C130.064 63.402 130.319 63.4893 130.668 63.4893H132.682V65H130.366Z" fill="black"/>
<path d="M141.48 65C139.868 65 139.063 64.1271 139.063 62.3814V56.3386H137.048V54.9286H139.063L139.868 52.2093H140.775V54.9286H143.696V56.3386H140.775V62.3814C140.775 62.7708 140.855 63.0528 141.017 63.2274C141.178 63.402 141.433 63.4893 141.782 63.4893H143.796V65H141.48Z" fill="black"/>
<path d="M154.177 63.6907V65H153.472C152.921 65 152.498 64.8523 152.203 64.5568C151.908 64.2614 151.76 63.8384 151.76 63.2878V63.0864H151.659C151.256 63.7847 150.739 64.3151 150.108 64.6777C149.49 65.0268 148.812 65.2014 148.074 65.2014C147.134 65.2014 146.355 64.9328 145.737 64.3957C145.119 63.8586 144.811 63.1334 144.811 62.2203C144.811 61.2534 145.166 60.4679 145.878 59.8636C146.59 59.2593 147.51 58.9571 148.638 58.9571H151.458V58.5543C151.458 57.8023 151.27 57.2316 150.894 56.8421C150.518 56.4393 149.954 56.2379 149.202 56.2379C148.544 56.2379 147.993 56.3856 147.55 56.681C147.12 56.9764 146.818 57.4196 146.644 58.0104L145.113 57.7486C145.381 56.822 145.858 56.0901 146.543 55.553C147.228 55.0024 148.114 54.7271 149.202 54.7271C150.464 54.7271 151.438 55.0763 152.122 55.7746C152.821 56.4729 153.17 57.3994 153.17 58.5543V62.9857C153.17 63.2274 153.217 63.4087 153.311 63.5296C153.405 63.637 153.559 63.6907 153.774 63.6907H154.177ZM148.336 63.6907C148.913 63.6907 149.437 63.5631 149.907 63.308C150.39 63.0528 150.766 62.6903 151.035 62.2203C151.317 61.7368 151.458 61.1863 151.458 60.5686V60.3671H148.738C148.08 60.3671 147.543 60.5216 147.127 60.8304C146.724 61.1258 146.523 61.5556 146.523 62.1196C146.523 62.6164 146.684 63.0058 147.006 63.2878C147.328 63.5564 147.772 63.6907 148.336 63.6907Z" fill="black"/>
<path d="M155.683 65V54.9286H157.294V56.7414H157.395C158.268 55.3986 159.396 54.7271 160.779 54.7271C161.813 54.7271 162.632 55.083 163.237 55.7947C163.841 56.493 164.143 57.4464 164.143 58.655V65H162.431V58.8564C162.431 58.0239 162.243 57.3793 161.867 56.9227C161.491 56.4661 160.96 56.2379 160.276 56.2379C159.738 56.2379 159.248 56.3789 158.805 56.6609C158.362 56.9294 158.013 57.3054 157.758 57.7889C157.516 58.2589 157.395 58.7826 157.395 59.36V65H155.683Z" fill="black"/>
<path d="M170.592 69.0285C169.37 69.0285 168.349 68.7398 167.53 68.1624C166.724 67.5984 166.201 66.8128 165.959 65.8057L167.47 65.5438C167.644 66.175 168 66.6584 168.537 66.9941C169.074 67.3433 169.759 67.5178 170.592 67.5178C171.626 67.5178 172.385 67.2426 172.868 66.692C173.365 66.1548 173.613 65.3223 173.613 64.1943V62.885H173.512C173.163 63.4758 172.693 63.9458 172.103 64.295C171.525 64.6307 170.874 64.7986 170.149 64.7986C169.316 64.7986 168.571 64.5837 167.913 64.154C167.268 63.7108 166.765 63.1066 166.402 62.3411C166.04 61.5757 165.858 60.7163 165.858 59.7629C165.858 58.8094 166.04 57.95 166.402 57.1846C166.765 56.4191 167.268 55.8216 167.913 55.3919C168.571 54.9487 169.316 54.7271 170.149 54.7271C170.874 54.7271 171.532 54.9017 172.123 55.2509C172.714 55.5866 173.21 56.0834 173.613 56.7414H173.714V54.9286H175.325V64.1943C175.325 65.7117 174.909 66.8934 174.077 67.7394C173.244 68.5988 172.082 69.0285 170.592 69.0285ZM170.491 63.2878C171.418 63.2878 172.17 62.9656 172.747 62.321C173.324 61.663 173.613 60.8103 173.613 59.7629C173.613 58.7154 173.324 57.8694 172.747 57.2249C172.17 56.5669 171.418 56.2379 170.491 56.2379C169.591 56.2379 168.88 56.5534 168.356 57.1846C167.832 57.8157 167.57 58.6751 167.57 59.7629C167.57 60.8506 167.832 61.71 168.356 62.3411C168.88 62.9723 169.591 63.2878 170.491 63.2878Z" fill="black"/>
<path d="M179.506 65H177.835V54.9286H179.506V65ZM179.527 53.1157H177.814V51.3029H179.527V53.1157Z" fill="black"/>
<path d="M187.36 65.2014C186.621 65.2014 185.95 65.0336 185.346 64.6978C184.741 64.3487 184.238 63.8451 183.835 63.1871H183.734V65H182.123V50.9H183.835V56.6407H183.936C184.285 56.0364 184.755 55.5664 185.346 55.2307C185.95 54.895 186.621 54.7271 187.36 54.7271C188.206 54.7271 188.958 54.9487 189.616 55.3919C190.274 55.835 190.784 56.4527 191.147 57.245C191.509 58.0373 191.691 58.9437 191.691 59.9643C191.691 60.9849 191.509 61.8913 191.147 62.6836C190.784 63.4758 190.274 64.0936 189.616 64.5367C188.958 64.9798 188.206 65.2014 187.36 65.2014ZM187.017 63.6907C187.944 63.6907 188.669 63.3617 189.193 62.7037C189.717 62.0457 189.978 61.1326 189.978 59.9643C189.978 58.796 189.717 57.8829 189.193 57.2249C188.669 56.5669 187.944 56.2379 187.017 56.2379C186.064 56.2379 185.292 56.5803 184.701 57.2651C184.124 57.9366 183.835 58.8363 183.835 59.9643C183.835 61.0923 184.124 61.9987 184.701 62.6836C185.292 63.355 186.064 63.6907 187.017 63.6907Z" fill="black"/>
<path d="M195.323 65H193.61V50.9H195.323V65Z" fill="black"/>
<path d="M206.599 59.6621C206.599 59.9173 206.573 60.1859 206.519 60.4679H198.965C199.046 61.4884 199.355 62.2807 199.892 62.8447C200.442 63.4087 201.168 63.6907 202.067 63.6907C202.685 63.6907 203.229 63.5564 203.699 63.2878C204.169 63.0193 204.525 62.6298 204.766 62.1196L206.297 62.3814C205.975 63.2677 205.438 63.9593 204.686 64.4561C203.934 64.953 203.061 65.2014 202.067 65.2014C201.114 65.2014 200.268 64.9798 199.529 64.5367C198.804 64.0936 198.24 63.4758 197.837 62.6836C197.434 61.8913 197.233 60.9849 197.233 59.9643C197.233 58.9437 197.428 58.0373 197.817 57.245C198.22 56.4527 198.777 55.835 199.489 55.3919C200.214 54.9487 201.04 54.7271 201.967 54.7271C202.866 54.7271 203.665 54.9353 204.364 55.3516C205.075 55.7679 205.626 56.352 206.015 57.104C206.405 57.856 206.599 58.7087 206.599 59.6621ZM201.967 56.2379C201.161 56.2379 200.496 56.4863 199.972 56.9831C199.462 57.48 199.14 58.1716 199.006 59.0579H204.948C204.84 58.185 204.518 57.5001 203.981 57.0033C203.457 56.493 202.786 56.2379 201.967 56.2379Z" fill="black"/>
<path d="M216.445 65.2014C215.505 65.2014 214.673 64.9798 213.947 64.5367C213.236 64.0936 212.678 63.4758 212.276 62.6836C211.873 61.8913 211.671 60.9849 211.671 59.9643C211.671 58.9437 211.873 58.0373 212.276 57.245C212.678 56.4527 213.236 55.835 213.947 55.3919C214.673 54.9487 215.505 54.7271 216.445 54.7271C217.385 54.7271 218.218 54.9487 218.943 55.3919C219.668 55.835 220.232 56.4527 220.635 57.245C221.038 58.0373 221.239 58.9437 221.239 59.9643C221.239 60.9849 221.038 61.8913 220.635 62.6836C220.232 63.4758 219.668 64.0936 218.943 64.5367C218.218 64.9798 217.385 65.2014 216.445 65.2014ZM216.445 63.6907C217.412 63.6907 218.164 63.3617 218.701 62.7037C219.252 62.0323 219.527 61.1191 219.527 59.9643C219.527 58.8094 219.252 57.903 218.701 57.245C218.164 56.5736 217.412 56.2379 216.445 56.2379C215.492 56.2379 214.74 56.5736 214.189 57.245C213.652 57.903 213.383 58.8094 213.383 59.9643C213.383 61.1191 213.652 62.0323 214.189 62.7037C214.74 63.3617 215.492 63.6907 216.445 63.6907Z" fill="black"/>
<path d="M223.055 65V54.9286H224.667V56.7414H224.767C225.184 56.1371 225.633 55.6873 226.117 55.3919C226.6 55.083 227.158 54.9286 227.789 54.9286H228.594V56.4796H227.688C226.775 56.4796 226.056 56.7549 225.533 57.3054C225.022 57.8426 224.767 58.561 224.767 59.4607V65H223.055Z" fill="black"/>
<path d="M234.149 65V54.9286H235.761V56.7414H235.862C236.278 56.1371 236.728 55.6873 237.211 55.3919C237.695 55.083 238.252 54.9286 238.883 54.9286H239.689V56.4796H238.782C237.869 56.4796 237.151 56.7549 236.627 57.3054C236.117 57.8426 235.862 58.561 235.862 59.4607V65H234.149Z" fill="black"/>
<path d="M249.56 59.6621C249.56 59.9173 249.533 60.1859 249.48 60.4679H241.926C242.007 61.4884 242.316 62.2807 242.853 62.8447C243.403 63.4087 244.128 63.6907 245.028 63.6907C245.646 63.6907 246.19 63.5564 246.66 63.2878C247.13 63.0193 247.486 62.6298 247.727 62.1196L249.258 62.3814C248.936 63.2677 248.399 63.9593 247.647 64.4561C246.895 64.953 246.022 65.2014 245.028 65.2014C244.075 65.2014 243.229 64.9798 242.49 64.5367C241.765 64.0936 241.201 63.4758 240.798 62.6836C240.395 61.8913 240.194 60.9849 240.194 59.9643C240.194 58.9437 240.389 58.0373 240.778 57.245C241.181 56.4527 241.738 55.835 242.45 55.3919C243.175 54.9487 244.001 54.7271 244.927 54.7271C245.827 54.7271 246.626 54.9353 247.324 55.3516C248.036 55.7679 248.587 56.352 248.976 57.104C249.366 57.856 249.56 58.7087 249.56 59.6621ZM244.927 56.2379C244.122 56.2379 243.457 56.4863 242.933 56.9831C242.423 57.48 242.101 58.1716 241.966 59.0579H247.909C247.801 58.185 247.479 57.5001 246.942 57.0033C246.418 56.493 245.747 56.2379 244.927 56.2379Z" fill="black"/>
<path d="M260.143 63.6907V65H259.438C258.888 65 258.465 64.8523 258.169 64.5568C257.874 64.2614 257.726 63.8384 257.726 63.2878V63.0864H257.625C257.222 63.7847 256.705 64.3151 256.074 64.6777C255.457 65.0268 254.778 65.2014 254.04 65.2014C253.1 65.2014 252.321 64.9328 251.703 64.3957C251.086 63.8586 250.777 63.1334 250.777 62.2203C250.777 61.2534 251.133 60.4679 251.844 59.8636C252.556 59.2593 253.476 58.9571 254.604 58.9571H257.424V58.5543C257.424 57.8023 257.236 57.2316 256.86 56.8421C256.484 56.4393 255.92 56.2379 255.168 56.2379C254.51 56.2379 253.959 56.3856 253.516 56.681C253.086 56.9764 252.784 57.4196 252.61 58.0104L251.079 57.7486C251.347 56.822 251.824 56.0901 252.509 55.553C253.194 55.0024 254.08 54.7271 255.168 54.7271C256.43 54.7271 257.404 55.0763 258.089 55.7746C258.787 56.4729 259.136 57.3994 259.136 58.5543V62.9857C259.136 63.2274 259.183 63.4087 259.277 63.5296C259.371 63.637 259.525 63.6907 259.74 63.6907H260.143ZM254.302 63.6907C254.879 63.6907 255.403 63.5631 255.873 63.308C256.356 63.0528 256.732 62.6903 257.001 62.2203C257.283 61.7368 257.424 61.1863 257.424 60.5686V60.3671H254.705C254.047 60.3671 253.509 60.5216 253.093 60.8304C252.69 61.1258 252.489 61.5556 252.489 62.1196C252.489 62.6164 252.65 63.0058 252.972 63.2878C253.295 63.5564 253.738 63.6907 254.302 63.6907Z" fill="black"/>
<path d="M263.462 65H261.75V50.9H263.462V65Z" fill="black"/>
</svg>
