<svg width="1920" height="1080" viewBox="0 0 1920 1080" fill="none" xmlns="http://www.w3.org/2000/svg">
<g clip-path="url(#clip0_194_1315)">
<path d="M1920 13.3584L1932 0H1999.83L2020.66 16.666H2162.32L2220.65 74.9971H2291.48L2345.65 20.832H2383.15L2403.98 0H2437.31L2474.81 37.498V335.403L2462.31 349.986H2383.15L2299.82 262.489H2262.32L2067.81 457H2141.06L2175.67 491.611V872.333L1963.06 1080H1898.78L1879 1047.86V1013.25L1903.72 988.527V904.473L1879 877.277V667.139L1898.78 647.361V602.861L1879 580.611V399.986L1904 379.153V166.661L1879 141.661V59L1906.85 28H870.61L837 0H1920V13.3584Z" fill="#5983B3"/>
<path d="M169 886.386L177.246 872V875.509L172.246 884.281L169 886.386Z" fill="#5983B3"/>
<path d="M186.895 886.386L178.649 872V875.509L183.649 884.281L186.895 886.386Z" fill="#5983B3"/>
<path d="M183.21 885.333L186.017 887H169.877L172.684 885.333H183.21Z" fill="#5983B3"/>
<path opacity="0.25" d="M178.003 917C182.972 917.002 187 921.03 187 926C187 926.063 186.996 926.125 186.995 926.188H184.75C184.751 926.223 184.831 928.643 182.783 930.69C180.635 932.838 178.019 932.751 178 932.75V935C173.029 935 169 930.971 169 926C169 925.938 169.004 925.877 169.005 925.815H171.253C171.253 925.815 171.156 923.375 173.219 921.312C175.375 919.156 178.003 919.253 178.003 919.253V917ZM178 919.438C174.376 919.438 171.438 922.376 171.438 926C171.438 929.624 174.376 932.562 178 932.562C181.624 932.562 184.562 929.624 184.562 926C184.562 922.376 181.624 919.438 178 919.438Z" fill="black"/>
<path opacity="0.25" d="M187 1031H169V1013H187V1031ZM177.35 1019.76V1021.35H175.764L171.298 1016.88V1026.88L175.764 1022.41H177.35V1024L172.643 1028.7H183.292L178.585 1024V1022.41H180.171L184.702 1026.94V1016.82L180.171 1021.35H178.585V1019.76L183.051 1015.3H172.884L177.35 1019.76Z" fill="black"/>
<g opacity="0.25">
<path d="M178 972.25C179.003 972.25 179.798 973.043 179.798 974C179.798 974.957 179.003 975.75 178 975.75C176.997 975.75 176.202 974.957 176.202 974C176.202 973.043 176.997 972.25 178 972.25Z" stroke="black"/>
<path d="M171.435 975.323C172.06 978.313 174.762 980.562 178 980.562C181.238 980.562 183.94 978.313 184.565 975.323L186.999 975.834C186.134 979.925 182.434 983 178 983C173.566 983 169.865 979.925 169 975.834L171.435 975.323ZM178 965C182.434 965 186.134 968.075 186.999 972.165L184.565 972.676C183.94 969.686 181.238 967.438 178 967.438C174.762 967.438 172.06 969.686 171.435 972.676L169 972.165C169.865 968.074 173.566 965 178 965Z" fill="black"/>
</g>
<g opacity="0.25">
<path d="M169 45.3858L177.246 31V34.5087L172.246 43.2806L169 45.3858Z" fill="black"/>
<path d="M186.895 45.3858L178.649 31V34.5087L183.649 43.2806L186.895 45.3858Z" fill="black"/>
<path d="M183.21 44.3332L186.017 46.0002H169.877L172.684 44.3332H183.21Z" fill="black"/>
</g>
<path opacity="0.25" d="M178.003 76C182.972 76.0016 187 80.0304 187 85C187 85.0627 186.996 85.1251 186.995 85.1875H184.75C184.751 85.2225 184.831 87.6429 182.783 89.6904C180.635 91.8383 178.019 91.7507 178 91.75V94C173.029 94 169 89.9706 169 85C169 84.9383 169.004 84.8768 169.005 84.8154H171.253C171.253 84.8154 171.156 82.375 173.219 80.3125C175.375 78.1562 178.003 78.2529 178.003 78.2529V76ZM178 78.4375C174.376 78.4375 171.438 81.3756 171.438 85C171.438 88.6242 174.376 91.5625 178 91.5625C181.624 91.5625 184.562 88.6242 184.562 85C184.562 81.3756 181.624 78.4375 178 78.4375Z" fill="black"/>
<path d="M187 190H169V172H187V190ZM177.35 178.764V180.349H175.764L171.298 175.883V185.876L175.764 181.41H177.35V182.996L172.643 187.702H183.292L178.585 182.996V181.41H180.171L184.702 185.941V175.817L180.171 180.349H178.585V178.764L183.051 174.298H172.884L177.35 178.764Z" fill="#5983B3"/>
<g opacity="0.25">
<path d="M178 131.25C179.003 131.25 179.798 132.043 179.798 133C179.798 133.957 179.003 134.75 178 134.75C176.997 134.75 176.202 133.957 176.202 133C176.202 132.043 176.997 131.25 178 131.25Z" stroke="black"/>
<path d="M171.435 134.323C172.06 137.313 174.762 139.562 178 139.562C181.238 139.562 183.94 137.313 184.565 134.323L186.999 134.834C186.134 138.925 182.434 142 178 142C173.566 142 169.865 138.925 169 134.834L171.435 134.323ZM178 124C182.434 124 186.134 127.075 186.999 131.165L184.565 131.676C183.94 128.686 181.238 126.438 178 126.438C174.762 126.438 172.06 128.686 171.435 131.676L169 131.165C169.865 127.074 173.566 124 178 124Z" fill="black"/>
</g>
<path opacity="0.25" d="M972 1002H1653" stroke="black"/>
<path d="M973 1007L976 1004.5L979 1007V1013H973V1007Z" fill="#5983B3"/>
<path opacity="0.25" d="M1085 1006.5L1088 1004L1091 1006.5V1012.5H1085V1006.5Z" fill="black"/>
<path opacity="0.25" d="M1197 1007.5L1200 1005L1203 1007.5V1013.5H1197V1007.5Z" fill="black"/>
<path opacity="0.25" d="M1310 1007L1313 1004.5L1316 1007V1013H1310V1007Z" fill="black"/>
<path opacity="0.25" d="M1422 1007L1425 1004.5L1428 1007V1013H1422V1007Z" fill="black"/>
<path opacity="0.25" d="M1534 1007L1537 1004.5L1540 1007V1013H1534V1007Z" fill="black"/>
<path d="M1647 1007L1650 1004.5L1653 1007V1013H1647V1007Z" fill="#5983B3"/>
<path opacity="0.25" d="M972 76H1653" stroke="black"/>
<path d="M973 81L976 78.5L979 81V87H973V81Z" fill="#5983B3"/>
<path opacity="0.25" d="M1085 80.5L1088 78L1091 80.5V86.5H1085V80.5Z" fill="black"/>
<path opacity="0.25" d="M1197 81.5L1200 79L1203 81.5V87.5H1197V81.5Z" fill="black"/>
<path opacity="0.25" d="M1310 81L1313 78.5L1316 81V87H1310V81Z" fill="black"/>
<path opacity="0.25" d="M1422 81L1425 78.5L1428 81V87H1422V81Z" fill="black"/>
<path opacity="0.25" d="M1534 81L1537 78.5L1540 81V87H1534V81Z" fill="black"/>
<path d="M1647 81L1650 78.5L1653 81V87H1647V81Z" fill="#5983B3"/>
</g>
<defs>
<clipPath id="clip0_194_1315">
<rect width="1920" height="1080" fill="white"/>
</clipPath>
</defs>
</svg>
