<svg width="570" height="161" viewBox="0 0 570 161" fill="none" xmlns="http://www.w3.org/2000/svg">
<path d="M24.7994 53.8198C19.9799 53.8198 15.6821 52.7019 11.9059 50.466C8.17949 48.1805 5.27286 45.0006 3.18605 40.9263C1.14893 36.8024 0.130371 32.1319 0.130371 26.9149C0.130371 21.6482 1.14893 16.9777 3.18605 12.9035C5.27286 8.82926 8.17949 5.6742 11.9059 3.43834C15.6821 1.15279 19.9799 0.0100098 24.7994 0.0100098C29.6686 0.0100098 33.9665 1.15279 37.6929 3.43834C41.469 5.6742 44.3757 8.82926 46.4128 12.9035C48.4996 16.9777 49.543 21.6482 49.543 26.9149C49.543 32.1816 48.4996 36.8521 46.4128 40.9263C44.3757 45.0006 41.469 48.1805 37.6929 50.466C33.9665 52.7019 29.6686 53.8198 24.7994 53.8198ZM24.7994 45.6962C29.6189 45.6962 33.4448 44.0069 36.2769 40.6282C39.109 37.2496 40.525 32.6785 40.525 26.9149C40.525 21.1514 39.109 16.5803 36.2769 13.2016C33.4448 9.82297 29.6189 8.13365 24.7994 8.13365C19.9799 8.13365 16.1789 9.82297 13.3965 13.2016C10.6141 16.5803 9.22289 21.1514 9.22289 26.9149C9.22289 32.6785 10.6141 37.2496 13.3965 40.6282C16.1789 44.0069 19.9799 45.6962 24.7994 45.6962Z" fill="black"/>
<path d="M78.0928 53.8198C73.9688 53.8198 70.3666 52.9503 67.2861 51.2113C64.2056 49.4226 61.8206 46.8886 60.1313 43.6094C58.4917 40.2804 57.6719 36.3552 57.6719 31.8338V0.829825H66.6153V31.4612C66.6153 36.082 67.609 39.6097 69.5965 42.0443C71.5839 44.4789 74.416 45.6962 78.0928 45.6962C81.7695 45.6962 84.5768 44.4789 86.5145 42.0443C88.502 39.6097 89.4957 36.082 89.4957 31.4612V0.829825H98.4391V31.8338C98.4391 36.3552 97.5945 40.2804 95.9052 43.6094C94.2655 46.8886 91.9054 49.4226 88.8249 51.2113C85.7941 52.9503 82.2167 53.8198 78.0928 53.8198Z" fill="black"/>
<path d="M139.778 53L127.853 32.5046H117.717V53H108.774V0.829825H128.971C132.201 0.829825 135.107 1.52543 137.691 2.91663C140.274 4.25815 142.287 6.12137 143.728 8.5063C145.218 10.8415 145.964 13.4749 145.964 16.4064C145.964 19.6359 145.069 22.5177 143.28 25.0517C141.492 27.536 139.157 29.3992 136.275 30.6414L149.764 53H139.778ZM117.643 8.58083V24.9772H127.853C130.735 24.9772 132.971 24.2567 134.561 22.8158C136.2 21.3253 137.02 19.313 137.02 16.779C137.02 14.245 136.2 12.2576 134.561 10.8167C132.971 9.32611 130.735 8.58083 127.853 8.58083H117.643Z" fill="black"/>
<path d="M203.228 25.8715C206.259 27.0143 208.594 28.6788 210.234 30.8649C211.873 33.0014 212.693 35.5354 212.693 38.4669C212.693 41.2493 211.973 43.7584 210.532 45.9943C209.091 48.1805 207.103 49.8946 204.569 51.1368C202.035 52.3789 199.154 53 195.924 53H172.895V0.829825H195.179C198.259 0.829825 201.017 1.42606 203.451 2.61852C205.886 3.81098 207.774 5.47546 209.116 7.61195C210.507 9.69876 211.202 12.034 211.202 14.6177C211.202 17.1516 210.507 19.3875 209.116 21.3253C207.774 23.2133 205.812 24.7287 203.228 25.8715ZM181.764 8.35724V22.9649H194.061C196.595 22.9649 198.607 22.319 200.098 21.0271C201.588 19.7353 202.333 17.9715 202.333 15.7356C202.333 13.45 201.588 11.6614 200.098 10.3695C198.607 9.028 196.595 8.35724 194.061 8.35724H181.764ZM194.433 45.4726C197.365 45.4726 199.65 44.8018 201.29 43.4603C202.93 42.0691 203.75 40.1314 203.75 37.6471C203.75 35.1628 202.93 33.2499 201.29 31.9083C199.65 30.5171 197.365 29.8215 194.433 29.8215H181.764V45.4726H194.433Z" fill="black"/>
<path d="M230.455 30.3432V45.249H255.496V53H221.586V0.829825H255.124V8.58083H230.455V22.8158H252.515V30.3432H230.455Z" fill="black"/>
<path d="M282.189 53.8198C276.475 53.8198 271.705 52.4535 267.879 49.7207C264.053 46.988 261.519 43.1125 260.277 38.0942L268.401 36.8273C270.488 42.8889 275.034 45.9198 282.04 45.9198C285.22 45.9198 287.704 45.2987 289.493 44.0565C291.331 42.7647 292.25 40.827 292.25 38.2433C292.25 36.554 291.704 35.1876 290.611 34.1442C289.567 33.1008 288.226 32.281 286.586 31.6848C284.996 31.0885 282.835 30.4675 280.102 29.8215C276.376 28.8775 273.37 27.9335 271.084 26.9894C268.798 26.0454 266.836 24.5797 265.196 22.5922C263.606 20.5551 262.811 17.8472 262.811 14.4686C262.811 11.5371 263.581 8.97831 265.122 6.79213C266.712 4.60595 268.898 2.94148 271.68 1.7987C274.512 0.60624 277.692 0.0100098 281.22 0.0100098C286.437 0.0100098 290.735 1.25216 294.113 3.73645C297.492 6.22075 299.728 9.7236 300.821 14.245L292.846 15.4375C291.306 10.2701 287.431 7.68648 281.22 7.68648C278.388 7.68648 276.102 8.25787 274.363 9.40064C272.624 10.4937 271.755 12.1831 271.755 14.4686C271.755 16.1082 272.276 17.4498 273.32 18.4932C274.363 19.5366 275.68 20.3315 277.27 20.8781C278.91 21.4246 281.096 22.0209 283.828 22.6668C287.505 23.5611 290.511 24.4803 292.846 25.4243C295.182 26.3187 297.169 27.7844 298.809 29.8215C300.448 31.809 301.268 34.5417 301.268 38.0197C301.268 43.038 299.554 46.9383 296.126 49.7207C292.747 52.4535 288.101 53.8198 282.189 53.8198Z" fill="black"/>
<path d="M329.217 53H320.274V8.65535H303.43V0.829825H346.061V8.65535H329.217V53Z" fill="black"/>
<path d="M244.5 134C243.789 141.728 240.625 147.855 235.007 152.381C228.575 157.473 219.775 160.019 208.608 160.019C197.531 160.019 188.328 157.517 181.003 152.515C174.603 148.09 170.197 141.918 167.78 134H189.443C190.945 135.935 192.732 137.506 194.806 138.712C198.647 140.856 203.069 141.928 208.072 141.928C212.718 141.928 216.425 141.035 219.194 139.248C221.274 137.948 222.597 136.199 223.164 134H244.5ZM384.015 158.41H373.026L370.078 143.134C367.219 148.673 363.11 152.872 357.75 155.73C352.479 158.589 346.315 160.019 339.258 160.019C330.503 160.019 322.641 158.008 315.673 153.988C308.794 149.879 303.389 144.161 299.458 136.836C298.965 135.907 298.504 134.961 298.073 134H322.668C327.196 138.659 333.083 140.99 340.329 140.99C346.493 140.99 351.585 139.382 355.605 136.166C356.443 135.493 357.211 134.77 357.911 134H384.015V158.41ZM531.001 63C540.917 63 549.091 65.3225 555.523 69.9678C562.045 74.5239 566.333 81.0463 568.388 89.5332L549.762 92.0791C547.082 84.2176 540.828 80.2861 531.001 80.2861C526.802 80.2861 523.363 81.0902 520.683 82.6982C518.092 84.3063 516.797 86.7186 516.797 89.9346C516.797 92.2573 517.645 94.1786 519.343 95.6973C521.04 97.1264 523.184 98.2874 525.774 99.1807C528.365 99.9847 531.939 100.923 536.495 101.995C543.285 103.603 548.869 105.3 553.246 107.087C557.623 108.784 561.375 111.51 564.502 115.262C567.718 119.014 569.326 124.106 569.326 130.538C569.326 139.918 566.11 147.199 559.678 152.381C553.246 157.473 544.446 160.019 533.279 160.019C522.202 160.019 513 157.517 505.675 152.515C498.439 147.512 493.748 140.275 491.604 130.806L510.9 128.26C512.776 132.994 515.635 136.479 519.477 138.712C523.318 140.856 527.74 141.928 532.743 141.928C537.389 141.928 541.096 141.035 543.865 139.248C546.724 137.461 548.153 134.826 548.153 131.342C548.153 129.019 547.305 127.099 545.607 125.58C543.91 123.972 541.766 122.721 539.175 121.827C536.584 120.934 533.011 119.906 528.455 118.745C521.666 116.958 516.127 115.172 511.839 113.386C507.551 111.51 503.843 108.695 500.716 104.943C497.589 101.191 496.026 96.1881 496.026 89.9346C496.026 84.4852 497.5 79.7505 500.448 75.7305C503.396 71.621 507.506 68.4937 512.776 66.3496C518.136 64.1162 524.211 63 531.001 63ZM32.6973 64.6084C42.3453 64.6085 50.8318 66.6186 58.1572 70.6387C65.4828 74.6588 71.1112 80.2418 75.042 87.3887C79.0621 94.4462 81.0723 102.487 81.0723 111.51C81.0722 120.443 79.062 128.483 75.042 135.63C71.1112 142.777 65.4828 148.361 58.1572 152.381C50.8319 156.401 42.3452 158.41 32.6973 158.41H0V64.6084H32.6973ZM158.779 82.2969H115.765V102.665H115.774V119.55H115.765V140.722H159.449V158.41H95.5303V64.6084H158.779V82.2969ZM278.577 158.41H258.208V134H278.577V158.41ZM420.925 158.41H401.226V134H420.925V158.41ZM480.69 158.41H458.579L444.245 134H460.863V89H460.857V64.6084H480.69V158.41ZM20.7705 139.784H32.4287C40.8263 139.784 47.482 137.238 52.3955 132.146C57.3981 126.964 59.8993 120.086 59.8994 111.51C59.8994 102.934 57.3982 96.0545 52.3955 90.873C47.482 85.6916 40.8263 83.1006 32.4287 83.1006H20.7705V139.784ZM206.33 63C216.246 63 224.42 65.3225 230.853 69.9678C237.237 74.428 241.479 80.7727 243.582 89H223.746C220.58 83.1922 214.776 80.2861 206.33 80.2861C202.131 80.2861 198.692 81.0902 196.012 82.6982C193.678 84.1465 192.397 86.2474 192.165 89H171.37C171.53 83.9421 172.999 79.519 175.777 75.7305C178.725 71.621 182.835 68.4937 188.105 66.3496C193.466 64.1163 199.541 63 206.33 63ZM278.577 89H258.208V64.6084H278.577V89ZM340.731 63C351.362 63 360.296 65.7245 367.532 71.1738C373.651 75.6509 378.116 81.5937 380.932 89H358.101C356.979 87.7767 355.701 86.7029 354.266 85.7803C350.514 83.279 346.002 82.0283 340.731 82.0283C333.412 82.0283 327.448 84.353 322.839 89H298.129C298.544 88.0902 298.986 87.1953 299.458 86.3164C303.478 78.9909 309.062 73.2735 316.209 69.1641C323.356 65.0547 331.53 63 340.731 63ZM437.526 89H401.226V64.6084H423.202L437.526 89Z" fill="black"/>
<path d="M165 118.61V134H120V107H129V125H156V122.39L131.61 98H120V89H135.39L165 118.61Z" fill="#F2013C"/>
<path d="M215.361 89V98H185.751L194.751 107H206.361V116H190.971L180.171 105.11C179.811 104.84 179.361 105.02 179.361 105.47V125H215.361V134H170.361V103.76H177.651C178.011 103.76 178.281 103.22 177.921 102.95L170.361 95.39V89H215.361Z" fill="#F2013C"/>
<path d="M265.723 98H237.193C236.743 98 236.563 98.45 236.833 98.81L265.723 127.61V134H259.333L251.773 126.44C251.503 126.08 250.963 126.35 250.963 126.71V134H220.723V125H249.253C249.703 125 249.883 124.55 249.613 124.19L220.723 95.39V89H227.113L234.673 96.56C234.943 96.92 235.483 96.65 235.483 96.29V89H265.723V98Z" fill="#F2013C"/>
<path d="M289.084 125H298.084V134H271.084V125H280.084V98H271.084V89H298.084V98H289.084V125Z" fill="#F2013C"/>
<path d="M336.906 98L328.626 106.19C328.356 106.55 328.536 107 328.986 107H336.906L348.516 118.61V134H303.516V118.61L333.126 89H348.516V98H336.906ZM339.516 122.39L333.126 116H327.276V108.71C327.276 108.35 326.736 108.08 326.466 108.44L312.516 122.39V125H339.516V122.39Z" fill="#F2013C"/>
<path d="M369.267 89L389.067 108.89C389.427 109.16 389.877 108.98 389.877 108.53V89H398.877V110.24H391.587C391.227 110.24 390.957 110.78 391.317 111.05L398.877 118.61V134H389.877V122.39L365.487 98H362.877V134H353.877V89H369.267Z" fill="#F2013C"/>
<path d="M449.238 98H420.708C420.258 98 420.078 98.45 420.348 98.81L449.238 127.61V134H442.848L435.288 126.44C435.018 126.08 434.478 126.35 434.478 126.71V134H404.238V125H432.768C433.218 125 433.398 124.55 433.128 124.19L404.238 95.39V89H410.628L418.188 96.56C418.458 96.92 418.998 96.65 418.998 96.29V89H449.238V98Z" fill="#F2013C"/>
</svg>
