<svg width="953" height="48" viewBox="0 0 953 48" fill="none" xmlns="http://www.w3.org/2000/svg">
<path d="M30.8773 0.234619H46.9259V9.61981H34.8191L28.1556 16.2833V47.1606H18.7704V12.3415L20.7413 10.4645C21.0228 10.0891 20.8351 9.61981 20.3659 9.61981H0V0.234619H22.149V7.83662C22.149 8.21203 22.7122 8.49358 22.9937 8.11818L30.8773 0.234619Z" fill="black"/>
<path d="M99.4427 0.234619V47.1606H90.0575V28.3902H61.9019V47.1606H52.5167V0.234619H61.9019V19.005H90.0575V0.234619H99.4427Z" fill="black"/>
<path d="M151.959 0.234619V9.61981H121.082L130.467 19.005H142.574V28.3902H126.526L115.263 17.0341C114.888 16.7526 114.419 16.9403 114.419 17.4095V37.7754H151.959V47.1606H105.033V15.6263H112.635C113.011 15.6263 113.292 15.0632 112.917 14.7817L105.033 6.8981V0.234619H151.959Z" fill="black"/>
<path d="M232.613 31.1119V47.1606H185.687V19.005H195.073V37.7754H223.228V35.0537L197.794 9.61981H185.687V0.234619H201.736L232.613 31.1119Z" fill="black"/>
<path d="M256.975 37.7754H266.36V47.1606H238.204V37.7754H247.589V9.61981H238.204V0.234619H266.36V9.61981H256.975V37.7754Z" fill="black"/>
<path d="M318.95 0.234619V47.1606H302.901L272.024 16.2833V0.234619H281.409V12.3415L306.843 37.7754H309.565V0.234619H318.95Z" fill="black"/>
<path d="M343.311 37.7754H352.696V47.1606H324.541V37.7754H333.926V9.61981H324.541V0.234619H352.696V9.61981H343.311V37.7754Z" fill="black"/>
<path d="M374.409 0.234619L395.056 20.9759C395.432 21.2574 395.901 21.0697 395.901 20.6005V0.234619H405.286V22.3837H397.684C397.309 22.3837 397.027 22.9468 397.403 23.2283L405.286 31.1119V47.1606H395.901V35.0537L370.467 9.61981H367.745V47.1606H358.36V0.234619H374.409Z" fill="black"/>
<path d="M457.803 0.234619V9.61981H426.926L436.311 19.005H448.418V28.3902H432.369L421.107 17.0341C420.731 16.7526 420.262 16.9403 420.262 17.4095V37.7754H457.803V47.1606H410.877V15.6263H418.479C418.854 15.6263 419.136 15.0632 418.761 14.7817L410.877 6.8981V0.234619H457.803Z" fill="black"/>
<path d="M510.32 31.1119V47.1606H463.394V19.005H472.779V37.7754H500.934V35.0537L475.501 9.61981H463.394V0.234619H479.442L510.32 31.1119Z" fill="black"/>
<path d="M590.974 0.234619V31.7689H583.372C582.996 31.7689 582.715 32.332 583.09 32.6135L590.974 40.4971V47.1606H584.31L567.511 30.3611L550.711 47.1606H544.048V40.4971L584.31 0.234619H590.974ZM574.174 23.6976L580.744 30.3611C581.119 30.6426 581.588 30.4549 581.588 29.9857V16.2833L574.174 23.6976Z" fill="black"/>
<path d="M643.49 0.234619V16.2833L631.383 28.3902H605.95V47.1606H596.564V19.005H627.442L634.105 12.3415V9.61981H596.564V0.234619H643.49Z" fill="black"/>
<path d="M696.007 0.234619V16.2833L683.9 28.3902H658.466V47.1606H649.081V19.005H679.958L686.622 12.3415V9.61981H649.081V0.234619H696.007Z" fill="black"/>
<path d="M742.933 0.234619V31.7689H735.331C734.956 31.7689 734.674 32.332 735.049 32.6135L742.933 40.4971V47.1606H736.27L719.47 30.3611L702.671 47.1606H696.007V40.4971L736.27 0.234619H742.933ZM726.134 23.6976L732.703 30.3611C733.079 30.6426 733.548 30.4549 733.548 29.9857V16.2833L726.134 23.6976Z" fill="black"/>
<path d="M795.45 0.234619V6.8981L783.343 19.005H795.45V47.1606H786.065V28.3902H773.958L755.187 47.1606H748.524V40.4971L756.407 32.6135C756.783 32.332 756.501 31.7689 756.126 31.7689H748.524V0.234619H795.45ZM758.754 30.3611L779.401 9.61981H757.909V29.9857C757.909 30.4549 758.378 30.6426 758.754 30.3611Z" fill="black"/>
<path d="M847.967 0.234619V9.61981H817.089L826.474 19.005H838.581V28.3902H822.533L811.27 17.0341C810.895 16.7526 810.426 16.9403 810.426 17.4095V37.7754H847.967V47.1606H801.041V15.6263H808.643C809.018 15.6263 809.3 15.0632 808.924 14.7817L801.041 6.8981V0.234619H847.967Z" fill="black"/>
<path d="M900.483 37.7754V47.1606H865.664L853.557 35.0537V0.234619H862.942V31.1119L869.606 37.7754H900.483Z" fill="black"/>
<path d="M953 9.61981H923.249C922.78 9.61981 922.592 10.0891 922.874 10.4645L953 40.4971V47.1606H946.336L938.453 39.277C938.171 38.9016 937.608 39.1832 937.608 39.5586V47.1606H906.074V37.7754H935.825C936.294 37.7754 936.482 37.3061 936.201 36.9307L906.074 6.8981V0.234619H912.738L920.621 8.11818C920.903 8.49358 921.466 8.21203 921.466 7.83662V0.234619H953V9.61981Z" fill="black"/>
</svg>
