<svg width="953" height="99" viewBox="0 0 953 99" fill="none" xmlns="http://www.w3.org/2000/svg">
<path d="M798.298 56.0869C798.298 64.7655 796.635 72.3371 793.312 78.7998C790.08 85.1699 785.464 90.0626 779.463 93.4785C773.462 96.8945 766.399 98.6025 758.274 98.6025C750.15 98.6025 743.087 96.8945 737.086 93.4785C731.183 90.1182 726.576 85.3283 723.264 79.1094H776.821V56.4092C776.828 56.0747 776.832 55.7362 776.832 55.3945V0H798.298V56.0869ZM33.791 0C43.7621 1.2537e-05 52.5329 2.07781 60.1035 6.23242C67.6741 10.387 73.4905 16.157 77.5527 23.543C81.7074 30.8366 83.7852 39.1459 83.7852 48.4707C83.7851 57.7032 81.7073 66.0125 77.5527 73.3984C73.4905 80.7843 67.6741 86.5544 60.1035 90.709C52.5329 94.8636 43.7621 96.9414 33.791 96.9414H0V0H33.791ZM120.469 96.9414H99.4189V0H120.469V96.9414ZM175.563 75.1982H175.894V79.1094H195.52L189.966 96.9414H161.16L131.108 0H153.267L175.563 75.1982ZM252.059 96.9414H231.009V79.1094H252.059V96.9414ZM292.058 96.9414H271.7V79.1094H292.058V96.9414ZM353.823 96.9414H330.973L320.501 79.1094H353.823V96.9414ZM439.055 96.9414H372.996V79.1094H439.055V96.9414ZM595.961 96.9414H567.155L561.627 79.1094H601.515L595.961 96.9414ZM642.399 96.9414H621.765L627.369 79.1094H647.714L642.399 96.9414ZM711.505 96.9414H690.178L684.864 79.1094H705.875L711.505 96.9414ZM838.189 77.6914H880.013V96.9414H816.724V0H838.189V77.6914ZM952.864 18.6963H923.09V96.9414H901.624V18.6963H871.711V0H952.864V18.6963ZM21.4658 77.6914H33.5137C42.1921 77.6914 49.0706 75.0603 54.1484 69.7979C59.3186 64.443 61.9043 57.3338 61.9043 48.4707C61.9043 39.6075 59.3186 32.4984 54.1484 27.1436C49.0706 21.7887 42.1922 19.1113 33.5137 19.1113H21.4658V77.6914ZM214.03 19.6709H192.72L198.552 0H220.156L214.03 19.6709ZM252.059 19.6709H231.009V0H252.059V19.6709ZM305.964 19.6709H271.7V0H294.412L305.964 19.6709ZM353.823 19.6709H333.327V0H353.823V19.6709ZM438.362 18.2803H393.908V19.6709H372.996V0H438.362V18.2803ZM565.095 19.6709H543.201L537.104 0H559.262L565.095 19.6709ZM620.025 19.6709H598.715L604.547 0H626.151L620.025 19.6709ZM687.109 19.6709H667.132L666.635 18.0029H665.942L665.445 19.6709H646.05L652.232 0H680.899L687.109 19.6709ZM739.718 19.6709H718.252V0H739.718V19.6709Z" fill="black"/>
<path d="M236.522 56.5274V71.9768H191.348V44.8727H200.383V62.9421H227.487V60.322L203.003 35.8379H191.348V26.8032H206.798L236.522 56.5274Z" fill="#F2013C"/>
<path d="M259.973 62.9421H269.008V71.9768H241.904V62.9421H250.939V35.8379H241.904V26.8032H269.008V35.8379H259.973V62.9421Z" fill="#F2013C"/>
<path d="M319.634 26.8032V71.9768H304.185L274.461 42.2526V26.8032H283.495V38.458L307.98 62.9421H310.6V26.8032H319.634Z" fill="#F2013C"/>
<path d="M343.086 62.9421H352.12V71.9768H325.016V62.9421H334.051V35.8379H325.016V26.8032H352.12V35.8379H343.086V62.9421Z" fill="#F2013C"/>
<path d="M373.022 26.8032L392.899 46.7699C393.26 47.041 393.712 46.8603 393.712 46.4086V26.8032H402.747V48.1252H395.429C395.067 48.1252 394.796 48.6672 395.157 48.9383L402.747 56.5274V71.9768H393.712V60.322L369.228 35.8379H366.608V71.9768H357.573V26.8032H373.022Z" fill="#F2013C"/>
<path d="M453.302 26.8032V35.8379H423.578L432.613 44.8727H444.268V53.9074H428.818L417.976 42.9754C417.615 42.7043 417.163 42.885 417.163 43.3368V62.9421H453.302V71.9768H408.129V41.6202H415.447C415.808 41.6202 416.079 41.0781 415.718 40.807L408.129 33.2179V26.8032H453.302Z" fill="#F2013C"/>
<path d="M485.771 53.9074V44.8727H494.805V53.9074H485.771ZM485.771 71.9768V62.9421H494.805V71.9768H485.771Z" fill="#F2013C"/>
<path d="M572.5 26.8032V71.9768H557.051L527.327 42.2526V26.8032H536.362V38.458L560.846 62.9421H563.466V26.8032H572.5Z" fill="#F2013C"/>
<path d="M623.056 26.8032V57.1599H615.738C615.377 57.1599 615.105 57.702 615.467 57.973L623.056 65.5622V71.9768H616.641L600.469 55.8047L584.297 71.9768H577.882V65.5622L616.641 26.8032H623.056ZM606.884 49.39L613.208 55.8047C613.57 56.0757 614.021 55.895 614.021 55.4433V42.2526L606.884 49.39Z" fill="#F2013C"/>
<path d="M673.612 51.2873L662.68 62.129C662.409 62.4904 662.589 62.9421 663.041 62.9421H673.612V71.9768H661.324V64.6587C661.324 64.2973 660.782 64.0263 660.511 64.3876L652.922 71.9768H628.438V26.8032H637.473V62.9421H649.128L664.577 47.4927V26.8032H673.612V51.2873Z" fill="#F2013C"/>
<path d="M724.167 62.9421V71.9768H690.648L678.994 60.322V26.8032H688.028V56.5274L694.443 62.9421H724.167Z" fill="#F2013C"/>
<path d="M753.891 26.8032H769.341V35.8379H757.686L751.271 42.2526V71.9768H742.237V38.458L744.134 36.6511C744.405 36.2897 744.224 35.8379 743.773 35.8379H724.167V26.8032H745.489V34.1213C745.489 34.4827 746.031 34.7538 746.302 34.3924L753.891 26.8032Z" fill="#F2013C"/>
</svg>
