<svg width="1890" height="1020" viewBox="0 0 1890 1020" fill="none" xmlns="http://www.w3.org/2000/svg">
<g opacity="0.15">
<path d="M1.57812 145.177H12.624V146.755H0V134.131H1.57812V145.177Z" fill="black"/>
<path d="M443.422 145.177H432.376V146.755H445V134.131H443.422V145.177Z" fill="black"/>
<path d="M151.489 145.177H162.535V146.755H149.911V134.131H151.489V145.177Z" fill="black"/>
<path d="M1.57812 151.49H12.624V149.911H0V162.535H1.57812V151.49Z" fill="black"/>
<path d="M443.422 151.49H432.376V149.911H445V162.535H443.422V151.49Z" fill="black"/>
<path d="M151.489 151.49H162.535V149.911H149.911V162.535H151.489V151.49Z" fill="black"/>
<path d="M151.489 1.57812H162.535V0H149.911V12.624H151.489V1.57812Z" fill="black"/>
<path d="M145.177 1.57812H134.131V0H146.755V12.624H145.177V1.57812Z" fill="black"/>
<path d="M145.177 145.177H134.131V146.755H146.755V134.131H145.177V145.177Z" fill="black"/>
<path d="M145.177 151.49H134.131V149.911H146.755V162.535H145.177V151.49Z" fill="black"/>
<path d="M293.511 1.57812H282.465V0H295.089V12.624H293.511V1.57812Z" fill="black"/>
<path d="M443.422 1.57812H432.376V0H445V12.624H443.422V1.57812Z" fill="black"/>
<path d="M299.823 1.57812H310.869V0H298.245V12.624H299.823V1.57812Z" fill="black"/>
<path d="M1.57812 293.51H12.624V295.089H0V282.465H1.57812V293.51Z" fill="black"/>
<path d="M443.422 293.51H432.376V295.089H445V282.465H443.422V293.51Z" fill="black"/>
<path d="M293.511 293.51H282.465V295.089H295.089V282.465H293.511V293.51Z" fill="black"/>
<path d="M299.823 293.51H310.869V295.089H298.245V282.465H299.823V293.51Z" fill="black"/>
<path d="M1.57812 443.422H12.624V445H0V432.376H1.57812V443.422Z" fill="black"/>
<path d="M443.422 443.422H432.376V445H445V432.376H443.422V443.422Z" fill="black"/>
<path d="M149.911 443.422H160.957V445H148.333V432.376H149.911V443.422Z" fill="black"/>
<path d="M145.177 443.422H134.131V445H146.755V432.376H145.177V443.422Z" fill="black"/>
<path d="M1.57812 299.823H12.624V298.245H0V310.869H1.57812V299.823Z" fill="black"/>
<path d="M443.422 299.823H432.376V298.245H445V310.869H443.422V299.823Z" fill="black"/>
<path d="M293.511 299.823H282.465V298.245H295.089V310.869H293.511V299.823Z" fill="black"/>
<path d="M299.823 299.823H310.869V298.245H298.245V310.869H299.823V299.823Z" fill="black"/>
<rect x="0.789007" y="0.789007" width="11.0461" height="11.0461" fill="black" stroke="black" stroke-width="1.57801"/>
<rect x="142.81" y="291.143" width="11.0461" height="11.0461" fill="black" stroke="black" stroke-width="1.57801"/>
<rect x="291.143" y="141.232" width="3.15603" height="14.2021" fill="black" stroke="black" stroke-width="1.57801"/>
<rect x="291.143" y="430.009" width="3.15603" height="14.2021" fill="black" stroke="black" stroke-width="1.57801"/>
<rect x="299.034" y="141.232" width="3.15603" height="14.2021" fill="black" stroke="black" stroke-width="1.57801"/>
<rect x="299.034" y="430.009" width="3.15603" height="14.2021" fill="black" stroke="black" stroke-width="1.57801"/>
<path d="M1.57812 719.574H12.624V721.152H0V708.528H1.57812V719.574Z" fill="black"/>
<path d="M443.422 719.574H432.376V721.152H445V708.528H443.422V719.574Z" fill="black"/>
<path d="M151.489 719.574H162.535V721.152H149.911V708.528H151.489V719.574Z" fill="black"/>
<path d="M1.57812 725.887H12.624V724.309H0V736.933H1.57812V725.887Z" fill="black"/>
<path d="M443.422 725.887H432.376V724.309H445V736.933H443.422V725.887Z" fill="black"/>
<path d="M151.489 725.887H162.535V724.309H149.911V736.933H151.489V725.887Z" fill="black"/>
<path d="M151.489 575.975H162.535V574.397H149.911V587.021H151.489V575.975Z" fill="black"/>
<path d="M145.177 575.975H134.131V574.397H146.755V587.021H145.177V575.975Z" fill="black"/>
<path d="M145.177 719.574H134.131V721.152H146.755V708.528H145.177V719.574Z" fill="black"/>
<path d="M145.177 725.887H134.131V724.309H146.755V736.933H145.177V725.887Z" fill="black"/>
<path d="M293.511 575.975H282.465V574.397H295.089V587.021H293.511V575.975Z" fill="black"/>
<path d="M443.422 575.975H432.376V574.397H445V587.021H443.422V575.975Z" fill="black"/>
<path d="M299.823 575.975H310.869V574.397H298.245V587.021H299.823V575.975Z" fill="black"/>
<path d="M1.57812 867.908H12.624V869.486H0V856.862H1.57812V867.908Z" fill="black"/>
<path d="M443.422 867.908H432.376V869.486H445V856.862H443.422V867.908Z" fill="black"/>
<path d="M293.511 867.908H282.465V869.486H295.089V856.862H293.511V867.908Z" fill="black"/>
<path d="M299.823 867.908H310.869V869.486H298.245V856.862H299.823V867.908Z" fill="black"/>
<path d="M1.57812 1017.82H12.624V1019.4H0V1006.77H1.57812V1017.82Z" fill="black"/>
<path d="M443.422 1017.82H432.376V1019.4H445V1006.77H443.422V1017.82Z" fill="black"/>
<path d="M149.911 1017.82H160.957V1019.4H148.333V1006.77H149.911V1017.82Z" fill="black"/>
<path d="M145.177 1017.82H134.131V1019.4H146.755V1006.77H145.177V1017.82Z" fill="black"/>
<path d="M1.57812 874.22H12.624V872.642H0V885.266H1.57812V874.22Z" fill="black"/>
<path d="M443.422 874.22H432.376V872.642H445V885.266H443.422V874.22Z" fill="black"/>
<path d="M293.511 874.22H282.465V872.642H295.089V885.266H293.511V874.22Z" fill="black"/>
<path d="M299.823 874.22H310.869V872.642H298.245V885.266H299.823V874.22Z" fill="black"/>
<rect x="0.789007" y="575.186" width="11.0461" height="11.0461" fill="black" stroke="black" stroke-width="1.57801"/>
<rect x="142.81" y="865.541" width="11.0461" height="11.0461" fill="black" stroke="black" stroke-width="1.57801"/>
<rect x="291.143" y="715.629" width="3.15603" height="14.2021" fill="black" stroke="black" stroke-width="1.57801"/>
<rect x="291.143" y="1004.41" width="3.15603" height="14.2021" fill="black" stroke="black" stroke-width="1.57801"/>
<rect x="299.034" y="715.629" width="3.15603" height="14.2021" fill="black" stroke="black" stroke-width="1.57801"/>
<rect x="299.034" y="1004.41" width="3.15603" height="14.2021" fill="black" stroke="black" stroke-width="1.57801"/>
<path d="M576.578 145.177H587.624V146.755H575V134.131H576.578V145.177Z" fill="black"/>
<path d="M1018.42 145.177H1007.38V146.755H1020V134.131H1018.42V145.177Z" fill="black"/>
<path d="M726.489 145.177H737.535V146.755H724.911V134.131H726.489V145.177Z" fill="black"/>
<path d="M576.578 151.49H587.624V149.911H575V162.535H576.578V151.49Z" fill="black"/>
<path d="M1018.42 151.49H1007.38V149.911H1020V162.535H1018.42V151.49Z" fill="black"/>
<path d="M726.489 151.49H737.535V149.911H724.911V162.535H726.489V151.49Z" fill="black"/>
<path d="M726.489 1.57812H737.535V0H724.911V12.624H726.489V1.57812Z" fill="black"/>
<path d="M720.177 1.57812H709.131V0H721.755V12.624H720.177V1.57812Z" fill="black"/>
<path d="M720.177 145.177H709.131V146.755H721.755V134.131H720.177V145.177Z" fill="black"/>
<path d="M720.177 151.49H709.131V149.911H721.755V162.535H720.177V151.49Z" fill="black"/>
<path d="M868.511 1.57812H857.465V0H870.089V12.624H868.511V1.57812Z" fill="black"/>
<path d="M1018.42 1.57812H1007.38V0H1020V12.624H1018.42V1.57812Z" fill="black"/>
<path d="M874.823 1.57812H885.869V0H873.245V12.624H874.823V1.57812Z" fill="black"/>
<path d="M576.578 293.51H587.624V295.089H575V282.465H576.578V293.51Z" fill="black"/>
<path d="M1018.42 293.51H1007.38V295.089H1020V282.465H1018.42V293.51Z" fill="black"/>
<path d="M868.511 293.51H857.465V295.089H870.089V282.465H868.511V293.51Z" fill="black"/>
<path d="M874.823 293.51H885.869V295.089H873.245V282.465H874.823V293.51Z" fill="black"/>
<path d="M576.578 443.422H587.624V445H575V432.376H576.578V443.422Z" fill="black"/>
<path d="M1018.42 443.422H1007.38V445H1020V432.376H1018.42V443.422Z" fill="black"/>
<path d="M724.911 443.422H735.957V445H723.333V432.376H724.911V443.422Z" fill="black"/>
<path d="M720.177 443.422H709.131V445H721.755V432.376H720.177V443.422Z" fill="black"/>
<path d="M576.578 299.823H587.624V298.245H575V310.869H576.578V299.823Z" fill="black"/>
<path d="M1018.42 299.823H1007.38V298.245H1020V310.869H1018.42V299.823Z" fill="black"/>
<path d="M868.511 299.823H857.465V298.245H870.089V310.869H868.511V299.823Z" fill="black"/>
<path d="M874.823 299.823H885.869V298.245H873.245V310.869H874.823V299.823Z" fill="black"/>
<rect x="575.789" y="0.789007" width="11.0461" height="11.0461" fill="black" stroke="black" stroke-width="1.57801"/>
<rect x="717.81" y="291.143" width="11.0461" height="11.0461" fill="black" stroke="black" stroke-width="1.57801"/>
<rect x="866.143" y="141.232" width="3.15603" height="14.2021" fill="black" stroke="black" stroke-width="1.57801"/>
<rect x="866.143" y="430.009" width="3.15603" height="14.2021" fill="black" stroke="black" stroke-width="1.57801"/>
<rect x="874.034" y="141.232" width="3.15603" height="14.2021" fill="black" stroke="black" stroke-width="1.57801"/>
<rect x="874.034" y="430.009" width="3.15603" height="14.2021" fill="black" stroke="black" stroke-width="1.57801"/>
<path d="M1151.58 145.177H1162.62V146.755H1150V134.131H1151.58V145.177Z" fill="black"/>
<path d="M1593.42 145.177H1582.38V146.755H1595V134.131H1593.42V145.177Z" fill="black"/>
<path d="M1301.49 145.177H1312.54V146.755H1299.91V134.131H1301.49V145.177Z" fill="black"/>
<path d="M1151.58 151.49H1162.62V149.911H1150V162.535H1151.58V151.49Z" fill="black"/>
<path d="M1593.42 151.49H1582.38V149.911H1595V162.535H1593.42V151.49Z" fill="black"/>
<path d="M1301.49 151.49H1312.54V149.911H1299.91V162.535H1301.49V151.49Z" fill="black"/>
<path d="M1301.49 1.57812H1312.54V0H1299.91V12.624H1301.49V1.57812Z" fill="black"/>
<path d="M1295.18 1.57812H1284.13V0H1296.75V12.624H1295.18V1.57812Z" fill="black"/>
<path d="M1295.18 145.177H1284.13V146.755H1296.75V134.131H1295.18V145.177Z" fill="black"/>
<path d="M1295.18 151.49H1284.13V149.911H1296.75V162.535H1295.18V151.49Z" fill="black"/>
<path d="M1443.51 1.57812H1432.46V0H1445.09V12.624H1443.51V1.57812Z" fill="black"/>
<path d="M1593.42 1.57812H1582.38V0H1595V12.624H1593.42V1.57812Z" fill="black"/>
<path d="M1449.82 1.57812H1460.87V0H1448.25V12.624H1449.82V1.57812Z" fill="black"/>
<path d="M1151.58 293.51H1162.62V295.089H1150V282.465H1151.58V293.51Z" fill="black"/>
<path d="M1593.42 293.51H1582.38V295.089H1595V282.465H1593.42V293.51Z" fill="black"/>
<path d="M1443.51 293.51H1432.46V295.089H1445.09V282.465H1443.51V293.51Z" fill="black"/>
<path d="M1449.82 293.51H1460.87V295.089H1448.25V282.465H1449.82V293.51Z" fill="black"/>
<path d="M1151.58 443.422H1162.62V445H1150V432.376H1151.58V443.422Z" fill="black"/>
<path d="M1593.42 443.422H1582.38V445H1595V432.376H1593.42V443.422Z" fill="black"/>
<path d="M1299.91 443.422H1310.96V445H1298.33V432.376H1299.91V443.422Z" fill="black"/>
<path d="M1295.18 443.422H1284.13V445H1296.75V432.376H1295.18V443.422Z" fill="black"/>
<path d="M1151.58 299.823H1162.62V298.245H1150V310.869H1151.58V299.823Z" fill="black"/>
<path d="M1593.42 299.823H1582.38V298.245H1595V310.869H1593.42V299.823Z" fill="black"/>
<path d="M1443.51 299.823H1432.46V298.245H1445.09V310.869H1443.51V299.823Z" fill="black"/>
<path d="M1449.82 299.823H1460.87V298.245H1448.25V310.869H1449.82V299.823Z" fill="black"/>
<rect x="1150.79" y="0.789007" width="11.0461" height="11.0461" fill="black" stroke="black" stroke-width="1.57801"/>
<rect x="1292.81" y="291.143" width="11.0461" height="11.0461" fill="black" stroke="black" stroke-width="1.57801"/>
<rect x="1441.14" y="141.232" width="3.15603" height="14.2021" fill="black" stroke="black" stroke-width="1.57801"/>
<rect x="1441.14" y="430.009" width="3.15603" height="14.2021" fill="black" stroke="black" stroke-width="1.57801"/>
<rect x="1449.03" y="141.232" width="3.15603" height="14.2021" fill="black" stroke="black" stroke-width="1.57801"/>
<rect x="1449.03" y="430.009" width="3.15603" height="14.2021" fill="black" stroke="black" stroke-width="1.57801"/>
<path d="M1726.58 145.177H1737.62V146.755H1725V134.131H1726.58V145.177Z" fill="black"/>
<path d="M1876.49 145.177H1887.54V146.755H1874.91V134.131H1876.49V145.177Z" fill="black"/>
<path d="M1726.58 151.49H1737.62V149.911H1725V162.535H1726.58V151.49Z" fill="black"/>
<path d="M1876.49 151.49H1887.54V149.911H1874.91V162.535H1876.49V151.49Z" fill="black"/>
<path d="M1876.49 1.57812H1887.54V0H1874.91V12.624H1876.49V1.57812Z" fill="black"/>
<path d="M1870.18 1.57812H1859.13V0H1871.75V12.624H1870.18V1.57812Z" fill="black"/>
<path d="M1870.18 145.177H1859.13V146.755H1871.75V134.131H1870.18V145.177Z" fill="black"/>
<path d="M1870.18 151.49H1859.13V149.911H1871.75V162.535H1870.18V151.49Z" fill="black"/>
<path d="M1726.58 293.51H1737.62V295.089H1725V282.465H1726.58V293.51Z" fill="black"/>
<path d="M1726.58 443.422H1737.62V445H1725V432.376H1726.58V443.422Z" fill="black"/>
<path d="M1874.91 443.422H1885.96V445H1873.33V432.376H1874.91V443.422Z" fill="black"/>
<path d="M1870.18 443.422H1859.13V445H1871.75V432.376H1870.18V443.422Z" fill="black"/>
<path d="M1726.58 299.823H1737.62V298.245H1725V310.869H1726.58V299.823Z" fill="black"/>
<rect x="1725.79" y="0.789007" width="11.0461" height="11.0461" fill="black" stroke="black" stroke-width="1.57801"/>
<rect x="1867.81" y="291.143" width="11.0461" height="11.0461" fill="black" stroke="black" stroke-width="1.57801"/>
<path d="M576.578 719.574H587.624V721.152H575V708.528H576.578V719.574Z" fill="black"/>
<path d="M1018.42 719.574H1007.38V721.152H1020V708.528H1018.42V719.574Z" fill="black"/>
<path d="M726.489 719.574H737.535V721.152H724.911V708.528H726.489V719.574Z" fill="black"/>
<path d="M576.578 725.887H587.624V724.309H575V736.933H576.578V725.887Z" fill="black"/>
<path d="M1018.42 725.887H1007.38V724.309H1020V736.933H1018.42V725.887Z" fill="black"/>
<path d="M726.489 725.887H737.535V724.309H724.911V736.933H726.489V725.887Z" fill="black"/>
<path d="M726.489 575.975H737.535V574.397H724.911V587.021H726.489V575.975Z" fill="black"/>
<path d="M720.177 575.975H709.131V574.397H721.755V587.021H720.177V575.975Z" fill="black"/>
<path d="M720.177 719.574H709.131V721.152H721.755V708.528H720.177V719.574Z" fill="black"/>
<path d="M720.177 725.887H709.131V724.309H721.755V736.933H720.177V725.887Z" fill="black"/>
<path d="M868.511 575.975H857.465V574.397H870.089V587.021H868.511V575.975Z" fill="black"/>
<path d="M1018.42 575.975H1007.38V574.397H1020V587.021H1018.42V575.975Z" fill="black"/>
<path d="M874.823 575.975H885.869V574.397H873.245V587.021H874.823V575.975Z" fill="black"/>
<path d="M576.578 867.908H587.624V869.486H575V856.862H576.578V867.908Z" fill="black"/>
<path d="M1018.42 867.908H1007.38V869.486H1020V856.862H1018.42V867.908Z" fill="black"/>
<path d="M868.511 867.908H857.465V869.486H870.089V856.862H868.511V867.908Z" fill="black"/>
<path d="M874.823 867.908H885.869V869.486H873.245V856.862H874.823V867.908Z" fill="black"/>
<path d="M576.578 1017.82H587.624V1019.4H575V1006.77H576.578V1017.82Z" fill="black"/>
<path d="M1018.42 1017.82H1007.38V1019.4H1020V1006.77H1018.42V1017.82Z" fill="black"/>
<path d="M724.911 1017.82H735.957V1019.4H723.333V1006.77H724.911V1017.82Z" fill="black"/>
<path d="M720.177 1017.82H709.131V1019.4H721.755V1006.77H720.177V1017.82Z" fill="black"/>
<path d="M576.578 874.22H587.624V872.642H575V885.266H576.578V874.22Z" fill="black"/>
<path d="M1018.42 874.22H1007.38V872.642H1020V885.266H1018.42V874.22Z" fill="black"/>
<path d="M868.511 874.22H857.465V872.642H870.089V885.266H868.511V874.22Z" fill="black"/>
<path d="M874.823 874.22H885.869V872.642H873.245V885.266H874.823V874.22Z" fill="black"/>
<rect x="575.789" y="575.186" width="11.0461" height="11.0461" fill="black" stroke="black" stroke-width="1.57801"/>
<rect x="717.81" y="865.541" width="11.0461" height="11.0461" fill="black" stroke="black" stroke-width="1.57801"/>
<rect x="866.143" y="715.629" width="3.15603" height="14.2021" fill="black" stroke="black" stroke-width="1.57801"/>
<rect x="866.143" y="1004.41" width="3.15603" height="14.2021" fill="black" stroke="black" stroke-width="1.57801"/>
<rect x="874.034" y="715.629" width="3.15603" height="14.2021" fill="black" stroke="black" stroke-width="1.57801"/>
<rect x="874.034" y="1004.41" width="3.15603" height="14.2021" fill="black" stroke="black" stroke-width="1.57801"/>
<path d="M1151.58 719.574H1162.62V721.152H1150V708.528H1151.58V719.574Z" fill="black"/>
<path d="M1593.42 719.574H1582.38V721.152H1595V708.528H1593.42V719.574Z" fill="black"/>
<path d="M1301.49 719.574H1312.54V721.152H1299.91V708.528H1301.49V719.574Z" fill="black"/>
<path d="M1151.58 725.887H1162.62V724.309H1150V736.933H1151.58V725.887Z" fill="black"/>
<path d="M1593.42 725.887H1582.38V724.309H1595V736.933H1593.42V725.887Z" fill="black"/>
<path d="M1301.49 725.887H1312.54V724.309H1299.91V736.933H1301.49V725.887Z" fill="black"/>
<path d="M1301.49 575.975H1312.54V574.397H1299.91V587.021H1301.49V575.975Z" fill="black"/>
<path d="M1295.18 575.975H1284.13V574.397H1296.75V587.021H1295.18V575.975Z" fill="black"/>
<path d="M1295.18 719.574H1284.13V721.152H1296.75V708.528H1295.18V719.574Z" fill="black"/>
<path d="M1295.18 725.887H1284.13V724.309H1296.75V736.933H1295.18V725.887Z" fill="black"/>
<path d="M1443.51 575.975H1432.46V574.397H1445.09V587.021H1443.51V575.975Z" fill="black"/>
<path d="M1593.42 575.975H1582.38V574.397H1595V587.021H1593.42V575.975Z" fill="black"/>
<path d="M1449.82 575.975H1460.87V574.397H1448.25V587.021H1449.82V575.975Z" fill="black"/>
<path d="M1151.58 867.908H1162.62V869.486H1150V856.862H1151.58V867.908Z" fill="black"/>
<path d="M1593.42 867.908H1582.38V869.486H1595V856.862H1593.42V867.908Z" fill="black"/>
<path d="M1443.51 867.908H1432.46V869.486H1445.09V856.862H1443.51V867.908Z" fill="black"/>
<path d="M1449.82 867.908H1460.87V869.486H1448.25V856.862H1449.82V867.908Z" fill="black"/>
<path d="M1151.58 1017.82H1162.62V1019.4H1150V1006.77H1151.58V1017.82Z" fill="black"/>
<path d="M1593.42 1017.82H1582.38V1019.4H1595V1006.77H1593.42V1017.82Z" fill="black"/>
<path d="M1299.91 1017.82H1310.96V1019.4H1298.33V1006.77H1299.91V1017.82Z" fill="black"/>
<path d="M1295.18 1017.82H1284.13V1019.4H1296.75V1006.77H1295.18V1017.82Z" fill="black"/>
<path d="M1151.58 874.22H1162.62V872.642H1150V885.266H1151.58V874.22Z" fill="black"/>
<path d="M1593.42 874.22H1582.38V872.642H1595V885.266H1593.42V874.22Z" fill="black"/>
<path d="M1443.51 874.22H1432.46V872.642H1445.09V885.266H1443.51V874.22Z" fill="black"/>
<path d="M1449.82 874.22H1460.87V872.642H1448.25V885.266H1449.82V874.22Z" fill="black"/>
<rect x="1150.79" y="575.186" width="11.0461" height="11.0461" fill="black" stroke="black" stroke-width="1.57801"/>
<rect x="1292.81" y="865.541" width="11.0461" height="11.0461" fill="black" stroke="black" stroke-width="1.57801"/>
<rect x="1441.14" y="715.629" width="3.15603" height="14.2021" fill="black" stroke="black" stroke-width="1.57801"/>
<rect x="1441.14" y="1004.41" width="3.15603" height="14.2021" fill="black" stroke="black" stroke-width="1.57801"/>
<rect x="1449.03" y="715.629" width="3.15603" height="14.2021" fill="black" stroke="black" stroke-width="1.57801"/>
<rect x="1449.03" y="1004.41" width="3.15603" height="14.2021" fill="black" stroke="black" stroke-width="1.57801"/>
<path d="M1726.58 719.574H1737.62V721.152H1725V708.528H1726.58V719.574Z" fill="black"/>
<path d="M1876.49 719.574H1887.54V721.152H1874.91V708.528H1876.49V719.574Z" fill="black"/>
<path d="M1726.58 725.887H1737.62V724.309H1725V736.933H1726.58V725.887Z" fill="black"/>
<path d="M1876.49 725.887H1887.54V724.309H1874.91V736.933H1876.49V725.887Z" fill="black"/>
<path d="M1876.49 575.975H1887.54V574.397H1874.91V587.021H1876.49V575.975Z" fill="black"/>
<path d="M1870.18 575.975H1859.13V574.397H1871.75V587.021H1870.18V575.975Z" fill="black"/>
<path d="M1870.18 719.574H1859.13V721.152H1871.75V708.528H1870.18V719.574Z" fill="black"/>
<path d="M1870.18 725.887H1859.13V724.309H1871.75V736.933H1870.18V725.887Z" fill="black"/>
<path d="M1726.58 867.908H1737.62V869.486H1725V856.862H1726.58V867.908Z" fill="black"/>
<path d="M1726.58 1017.82H1737.62V1019.4H1725V1006.77H1726.58V1017.82Z" fill="black"/>
<path d="M1874.91 1017.82H1885.96V1019.4H1873.33V1006.77H1874.91V1017.82Z" fill="black"/>
<path d="M1870.18 1017.82H1859.13V1019.4H1871.75V1006.77H1870.18V1017.82Z" fill="black"/>
<path d="M1726.58 874.22H1737.62V872.642H1725V885.266H1726.58V874.22Z" fill="black"/>
<rect x="1725.79" y="575.186" width="11.0461" height="11.0461" fill="black" stroke="black" stroke-width="1.57801"/>
<rect x="1867.81" y="865.541" width="11.0461" height="11.0461" fill="black" stroke="black" stroke-width="1.57801"/>
</g>
</svg>
