<svg width="738" height="436" viewBox="0 0 738 436" fill="none" xmlns="http://www.w3.org/2000/svg">
<g opacity="0.25">
<path d="M107.865 514.884L78.5791 544.17L38.4072 544.17L1.25781 521.31L10.1367 436.535L246.498 195.115L696.509 195.115L736.813 235.419L736.813 498.053L696.461 544.17L592.021 544.17L566.003 521.041L565.665 520.742L512.009 520.742L488.58 544.17L240.602 544.17L208.727 515.193L208.388 514.884L107.865 514.884Z" stroke="black" stroke-width="2.37348"/>
<path d="M239.643 151.742L239.294 152.099L1.18652 396.013L1.18651 36.2769L35.6338 1.82959L169.301 1.82958L198.231 36.5454L198.587 36.9722L451.556 36.9721L451.912 36.5454L480.841 1.82957L649.651 1.82956L684.099 36.2768L684.099 120.192L649.681 151.742L239.643 151.742Z" stroke="black" stroke-width="2.37348"/>
</g>
</svg>
