<svg width="442" height="326" viewBox="0 0 442 326" fill="none" xmlns="http://www.w3.org/2000/svg">
<g opacity="0.75">
<path d="M64.5557 307.763L47.0283 325.29L22.9854 325.29L0.70996 311.582L0.709958 266.698L147.525 116.388L416.846 116.388L440.968 140.509L440.968 297.689L416.816 325.29L354.313 325.29L338.741 311.447L338.539 311.269L306.427 311.269L292.405 325.29L143.995 325.29L124.919 307.947L124.716 307.763L64.5557 307.763Z" stroke="#F2013C" stroke-width="1.42048"/>
<path d="M143.421 90.4299L143.212 90.6438L0.709961 236.622L0.709951 21.3264L21.3262 0.710204L101.323 0.710201L118.638 21.4866L118.851 21.7424L270.247 21.7424L270.46 21.4866L287.772 0.710192L388.803 0.710188L409.419 21.3264L409.419 71.5471L388.82 90.4299L143.421 90.4299Z" stroke="#F2013C" stroke-width="1.42048"/>
</g>
</svg>
