<svg width="451" height="148" viewBox="0 0 451 148" fill="none" xmlns="http://www.w3.org/2000/svg">
<path d="M8.7944 52.99H0V0.819815H8.7944V52.99Z" fill="black"/>
<path d="M61.0735 52.99H52.13L48.18 40.5437H27.7591L23.8091 52.99H15.0892L32.3053 0.819815H43.8573L61.0735 52.99ZM37.7459 8.71987L30.0695 33.1653H45.8696L38.1186 8.71987H37.7459Z" fill="black"/>
<path d="M76.1178 52.99H67.3234V0.819815H76.1178V52.99Z" fill="black"/>
<path d="M87.257 52.99V0.819815H104.697C109.814 0.819815 114.336 1.93775 118.261 4.17361C122.186 6.35979 125.217 9.44032 127.353 13.4152C129.49 17.3404 130.558 21.8369 130.558 26.9049C130.558 31.9729 129.49 36.4943 127.353 40.4692C125.217 44.3943 122.186 47.4749 118.261 49.7107C114.336 51.8969 109.814 52.99 104.697 52.99H87.257ZM104.473 45.0154C109.69 45.0154 113.839 43.3758 116.919 40.0965C120 36.8172 121.54 32.42 121.54 26.9049C121.54 21.3898 120 16.9926 116.919 13.7133C113.839 10.434 109.69 8.7944 104.473 8.7944H96.2004V45.0154H104.473Z" fill="black"/>
<path d="M161.511 53.8098C156.691 53.8098 152.394 52.6919 148.617 50.456C144.891 48.1705 141.984 44.9906 139.898 40.9163C137.86 36.7924 136.842 32.1219 136.842 26.9049C136.842 21.6382 137.86 16.9677 139.898 12.8935C141.984 8.81925 144.891 5.66419 148.617 3.42833C152.394 1.14278 156.691 0 161.511 0C166.38 0 170.678 1.14278 174.404 3.42833C178.181 5.66419 181.087 8.81925 183.124 12.8935C185.211 16.9677 186.255 21.6382 186.255 26.9049C186.255 32.1716 185.211 36.8421 183.124 40.9163C181.087 44.9906 178.181 48.1705 174.404 50.456C170.678 52.6919 166.38 53.8098 161.511 53.8098ZM161.511 45.6862C166.331 45.6862 170.156 43.9969 172.988 40.6182C175.821 37.2396 177.237 32.6685 177.237 26.9049C177.237 21.1413 175.821 16.5702 172.988 13.1916C170.156 9.81296 166.331 8.12364 161.511 8.12364C156.691 8.12364 152.89 9.81296 150.108 13.1916C147.326 16.5702 145.934 21.1413 145.934 26.9049C145.934 32.6685 147.326 37.2396 150.108 40.6182C152.89 43.9969 156.691 45.6862 161.511 45.6862Z" fill="black"/>
<path d="M37.5129 103.18L72.1676 147.362H49.6599L18.4587 107.11V147.362H0V64H18.4587V101.87L48.1117 64H68.5949L37.5129 103.18Z" fill="black"/>
<path d="M149.557 147.362H131.218L125.859 129.38H95.4912L90.1323 147.362H72.3881L98.5875 64H123.239L149.557 147.362ZM110.377 79.4815L100.017 114.255H121.333L110.973 79.4815H110.377Z" fill="black"/>
<path d="M188.342 147.362H169.883V80.0769H144.16V64H213.946V80.0769H188.342V147.362Z" fill="black"/>
<path d="M285.742 147.362H267.402L262.043 129.38H231.675L226.316 147.362H208.572L234.772 64H259.423L285.742 147.362ZM246.561 79.4815L236.201 114.255H257.518L247.157 79.4815H246.561Z" fill="black"/>
<path d="M311.971 147.362H294.465V64H313.995L346.864 119.972H347.459V64H365.084V147.362H345.435L312.566 91.3903H311.971V147.362Z" fill="black"/>
<path d="M451 147.362H432.66L427.301 129.38H396.934L391.575 147.362H373.831L400.03 64H424.681L451 147.362ZM411.82 79.4815L401.459 114.255H422.776L412.415 79.4815H411.82Z" fill="black"/>
<path d="M208.277 16.7854C208.151 17.3525 208.041 17.9983 207.947 18.7229C207.884 19.4475 207.821 20.1563 207.758 20.8494C207.726 21.5425 207.71 22.1096 207.71 22.5506C207.679 23.5903 207.663 24.6614 207.663 25.764C207.695 26.8667 207.726 28.0008 207.758 29.1664C207.821 30.3006 207.899 31.4347 207.994 32.5689C208.214 34.8371 208.529 36.8376 208.939 38.5703C209.349 40.3031 209.884 41.6577 210.546 42.6343C211.207 43.5795 212.042 44.052 213.05 44.052C213.586 44.052 214.106 43.7527 214.61 43.1542C215.145 42.5556 215.618 41.7837 216.027 40.8386C216.468 39.862 216.846 38.8381 217.161 37.767C217.508 36.6959 217.807 35.6877 218.059 34.7426L222.785 40.5078C221.745 43.2487 220.706 45.4382 219.666 47.0764C218.658 48.6831 217.603 49.8487 216.5 50.5733C215.397 51.2664 214.2 51.6129 212.908 51.6129C211.207 51.6129 209.585 51.0459 208.041 49.9117C206.529 48.7776 205.237 46.9504 204.166 44.4301C203.095 41.8783 202.339 38.4916 201.898 34.2701C201.74 32.8209 201.614 31.293 201.52 29.6863C201.457 28.0796 201.41 26.5516 201.378 25.1025C201.378 23.6533 201.378 22.4561 201.378 21.511C201.378 20.8494 201.347 20.0618 201.284 19.1482C201.221 18.2346 201.126 17.4155 201 16.6909L208.277 16.7854ZM231.905 17.8723C232.787 18.9434 233.638 20.2509 234.457 21.7945C235.276 23.3382 236.032 24.9922 236.725 26.7564C237.418 28.5206 238.033 30.3321 238.568 32.1908C239.104 34.018 239.529 35.8138 239.844 37.578C240.191 39.3107 240.411 40.9016 240.506 42.3508L234.268 44.7609C234.111 42.8391 233.827 40.7441 233.417 38.4758C233.008 36.2076 232.457 33.9235 231.764 31.6237C231.07 29.324 230.236 27.1502 229.259 25.1025C228.314 23.0547 227.195 21.2905 225.904 19.8098L231.905 17.8723Z" fill="#C1A4B9"/>
<path d="M266.686 12.5324C266.56 12.9735 266.433 13.4145 266.307 13.8556C266.213 14.2651 266.118 14.6589 266.024 15.037C265.74 16.5177 265.473 18.2189 265.221 20.1406C264.969 22.0308 264.764 24.0156 264.606 26.0948C264.449 28.1426 264.37 30.1588 264.37 32.1436C264.37 34.6009 264.496 36.8691 264.748 38.9484C265 40.9961 265.347 42.9021 265.788 44.6663C266.26 46.3991 266.764 48.053 267.3 49.6282L261.865 51.2821C261.393 49.8645 260.936 48.179 260.495 46.2258C260.085 44.2725 259.739 42.1775 259.455 39.9408C259.172 37.6725 259.03 35.3885 259.03 33.0887C259.03 31.5135 259.077 29.9383 259.172 28.3631C259.298 26.7564 259.424 25.1812 259.55 23.6375C259.676 22.0623 259.818 20.5659 259.975 19.1482C260.164 17.699 260.322 16.3916 260.448 15.226C260.479 14.7849 260.511 14.3124 260.542 13.8083C260.574 13.2728 260.574 12.8002 260.542 12.3906L266.686 12.5324ZM258.274 17.7778C261.267 17.7778 264.071 17.7148 266.686 17.5888C269.332 17.4628 271.868 17.2422 274.294 16.9272C276.751 16.6122 279.193 16.1554 281.618 15.5568L281.666 21.0385C280.027 21.322 278.216 21.5898 276.231 21.8418C274.278 22.0623 272.23 22.2514 270.088 22.4089C267.977 22.5664 265.898 22.6924 263.85 22.7869C261.802 22.8499 259.881 22.8814 258.085 22.8814C257.266 22.8814 256.337 22.8657 255.297 22.8342C254.289 22.8027 253.281 22.7712 252.273 22.7397C251.296 22.6767 250.445 22.6294 249.721 22.5979L249.579 17.1162C250.115 17.1792 250.886 17.2737 251.894 17.3998C252.903 17.4943 253.974 17.5888 255.108 17.6833C256.274 17.7463 257.329 17.7778 258.274 17.7778ZM278.641 24.6771C278.547 24.9607 278.405 25.3545 278.216 25.8585C278.027 26.3626 277.838 26.8824 277.649 27.418C277.491 27.9535 277.365 28.3788 277.271 28.6939C276.357 31.5292 275.239 34.1283 273.916 36.4911C272.624 38.8224 271.222 40.8701 269.71 42.6343C268.198 44.3671 266.701 45.7847 265.221 46.8874C263.677 48.053 261.913 49.0769 259.928 49.959C257.943 50.8096 255.943 51.2349 253.926 51.2349C252.792 51.2349 251.737 50.9986 250.76 50.5261C249.784 50.0535 248.996 49.3132 248.398 48.305C247.83 47.2654 247.547 45.958 247.547 44.3828C247.547 42.6816 247.893 41.0119 248.587 39.3737C249.28 37.7355 250.241 36.1761 251.469 34.6954C252.698 33.2147 254.131 31.9073 255.769 30.7731C257.408 29.6075 259.172 28.6939 261.062 28.0323C262.606 27.4652 264.291 27.0084 266.118 26.6619C267.977 26.3153 269.804 26.1421 271.6 26.1421C274.53 26.1421 277.145 26.6776 279.445 27.7488C281.776 28.8199 283.603 30.2848 284.926 32.1436C286.249 34.0023 286.911 36.1761 286.911 38.6649C286.911 40.3346 286.643 41.9728 286.108 43.5795C285.572 45.1547 284.69 46.6196 283.461 47.9742C282.264 49.3289 280.673 50.4946 278.688 51.4712C276.704 52.4478 274.262 53.1566 271.364 53.5977L268.245 48.6358C271.269 48.2893 273.727 47.6119 275.617 46.6038C277.507 45.5642 278.878 44.3198 279.728 42.8706C280.61 41.4214 281.051 39.925 281.051 38.3813C281.051 36.9952 280.673 35.7508 279.917 34.6481C279.193 33.5455 278.09 32.6634 276.609 32.0018C275.16 31.3087 273.364 30.9622 271.222 30.9622C269.08 30.9622 267.158 31.1984 265.457 31.671C263.787 32.1436 262.385 32.6476 261.251 33.1832C259.676 33.9393 258.274 34.9001 257.045 36.0658C255.817 37.1999 254.856 38.3971 254.163 39.6572C253.47 40.9174 253.123 42.083 253.123 43.1542C253.123 43.9102 253.296 44.4931 253.643 44.9026C253.989 45.2807 254.541 45.4697 255.297 45.4697C256.431 45.4697 257.738 45.1074 259.219 44.3828C260.7 43.6267 262.165 42.5713 263.614 41.2167C265.315 39.6415 266.922 37.7512 268.434 35.546C269.946 33.3407 271.191 30.5999 272.167 27.3235C272.262 27.0084 272.356 26.5989 272.451 26.0948C272.545 25.5908 272.624 25.0867 272.687 24.5826C272.782 24.0471 272.845 23.6218 272.876 23.3067L278.641 24.6771Z" fill="#C1A4B9"/>
<path d="M302.789 16.7854C302.663 17.3525 302.553 17.9983 302.458 18.7229C302.395 19.4475 302.332 20.1563 302.269 20.8494C302.238 21.5425 302.222 22.1096 302.222 22.5506C302.19 23.5903 302.175 24.6614 302.175 25.764C302.206 26.8667 302.238 28.0008 302.269 29.1664C302.332 30.3006 302.411 31.4347 302.505 32.5689C302.726 34.8371 303.041 36.8376 303.451 38.5703C303.86 40.3031 304.396 41.6577 305.057 42.6343C305.719 43.5795 306.554 44.052 307.562 44.052C308.097 44.052 308.617 43.7527 309.121 43.1542C309.657 42.5556 310.129 41.7837 310.539 40.8386C310.98 39.862 311.358 38.8381 311.673 37.767C312.02 36.6959 312.319 35.6877 312.571 34.7426L317.296 40.5078C316.257 43.2487 315.217 45.4382 314.178 47.0764C313.169 48.6831 312.114 49.8487 311.011 50.5733C309.909 51.2664 308.712 51.6129 307.42 51.6129C305.719 51.6129 304.096 51.0459 302.553 49.9117C301.04 48.7776 299.749 46.9504 298.678 44.4301C297.607 41.8783 296.85 38.4916 296.409 34.2701C296.252 32.8209 296.126 31.293 296.031 29.6863C295.968 28.0796 295.921 26.5516 295.89 25.1025C295.89 23.6533 295.89 22.4561 295.89 21.511C295.89 20.8494 295.858 20.0618 295.795 19.1482C295.732 18.2346 295.638 17.4155 295.512 16.6909L302.789 16.7854ZM326.417 17.8723C327.299 18.9434 328.15 20.2509 328.969 21.7945C329.788 23.3382 330.544 24.9922 331.237 26.7564C331.93 28.5206 332.544 30.3321 333.08 32.1908C333.615 34.018 334.041 35.8138 334.356 37.578C334.702 39.3107 334.923 40.9016 335.017 42.3508L328.78 44.7609C328.622 42.8391 328.339 40.7441 327.929 38.4758C327.519 36.2076 326.968 33.9235 326.275 31.6237C325.582 29.324 324.747 27.1502 323.771 25.1025C322.825 23.0547 321.707 21.2905 320.415 19.8098L326.417 17.8723Z" fill="#C1A4B9"/>
<path d="M374.334 24.4409C373.578 24.8819 372.806 25.3072 372.019 25.7168C371.263 26.0948 370.459 26.5044 369.609 26.9454C368.632 27.418 367.498 27.9851 366.206 28.6466C364.946 29.2767 363.607 29.9855 362.189 30.7731C360.772 31.5292 359.338 32.3641 357.889 33.2777C355.936 34.5694 354.345 35.9083 353.116 37.2944C351.919 38.6806 351.321 40.2085 351.321 41.8782C351.321 43.548 352.14 44.8396 353.778 45.7532C355.416 46.6353 357.889 47.0764 361.197 47.0764C362.804 47.0764 364.536 47.0134 366.395 46.8874C368.254 46.7298 370.065 46.5251 371.83 46.273C373.625 45.9895 375.216 45.6902 376.602 45.3752L376.508 52.1328C375.185 52.3848 373.736 52.6053 372.16 52.7943C370.617 52.9834 368.947 53.1251 367.151 53.2196C365.356 53.3141 363.418 53.3614 361.339 53.3614C359.008 53.3614 356.834 53.1724 354.818 52.7943C352.801 52.4163 351.037 51.8177 349.525 50.9986C348.044 50.1795 346.879 49.0769 346.028 47.6907C345.209 46.3045 344.799 44.5876 344.799 42.5398C344.799 40.5551 345.24 38.7436 346.122 37.1054C347.005 35.4672 348.202 33.955 349.714 32.5689C351.226 31.1827 352.912 29.8753 354.77 28.6466C356.282 27.67 357.779 26.7722 359.26 25.9531C360.772 25.1024 362.189 24.3306 363.513 23.6375C364.867 22.9129 366.017 22.2671 366.962 21.7C367.844 21.196 368.632 20.7234 369.325 20.2824C370.05 19.8413 370.711 19.3688 371.31 18.8647L374.334 24.4409ZM352.029 13.6193C352.786 15.6986 353.589 17.7148 354.439 19.668C355.322 21.5898 356.188 23.3855 357.039 25.0552C357.921 26.7249 358.724 28.2056 359.449 29.4972L354.109 32.6634C353.258 31.2142 352.376 29.5917 351.462 27.796C350.549 26.0003 349.635 24.1101 348.722 22.1253C347.839 20.1091 346.957 18.0771 346.075 16.0293L352.029 13.6193ZM374.854 12.9105C375.264 13.4775 375.705 14.1549 376.177 14.9425C376.65 15.7301 377.091 16.5177 377.5 17.3052C377.941 18.0928 378.319 18.7859 378.634 19.3845L374.807 20.9912C374.334 20.0146 373.751 18.9119 373.058 17.6833C372.397 16.4231 371.751 15.3363 371.121 14.4226L374.854 12.9105ZM380.477 10.7367C380.887 11.3353 381.328 12.0441 381.801 12.8632C382.273 13.6508 382.73 14.4384 383.171 15.226C383.644 15.9821 384.022 16.6437 384.305 17.2107L380.525 18.8174C380.052 17.8093 379.454 16.6909 378.729 15.4623C378.036 14.2336 377.359 13.1782 376.697 12.2961L380.477 10.7367Z" fill="#C1A4B9"/>
<path d="M417.384 35.1207C417.384 34.081 417.116 33.1359 416.581 32.2853C416.077 31.4347 415.305 30.7574 414.265 30.2533C413.257 29.7178 411.997 29.45 410.485 29.45C408.784 29.45 407.13 29.5917 405.523 29.8753C403.948 30.1588 402.53 30.4896 401.27 30.8677C400.041 31.2142 399.017 31.5135 398.198 31.7655C397.505 31.9545 396.733 32.2223 395.883 32.5689C395.064 32.8839 394.308 33.1674 393.615 33.4195L391.819 26.6619C392.638 26.5989 393.52 26.4886 394.465 26.3311C395.41 26.1736 396.261 26.0161 397.017 25.8585C398.183 25.575 399.506 25.2757 400.986 24.9607C402.499 24.6141 404.137 24.3149 405.901 24.0628C407.665 23.8108 409.461 23.6848 411.288 23.6848C413.809 23.6848 416.014 24.1573 417.904 25.1025C419.826 26.0161 421.322 27.3392 422.393 29.0719C423.464 30.8046 424 32.8997 424 35.357C424 37.8773 423.449 40.1613 422.346 42.209C421.243 44.2568 419.684 46.0525 417.668 47.5962C415.651 49.1084 413.273 50.3685 410.532 51.3767C407.791 52.3848 404.783 53.1094 401.506 53.5504L398.104 47.6907C401.034 47.3442 403.68 46.8401 406.043 46.1785C408.437 45.5169 410.469 44.6821 412.139 43.674C413.84 42.6343 415.132 41.4214 416.014 40.0353C416.927 38.6176 417.384 36.9794 417.384 35.1207ZM398.813 12.4379C400.167 12.7214 401.79 12.9892 403.68 13.2413C405.602 13.4933 407.571 13.7138 409.587 13.9028C411.635 14.0919 413.572 14.2494 415.399 14.3754C417.258 14.4699 418.802 14.5329 420.031 14.5644L419.085 20.3769C417.699 20.2824 416.077 20.1563 414.218 19.9988C412.359 19.8413 410.438 19.668 408.453 19.479C406.468 19.2585 404.546 19.038 402.688 18.8174C400.86 18.5654 399.254 18.3291 397.868 18.1086L398.813 12.4379Z" fill="#C1A4B9"/>
</svg>
