<svg width="192" height="43" viewBox="0 0 192 43" fill="none" xmlns="http://www.w3.org/2000/svg">
<path d="M5.07931 25.3504L0.0795898 16.7729H2.38338L6.84392 24.5294H5.52046L10.03 16.7729H12.1541L7.1707 25.3504H5.07931Z" fill="black"/>
<path d="M45.6733 25.1385L50.8201 16.561H52.9115L58.0746 25.1385H55.8525L51.4247 17.4065H52.2743L47.8628 25.1385H45.6733ZM48.0425 23.1534L48.6144 21.9036H54.7905L55.3623 23.1534H48.0425Z" fill="black"/>
<path d="M96.707 25.2609C95.1384 25.2609 93.9076 24.9301 93.0144 24.2684C92.1321 23.6067 91.6909 22.651 91.6909 21.4011V16.561H93.815V21.3399C93.815 22.2221 94.0655 22.8634 94.5666 23.2636C95.0785 23.6639 95.7974 23.8641 96.7233 23.8641C97.6492 23.8641 98.3627 23.6639 98.8637 23.2636C99.3648 22.8634 99.6153 22.2221 99.6153 21.3399V16.561H101.707V21.4011C101.707 22.651 101.26 23.6067 100.367 24.2684C99.4846 24.9301 98.2646 25.2609 96.707 25.2609Z" fill="black"/>
<path d="M137.497 25.3504V16.7729H139.621V24.0025H145.601V25.3504H137.497Z" fill="black"/>
<path d="M35.2705 28.6484C34.8703 29.7981 34.3738 30.9048 33.7764 31.9668C32.0071 35.1836 29.474 37.6974 26.1768 39.5068C22.8796 41.3162 19.0594 42.2207 14.7168 42.2207H0V28.6484H9.34863V33.8369H14.5967C18.3762 33.8368 21.3715 32.6903 23.583 30.3984C24.1063 29.8565 24.5681 29.2729 24.9697 28.6484H35.2705ZM52.4678 42.2207H43.2998V28.6484H52.4678V42.2207ZM82.7354 42.2207H70.1895L65.9824 28.6484H75.2461L76.4629 32.751H76.7637L77.9805 28.6484H86.9619L82.7354 42.2207ZM109.778 42.2207H100.61V28.6484H109.778V42.2207ZM127.199 42.2207H118.333V28.6484H127.199V42.2207ZM154.1 42.2207H144.147L136.178 28.6484H154.1V42.2207ZM171.558 28.6484V34.2588H191.221V42.2207H162.45V28.6484H171.558ZM14.7168 0C19.0594 0 22.8796 0.904459 26.1768 2.71387C29.474 4.52332 32.0071 7.0371 33.7764 10.2539C34.345 11.2522 34.8239 12.2942 35.2139 13.3799H24.8438C24.4723 12.8275 24.0523 12.3073 23.583 11.8213C21.3716 9.48942 18.376 8.32333 14.5967 8.32324H9.34863V13.3799H0V0H14.7168ZM52.4678 13.3799H43.2998V0H52.4678V13.3799ZM70.7188 13.3799H61.249L57.1016 0H66.752L70.7188 13.3799ZM91.7168 13.3799H82.5078L86.4746 0H95.8838L91.7168 13.3799ZM109.778 13.3799H100.61V0H109.778V13.3799ZM136.082 13.3799H118.333V0H128.225L136.082 13.3799ZM154.1 13.3799H145.173V0H154.1V13.3799ZM190.919 7.96191H171.558V13.3799H162.45V0H190.919V7.96191ZM171.639 13.4863H190.919V28.6484H171.639V13.4863Z" fill="black"/>
<path d="M184.972 25.3504V18.1208H181.182V16.7729H190.937V18.1208H187.096V25.3504H184.972Z" fill="white"/>
<path d="M27.5071 19.3179L28.7023 20.5293L28.7022 20.8133L28.422 20.8133L27.2269 19.6019L27.5071 19.3179Z" fill="black"/>
<path d="M30.1157 19.3179L28.9205 20.5293L28.9206 20.8133L29.2008 20.8133L30.3959 19.6019L30.1157 19.3179Z" fill="black"/>
<path d="M27.5071 22.499L28.7023 21.2876L28.7022 21.0036L28.422 21.0036L27.2269 22.215L27.5071 22.499Z" fill="black"/>
<path d="M30.1157 22.499L28.9205 21.2876L28.9206 21.0036L29.2008 21.0036L30.3959 22.215L30.1157 22.499Z" fill="black"/>
<rect x="27.2241" y="20.6899" width="0.371373" height="0.342197" fill="black"/>
<rect x="30.0327" y="20.6899" width="0.371373" height="0.342197" fill="black"/>
<path d="M74.8308 20.6172C74.9984 20.6172 75.1306 20.7495 75.1306 20.9082C75.1304 21.0668 74.9983 21.1992 74.8308 21.1992C74.6635 21.199 74.5321 21.0667 74.532 20.9082C74.532 20.7496 74.6634 20.6174 74.8308 20.6172Z" stroke="black" stroke-width="0.212064"/>
<path d="M73.6702 21.1411C73.7801 21.6701 74.2587 22.0677 74.8313 22.0679C75.4041 22.0679 75.8824 21.6701 75.9924 21.1411L76.4221 21.231C76.2698 21.9545 75.6163 22.4985 74.8323 22.4985C74.0481 22.4985 73.3937 21.9547 73.2415 21.231L73.6702 21.1411ZM76.4563 20.9087C76.4563 20.9152 76.4554 20.9217 76.4553 20.9282V20.8882C76.4554 20.8949 76.4563 20.902 76.4563 20.9087ZM74.8323 19.3179C75.6155 19.3179 76.2679 19.8611 76.4211 20.5835L75.9915 20.6733C75.8805 20.1456 75.4031 19.7485 74.8313 19.7485C74.2596 19.7487 73.7821 20.1456 73.6711 20.6733L73.2415 20.5835C73.3946 19.8609 74.0489 19.3179 74.8323 19.3179Z" fill="black"/>
<path d="M116.927 21.9704L118.392 19.5298V20.1251L117.504 21.6132L116.927 21.9704Z" fill="black"/>
<path d="M120.108 21.9704L118.642 19.5298V20.1251L119.531 21.6132L120.108 21.9704Z" fill="black"/>
<path d="M119.453 21.792L119.952 22.0752H117.083L117.582 21.792H119.453Z" fill="black"/>
<mask id="mask0_86_2565" style="mask-type:alpha" maskUnits="userSpaceOnUse" x="160" y="19" width="5" height="4">
<rect width="0.548562" height="0.26845" transform="matrix(0.720939 -0.692999 0.720939 0.692999 161.019 20.0503)" fill="#D9D9D9"/>
<rect width="3.31045" height="0.21242" transform="matrix(0.720939 -0.692999 0.720939 0.692999 160.4 21.3994)" fill="#D9D9D9"/>
<rect width="3.31045" height="0.21242" transform="matrix(0.720939 -0.692999 0.720939 0.692999 160.675 21.7656)" fill="#D9D9D9"/>
<rect width="3.31045" height="0.21242" transform="matrix(0.720939 -0.692999 0.720939 0.692999 161.091 22.0474)" fill="#D9D9D9"/>
<rect width="3.31045" height="0.21242" transform="matrix(0.720939 -0.692999 0.720939 0.692999 161.384 22.3994)" fill="#D9D9D9"/>
<rect width="3.31045" height="0.21242" transform="matrix(0.720939 -0.692999 0.720939 0.692999 161.677 22.7754)" fill="#D9D9D9"/>
<rect width="0.674954" height="0.268758" transform="matrix(0.720939 -0.692999 0.720939 0.692999 163.072 22.0962)" fill="#D9D9D9"/>
</mask>
<g mask="url(#mask0_86_2565)">
<rect x="161.237" y="19.8706" width="2.29661" height="2.20761" fill="black"/>
</g>
</svg>
