<svg width="50" height="54" viewBox="0 0 50 54" fill="none" xmlns="http://www.w3.org/2000/svg">
<rect width="50" height="54" fill="#F2013C"/>
<path d="M14.9667 10L10 16.6222V39.8C10 40.6782 10.3488 41.5204 10.9698 42.1413C11.5908 42.7623 12.4329 43.1111 13.3111 43.1111H36.4889C37.367 43.1111 38.2092 42.7623 38.8302 42.1413C39.4511 41.5204 39.8 40.6782 39.8 39.8V16.6222L34.8333 10H14.9667Z" stroke="white" stroke-width="3.31111" stroke-linecap="round" stroke-linejoin="round"/>
<path d="M10 16.6221H39.8" stroke="white" stroke-width="3.31111" stroke-linecap="round" stroke-linejoin="round"/>
<path d="M31.5222 23.2446C31.5222 25.001 30.8245 26.6853 29.5826 27.9272C28.3407 29.1692 26.6563 29.8669 24.9 29.8669C23.1437 29.8669 21.4593 29.1692 20.2174 27.9272C18.9755 26.6853 18.2778 25.001 18.2778 23.2446" stroke="white" stroke-width="3.31111" stroke-linecap="round" stroke-linejoin="round"/>
</svg>
