<svg width="355" height="66" viewBox="0 0 355 66" fill="none" xmlns="http://www.w3.org/2000/svg">
<path d="M2.63858 15H2.03429V0.900024H2.63858V15Z" fill="black"/>
<path d="M7.03774 15H6.43345V0.900024H7.03774V15Z" fill="black"/>
<path d="M11.1096 15H10.5053V0.900024H11.1096V15Z" fill="black"/>
<path d="M17.5381 15.2014C16.5713 15.2014 15.7991 14.8389 15.2217 14.1137C14.6577 13.3751 14.3757 12.368 14.3757 11.0923V5.10987H14.98V11.0721C14.98 12.1867 15.215 13.0596 15.685 13.6907C16.155 14.3219 16.7928 14.6374 17.5986 14.6374C18.2566 14.6374 18.8676 14.4427 19.4316 14.0533C19.9955 13.6639 20.4454 13.1401 20.7811 12.4821C21.1168 11.8241 21.2847 11.1259 21.2847 10.3873V5.10987H21.889V15H21.3048V12.5023H21.2041C20.8147 13.3483 20.2977 14.013 19.6531 14.4964C19.022 14.9664 18.317 15.2014 17.5381 15.2014Z" fill="black"/>
<path d="M28.038 15.2014C27.0175 15.2014 26.158 14.953 25.4598 14.4561C24.7615 13.9593 24.3049 13.2543 24.0901 12.3411L24.6541 12.2404C24.8018 12.979 25.1778 13.5631 25.782 13.9929C26.3863 14.4226 27.1383 14.6374 28.038 14.6374C28.9243 14.6374 29.6226 14.4293 30.1329 14.013C30.6432 13.5967 30.8983 13.0461 30.8983 12.3613C30.8983 11.8779 30.764 11.4951 30.4955 11.2131C30.2403 10.9311 29.9113 10.723 29.5085 10.5887C29.1056 10.441 28.5819 10.3 27.9373 10.1657C27.2122 10.0046 26.628 9.84344 26.1849 9.68229C25.7418 9.52115 25.3658 9.26601 25.0569 8.91687C24.7481 8.5543 24.5936 8.07087 24.5936 7.46658C24.5936 6.68773 24.9025 6.07002 25.5202 5.61344C26.1379 5.14345 26.91 4.90845 27.8366 4.90845C28.7363 4.90845 29.5018 5.13673 30.1329 5.5933C30.7775 6.03644 31.1938 6.69444 31.3818 7.5673L30.8178 7.64787C30.6969 6.96301 30.3612 6.42587 29.8106 6.03644C29.2735 5.64702 28.6155 5.4523 27.8366 5.4523C27.0846 5.4523 26.4535 5.63359 25.9432 5.99616C25.4329 6.35873 25.1778 6.84887 25.1778 7.46658C25.1778 7.95001 25.3053 8.33273 25.5605 8.61473C25.829 8.8833 26.158 9.09144 26.5475 9.23915C26.9503 9.37344 27.4808 9.50772 28.1388 9.64201C28.8773 9.81658 29.4615 9.98444 29.8912 10.1456C30.3343 10.3067 30.7103 10.5686 31.0192 10.9311C31.328 11.2803 31.4825 11.757 31.4825 12.3613C31.4825 13.2341 31.1669 13.9257 30.5358 14.436C29.9046 14.9463 29.072 15.2014 28.038 15.2014Z" fill="black"/>
<path d="M36.8356 15C36.097 15 35.5464 14.812 35.1839 14.436C34.8347 14.06 34.6602 13.4624 34.6602 12.6433V5.65373H32.3034V5.10987H34.6602L34.781 2.28988H35.2644V5.10987H38.6081V5.65373H35.2644V12.6433C35.2644 13.2879 35.3853 13.7511 35.627 14.0331C35.8822 14.3017 36.2984 14.436 36.8759 14.436H38.7089V15H36.8356Z" fill="black"/>
<path d="M40.7368 15V5.10987H41.321V7.60758H41.4217C41.7843 6.80187 42.2543 6.18416 42.8317 5.75444C43.4091 5.32473 44.0873 5.10987 44.8661 5.10987H45.7725V5.67387H44.7654C44.1208 5.67387 43.5367 5.86859 43.013 6.25802C42.4893 6.63401 42.0797 7.13087 41.7843 7.74858C41.4888 8.3663 41.3411 9.0243 41.3411 9.72258V15H40.7368Z" fill="black"/>
<path d="M55.3036 14.4763V15H54.7597C54.3837 15 54.0748 14.8791 53.8331 14.6374C53.6048 14.3957 53.4907 14.06 53.4907 13.6303V12.4821H53.39C53.0274 13.3416 52.5037 14.013 51.8188 14.4964C51.1474 14.9664 50.4088 15.2014 49.6031 15.2014C48.7437 15.2014 48.0186 14.9463 47.4277 14.436C46.8369 13.9123 46.5414 13.2341 46.5414 12.4016C46.5414 11.8107 46.6959 11.287 47.0047 10.8304C47.3136 10.3739 47.7366 10.018 48.2737 9.76287C48.8243 9.50772 49.4353 9.38015 50.1067 9.38015H53.4504V8.63487C53.4504 7.68144 53.1886 6.91601 52.6648 6.33859C52.1411 5.74773 51.416 5.4523 50.4894 5.4523C49.7509 5.4523 49.1197 5.65373 48.596 6.05659C48.0723 6.45944 47.703 7.02344 47.4881 7.74858L46.9241 7.66801C47.1659 6.82201 47.5889 6.15059 48.1931 5.65373C48.8109 5.15687 49.5763 4.90845 50.4894 4.90845C51.5906 4.90845 52.4567 5.25759 53.0878 5.95587C53.719 6.64073 54.0346 7.53373 54.0346 8.63487V13.59C54.0346 13.872 54.1017 14.0936 54.236 14.2547C54.3837 14.4024 54.5784 14.4763 54.8201 14.4763H55.3036ZM49.6233 14.6374C50.335 14.6374 50.9796 14.4427 51.557 14.0533C52.1478 13.6639 52.6111 13.1469 52.9468 12.5023C53.2826 11.8443 53.4504 11.1393 53.4504 10.3873V9.94415H50.1269C49.2674 9.94415 48.549 10.1724 47.9716 10.629C47.4076 11.0856 47.1256 11.6764 47.1256 12.4016C47.1256 13.073 47.3606 13.6169 47.8306 14.0331C48.3006 14.436 48.8981 14.6374 49.6233 14.6374Z" fill="black"/>
<path d="M60.2044 15C59.4658 15 58.9153 14.812 58.5527 14.436C58.2035 14.06 58.029 13.4624 58.029 12.6433V5.65373H55.6723V5.10987H58.029L58.1498 2.28988H58.6333V5.10987H61.977V5.65373H58.6333V12.6433C58.6333 13.2879 58.7541 13.7511 58.9958 14.0331C59.251 14.3017 59.6673 14.436 60.2447 14.436H62.0777V15H60.2044Z" fill="black"/>
<path d="M71.8251 9.66215C71.8251 9.80987 71.8049 9.96429 71.7646 10.1254H63.8082C63.8351 11.4817 64.1977 12.5761 64.8959 13.4087C65.6077 14.2279 66.5477 14.6374 67.7159 14.6374C68.5082 14.6374 69.1662 14.4494 69.6899 14.0734C70.2271 13.684 70.6501 13.1737 70.9589 12.5426L71.5229 12.6433C71.1872 13.4356 70.6971 14.06 70.0525 14.5166C69.4079 14.9731 68.6291 15.2014 67.7159 15.2014C66.8297 15.2014 66.0441 14.9866 65.3592 14.5569C64.6878 14.1137 64.1641 13.5027 63.7881 12.7239C63.4121 11.9316 63.2241 11.0386 63.2241 10.0449C63.2241 9.05115 63.4054 8.16487 63.7679 7.38601C64.1439 6.60716 64.6542 6.00287 65.2988 5.57316C65.9568 5.13002 66.7088 4.90845 67.5548 4.90845C68.3739 4.90845 69.1058 5.10987 69.7504 5.51273C70.4084 5.91559 70.9186 6.47959 71.2812 7.20473C71.6438 7.91644 71.8251 8.73558 71.8251 9.66215ZM67.5548 5.4523C66.5074 5.4523 65.6412 5.83502 64.9564 6.60044C64.2849 7.35244 63.9089 8.34615 63.8284 9.58158H71.2611C71.2074 8.3193 70.8381 7.31887 70.1532 6.5803C69.4818 5.8283 68.6156 5.4523 67.5548 5.4523Z" fill="black"/>
<path d="M77.2935 15.2014C76.273 15.2014 75.4135 14.953 74.7153 14.4561C74.017 13.9593 73.5604 13.2543 73.3455 12.3411L73.9095 12.2404C74.0573 12.979 74.4333 13.5631 75.0375 13.9929C75.6418 14.4226 76.3938 14.6374 77.2935 14.6374C78.1798 14.6374 78.8781 14.4293 79.3884 14.013C79.8987 13.5967 80.1538 13.0461 80.1538 12.3613C80.1538 11.8779 80.0195 11.4951 79.751 11.2131C79.4958 10.9311 79.1668 10.723 78.764 10.5887C78.3611 10.441 77.8374 10.3 77.1928 10.1657C76.4677 10.0046 75.8835 9.84344 75.4404 9.68229C74.9973 9.52115 74.6213 9.26601 74.3124 8.91687C74.0035 8.5543 73.8491 8.07087 73.8491 7.46658C73.8491 6.68773 74.158 6.07002 74.7757 5.61344C75.3934 5.14345 76.1655 4.90845 77.0921 4.90845C77.9918 4.90845 78.7572 5.13673 79.3884 5.5933C80.033 6.03644 80.4492 6.69444 80.6372 7.5673L80.0732 7.64787C79.9524 6.96301 79.6167 6.42587 79.0661 6.03644C78.529 5.64702 77.871 5.4523 77.0921 5.4523C76.3401 5.4523 75.709 5.63359 75.1987 5.99616C74.6884 6.35873 74.4333 6.84887 74.4333 7.46658C74.4333 7.95001 74.5608 8.33273 74.816 8.61473C75.0845 8.8833 75.4135 9.09144 75.803 9.23915C76.2058 9.37344 76.7363 9.50772 77.3942 9.64201C78.1328 9.81658 78.717 9.98444 79.1467 10.1456C79.5898 10.3067 79.9658 10.5686 80.2747 10.9311C80.5835 11.2803 80.738 11.757 80.738 12.3613C80.738 13.2341 80.4224 13.9257 79.7912 14.436C79.1601 14.9463 78.3275 15.2014 77.2935 15.2014Z" fill="black"/>
<path d="M90.4776 15C89.7391 15 89.1885 14.812 88.8259 14.436C88.4768 14.06 88.3022 13.4624 88.3022 12.6433V5.65373H85.9455V5.10987H88.3022L88.4231 2.28988H88.9065V5.10987H92.2502V5.65373H88.9065V12.6433C88.9065 13.2879 89.0274 13.7511 89.2691 14.0331C89.5242 14.3017 89.9405 14.436 90.5179 14.436H92.3509V15H90.4776Z" fill="black"/>
<path d="M94.4796 15V0.900024H95.0839V7.58744H95.1846C95.5606 6.74144 96.0709 6.08344 96.7155 5.61344C97.36 5.14345 98.0785 4.90845 98.8707 4.90845C99.8779 4.90845 100.663 5.27102 101.227 5.99616C101.805 6.70787 102.094 7.7083 102.094 8.99744V15H101.489V9.03772C101.489 7.90973 101.254 7.03016 100.784 6.39901C100.314 5.76787 99.6563 5.4523 98.8103 5.4523C98.1389 5.4523 97.5145 5.64702 96.937 6.03644C96.373 6.42587 95.9232 6.94959 95.5875 7.60758C95.2517 8.26558 95.0839 8.96387 95.0839 9.70244V15H94.4796Z" fill="black"/>
<path d="M113.173 9.66215C113.173 9.80987 113.153 9.96429 113.113 10.1254H105.156C105.183 11.4817 105.546 12.5761 106.244 13.4087C106.956 14.2279 107.896 14.6374 109.064 14.6374C109.856 14.6374 110.514 14.4494 111.038 14.0734C111.575 13.684 111.998 13.1737 112.307 12.5426L112.871 12.6433C112.535 13.4356 112.045 14.06 111.4 14.5166C110.756 14.9731 109.977 15.2014 109.064 15.2014C108.178 15.2014 107.392 14.9866 106.707 14.5569C106.036 14.1137 105.512 13.5027 105.136 12.7239C104.76 11.9316 104.572 11.0386 104.572 10.0449C104.572 9.05115 104.753 8.16487 105.116 7.38601C105.492 6.60716 106.002 6.00287 106.647 5.57316C107.305 5.13002 108.057 4.90845 108.903 4.90845C109.722 4.90845 110.454 5.10987 111.098 5.51273C111.756 5.91559 112.267 6.47959 112.629 7.20473C112.992 7.91644 113.173 8.73558 113.173 9.66215ZM108.903 5.4523C107.855 5.4523 106.989 5.83502 106.304 6.60044C105.633 7.35244 105.257 8.34615 105.176 9.58158H112.609C112.555 8.3193 112.186 7.31887 111.501 6.5803C110.83 5.8283 109.964 5.4523 108.903 5.4523Z" fill="black"/>
<path d="M120.445 15V0.900024H121.049V7.58744H121.15C121.526 6.74144 122.036 6.08344 122.681 5.61344C123.325 5.14345 124.044 4.90845 124.836 4.90845C125.843 4.90845 126.629 5.27102 127.193 5.99616C127.77 6.70787 128.059 7.7083 128.059 8.99744V15H127.455V9.03772C127.455 7.90973 127.22 7.03016 126.75 6.39901C126.28 5.76787 125.622 5.4523 124.776 5.4523C124.104 5.4523 123.48 5.64702 122.902 6.03644C122.338 6.42587 121.889 6.94959 121.553 7.60758C121.217 8.26558 121.049 8.96387 121.049 9.70244V15H120.445Z" fill="black"/>
<path d="M134.928 15.2014C134.069 15.2014 133.304 14.9866 132.632 14.5569C131.974 14.1137 131.457 13.5027 131.081 12.7239C130.719 11.9316 130.537 11.0386 130.537 10.0449C130.537 9.05115 130.719 8.16487 131.081 7.38601C131.457 6.60716 131.974 6.00287 132.632 5.57316C133.304 5.13002 134.069 4.90845 134.928 4.90845C135.788 4.90845 136.553 5.13002 137.225 5.57316C137.896 6.00287 138.413 6.60716 138.776 7.38601C139.152 8.16487 139.34 9.05115 139.34 10.0449C139.34 11.0386 139.152 11.9316 138.776 12.7239C138.413 13.5027 137.896 14.1137 137.225 14.5569C136.553 14.9866 135.788 15.2014 134.928 15.2014ZM134.928 14.6374C135.68 14.6374 136.345 14.4427 136.923 14.0533C137.5 13.6639 137.943 13.1267 138.252 12.4419C138.574 11.7436 138.735 10.9446 138.735 10.0449C138.735 9.15858 138.574 8.3663 138.252 7.66801C137.943 6.96973 137.5 6.42587 136.923 6.03644C136.345 5.64702 135.68 5.4523 134.928 5.4523C134.176 5.4523 133.512 5.64702 132.934 6.03644C132.357 6.42587 131.907 6.96973 131.585 7.66801C131.276 8.3663 131.121 9.15858 131.121 10.0449C131.121 10.9446 131.276 11.7436 131.585 12.4419C131.907 13.1267 132.357 13.6639 132.934 14.0533C133.512 14.4427 134.176 14.6374 134.928 14.6374Z" fill="black"/>
<path d="M142.628 15H142.024V0.900024H142.628V15Z" fill="black"/>
<path d="M149.298 14.4561L152.743 5.10987H153.327L148.231 19.0286H147.647L149.117 15H148.513L144.726 5.10987H145.35L148.916 14.4561H149.298Z" fill="black"/>
<path d="M163.074 15.2014C162.268 15.2014 161.536 14.9866 160.878 14.5569C160.234 14.1137 159.73 13.5027 159.368 12.7239C159.005 11.9316 158.824 11.0386 158.824 10.0449C158.824 9.05115 159.005 8.16487 159.368 7.38601C159.73 6.60716 160.234 6.00287 160.878 5.57316C161.536 5.13002 162.268 4.90845 163.074 4.90845C163.92 4.90845 164.679 5.15016 165.35 5.63359C166.022 6.11702 166.545 6.79516 166.921 7.66801H167.022V0.900024H167.626V15H167.042V12.4016H166.941C166.565 13.3013 166.035 13.9929 165.35 14.4763C164.679 14.9597 163.92 15.2014 163.074 15.2014ZM163.114 14.6374C163.853 14.6374 164.518 14.436 165.108 14.0331C165.699 13.6303 166.163 13.0797 166.498 12.3814C166.847 11.6831 167.022 10.9043 167.022 10.0449C167.022 9.18544 166.847 8.40658 166.498 7.7083C166.163 7.01001 165.699 6.45944 165.108 6.05659C164.518 5.65373 163.853 5.4523 163.114 5.4523C162.403 5.4523 161.765 5.64702 161.201 6.03644C160.637 6.42587 160.194 6.96973 159.871 7.66801C159.562 8.35287 159.408 9.14515 159.408 10.0449C159.408 10.9446 159.562 11.7436 159.871 12.4419C160.194 13.1267 160.637 13.6639 161.201 14.0533C161.765 14.4427 162.403 14.6374 163.114 14.6374Z" fill="black"/>
<path d="M171.681 15H171.097V5.10987H171.681V15ZM171.863 2.93445H170.936V1.90717H171.863V2.93445Z" fill="black"/>
<path d="M178.472 15H177.727L173.799 5.10987H174.424L178.069 14.3554H178.17L181.796 5.10987H182.4L178.472 15Z" fill="black"/>
<path d="M185.077 15H184.493V5.10987H185.077V15ZM185.258 2.93445H184.332V1.90717H185.258V2.93445Z" fill="black"/>
<path d="M188.464 15V5.10987H189.048V7.60758H189.149C189.538 6.74816 190.055 6.08344 190.7 5.61344C191.344 5.14345 192.063 4.90845 192.855 4.90845C193.862 4.90845 194.648 5.27102 195.212 5.99616C195.789 6.70787 196.078 7.7083 196.078 8.99744V15H195.474V9.03772C195.474 7.90973 195.239 7.03016 194.769 6.39901C194.299 5.76787 193.641 5.4523 192.795 5.4523C192.123 5.4523 191.499 5.64702 190.921 6.03644C190.357 6.42587 189.908 6.94959 189.572 7.60758C189.236 8.26558 189.068 8.96387 189.068 9.70244V15H188.464Z" fill="black"/>
<path d="M207.16 9.66215C207.16 9.80987 207.14 9.96429 207.099 10.1254H199.143C199.17 11.4817 199.532 12.5761 200.231 13.4087C200.942 14.2279 201.882 14.6374 203.051 14.6374C203.843 14.6374 204.501 14.4494 205.025 14.0734C205.562 13.684 205.985 13.1737 206.294 12.5426L206.858 12.6433C206.522 13.4356 206.032 14.06 205.387 14.5166C204.743 14.9731 203.964 15.2014 203.051 15.2014C202.164 15.2014 201.379 14.9866 200.694 14.5569C200.022 14.1137 199.499 13.5027 199.123 12.7239C198.747 11.9316 198.559 11.0386 198.559 10.0449C198.559 9.05115 198.74 8.16487 199.103 7.38601C199.479 6.60716 199.989 6.00287 200.633 5.57316C201.291 5.13002 202.043 4.90845 202.889 4.90845C203.709 4.90845 204.44 5.10987 205.085 5.51273C205.743 5.91559 206.253 6.47959 206.616 7.20473C206.978 7.91644 207.16 8.73558 207.16 9.66215ZM202.889 5.4523C201.842 5.4523 200.976 5.83502 200.291 6.60044C199.62 7.35244 199.244 8.34615 199.163 9.58158H206.596C206.542 8.3193 206.173 7.31887 205.488 6.5803C204.816 5.8283 203.95 5.4523 202.889 5.4523Z" fill="black"/>
<path d="M217.644 15.2014C216.784 15.2014 216.019 14.9866 215.348 14.5569C214.69 14.1137 214.173 13.5027 213.797 12.7239C213.434 11.9316 213.253 11.0386 213.253 10.0449C213.253 9.05115 213.434 8.16487 213.797 7.38601C214.173 6.60716 214.69 6.00287 215.348 5.57316C216.019 5.13002 216.784 4.90845 217.644 4.90845C218.503 4.90845 219.269 5.13002 219.94 5.57316C220.612 6.00287 221.129 6.60716 221.491 7.38601C221.867 8.16487 222.055 9.05115 222.055 10.0449C222.055 11.0386 221.867 11.9316 221.491 12.7239C221.129 13.5027 220.612 14.1137 219.94 14.5569C219.269 14.9866 218.503 15.2014 217.644 15.2014ZM217.644 14.6374C218.396 14.6374 219.061 14.4427 219.638 14.0533C220.215 13.6639 220.659 13.1267 220.967 12.4419C221.29 11.7436 221.451 10.9446 221.451 10.0449C221.451 9.15858 221.29 8.3663 220.967 7.66801C220.659 6.96973 220.215 6.42587 219.638 6.03644C219.061 5.64702 218.396 5.4523 217.644 5.4523C216.892 5.4523 216.227 5.64702 215.65 6.03644C215.072 6.42587 214.622 6.96973 214.3 7.66801C213.991 8.3663 213.837 9.15858 213.837 10.0449C213.837 10.9446 213.991 11.7436 214.3 12.4419C214.622 13.1267 215.072 13.6639 215.65 14.0533C216.227 14.4427 216.892 14.6374 217.644 14.6374Z" fill="black"/>
<path d="M227.564 1.44388C226.986 1.44388 226.57 1.58488 226.315 1.86688C226.073 2.13545 225.952 2.59874 225.952 3.25674V5.10987H229.195V5.65373H225.952V15H225.348V5.65373H222.991V5.10987H225.348V3.25674C225.348 2.43759 225.523 1.84002 225.872 1.46402C226.234 1.08802 226.785 0.900024 227.524 0.900024H229.296V1.44388H227.564Z" fill="black"/>
<path d="M238.185 15C237.447 15 236.896 14.812 236.533 14.436C236.184 14.06 236.01 13.4624 236.01 12.6433V5.65373H233.653V5.10987H236.01L236.131 2.28988H236.614V5.10987H239.958V5.65373H236.614V12.6433C236.614 13.2879 236.735 13.7511 236.977 14.0331C237.232 14.3017 237.648 14.436 238.225 14.436H240.058V15H238.185Z" fill="black"/>
<path d="M242.187 15V0.900024H242.791V7.58744H242.892C243.268 6.74144 243.778 6.08344 244.423 5.61344C245.067 5.14345 245.786 4.90845 246.578 4.90845C247.585 4.90845 248.371 5.27102 248.935 5.99616C249.512 6.70787 249.801 7.7083 249.801 8.99744V15H249.197V9.03772C249.197 7.90973 248.962 7.03016 248.492 6.39901C248.022 5.76787 247.364 5.4523 246.518 5.4523C245.846 5.4523 245.222 5.64702 244.645 6.03644C244.081 6.42587 243.631 6.94959 243.295 7.60758C242.959 8.26558 242.791 8.96387 242.791 9.70244V15H242.187Z" fill="black"/>
<path d="M260.88 9.66215C260.88 9.80987 260.86 9.96429 260.82 10.1254H252.864C252.89 11.4817 253.253 12.5761 253.951 13.4087C254.663 14.2279 255.603 14.6374 256.771 14.6374C257.564 14.6374 258.222 14.4494 258.745 14.0734C259.282 13.684 259.705 13.1737 260.014 12.5426L260.578 12.6433C260.243 13.4356 259.752 14.06 259.108 14.5166C258.463 14.9731 257.684 15.2014 256.771 15.2014C255.885 15.2014 255.099 14.9866 254.415 14.5569C253.743 14.1137 253.219 13.5027 252.843 12.7239C252.467 11.9316 252.279 11.0386 252.279 10.0449C252.279 9.05115 252.461 8.16487 252.823 7.38601C253.199 6.60716 253.71 6.00287 254.354 5.57316C255.012 5.13002 255.764 4.90845 256.61 4.90845C257.429 4.90845 258.161 5.10987 258.806 5.51273C259.464 5.91559 259.974 6.47959 260.337 7.20473C260.699 7.91644 260.88 8.73558 260.88 9.66215ZM256.61 5.4523C255.563 5.4523 254.697 5.83502 254.012 6.60044C253.34 7.35244 252.964 8.34615 252.884 9.58158H260.316C260.263 8.3193 259.893 7.31887 259.209 6.5803C258.537 5.8283 257.671 5.4523 256.61 5.4523Z" fill="black"/>
<path d="M277.508 15H276.884L275.373 10.8506H268.585L267.094 15H266.49L271.606 0.900024H272.392L277.508 15ZM271.929 1.58488L268.786 10.2866H275.172L272.029 1.58488H271.929Z" fill="black"/>
<path d="M279.598 15V5.10987H280.183V7.60758H280.283C280.646 6.80187 281.116 6.18416 281.693 5.75444C282.271 5.32473 282.949 5.10987 283.728 5.10987H284.634V5.67387H283.627C282.982 5.67387 282.398 5.86859 281.875 6.25802C281.351 6.63401 280.941 7.13087 280.646 7.74858C280.35 8.3663 280.203 9.0243 280.203 9.72258V15H279.598Z" fill="black"/>
<path d="M289.915 15.2014C289.042 15.2014 288.27 14.9866 287.599 14.5569C286.927 14.1137 286.403 13.5027 286.027 12.7239C285.665 11.9316 285.484 11.0386 285.484 10.0449C285.484 9.05115 285.665 8.16487 286.027 7.38601C286.403 6.60716 286.92 6.00287 287.578 5.57316C288.25 5.13002 289.015 4.90845 289.875 4.90845C290.801 4.90845 291.6 5.16359 292.272 5.67387C292.943 6.17073 293.44 6.86901 293.762 7.76873L293.198 7.86944C292.93 7.13087 292.507 6.54673 291.929 6.11702C291.352 5.67387 290.667 5.4523 289.875 5.4523C289.123 5.4523 288.458 5.64702 287.881 6.03644C287.303 6.42587 286.853 6.96973 286.531 7.66801C286.222 8.35287 286.068 9.14515 286.068 10.0449C286.068 10.9446 286.229 11.7436 286.551 12.4419C286.873 13.1267 287.323 13.6639 287.901 14.0533C288.478 14.4427 289.15 14.6374 289.915 14.6374C290.721 14.6374 291.412 14.4226 291.99 13.9929C292.581 13.5631 293.017 12.9723 293.299 12.2203L293.863 12.3411C293.541 13.2409 293.037 13.9459 292.352 14.4561C291.667 14.953 290.855 15.2014 289.915 15.2014Z" fill="black"/>
<path d="M296.341 15V0.900024H296.945V7.58744H297.046C297.422 6.74144 297.932 6.08344 298.576 5.61344C299.221 5.14345 299.939 4.90845 300.732 4.90845C301.739 4.90845 302.524 5.27102 303.088 5.99616C303.666 6.70787 303.955 7.7083 303.955 8.99744V15H303.35V9.03772C303.35 7.90973 303.115 7.03016 302.645 6.39901C302.175 5.76787 301.517 5.4523 300.671 5.4523C300 5.4523 299.375 5.64702 298.798 6.03644C298.234 6.42587 297.784 6.94959 297.448 7.60758C297.113 8.26558 296.945 8.96387 296.945 9.70244V15H296.341Z" fill="black"/>
<path d="M315.114 14.4763V15H314.571C314.195 15 313.886 14.8791 313.644 14.6374C313.416 14.3957 313.302 14.06 313.302 13.6303V12.4821H313.201C312.838 13.3416 312.315 14.013 311.63 14.4964C310.958 14.9664 310.22 15.2014 309.414 15.2014C308.555 15.2014 307.829 14.9463 307.239 14.436C306.648 13.9123 306.352 13.2341 306.352 12.4016C306.352 11.8107 306.507 11.287 306.816 10.8304C307.124 10.3739 307.547 10.018 308.085 9.76287C308.635 9.50772 309.246 9.38015 309.918 9.38015H313.261V8.63487C313.261 7.68144 312.999 6.91601 312.476 6.33859C311.952 5.74773 311.227 5.4523 310.3 5.4523C309.562 5.4523 308.931 5.65373 308.407 6.05659C307.883 6.45944 307.514 7.02344 307.299 7.74858L306.735 7.66801C306.977 6.82201 307.4 6.15059 308.004 5.65373C308.622 5.15687 309.387 4.90845 310.3 4.90845C311.401 4.90845 312.268 5.25759 312.899 5.95587C313.53 6.64073 313.845 7.53373 313.845 8.63487V13.59C313.845 13.872 313.913 14.0936 314.047 14.2547C314.195 14.4024 314.389 14.4763 314.631 14.4763H315.114ZM309.434 14.6374C310.146 14.6374 310.79 14.4427 311.368 14.0533C311.959 13.6639 312.422 13.1469 312.758 12.5023C313.093 11.8443 313.261 11.1393 313.261 10.3873V9.94415H309.938C309.078 9.94415 308.36 10.1724 307.782 10.629C307.218 11.0856 306.936 11.6764 306.936 12.4016C306.936 13.073 307.171 13.6169 307.641 14.0331C308.111 14.436 308.709 14.6374 309.434 14.6374Z" fill="black"/>
<path d="M317.13 15V5.10987H317.714V7.60758H317.815C318.204 6.74816 318.721 6.08344 319.366 5.61344C320.011 5.14345 320.729 4.90845 321.521 4.90845C322.528 4.90845 323.314 5.27102 323.878 5.99616C324.455 6.70787 324.744 7.7083 324.744 8.99744V15H324.14V9.03772C324.14 7.90973 323.905 7.03016 323.435 6.39901C322.965 5.76787 322.307 5.4523 321.461 5.4523C320.789 5.4523 320.165 5.64702 319.588 6.03644C319.024 6.42587 318.574 6.94959 318.238 7.60758C317.902 8.26558 317.734 8.96387 317.734 9.70244V15H317.13Z" fill="black"/>
<path d="M331.656 19.0286C330.595 19.0286 329.682 18.7533 328.917 18.2027C328.151 17.6656 327.648 16.927 327.406 15.987L327.97 15.8863C328.172 16.692 328.601 17.3231 329.259 17.7797C329.931 18.2363 330.73 18.4646 331.656 18.4646C332.811 18.4646 333.711 18.102 334.355 17.3769C335 16.6517 335.322 15.6177 335.322 14.2749V12.0994H335.222C334.846 12.9723 334.322 13.6437 333.65 14.1137C332.979 14.5703 332.234 14.7986 331.415 14.7986C330.622 14.7986 329.904 14.5904 329.259 14.1741C328.628 13.7444 328.131 13.1536 327.769 12.4016C327.406 11.6496 327.225 10.7969 327.225 9.84344C327.225 8.90344 327.406 8.05744 327.769 7.30544C328.131 6.55344 328.628 5.9693 329.259 5.55302C329.904 5.1233 330.622 4.90845 331.415 4.90845C332.234 4.90845 332.979 5.14345 333.65 5.61344C334.322 6.07002 334.852 6.73473 335.242 7.60758H335.342V5.10987H335.927V14.2749C335.927 15.7789 335.544 16.9471 334.778 17.7797C334.026 18.6123 332.986 19.0286 331.656 19.0286ZM331.455 14.2346C332.18 14.2346 332.838 14.0399 333.429 13.6504C334.02 13.261 334.483 12.7306 334.819 12.0591C335.154 11.3877 335.322 10.6492 335.322 9.84344C335.322 9.03772 335.154 8.29915 334.819 7.62773C334.483 6.9563 334.02 6.42587 333.429 6.03644C332.838 5.64702 332.18 5.4523 331.455 5.4523C330.757 5.4523 330.132 5.6403 329.582 6.0163C329.031 6.3923 328.595 6.91601 328.272 7.58744C327.963 8.25887 327.809 9.01087 327.809 9.84344C327.809 10.6894 327.963 11.4481 328.272 12.1196C328.595 12.7776 329.031 13.2946 329.582 13.6706C330.132 14.0466 330.757 14.2346 331.455 14.2346Z" fill="black"/>
<path d="M347.097 9.66215C347.097 9.80987 347.077 9.96429 347.037 10.1254H339.08C339.107 11.4817 339.47 12.5761 340.168 13.4087C340.88 14.2279 341.82 14.6374 342.988 14.6374C343.78 14.6374 344.438 14.4494 344.962 14.0734C345.499 13.684 345.922 13.1737 346.231 12.5426L346.795 12.6433C346.459 13.4356 345.969 14.06 345.325 14.5166C344.68 14.9731 343.901 15.2014 342.988 15.2014C342.102 15.2014 341.316 14.9866 340.631 14.5569C339.96 14.1137 339.436 13.5027 339.06 12.7239C338.684 11.9316 338.496 11.0386 338.496 10.0449C338.496 9.05115 338.677 8.16487 339.04 7.38601C339.416 6.60716 339.926 6.00287 340.571 5.57316C341.229 5.13002 341.981 4.90845 342.827 4.90845C343.646 4.90845 344.378 5.10987 345.022 5.51273C345.68 5.91559 346.191 6.47959 346.553 7.20473C346.916 7.91644 347.097 8.73558 347.097 9.66215ZM342.827 5.4523C341.779 5.4523 340.913 5.83502 340.228 6.60044C339.557 7.35244 339.181 8.34615 339.1 9.58158H346.533C346.479 8.3193 346.11 7.31887 345.425 6.5803C344.754 5.8283 343.888 5.4523 342.827 5.4523Z" fill="black"/>
<path d="M350.39 15H349.786V0.900024H350.39V15Z" fill="black"/>
<path d="M353.838 17.2963H353.213V17.0344L354.019 15H353.213V13.8116H354.381V15L353.838 17.2963Z" fill="black"/>
<path d="M5.19671 40.2014C4.391 40.2014 3.65915 39.9866 3.00115 39.5569C2.35658 39.1137 1.85301 38.5027 1.49044 37.7239C1.12786 36.9316 0.94658 36.0386 0.94658 35.0449C0.94658 34.0512 1.12786 33.1649 1.49044 32.386C1.85301 31.6072 2.35658 31.0029 3.00115 30.5732C3.65915 30.13 4.391 29.9084 5.19671 29.9084C6.04271 29.9084 6.80143 30.1502 7.47285 30.6336C8.14428 31.117 8.66799 31.7952 9.04399 32.668H9.14471V25.9H9.74899V40H9.16485V37.4016H9.06414C8.68814 38.3013 8.15771 38.9929 7.47285 39.4763C6.80143 39.9597 6.04271 40.2014 5.19671 40.2014ZM5.237 39.6374C5.97557 39.6374 6.64028 39.436 7.23114 39.0331C7.822 38.6303 8.28528 38.0797 8.62099 37.3814C8.97014 36.6831 9.14471 35.9043 9.14471 35.0449C9.14471 34.1854 8.97014 33.4066 8.62099 32.7083C8.28528 32.01 7.822 31.4594 7.23114 31.0566C6.64028 30.6537 5.97557 30.4523 5.237 30.4523C4.52529 30.4523 3.88743 30.647 3.32343 31.0364C2.75943 31.4259 2.31629 31.9697 1.99401 32.668C1.68515 33.3529 1.53072 34.1452 1.53072 35.0449C1.53072 35.9446 1.68515 36.7436 1.99401 37.4419C2.31629 38.1267 2.75943 38.6639 3.32343 39.0533C3.88743 39.4427 4.52529 39.6374 5.237 39.6374Z" fill="black"/>
<path d="M21.0353 34.6622C21.0353 34.8099 21.0151 34.9643 20.9748 35.1254H13.0184C13.0453 36.4817 13.4079 37.5761 14.1061 38.4087C14.8178 39.2279 15.7578 39.6374 16.9261 39.6374C17.7184 39.6374 18.3764 39.4494 18.9001 39.0734C19.4373 38.684 19.8603 38.1737 20.1691 37.5426L20.7331 37.6433C20.3974 38.4356 19.9073 39.06 19.2627 39.5166C18.6181 39.9731 17.8393 40.2014 16.9261 40.2014C16.0398 40.2014 15.2543 39.9866 14.5694 39.5569C13.898 39.1137 13.3743 38.5027 12.9983 37.7239C12.6223 36.9316 12.4343 36.0386 12.4343 35.0449C12.4343 34.0512 12.6156 33.1649 12.9781 32.386C13.3541 31.6072 13.8644 31.0029 14.509 30.5732C15.167 30.13 15.919 29.9084 16.765 29.9084C17.5841 29.9084 18.316 30.1099 18.9606 30.5127C19.6186 30.9156 20.1288 31.4796 20.4914 32.2047C20.854 32.9164 21.0353 33.7356 21.0353 34.6622ZM16.765 30.4523C15.7176 30.4523 14.8514 30.835 14.1666 31.6004C13.4951 32.3524 13.1191 33.3462 13.0386 34.5816H20.4713C20.4176 33.3193 20.0483 32.3189 19.3634 31.5803C18.692 30.8283 17.8258 30.4523 16.765 30.4523Z" fill="black"/>
<path d="M26.5037 40.2014C25.4832 40.2014 24.6237 39.953 23.9254 39.4561C23.2272 38.9593 22.7706 38.2543 22.5557 37.3411L23.1197 37.2404C23.2674 37.979 23.6434 38.5631 24.2477 38.9929C24.852 39.4226 25.604 39.6374 26.5037 39.6374C27.39 39.6374 28.0883 39.4293 28.5986 39.013C29.1089 38.5967 29.364 38.0461 29.364 37.3613C29.364 36.8779 29.2297 36.4951 28.9612 36.2132C28.706 35.9312 28.377 35.723 27.9742 35.5887C27.5713 35.441 27.0476 35.3 26.403 35.1657C25.6779 35.0046 25.0937 34.8434 24.6506 34.6823C24.2074 34.5212 23.8314 34.266 23.5226 33.9169C23.2137 33.5543 23.0593 33.0709 23.0593 32.4666C23.0593 31.6877 23.3682 31.07 23.9859 30.6134C24.6036 30.1434 25.3757 29.9084 26.3023 29.9084C27.202 29.9084 27.9674 30.1367 28.5986 30.5933C29.2431 31.0364 29.6594 31.6944 29.8474 32.5673L29.2834 32.6479C29.1626 31.963 28.8269 31.4259 28.2763 31.0364C27.7392 30.647 27.0812 30.4523 26.3023 30.4523C25.5503 30.4523 24.9192 30.6336 24.4089 30.9962C23.8986 31.3587 23.6434 31.8489 23.6434 32.4666C23.6434 32.95 23.771 33.3327 24.0262 33.6147C24.2947 33.8833 24.6237 34.0914 25.0132 34.2392C25.416 34.3734 25.9464 34.5077 26.6044 34.642C27.343 34.8166 27.9272 34.9844 28.3569 35.1456C28.8 35.3067 29.176 35.5686 29.4849 35.9311C29.7937 36.2803 29.9481 36.757 29.9481 37.3613C29.9481 38.2341 29.6326 38.9257 29.0014 39.436C28.3703 39.9463 27.5377 40.2014 26.5037 40.2014Z" fill="black"/>
<path d="M36.1627 40.2014C35.2898 40.2014 34.5177 39.9866 33.8463 39.5569C33.1748 39.1137 32.6511 38.5027 32.2751 37.7239C31.9125 36.9316 31.7313 36.0386 31.7313 35.0449C31.7313 34.0512 31.9125 33.1649 32.2751 32.386C32.6511 31.6072 33.1681 31.0029 33.8261 30.5732C34.4975 30.13 35.263 29.9084 36.1224 29.9084C37.049 29.9084 37.848 30.1636 38.5194 30.6739C39.1908 31.1707 39.6877 31.869 40.01 32.7687L39.446 32.8694C39.1774 32.1309 38.7544 31.5467 38.177 31.117C37.5995 30.6739 36.9147 30.4523 36.1224 30.4523C35.3704 30.4523 34.7057 30.647 34.1283 31.0364C33.5508 31.4259 33.101 31.9697 32.7787 32.668C32.4698 33.3529 32.3154 34.1452 32.3154 35.0449C32.3154 35.9446 32.4765 36.7436 32.7988 37.4419C33.1211 38.1267 33.571 38.6639 34.1484 39.0533C34.7258 39.4427 35.3973 39.6374 36.1627 39.6374C36.9684 39.6374 37.66 39.4226 38.2374 38.9929C38.8282 38.5631 39.2647 37.9723 39.5467 37.2203L40.1107 37.3411C39.7884 38.2409 39.2848 38.9459 38.6 39.4561C37.9151 39.953 37.1027 40.2014 36.1627 40.2014Z" fill="black"/>
<path d="M42.4875 40V30.1099H43.0717V32.6076H43.1724C43.535 31.8019 44.005 31.1842 44.5824 30.7544C45.1598 30.3247 45.838 30.1099 46.6168 30.1099H47.5232V30.6739H46.5161C45.8715 30.6739 45.2874 30.8686 44.7637 31.258C44.24 31.634 43.8304 32.1309 43.535 32.7486C43.2395 33.3663 43.0918 34.0243 43.0918 34.7226V40H42.4875Z" fill="black"/>
<path d="M49.9391 40H49.355V30.1099H49.9391V40ZM50.1204 27.9345H49.1938V26.9072H50.1204V27.9345Z" fill="black"/>
<path d="M57.9791 40.2014C57.1331 40.2014 56.3677 39.9597 55.6828 39.4763C55.0114 38.9929 54.4877 38.3013 54.1117 37.4016H54.011V40H53.4268V25.9H54.0311V32.668H54.1318C54.5078 31.7952 55.0315 31.117 55.7029 30.6336C56.3744 30.1502 57.1331 29.9084 57.9791 29.9084C58.7848 29.9084 59.5099 30.13 60.1545 30.5732C60.8125 31.0029 61.3228 31.6072 61.6854 32.386C62.0479 33.1649 62.2292 34.0512 62.2292 35.0449C62.2292 36.0386 62.0479 36.9316 61.6854 37.7239C61.3228 38.5027 60.8125 39.1137 60.1545 39.5569C59.5099 39.9866 58.7848 40.2014 57.9791 40.2014ZM57.9388 39.6374C58.6505 39.6374 59.2884 39.4427 59.8524 39.0533C60.4164 38.6639 60.8528 38.1267 61.1617 37.4419C61.4839 36.7436 61.6451 35.9446 61.6451 35.0449C61.6451 34.1452 61.4839 33.3529 61.1617 32.668C60.8528 31.9697 60.4164 31.4259 59.8524 31.0364C59.2884 30.647 58.6505 30.4523 57.9388 30.4523C57.2002 30.4523 56.5355 30.6537 55.9447 31.0566C55.3538 31.4594 54.8838 32.01 54.5347 32.7083C54.199 33.4066 54.0311 34.1854 54.0311 35.0449C54.0311 35.9043 54.199 36.6831 54.5347 37.3814C54.8838 38.0797 55.3538 38.6303 55.9447 39.0331C56.5355 39.436 57.2002 39.6374 57.9388 39.6374Z" fill="black"/>
<path d="M72.7299 34.6622C72.7299 34.8099 72.7098 34.9643 72.6695 35.1254H64.7131C64.7399 36.4817 65.1025 37.5761 65.8008 38.4087C66.5125 39.2279 67.4525 39.6374 68.6208 39.6374C69.4131 39.6374 70.0711 39.4494 70.5948 39.0734C71.1319 38.684 71.5549 38.1737 71.8638 37.5426L72.4278 37.6433C72.0921 38.4356 71.6019 39.06 70.9574 39.5166C70.3128 39.9731 69.5339 40.2014 68.6208 40.2014C67.7345 40.2014 66.9489 39.9866 66.2641 39.5569C65.5927 39.1137 65.0689 38.5027 64.6929 37.7239C64.3169 36.9316 64.1289 36.0386 64.1289 35.0449C64.1289 34.0512 64.3102 33.1649 64.6728 32.386C65.0488 31.6072 65.5591 31.0029 66.2037 30.5732C66.8617 30.13 67.6136 29.9084 68.4596 29.9084C69.2788 29.9084 70.0106 30.1099 70.6552 30.5127C71.3132 30.9156 71.8235 31.4796 72.1861 32.2047C72.5486 32.9164 72.7299 33.7356 72.7299 34.6622ZM68.4596 30.4523C67.4122 30.4523 66.5461 30.835 65.8612 31.6004C65.1898 32.3524 64.8138 33.3462 64.7332 34.5816H72.1659C72.1122 33.3193 71.7429 32.3189 71.0581 31.5803C70.3866 30.8283 69.5205 30.4523 68.4596 30.4523Z" fill="black"/>
<path d="M78.1984 40.2014C77.1778 40.2014 76.3184 39.953 75.6201 39.4561C74.9218 38.9593 74.4653 38.2543 74.2504 37.3411L74.8144 37.2404C74.9621 37.979 75.3381 38.5631 75.9424 38.9929C76.5467 39.4226 77.2987 39.6374 78.1984 39.6374C79.0847 39.6374 79.783 39.4293 80.2932 39.013C80.8035 38.5967 81.0587 38.0461 81.0587 37.3613C81.0587 36.8779 80.9244 36.4951 80.6558 36.2132C80.4007 35.9312 80.0717 35.723 79.6688 35.5887C79.266 35.441 78.7422 35.3 78.0977 35.1657C77.3725 35.0046 76.7884 34.8434 76.3453 34.6823C75.9021 34.5212 75.5261 34.266 75.2173 33.9169C74.9084 33.5543 74.754 33.0709 74.754 32.4666C74.754 31.6877 75.0628 31.07 75.6805 30.6134C76.2982 30.1434 77.0704 29.9084 77.997 29.9084C78.8967 29.9084 79.6621 30.1367 80.2932 30.5933C80.9378 31.0364 81.3541 31.6944 81.5421 32.5673L80.9781 32.6479C80.8572 31.963 80.5215 31.4259 79.971 31.0364C79.4338 30.647 78.7758 30.4523 77.997 30.4523C77.245 30.4523 76.6138 30.6336 76.1035 30.9962C75.5933 31.3587 75.3381 31.8489 75.3381 32.4666C75.3381 32.95 75.4657 33.3327 75.7208 33.6147C75.9894 33.8833 76.3184 34.0914 76.7078 34.2392C77.1107 34.3734 77.6411 34.5077 78.2991 34.642C79.0377 34.8166 79.6218 34.9844 80.0515 35.1456C80.4947 35.3067 80.8707 35.5686 81.1795 35.9311C81.4884 36.2803 81.6428 36.757 81.6428 37.3613C81.6428 38.2341 81.3272 38.9257 80.6961 39.436C80.065 39.9463 79.2324 40.2014 78.1984 40.2014Z" fill="black"/>
<path d="M90.9998 40H90.2344L87.1324 30.1099H87.7366L90.5768 39.2749H90.6775L93.5781 30.1099H94.3032L97.2038 39.2749H97.3045L100.145 30.1099H100.749L97.6469 40H96.8613L93.9809 30.8753H93.8802L90.9998 40Z" fill="black"/>
<path d="M102.918 40V25.9H103.523V32.5874H103.623C103.999 31.7414 104.51 31.0834 105.154 30.6134C105.799 30.1434 106.517 29.9084 107.309 29.9084C108.317 29.9084 109.102 30.271 109.666 30.9962C110.244 31.7079 110.532 32.7083 110.532 33.9974V40H109.928V34.0377C109.928 32.9097 109.693 32.0302 109.223 31.399C108.753 30.7679 108.095 30.4523 107.249 30.4523C106.578 30.4523 105.953 30.647 105.376 31.0364C104.812 31.4259 104.362 31.9496 104.026 32.6076C103.69 33.2656 103.523 33.9639 103.523 34.7024V40H102.918Z" fill="black"/>
<path d="M121.692 39.4763V40H121.148C120.772 40 120.464 39.8791 120.222 39.6374C119.994 39.3957 119.879 39.06 119.879 38.6303V37.4821H119.779C119.416 38.3416 118.892 39.013 118.208 39.4964C117.536 39.9664 116.798 40.2014 115.992 40.2014C115.132 40.2014 114.407 39.9463 113.816 39.436C113.226 38.9123 112.93 38.2341 112.93 37.4016C112.93 36.8107 113.085 36.287 113.393 35.8304C113.702 35.3739 114.125 35.018 114.662 34.7629C115.213 34.5077 115.824 34.3802 116.495 34.3802H119.839V33.6349C119.839 32.6814 119.577 31.916 119.054 31.3386C118.53 30.7477 117.805 30.4523 116.878 30.4523C116.14 30.4523 115.508 30.6537 114.985 31.0566C114.461 31.4594 114.092 32.0234 113.877 32.7486L113.313 32.668C113.555 31.822 113.978 31.1506 114.582 30.6537C115.2 30.1569 115.965 29.9084 116.878 29.9084C117.979 29.9084 118.845 30.2576 119.477 30.9559C120.108 31.6407 120.423 32.5337 120.423 33.6349V38.59C120.423 38.872 120.49 39.0936 120.625 39.2547C120.772 39.4024 120.967 39.4763 121.209 39.4763H121.692ZM116.012 39.6374C116.724 39.6374 117.368 39.4427 117.946 39.0533C118.537 38.6639 119 38.1469 119.336 37.5023C119.671 36.8443 119.839 36.1393 119.839 35.3873V34.9442H116.516C115.656 34.9442 114.938 35.1724 114.36 35.629C113.796 36.0856 113.514 36.6764 113.514 37.4016C113.514 38.073 113.749 38.6169 114.219 39.0331C114.689 39.436 115.287 39.6374 116.012 39.6374Z" fill="black"/>
<path d="M126.593 40C125.855 40 125.304 39.812 124.941 39.436C124.592 39.06 124.418 38.4624 124.418 37.6433V30.6537H122.061V30.1099H124.418L124.539 27.2899H125.022V30.1099H128.366V30.6537H125.022V37.6433C125.022 38.2879 125.143 38.7511 125.385 39.0331C125.64 39.3017 126.056 39.436 126.633 39.436H128.466V40H126.593Z" fill="black"/>
<path d="M143.074 39.4763V40H142.53C142.154 40 141.846 39.8791 141.604 39.6374C141.376 39.3957 141.261 39.06 141.261 38.6303V37.4821H141.161C140.798 38.3416 140.274 39.013 139.59 39.4964C138.918 39.9664 138.18 40.2014 137.374 40.2014C136.514 40.2014 135.789 39.9463 135.198 39.436C134.608 38.9123 134.312 38.2341 134.312 37.4016C134.312 36.8107 134.467 36.287 134.775 35.8304C135.084 35.3739 135.507 35.018 136.044 34.7629C136.595 34.5077 137.206 34.3802 137.877 34.3802H141.221V33.6349C141.221 32.6814 140.959 31.916 140.436 31.3386C139.912 30.7477 139.187 30.4523 138.26 30.4523C137.522 30.4523 136.89 30.6537 136.367 31.0566C135.843 31.4594 135.474 32.0234 135.259 32.7486L134.695 32.668C134.937 31.822 135.36 31.1506 135.964 30.6537C136.582 30.1569 137.347 29.9084 138.26 29.9084C139.361 29.9084 140.227 30.2576 140.859 30.9559C141.49 31.6407 141.805 32.5337 141.805 33.6349V38.59C141.805 38.872 141.872 39.0936 142.007 39.2547C142.154 39.4024 142.349 39.4763 142.591 39.4763H143.074ZM137.394 39.6374C138.106 39.6374 138.75 39.4427 139.328 39.0533C139.919 38.6639 140.382 38.1469 140.718 37.5023C141.053 36.8443 141.221 36.1393 141.221 35.3873V34.9442H137.898C137.038 34.9442 136.32 35.1724 135.742 35.629C135.178 36.0856 134.896 36.6764 134.896 37.4016C134.896 38.073 135.131 38.6169 135.601 39.0331C136.071 39.436 136.669 39.6374 137.394 39.6374Z" fill="black"/>
<path d="M145.09 40V30.1099H145.674V32.6076H145.775C146.137 31.8019 146.607 31.1842 147.185 30.7544C147.762 30.3247 148.44 30.1099 149.219 30.1099H150.126V30.6739H149.119C148.474 30.6739 147.89 30.8686 147.366 31.258C146.842 31.634 146.433 32.1309 146.137 32.7486C145.842 33.3663 145.694 34.0243 145.694 34.7226V40H145.09Z" fill="black"/>
<path d="M155.407 40.2014C154.534 40.2014 153.762 39.9866 153.09 39.5569C152.419 39.1137 151.895 38.5027 151.519 37.7239C151.156 36.9316 150.975 36.0386 150.975 35.0449C150.975 34.0512 151.156 33.1649 151.519 32.386C151.895 31.6072 152.412 31.0029 153.07 30.5732C153.741 30.13 154.507 29.9084 155.366 29.9084C156.293 29.9084 157.092 30.1636 157.763 30.6739C158.435 31.1707 158.932 31.869 159.254 32.7687L158.69 32.8694C158.421 32.1309 157.998 31.5467 157.421 31.117C156.843 30.6739 156.159 30.4523 155.366 30.4523C154.614 30.4523 153.95 30.647 153.372 31.0364C152.795 31.4259 152.345 31.9697 152.023 32.668C151.714 33.3529 151.559 34.1452 151.559 35.0449C151.559 35.9446 151.72 36.7436 152.043 37.4419C152.365 38.1267 152.815 38.6639 153.392 39.0533C153.97 39.4427 154.641 39.6374 155.407 39.6374C156.212 39.6374 156.904 39.4226 157.481 38.9929C158.072 38.5631 158.509 37.9723 158.791 37.2203L159.355 37.3411C159.032 38.2409 158.529 38.9459 157.844 39.4561C157.159 39.953 156.347 40.2014 155.407 40.2014Z" fill="black"/>
<path d="M161.832 40V25.9H162.436V32.5874H162.537C162.913 31.7414 163.423 31.0834 164.068 30.6134C164.713 30.1434 165.431 29.9084 166.223 29.9084C167.23 29.9084 168.016 30.271 168.58 30.9962C169.157 31.7079 169.446 32.7083 169.446 33.9974V40H168.842V34.0377C168.842 32.9097 168.607 32.0302 168.137 31.399C167.667 30.7679 167.009 30.4523 166.163 30.4523C165.491 30.4523 164.867 30.647 164.29 31.0364C163.726 31.4259 163.276 31.9496 162.94 32.6076C162.604 33.2656 162.436 33.9639 162.436 34.7024V40H161.832Z" fill="black"/>
<path d="M180.606 39.4763V40H180.062C179.686 40 179.377 39.8791 179.136 39.6374C178.907 39.3957 178.793 39.06 178.793 38.6303V37.4821H178.692C178.33 38.3416 177.806 39.013 177.121 39.4964C176.45 39.9664 175.711 40.2014 174.906 40.2014C174.046 40.2014 173.321 39.9463 172.73 39.436C172.139 38.9123 171.844 38.2341 171.844 37.4016C171.844 36.8107 171.998 36.287 172.307 35.8304C172.616 35.3739 173.039 35.018 173.576 34.7629C174.127 34.5077 174.738 34.3802 175.409 34.3802H178.753V33.6349C178.753 32.6814 178.491 31.916 177.967 31.3386C177.444 30.7477 176.718 30.4523 175.792 30.4523C175.053 30.4523 174.422 30.6537 173.898 31.0566C173.375 31.4594 173.005 32.0234 172.791 32.7486L172.227 32.668C172.468 31.822 172.891 31.1506 173.496 30.6537C174.113 30.1569 174.879 29.9084 175.792 29.9084C176.893 29.9084 177.759 30.2576 178.39 30.9559C179.021 31.6407 179.337 32.5337 179.337 33.6349V38.59C179.337 38.872 179.404 39.0936 179.538 39.2547C179.686 39.4024 179.881 39.4763 180.123 39.4763H180.606ZM174.926 39.6374C175.637 39.6374 176.282 39.4427 176.859 39.0533C177.45 38.6639 177.914 38.1469 178.249 37.5023C178.585 36.8443 178.753 36.1393 178.753 35.3873V34.9442H175.429C174.57 34.9442 173.851 35.1724 173.274 35.629C172.71 36.0856 172.428 36.6764 172.428 37.4016C172.428 38.073 172.663 38.6169 173.133 39.0331C173.603 39.436 174.201 39.6374 174.926 39.6374Z" fill="black"/>
<path d="M182.622 40V30.1099H183.206V32.6076H183.307C183.696 31.7482 184.213 31.0834 184.858 30.6134C185.502 30.1434 186.221 29.9084 187.013 29.9084C188.02 29.9084 188.806 30.271 189.37 30.9962C189.947 31.7079 190.236 32.7083 190.236 33.9974V40H189.631V34.0377C189.631 32.9097 189.396 32.0302 188.926 31.399C188.456 30.7679 187.798 30.4523 186.952 30.4523C186.281 30.4523 185.657 30.647 185.079 31.0364C184.515 31.4259 184.065 31.9496 183.73 32.6076C183.394 33.2656 183.226 33.9639 183.226 34.7024V40H182.622Z" fill="black"/>
<path d="M197.148 44.0286C196.087 44.0286 195.174 43.7533 194.408 43.2027C193.643 42.6656 193.139 41.927 192.898 40.987L193.462 40.8863C193.663 41.692 194.093 42.3231 194.751 42.7797C195.422 43.2363 196.221 43.4646 197.148 43.4646C198.303 43.4646 199.202 43.102 199.847 42.3769C200.492 41.6517 200.814 40.6177 200.814 39.2749V37.0994H200.713C200.337 37.9723 199.813 38.6437 199.142 39.1137C198.471 39.5703 197.725 39.7986 196.906 39.7986C196.114 39.7986 195.395 39.5904 194.751 39.1741C194.12 38.7444 193.623 38.1536 193.26 37.4016C192.898 36.6496 192.716 35.7969 192.716 34.8434C192.716 33.9034 192.898 33.0574 193.26 32.3054C193.623 31.5534 194.12 30.9693 194.751 30.553C195.395 30.1233 196.114 29.9084 196.906 29.9084C197.725 29.9084 198.471 30.1434 199.142 30.6134C199.813 31.07 200.344 31.7347 200.733 32.6076H200.834V30.1099H201.418V39.2749C201.418 40.7789 201.035 41.9471 200.27 42.7797C199.518 43.6123 198.477 44.0286 197.148 44.0286ZM196.946 39.2346C197.672 39.2346 198.33 39.0399 198.92 38.6504C199.511 38.261 199.975 37.7306 200.31 37.0591C200.646 36.3877 200.814 35.6492 200.814 34.8434C200.814 34.0377 200.646 33.2992 200.31 32.6277C199.975 31.9563 199.511 31.4259 198.92 31.0364C198.33 30.647 197.672 30.4523 196.946 30.4523C196.248 30.4523 195.624 30.6403 195.073 31.0163C194.523 31.3923 194.086 31.916 193.764 32.5874C193.455 33.2589 193.301 34.0109 193.301 34.8434C193.301 35.6894 193.455 36.4481 193.764 37.1196C194.086 37.7776 194.523 38.2946 195.073 38.6706C195.624 39.0466 196.248 39.2346 196.946 39.2346Z" fill="black"/>
<path d="M212.589 34.6622C212.589 34.8099 212.569 34.9643 212.528 35.1254H204.572C204.599 36.4817 204.961 37.5761 205.66 38.4087C206.371 39.2279 207.311 39.6374 208.48 39.6374C209.272 39.6374 209.93 39.4494 210.454 39.0734C210.991 38.684 211.414 38.1737 211.723 37.5426L212.287 37.6433C211.951 38.4356 211.461 39.06 210.816 39.5166C210.172 39.9731 209.393 40.2014 208.48 40.2014C207.593 40.2014 206.808 39.9866 206.123 39.5569C205.451 39.1137 204.928 38.5027 204.552 37.7239C204.176 36.9316 203.988 36.0386 203.988 35.0449C203.988 34.0512 204.169 33.1649 204.532 32.386C204.908 31.6072 205.418 31.0029 206.062 30.5732C206.72 30.13 207.472 29.9084 208.318 29.9084C209.138 29.9084 209.869 30.1099 210.514 30.5127C211.172 30.9156 211.682 31.4796 212.045 32.2047C212.407 32.9164 212.589 33.7356 212.589 34.6622ZM208.318 30.4523C207.271 30.4523 206.405 30.835 205.72 31.6004C205.049 32.3524 204.673 33.3462 204.592 34.5816H212.025C211.971 33.3193 211.602 32.3189 210.917 31.5803C210.245 30.8283 209.379 30.4523 208.318 30.4523Z" fill="black"/>
<path d="M215.882 40H215.278V25.9H215.882V40Z" fill="black"/>
<path d="M226.914 40C226.175 40 225.625 39.812 225.262 39.436C224.913 39.06 224.738 38.4624 224.738 37.6433V30.6537H222.382V30.1099H224.738L224.859 27.2899H225.343V30.1099H228.686V30.6537H225.343V37.6433C225.343 38.2879 225.463 38.7511 225.705 39.0331C225.96 39.3017 226.377 39.436 226.954 39.436H228.787V40H226.914Z" fill="black"/>
<path d="M230.815 40V30.1099H231.399V32.6076H231.5C231.862 31.8019 232.332 31.1842 232.91 30.7544C233.487 30.3247 234.165 30.1099 234.944 30.1099H235.851V30.6739H234.844C234.199 30.6739 233.615 30.8686 233.091 31.258C232.567 31.634 232.158 32.1309 231.862 32.7486C231.567 33.3663 231.419 34.0243 231.419 34.7226V40H230.815Z" fill="black"/>
<path d="M240.643 40.2014C239.677 40.2014 238.904 39.8389 238.327 39.1137C237.763 38.3751 237.481 37.368 237.481 36.0923V30.1099H238.085V36.0722C238.085 37.1867 238.32 38.0596 238.79 38.6907C239.26 39.3219 239.898 39.6374 240.704 39.6374C241.362 39.6374 241.973 39.4427 242.537 39.0533C243.101 38.6639 243.551 38.1401 243.886 37.4821C244.222 36.8241 244.39 36.1259 244.39 35.3873V30.1099H244.994V40H244.41V37.5023H244.309C243.92 38.3483 243.403 39.013 242.758 39.4964C242.127 39.9664 241.422 40.2014 240.643 40.2014Z" fill="black"/>
<path d="M248.968 40H248.364V25.9H248.968V40Z" fill="black"/>
<path d="M255.638 39.4561L259.083 30.1099H259.667L254.571 44.0286H253.987L255.457 40H254.853L251.066 30.1099H251.69L255.256 39.4561H255.638Z" fill="black"/>
<path d="M266.927 40H266.343V30.1099H266.927V40ZM267.108 27.9345H266.182V26.9072H267.108V27.9345Z" fill="black"/>
<path d="M273.194 40.2014C272.174 40.2014 271.314 39.953 270.616 39.4561C269.918 38.9593 269.461 38.2543 269.246 37.3411L269.81 37.2404C269.958 37.979 270.334 38.5631 270.938 38.9929C271.543 39.4226 272.295 39.6374 273.194 39.6374C274.081 39.6374 274.779 39.4293 275.289 39.013C275.799 38.5967 276.055 38.0461 276.055 37.3613C276.055 36.8779 275.92 36.4951 275.652 36.2132C275.397 35.9312 275.068 35.723 274.665 35.5887C274.262 35.441 273.738 35.3 273.094 35.1657C272.368 35.0046 271.784 34.8434 271.341 34.6823C270.898 34.5212 270.522 34.266 270.213 33.9169C269.904 33.5543 269.75 33.0709 269.75 32.4666C269.75 31.6877 270.059 31.07 270.676 30.6134C271.294 30.1434 272.066 29.9084 272.993 29.9084C273.893 29.9084 274.658 30.1367 275.289 30.5933C275.934 31.0364 276.35 31.6944 276.538 32.5673L275.974 32.6479C275.853 31.963 275.517 31.4259 274.967 31.0364C274.43 30.647 273.772 30.4523 272.993 30.4523C272.241 30.4523 271.61 30.6336 271.099 30.9962C270.589 31.3587 270.334 31.8489 270.334 32.4666C270.334 32.95 270.462 33.3327 270.717 33.6147C270.985 33.8833 271.314 34.0914 271.704 34.2392C272.107 34.3734 272.637 34.5077 273.295 34.642C274.034 34.8166 274.618 34.9844 275.047 35.1456C275.491 35.3067 275.867 35.5686 276.175 35.9311C276.484 36.2803 276.639 36.757 276.639 37.3613C276.639 38.2341 276.323 38.9257 275.692 39.436C275.061 39.9463 274.228 40.2014 273.194 40.2014Z" fill="black"/>
<path d="M279.187 42.2963H278.563V42.0344L279.368 40H278.563V38.8116H279.731V40L279.187 42.2963Z" fill="black"/>
<path d="M4.71329 65C3.97472 65 3.42415 64.812 3.06158 64.436C2.71243 64.06 2.53786 63.4624 2.53786 62.6433V55.6537H0.181152V55.1099H2.53786L2.65872 52.2899H3.14215V55.1099H6.48586V55.6537H3.14215V62.6433C3.14215 63.2879 3.263 63.7511 3.50472 64.0331C3.75986 64.3017 4.17615 64.436 4.75357 64.436H6.58657V65H4.71329Z" fill="black"/>
<path d="M8.71526 65V50.9H9.31954V57.5874H9.42025C9.79625 56.7414 10.3065 56.0834 10.9511 55.6134C11.5957 55.1434 12.3141 54.9084 13.1064 54.9084C14.1135 54.9084 14.8991 55.271 15.4631 55.9962C16.0405 56.7079 16.3292 57.7083 16.3292 58.9974V65H15.725V59.0377C15.725 57.9097 15.49 57.0302 15.02 56.399C14.55 55.7679 13.892 55.4523 13.046 55.4523C12.3745 55.4523 11.7501 55.647 11.1727 56.0364C10.6087 56.4259 10.1588 56.9496 9.82311 57.6076C9.4874 58.2656 9.31954 58.9639 9.31954 59.7024V65H8.71526Z" fill="black"/>
<path d="M27.4086 59.6622C27.4086 59.8099 27.3884 59.9643 27.3482 60.1254H19.3917C19.4186 61.4817 19.7812 62.5761 20.4794 63.4087C21.1912 64.2279 22.1312 64.6374 23.2994 64.6374C24.0917 64.6374 24.7497 64.4494 25.2734 64.0734C25.8106 63.684 26.2336 63.1737 26.5424 62.5426L27.1064 62.6433C26.7707 63.4356 26.2806 64.06 25.636 64.5166C24.9914 64.9731 24.2126 65.2014 23.2994 65.2014C22.4132 65.2014 21.6276 64.9866 20.9427 64.5569C20.2713 64.1137 19.7476 63.5027 19.3716 62.7239C18.9956 61.9316 18.8076 61.0386 18.8076 60.0449C18.8076 59.0512 18.9889 58.1649 19.3515 57.386C19.7275 56.6072 20.2377 56.0029 20.8823 55.5732C21.5403 55.13 22.2923 54.9084 23.1383 54.9084C23.9574 54.9084 24.6893 55.1099 25.3339 55.5127C25.9919 55.9156 26.5022 56.4796 26.8647 57.2047C27.2273 57.9164 27.4086 58.7356 27.4086 59.6622ZM23.1383 55.4523C22.0909 55.4523 21.2247 55.835 20.5399 56.6004C19.8684 57.3524 19.4925 58.3462 19.4119 59.5816H26.8446C26.7909 58.3193 26.4216 57.3189 25.7367 56.5803C25.0653 55.8283 24.1992 55.4523 23.1383 55.4523Z" fill="black"/>
<path d="M37.7518 65.2014C36.946 65.2014 36.2142 64.9866 35.5562 64.5569C34.9116 64.1137 34.4081 63.5027 34.0455 62.7239C33.6829 61.9316 33.5016 61.0386 33.5016 60.0449C33.5016 59.0512 33.6829 58.1649 34.0455 57.386C34.4081 56.6072 34.9116 56.0029 35.5562 55.5732C36.2142 55.13 36.946 54.9084 37.7518 54.9084C38.5978 54.9084 39.3565 55.1502 40.0279 55.6336C40.6993 56.117 41.223 56.7952 41.599 57.668H41.6998V50.9H42.304V65H41.7199V62.4016H41.6192C41.2432 63.3013 40.7128 63.9929 40.0279 64.4763C39.3565 64.9597 38.5978 65.2014 37.7518 65.2014ZM37.792 64.6374C38.5306 64.6374 39.1953 64.436 39.7862 64.0331C40.377 63.6303 40.8403 63.0797 41.176 62.3814C41.5252 61.6831 41.6998 60.9043 41.6998 60.0449C41.6998 59.1854 41.5252 58.4066 41.176 57.7083C40.8403 57.01 40.377 56.4594 39.7862 56.0566C39.1953 55.6537 38.5306 55.4523 37.792 55.4523C37.0803 55.4523 36.4425 55.647 35.8785 56.0364C35.3145 56.4259 34.8713 56.9697 34.5491 57.668C34.2402 58.3529 34.0858 59.1452 34.0858 60.0449C34.0858 60.9446 34.2402 61.7436 34.5491 62.4419C34.8713 63.1267 35.3145 63.6639 35.8785 64.0533C36.4425 64.4427 37.0803 64.6374 37.792 64.6374Z" fill="black"/>
<path d="M46.359 65H45.7749V55.1099H46.359V65ZM46.5403 52.9344H45.6138V51.9072H46.5403V52.9344Z" fill="black"/>
<path d="M53.1502 65H52.4049L48.477 55.1099H49.1015L52.7473 64.3554H52.848L56.4737 55.1099H57.078L53.1502 65Z" fill="black"/>
<path d="M59.7548 65H59.1707V55.1099H59.7548V65ZM59.9361 52.9344H59.0095V51.9072H59.9361V52.9344Z" fill="black"/>
<path d="M63.1418 65V55.1099H63.7259V57.6076H63.8266C64.2161 56.7482 64.7331 56.0834 65.3776 55.6134C66.0222 55.1434 66.7406 54.9084 67.5329 54.9084C68.5401 54.9084 69.3256 55.271 69.8896 55.9962C70.4671 56.7079 70.7558 57.7083 70.7558 58.9974V65H70.1515V59.0377C70.1515 57.9097 69.9165 57.0302 69.4465 56.399C68.9765 55.7679 68.3185 55.4523 67.4725 55.4523C66.8011 55.4523 66.1766 55.647 65.5992 56.0364C65.0352 56.4259 64.5854 56.9496 64.2496 57.6076C63.9139 58.2656 63.7461 58.9639 63.7461 59.7024V65H63.1418Z" fill="black"/>
<path d="M81.8375 59.6622C81.8375 59.8099 81.8173 59.9643 81.777 60.1254H73.8206C73.8475 61.4817 74.2101 62.5761 74.9083 63.4087C75.6201 64.2279 76.5601 64.6374 77.7283 64.6374C78.5206 64.6374 79.1786 64.4494 79.7023 64.0734C80.2395 63.684 80.6625 63.1737 80.9713 62.5426L81.5353 62.6433C81.1996 63.4356 80.7095 64.06 80.0649 64.5166C79.4203 64.9731 78.6415 65.2014 77.7283 65.2014C76.8421 65.2014 76.0565 64.9866 75.3716 64.5569C74.7002 64.1137 74.1765 63.5027 73.8005 62.7239C73.4245 61.9316 73.2365 61.0386 73.2365 60.0449C73.2365 59.0512 73.4178 58.1649 73.7803 57.386C74.1563 56.6072 74.6666 56.0029 75.3112 55.5732C75.9692 55.13 76.7212 54.9084 77.5672 54.9084C78.3863 54.9084 79.1182 55.1099 79.7628 55.5127C80.4208 55.9156 80.931 56.4796 81.2936 57.2047C81.6562 57.9164 81.8375 58.7356 81.8375 59.6622ZM77.5672 55.4523C76.5198 55.4523 75.6536 55.835 74.9688 56.6004C74.2973 57.3524 73.9213 58.3462 73.8408 59.5816H81.2735C81.2198 58.3193 80.8505 57.3189 80.1656 56.5803C79.4942 55.8283 78.628 55.4523 77.5672 55.4523Z" fill="black"/>
<path d="M91.4958 65.2014C90.4752 65.2014 89.6158 64.953 88.9175 64.4561C88.2192 63.9593 87.7627 63.2543 87.5478 62.3411L88.1118 62.2404C88.2595 62.979 88.6355 63.5631 89.2398 63.9929C89.8441 64.4226 90.5961 64.6374 91.4958 64.6374C92.3821 64.6374 93.0804 64.4293 93.5907 64.013C94.1009 63.5967 94.3561 63.0461 94.3561 62.3613C94.3561 61.8779 94.2218 61.4951 93.9532 61.2132C93.6981 60.9312 93.3691 60.723 92.9662 60.5887C92.5634 60.441 92.0397 60.3 91.3951 60.1657C90.6699 60.0046 90.0858 59.8434 89.6427 59.6823C89.1995 59.5212 88.8235 59.266 88.5147 58.9169C88.2058 58.5543 88.0514 58.0709 88.0514 57.4666C88.0514 56.6877 88.3602 56.07 88.9779 55.6134C89.5957 55.1434 90.3678 54.9084 91.2944 54.9084C92.1941 54.9084 92.9595 55.1367 93.5907 55.5933C94.2352 56.0364 94.6515 56.6944 94.8395 57.5673L94.2755 57.6479C94.1546 56.963 93.8189 56.4259 93.2684 56.0364C92.7312 55.647 92.0732 55.4523 91.2944 55.4523C90.5424 55.4523 89.9112 55.6336 89.4009 55.9962C88.8907 56.3587 88.6355 56.8489 88.6355 57.4666C88.6355 57.95 88.7631 58.3327 89.0182 58.6147C89.2868 58.8833 89.6158 59.0914 90.0052 59.2392C90.4081 59.3734 90.9385 59.5077 91.5965 59.642C92.3351 59.8166 92.9192 59.9844 93.3489 60.1456C93.7921 60.3067 94.1681 60.5686 94.4769 60.9311C94.7858 61.2803 94.9402 61.757 94.9402 62.3613C94.9402 63.2341 94.6246 63.9257 93.9935 64.436C93.3624 64.9463 92.5298 65.2014 91.4958 65.2014Z" fill="black"/>
<path d="M105.324 59.6622C105.324 59.8099 105.304 59.9643 105.264 60.1254H97.3075C97.3343 61.4817 97.6969 62.5761 98.3952 63.4087C99.1069 64.2279 100.047 64.6374 101.215 64.6374C102.007 64.6374 102.665 64.4494 103.189 64.0734C103.726 63.684 104.149 63.1737 104.458 62.5426L105.022 62.6433C104.686 63.4356 104.196 64.06 103.552 64.5166C102.907 64.9731 102.128 65.2014 101.215 65.2014C100.329 65.2014 99.5433 64.9866 98.8585 64.5569C98.187 64.1137 97.6633 63.5027 97.2873 62.7239C96.9113 61.9316 96.7233 61.0386 96.7233 60.0449C96.7233 59.0512 96.9046 58.1649 97.2672 57.386C97.6432 56.6072 98.1535 56.0029 98.798 55.5732C99.456 55.13 100.208 54.9084 101.054 54.9084C101.873 54.9084 102.605 55.1099 103.25 55.5127C103.908 55.9156 104.418 56.4796 104.78 57.2047C105.143 57.9164 105.324 58.7356 105.324 59.6622ZM101.054 55.4523C100.007 55.4523 99.1405 55.835 98.4556 56.6004C97.7842 57.3524 97.4082 58.3462 97.3276 59.5816H104.76C104.707 58.3193 104.337 57.3189 103.652 56.5803C102.981 55.8283 102.115 55.4523 101.054 55.4523Z" fill="black"/>
<path d="M107.912 65V55.1099H108.496V57.6076H108.597C108.96 56.8019 109.43 56.1842 110.007 55.7544C110.585 55.3247 111.263 55.1099 112.042 55.1099H112.948V55.6739H111.941C111.296 55.6739 110.712 55.8686 110.188 56.258C109.665 56.634 109.255 57.1309 108.96 57.7486C108.664 58.3663 108.517 59.0243 108.517 59.7226V65H107.912Z" fill="black"/>
<path d="M118.28 65H117.535L113.607 55.1099H114.231L117.877 64.3554H117.978L121.603 55.1099H122.208L118.28 65Z" fill="black"/>
<path d="M132 64.4763V65H131.456C131.08 65 130.771 64.8791 130.529 64.6374C130.301 64.3957 130.187 64.06 130.187 63.6303V62.4821H130.086C129.724 63.3416 129.2 64.013 128.515 64.4964C127.844 64.9664 127.105 65.2014 126.299 65.2014C125.44 65.2014 124.715 64.9463 124.124 64.436C123.533 63.9123 123.238 63.2341 123.238 62.4016C123.238 61.8107 123.392 61.287 123.701 60.8304C124.01 60.3739 124.433 60.018 124.97 59.7629C125.52 59.5077 126.131 59.3802 126.803 59.3802H130.147V58.6349C130.147 57.6814 129.885 56.916 129.361 56.3386C128.837 55.7477 128.112 55.4523 127.186 55.4523C126.447 55.4523 125.816 55.6537 125.292 56.0566C124.768 56.4594 124.399 57.0234 124.184 57.7486L123.62 57.668C123.862 56.822 124.285 56.1506 124.889 55.6537C125.507 55.1569 126.272 54.9084 127.186 54.9084C128.287 54.9084 129.153 55.2576 129.784 55.9559C130.415 56.6407 130.731 57.5337 130.731 58.6349V63.59C130.731 63.872 130.798 64.0936 130.932 64.2547C131.08 64.4024 131.275 64.4763 131.516 64.4763H132ZM126.319 64.6374C127.031 64.6374 127.676 64.4427 128.253 64.0533C128.844 63.6639 129.307 63.1469 129.643 62.5023C129.979 61.8443 130.147 61.1393 130.147 60.3873V59.9442H126.823C125.964 59.9442 125.245 60.1724 124.668 60.629C124.104 61.0856 123.822 61.6764 123.822 62.4016C123.822 63.073 124.057 63.6169 124.527 64.0331C124.997 64.436 125.594 64.6374 126.319 64.6374Z" fill="black"/>
<path d="M134.015 65V55.1099H134.6V57.6076H134.7C135.09 56.7482 135.607 56.0834 136.251 55.6134C136.896 55.1434 137.614 54.9084 138.407 54.9084C139.414 54.9084 140.199 55.271 140.763 55.9962C141.341 56.7079 141.629 57.7083 141.629 58.9974V65H141.025V59.0377C141.025 57.9097 140.79 57.0302 140.32 56.399C139.85 55.7679 139.192 55.4523 138.346 55.4523C137.675 55.4523 137.05 55.647 136.473 56.0364C135.909 56.4259 135.459 56.9496 135.123 57.6076C134.788 58.2656 134.62 58.9639 134.62 59.7024V65H134.015Z" fill="black"/>
<path d="M147.68 65C146.942 65 146.391 64.812 146.028 64.436C145.679 64.06 145.505 63.4624 145.505 62.6433V55.6537H143.148V55.1099H145.505L145.626 52.2899H146.109V55.1099H149.453V55.6537H146.109V62.6433C146.109 63.2879 146.23 63.7511 146.472 64.0331C146.727 64.3017 147.143 64.436 147.72 64.436H149.553V65H147.68Z" fill="black"/>
<path d="M159.477 65.2014C158.618 65.2014 157.853 64.9866 157.181 64.5569C156.523 64.1137 156.006 63.5027 155.63 62.7239C155.268 61.9316 155.086 61.0386 155.086 60.0449C155.086 59.0512 155.268 58.1649 155.63 57.386C156.006 56.6072 156.523 56.0029 157.181 55.5732C157.853 55.13 158.618 54.9084 159.477 54.9084C160.337 54.9084 161.102 55.13 161.774 55.5732C162.445 56.0029 162.962 56.6072 163.325 57.386C163.701 58.1649 163.889 59.0512 163.889 60.0449C163.889 61.0386 163.701 61.9316 163.325 62.7239C162.962 63.5027 162.445 64.1137 161.774 64.5569C161.102 64.9866 160.337 65.2014 159.477 65.2014ZM159.477 64.6374C160.229 64.6374 160.894 64.4427 161.472 64.0533C162.049 63.6639 162.492 63.1267 162.801 62.4419C163.123 61.7436 163.285 60.9446 163.285 60.0449C163.285 59.1586 163.123 58.3663 162.801 57.668C162.492 56.9697 162.049 56.4259 161.472 56.0364C160.894 55.647 160.229 55.4523 159.477 55.4523C158.725 55.4523 158.061 55.647 157.483 56.0364C156.906 56.4259 156.456 56.9697 156.134 57.668C155.825 58.3663 155.671 59.1586 155.671 60.0449C155.671 60.9446 155.825 61.7436 156.134 62.4419C156.456 63.1267 156.906 63.6639 157.483 64.0533C158.061 64.4427 158.725 64.6374 159.477 64.6374Z" fill="black"/>
<path d="M169.398 51.4439C168.82 51.4439 168.404 51.5849 168.149 51.8669C167.907 52.1355 167.786 52.5987 167.786 53.2567V55.1099H171.029V55.6537H167.786V65H167.182V55.6537H164.825V55.1099H167.182V53.2567C167.182 52.4376 167.356 51.84 167.706 51.464C168.068 51.088 168.619 50.9 169.357 50.9H171.13V51.4439H169.398Z" fill="black"/>
<path d="M180.019 65C179.28 65 178.73 64.812 178.367 64.436C178.018 64.06 177.843 63.4624 177.843 62.6433V55.6537H175.487V55.1099H177.843L177.964 52.2899H178.448V55.1099H181.791V55.6537H178.448V62.6433C178.448 63.2879 178.568 63.7511 178.81 64.0331C179.065 64.3017 179.482 64.436 180.059 64.436H181.892V65H180.019Z" fill="black"/>
<path d="M184.021 65V50.9H184.625V57.5874H184.726C185.102 56.7414 185.612 56.0834 186.257 55.6134C186.901 55.1434 187.62 54.9084 188.412 54.9084C189.419 54.9084 190.205 55.271 190.769 55.9962C191.346 56.7079 191.635 57.7083 191.635 58.9974V65H191.03V59.0377C191.03 57.9097 190.795 57.0302 190.325 56.399C189.855 55.7679 189.197 55.4523 188.351 55.4523C187.68 55.4523 187.056 55.647 186.478 56.0364C185.914 56.4259 185.464 56.9496 185.129 57.6076C184.793 58.2656 184.625 58.9639 184.625 59.7024V65H184.021Z" fill="black"/>
<path d="M202.714 59.6622C202.714 59.8099 202.694 59.9643 202.654 60.1254H194.697C194.724 61.4817 195.087 62.5761 195.785 63.4087C196.497 64.2279 197.437 64.6374 198.605 64.6374C199.397 64.6374 200.055 64.4494 200.579 64.0734C201.116 63.684 201.539 63.1737 201.848 62.5426L202.412 62.6433C202.076 63.4356 201.586 64.06 200.941 64.5166C200.297 64.9731 199.518 65.2014 198.605 65.2014C197.719 65.2014 196.933 64.9866 196.248 64.5569C195.577 64.1137 195.053 63.5027 194.677 62.7239C194.301 61.9316 194.113 61.0386 194.113 60.0449C194.113 59.0512 194.294 58.1649 194.657 57.386C195.033 56.6072 195.543 56.0029 196.188 55.5732C196.846 55.13 197.598 54.9084 198.444 54.9084C199.263 54.9084 199.995 55.1099 200.639 55.5127C201.297 55.9156 201.808 56.4796 202.17 57.2047C202.533 57.9164 202.714 58.7356 202.714 59.6622ZM198.444 55.4523C197.396 55.4523 196.53 55.835 195.845 56.6004C195.174 57.3524 194.798 58.3462 194.717 59.5816H202.15C202.096 58.3193 201.727 57.3189 201.042 56.5803C200.371 55.8283 199.505 55.4523 198.444 55.4523Z" fill="black"/>
<path d="M210.188 65V50.9H214.035C215.378 50.9 216.553 51.2089 217.56 51.8266C218.567 52.4309 219.339 53.2702 219.876 54.3444C220.427 55.4053 220.702 56.6072 220.702 57.95C220.702 59.2929 220.427 60.5014 219.876 61.5757C219.339 62.6366 218.567 63.4759 217.56 64.0936C216.553 64.6979 215.378 65 214.035 65H210.188ZM214.015 64.4159C215.25 64.4159 216.324 64.1406 217.238 63.59C218.164 63.026 218.869 62.2539 219.352 61.2736C219.849 60.2933 220.098 59.1854 220.098 57.95C220.098 56.7146 219.849 55.6067 219.352 54.6264C218.869 53.6462 218.164 52.8807 217.238 52.3302C216.324 51.7662 215.25 51.4842 214.015 51.4842H210.792V64.4159H214.015Z" fill="black"/>
<path d="M224.182 65H223.598V55.1099H224.182V65ZM224.364 52.9344H223.437V51.9072H224.364V52.9344Z" fill="black"/>
<path d="M230.973 65H230.228L226.3 55.1099H226.925L230.571 64.3554H230.671L234.297 55.1099H234.901L230.973 65Z" fill="black"/>
<path d="M237.578 65H236.994V55.1099H237.578V65ZM237.759 52.9344H236.833V51.9072H237.759V52.9344Z" fill="black"/>
<path d="M240.965 65V55.1099H241.549V57.6076H241.65C242.039 56.7482 242.556 56.0834 243.201 55.6134C243.846 55.1434 244.564 54.9084 245.356 54.9084C246.363 54.9084 247.149 55.271 247.713 55.9962C248.29 56.7079 248.579 57.7083 248.579 58.9974V65H247.975V59.0377C247.975 57.9097 247.74 57.0302 247.27 56.399C246.8 55.7679 246.142 55.4523 245.296 55.4523C244.624 55.4523 244 55.647 243.423 56.0364C242.859 56.4259 242.409 56.9496 242.073 57.6076C241.737 58.2656 241.569 58.9639 241.569 59.7024V65H240.965Z" fill="black"/>
<path d="M259.661 59.6622C259.661 59.8099 259.641 59.9643 259.6 60.1254H251.644C251.671 61.4817 252.033 62.5761 252.732 63.4087C253.443 64.2279 254.383 64.6374 255.552 64.6374C256.344 64.6374 257.002 64.4494 257.526 64.0734C258.063 63.684 258.486 63.1737 258.795 62.5426L259.359 62.6433C259.023 63.4356 258.533 64.06 257.888 64.5166C257.244 64.9731 256.465 65.2014 255.552 65.2014C254.665 65.2014 253.88 64.9866 253.195 64.5569C252.524 64.1137 252 63.5027 251.624 62.7239C251.248 61.9316 251.06 61.0386 251.06 60.0449C251.06 59.0512 251.241 58.1649 251.604 57.386C251.98 56.6072 252.49 56.0029 253.135 55.5732C253.793 55.13 254.545 54.9084 255.391 54.9084C256.21 54.9084 256.942 55.1099 257.586 55.5127C258.244 55.9156 258.754 56.4796 259.117 57.2047C259.48 57.9164 259.661 58.7356 259.661 59.6622ZM255.391 55.4523C254.343 55.4523 253.477 55.835 252.792 56.6004C252.121 57.3524 251.745 58.3462 251.664 59.5816H259.097C259.043 58.3193 258.674 57.3189 257.989 56.5803C257.318 55.8283 256.451 55.4523 255.391 55.4523Z" fill="black"/>
<path d="M273.388 58.091H278.343V65H277.819L277.779 61.1124C277.363 62.3344 276.685 63.3214 275.745 64.0734C274.805 64.8254 273.663 65.2014 272.32 65.2014C271.112 65.2014 270.024 64.8926 269.057 64.2749C268.09 63.6571 267.332 62.7977 266.781 61.6966C266.244 60.5954 265.975 59.3466 265.975 57.95C265.975 56.5534 266.244 55.3046 266.781 54.2034C267.332 53.1023 268.097 52.2429 269.077 51.6252C270.071 51.0075 271.213 50.6986 272.502 50.6986C273.845 50.6986 274.999 51.0477 275.966 51.746C276.947 52.4443 277.672 53.4515 278.142 54.7674L277.558 54.8883C277.128 53.7066 276.483 52.8136 275.624 52.2093C274.764 51.5916 273.724 51.2827 272.502 51.2827C271.32 51.2827 270.279 51.5647 269.38 52.1287C268.493 52.6927 267.802 53.4783 267.305 54.4854C266.821 55.4926 266.58 56.6474 266.58 57.95C266.58 59.2526 266.821 60.4074 267.305 61.4146C267.802 62.4217 268.487 63.2073 269.359 63.7713C270.232 64.3353 271.219 64.6173 272.32 64.6173C273.448 64.6173 274.422 64.3353 275.241 63.7713C276.06 63.1939 276.678 62.4486 277.094 61.5354C277.524 60.6223 277.739 59.6622 277.739 58.655H273.388V58.091Z" fill="black"/>
<path d="M285.331 65.2014C284.471 65.2014 283.706 64.9866 283.035 64.5569C282.377 64.1137 281.86 63.5027 281.484 62.7239C281.121 61.9316 280.94 61.0386 280.94 60.0449C280.94 59.0512 281.121 58.1649 281.484 57.386C281.86 56.6072 282.377 56.0029 283.035 55.5732C283.706 55.13 284.471 54.9084 285.331 54.9084C286.19 54.9084 286.956 55.13 287.627 55.5732C288.299 56.0029 288.815 56.6072 289.178 57.386C289.554 58.1649 289.742 59.0512 289.742 60.0449C289.742 61.0386 289.554 61.9316 289.178 62.7239C288.815 63.5027 288.299 64.1137 287.627 64.5569C286.956 64.9866 286.19 65.2014 285.331 65.2014ZM285.331 64.6374C286.083 64.6374 286.747 64.4427 287.325 64.0533C287.902 63.6639 288.346 63.1267 288.654 62.4419C288.977 61.7436 289.138 60.9446 289.138 60.0449C289.138 59.1586 288.977 58.3663 288.654 57.668C288.346 56.9697 287.902 56.4259 287.325 56.0364C286.747 55.647 286.083 55.4523 285.331 55.4523C284.579 55.4523 283.914 55.647 283.337 56.0364C282.759 56.4259 282.309 56.9697 281.987 57.668C281.678 58.3663 281.524 59.1586 281.524 60.0449C281.524 60.9446 281.678 61.7436 281.987 62.4419C282.309 63.1267 282.759 63.6639 283.337 64.0533C283.914 64.4427 284.579 64.6374 285.331 64.6374Z" fill="black"/>
<path d="M295.891 65.2014C295.085 65.2014 294.353 64.9866 293.695 64.5569C293.051 64.1137 292.547 63.5027 292.184 62.7239C291.822 61.9316 291.641 61.0386 291.641 60.0449C291.641 59.0512 291.822 58.1649 292.184 57.386C292.547 56.6072 293.051 56.0029 293.695 55.5732C294.353 55.13 295.085 54.9084 295.891 54.9084C296.737 54.9084 297.495 55.1502 298.167 55.6336C298.838 56.117 299.362 56.7952 299.738 57.668H299.839V50.9H300.443V65H299.859V62.4016H299.758C299.382 63.3013 298.852 63.9929 298.167 64.4763C297.495 64.9597 296.737 65.2014 295.891 65.2014ZM295.931 64.6374C296.67 64.6374 297.334 64.436 297.925 64.0331C298.516 63.6303 298.979 63.0797 299.315 62.3814C299.664 61.6831 299.839 60.9043 299.839 60.0449C299.839 59.1854 299.664 58.4066 299.315 57.7083C298.979 57.01 298.516 56.4594 297.925 56.0566C297.334 55.6537 296.67 55.4523 295.931 55.4523C295.219 55.4523 294.581 55.647 294.017 56.0364C293.453 56.4259 293.01 56.9697 292.688 57.668C292.379 58.3529 292.225 59.1452 292.225 60.0449C292.225 60.9446 292.379 61.7436 292.688 62.4419C293.01 63.1267 293.453 63.6639 294.017 64.0533C294.581 64.4427 295.219 64.6374 295.931 64.6374Z" fill="black"/>
</svg>
