<svg width="570" height="137" viewBox="0 0 570 137" fill="none" xmlns="http://www.w3.org/2000/svg">
<mask id="path-1-inside-1_244_3844" fill="white">
<path d="M9.76328 25.5634V21.0917H7.45288V25.5634H0V5.81325C0 4.76984 0.273272 3.90034 0.819817 3.20474C1.36636 2.45945 2.03712 1.86322 2.8321 1.41605C3.67676 0.968874 4.59594 0.645916 5.58966 0.447172C6.63307 0.248431 7.60194 0.14906 8.49629 0.14906H17.2162V25.5634H9.76328ZM0 29.1408V25.8615H7.45288V29.1408H0ZM9.76328 29.1408V25.8615H17.2162V29.1408H9.76328ZM9.76328 5.44061H8.57082C8.32239 5.49029 8.07396 5.63935 7.82553 5.88778C7.5771 6.13621 7.45288 6.45917 7.45288 6.85665V15.8001H9.76328V5.44061ZM0 32.7927V29.737H7.45288V32.7927H0ZM9.76328 32.7927V29.737H17.2162V32.7927H9.76328ZM0 36.3701V33.538H7.45288V36.3701H0ZM9.76328 36.3701V33.538H17.2162V36.3701H9.76328ZM9.76328 39.9475V37.4135H17.2162V39.9475H9.76328ZM0 39.9475V37.4135H7.45288V39.9475H0ZM9.76328 43.5248V41.289H17.2162V43.5248H9.76328ZM0 43.5248V41.289H7.45288V43.5248H0ZM9.76328 47.1768V45.1645H17.2162V47.1768H9.76328ZM0 47.1768V45.1645H7.45288V47.1768H0ZM9.76328 50.7541V49.04H17.2162V50.7541H9.76328ZM0 50.7541V49.04H7.45288V50.7541H0ZM9.76328 54.3315V52.8409H17.2162V54.3315H9.76328ZM0 54.3315V52.8409H7.45288V54.3315H0ZM17.2162 57.3872H9.76328V56.7164H17.2162V57.3872ZM7.45288 57.3872H0V56.7164H7.45288V57.3872Z"/>
<path d="M27.3224 21.0171V25.5634H19.8695V0.14906H28.5894C29.4837 0.14906 30.4278 0.248431 31.4215 0.447172C32.4649 0.645916 33.3841 0.968874 34.179 1.41605C35.0237 1.86322 35.7193 2.45945 36.2658 3.20474C36.8124 3.90034 37.0857 4.76984 37.0857 5.81325V10.2105C37.0857 11.4029 37.036 12.4215 36.9366 13.2661C36.8372 14.1108 36.6385 14.8561 36.3404 15.502C36.0423 16.0982 35.6199 16.6448 35.0734 17.1416C34.5268 17.5888 33.8312 18.036 32.9866 18.4832C34.5765 19.2284 35.6199 20.1228 36.1168 21.1662C36.6633 22.2096 36.9863 23.6753 37.0857 25.5634H29.6328V22.4332C29.6328 22.0357 29.5086 21.7376 29.2601 21.5388C29.0614 21.2904 28.8378 21.1165 28.5894 21.0171H27.3224ZM19.8695 29.1408V25.8615H27.3224V29.1408H19.8695ZM37.0857 29.1408H29.6328V25.8615H37.0857V29.1408ZM27.3224 15.8001H28.5894C28.8378 15.7504 29.0614 15.6014 29.2601 15.3529C29.5086 15.1045 29.6328 14.7816 29.6328 14.3841V6.85665C29.6328 6.45917 29.5086 6.13621 29.2601 5.88778C29.0117 5.63935 28.7633 5.49029 28.5148 5.44061H27.3224V15.8001ZM19.8695 32.7927V29.737H27.3224V32.7927H19.8695ZM29.6328 32.7927V29.737H37.0857V32.7927H29.6328ZM19.8695 36.3701V33.538H27.3224V36.3701H19.8695ZM29.6328 36.3701V33.538H37.0857V36.3701H29.6328ZM19.8695 39.9475V37.4135H27.3224V39.9475H19.8695ZM29.6328 39.9475V37.4135H37.0857V39.9475H29.6328ZM29.6328 43.5248V41.289H37.0857V43.5248H29.6328ZM19.8695 43.5248V41.289H27.3224V43.5248H19.8695ZM29.6328 47.1768V45.1645H37.0857V47.1768H29.6328ZM19.8695 47.1768V45.1645H27.3224V47.1768H19.8695ZM29.6328 50.7541V49.04H37.0857V50.7541H29.6328ZM19.8695 50.7541V49.04H27.3224V50.7541H19.8695ZM29.6328 54.3315V52.8409H37.0857V54.3315H29.6328ZM19.8695 54.3315V52.8409H27.3224V54.3315H19.8695ZM27.3224 57.3872H19.8695V56.7164H27.3224V57.3872ZM37.0857 57.3872H29.6328V56.7164H37.0857V57.3872Z"/>
<path d="M39.739 25.5634V5.81325C39.739 4.76984 40.0123 3.90034 40.5588 3.20474C41.1054 2.45945 41.7761 1.86322 42.5711 1.41605C43.4158 0.968874 44.3349 0.645916 45.3287 0.447172C46.3721 0.248431 47.341 0.14906 48.2353 0.14906H53.0797V5.44061H48.3098C48.0614 5.49029 47.813 5.63935 47.5645 5.88778C47.3161 6.13621 47.1919 6.45917 47.1919 6.85665V25.5634H39.739ZM39.739 29.1408V25.8615H47.1919V29.1408H39.739ZM39.739 32.7927V29.737H47.1919V32.7927H39.739ZM39.739 36.3701V33.538H47.1919V36.3701H39.739ZM40.4843 54.3315C40.1365 53.8347 39.9378 53.3378 39.8881 52.8409H53.0797V54.3315H40.4843ZM39.739 39.9475V37.4135H47.1919V39.9475H39.739ZM39.739 43.5248V41.289H47.1919V43.5248H39.739ZM39.739 47.1768V45.1645H47.1919V47.1768H39.739ZM47.1919 50.7541H39.739V49.04H47.1919V50.7541ZM53.0797 57.3872H48.2353C47.5397 57.3872 46.8192 57.3375 46.074 57.2381C45.3784 57.1388 44.6828 56.9649 43.9871 56.7164H53.0797V57.3872Z"/>
<path d="M63.2039 21.0917V25.5634H55.7511V0.14906H63.2039V15.8001H65.5143V0.14906H72.9672V25.5634H65.5143V21.0917H63.2039ZM55.7511 29.1408V25.8615H63.2039V29.1408H55.7511ZM65.5143 29.1408V25.8615H72.9672V29.1408H65.5143ZM55.7511 32.7927V29.737H63.2039V32.7927H55.7511ZM65.5143 32.7927V29.737H72.9672V32.7927H65.5143ZM65.5143 36.3701V33.538H72.9672V36.3701H65.5143ZM55.7511 36.3701V33.538H63.2039V36.3701H55.7511ZM65.5143 39.9475V37.4135H72.9672V39.9475H65.5143ZM55.7511 39.9475V37.4135H63.2039V39.9475H55.7511ZM65.5143 43.5248V41.289H72.9672V43.5248H65.5143ZM55.7511 43.5248V41.289H63.2039V43.5248H55.7511ZM65.5143 47.1768V45.1645H72.9672V47.1768H65.5143ZM55.7511 47.1768V45.1645H63.2039V47.1768H55.7511ZM65.5143 50.7541V49.04H72.9672V50.7541H65.5143ZM55.7511 50.7541V49.04H63.2039V50.7541H55.7511ZM65.5143 54.3315V52.8409H72.9672V54.3315H65.5143ZM55.7511 54.3315V52.8409H63.2039V54.3315H55.7511ZM55.7511 57.3872V56.7164H63.2039V57.3872H55.7511ZM72.9672 57.3872H65.5143V56.7164H72.9672V57.3872Z"/>
<path d="M85.3838 25.5634V21.0917H83.0734V25.5634H75.6206V5.81325C75.6206 4.76984 75.8938 3.90034 76.4404 3.20474C76.9869 2.45945 77.6577 1.86322 78.4527 1.41605C79.2973 0.968874 80.2165 0.645916 81.2102 0.447172C82.2536 0.248431 83.2225 0.14906 84.1168 0.14906H92.8367V25.5634H85.3838ZM75.6206 29.1408V25.8615H83.0734V29.1408H75.6206ZM85.3838 29.1408V25.8615H92.8367V29.1408H85.3838ZM85.3838 5.44061H84.1914C83.9429 5.49029 83.6945 5.63935 83.4461 5.88778C83.1977 6.13621 83.0734 6.45917 83.0734 6.85665V15.8001H85.3838V5.44061ZM75.6206 32.7927V29.737H83.0734V32.7927H75.6206ZM85.3838 32.7927V29.737H92.8367V32.7927H85.3838ZM75.6206 36.3701V33.538H83.0734V36.3701H75.6206ZM85.3838 36.3701V33.538H92.8367V36.3701H85.3838ZM85.3838 39.9475V37.4135H92.8367V39.9475H85.3838ZM75.6206 39.9475V37.4135H83.0734V39.9475H75.6206ZM85.3838 43.5248V41.289H92.8367V43.5248H85.3838ZM75.6206 43.5248V41.289H83.0734V43.5248H75.6206ZM85.3838 47.1768V45.1645H92.8367V47.1768H85.3838ZM75.6206 47.1768V45.1645H83.0734V47.1768H75.6206ZM85.3838 50.7541V49.04H92.8367V50.7541H85.3838ZM75.6206 50.7541V49.04H83.0734V50.7541H75.6206ZM85.3838 54.3315V52.8409H92.8367V54.3315H85.3838ZM75.6206 54.3315V52.8409H83.0734V54.3315H75.6206ZM92.8367 57.3872H85.3838V56.7164H92.8367V57.3872ZM83.0734 57.3872H75.6206V56.7164H83.0734V57.3872Z"/>
<path d="M95.4901 25.5634V0.14906H104.21C105.104 0.14906 106.048 0.248431 107.042 0.447172C108.085 0.645916 109.005 0.968874 109.8 1.41605C110.644 1.86322 111.34 2.45945 111.886 3.20474C112.433 3.90034 112.706 4.76984 112.706 5.81325V25.5634H105.253V6.85665C105.253 6.45917 105.129 6.13621 104.881 5.88778C104.632 5.63935 104.384 5.49029 104.135 5.44061H102.943V25.5634H95.4901ZM95.4901 29.1408V25.8615H102.943V29.1408H95.4901ZM105.253 29.1408V25.8615H112.706V29.1408H105.253ZM95.4901 32.7927V29.737H102.943V32.7927H95.4901ZM105.253 32.7927V29.737H112.706V32.7927H105.253ZM105.253 36.3701V33.538H112.706V36.3701H105.253ZM95.4901 36.3701V33.538H102.943V36.3701H95.4901ZM105.253 39.9475V37.4135H112.706V39.9475H105.253ZM95.4901 39.9475V37.4135H102.943V39.9475H95.4901ZM105.253 43.5248V41.289H112.706V43.5248H105.253ZM95.4901 43.5248V41.289H102.943V43.5248H95.4901ZM105.253 47.1768V45.1645H112.706V47.1768H105.253ZM95.4901 47.1768V45.1645H102.943V47.1768H95.4901ZM105.253 50.7541V49.04H112.706V50.7541H105.253ZM95.4901 50.7541V49.04H102.943V50.7541H95.4901ZM105.253 54.3315V52.8409H112.706V54.3315H105.253ZM95.4901 54.3315V52.8409H102.943V54.3315H95.4901ZM112.706 57.3872H105.253V56.7164H112.706V57.3872ZM95.4901 57.3872V56.7164H102.943V57.3872H95.4901Z"/>
<path d="M115.36 5.58966C115.36 4.59594 115.633 3.75129 116.179 3.05568C116.776 2.3104 117.496 1.71416 118.341 1.26699C119.185 0.819818 120.129 0.49686 121.173 0.298116C122.216 0.099372 123.185 0 124.079 0C124.974 0 125.918 0.099372 126.912 0.298116C127.955 0.49686 128.874 0.819818 129.669 1.26699C130.514 1.71416 131.209 2.3104 131.756 3.05568C132.302 3.75129 132.576 4.62079 132.576 5.66419V9.68875H125.123V6.7076C125.123 6.31011 124.999 5.98715 124.75 5.73872C124.502 5.4406 124.253 5.2667 124.005 5.21702C123.756 5.21702 123.483 5.34123 123.185 5.58966C122.937 5.83809 122.812 6.21074 122.812 6.7076V25.5634H115.36V5.58966ZM125.123 25.5634V15.8001H132.576V25.5634H125.123ZM132.427 52.8409C132.377 53.3378 132.178 53.8347 131.83 54.3315H116.105C115.956 54.0831 115.807 53.8595 115.658 53.6608C115.558 53.4123 115.484 53.1391 115.434 52.8409H132.427ZM115.36 29.1408V25.8615H122.812V29.1408H115.36ZM125.123 29.1408V25.8615H132.576V29.1408H125.123ZM115.36 32.7927V29.737H122.812V32.7927H115.36ZM125.123 32.7927V29.737H132.576V32.7927H125.123ZM115.36 36.3701V33.538H122.812V36.3701H115.36ZM125.123 36.3701V33.538H132.576V36.3701H125.123ZM125.123 39.9475V37.4135H132.576V39.9475H125.123ZM115.36 39.9475V37.4135H122.812V39.9475H115.36ZM125.123 43.5248V41.289H132.576V43.5248H125.123ZM115.36 43.5248V41.289H122.812V43.5248H115.36ZM125.123 47.1768V45.1645H132.576V47.1768H125.123ZM115.36 47.1768V45.1645H122.812V47.1768H115.36ZM125.123 50.7541V49.04H132.576V50.7541H125.123ZM115.36 50.7541V49.04H122.812V50.7541H115.36ZM128.7 56.7164C127.955 57.0146 127.185 57.2381 126.39 57.3872C125.595 57.4866 124.825 57.5363 124.079 57.5363C123.334 57.5363 122.539 57.4866 121.695 57.3872C120.9 57.2381 120.129 57.0146 119.384 56.7164H128.7Z"/>
<path d="M151.849 21.0917H142.682V25.5634H135.229V0.14906H152.371V11.8501H144.918V5.44061H142.682V15.8001H151.849V21.0917ZM135.229 54.3315V52.8409H152.371V54.3315H135.229ZM135.229 29.1408V25.8615H142.682V29.1408H135.229ZM144.918 29.1408V25.8615H152.371V29.1408H144.918ZM135.229 32.7927V29.737H142.682V32.7927H135.229ZM144.918 32.7927V29.737H152.371V32.7927H144.918ZM135.229 36.3701V33.538H142.682V36.3701H135.229ZM144.918 36.3701V33.538H152.371V36.3701H144.918ZM144.918 39.9475V37.4135H152.371V39.9475H144.918ZM135.229 39.9475V37.4135H142.682V39.9475H135.229ZM144.918 43.5248V41.289H152.371V43.5248H144.918ZM135.229 43.5248V41.289H142.682V43.5248H135.229ZM144.918 47.1768V45.1645H152.371V47.1768H144.918ZM135.229 47.1768V45.1645H142.682V47.1768H135.229ZM144.918 50.7541V49.04H152.371V50.7541H144.918ZM135.229 50.7541V49.04H142.682V50.7541H135.229ZM152.371 57.3872H135.229V56.7164H152.371V57.3872ZM152.371 24.9672V25.5634H144.918V24.9672H152.371Z"/>
<path d="M155.026 25.5634V0.14906H162.479V25.5634H155.026ZM155.026 54.3315V52.8409H172.093V54.3315H155.026ZM155.026 29.1408V25.8615H162.479V29.1408H155.026ZM164.64 29.1408V25.8615H172.093V29.1408H164.64ZM155.026 32.7927V29.737H162.479V32.7927H155.026ZM164.64 32.7927V29.737H172.093V32.7927H164.64ZM155.026 36.3701V33.538H162.479V36.3701H155.026ZM164.64 36.3701V33.538H172.093V36.3701H164.64ZM164.64 39.9475V37.4135H172.093V39.9475H164.64ZM155.026 39.9475V37.4135H162.479V39.9475H155.026ZM164.64 43.5248V41.289H172.093V43.5248H164.64ZM155.026 43.5248V41.289H162.479V43.5248H155.026ZM164.64 47.1768V45.1645H172.093V47.1768H164.64ZM155.026 47.1768V45.1645H162.479V47.1768H155.026ZM164.64 50.7541V49.04H172.093V50.7541H164.64ZM155.026 50.7541V49.04H162.479V50.7541H155.026ZM155.026 57.3872V56.7164H172.093V57.3872H155.026ZM164.64 25.5634V24.9672H172.093V25.5634H164.64Z"/>
</mask>
<path d="M9.76328 25.5634V21.0917H7.45288V25.5634H0V5.81325C0 4.76984 0.273272 3.90034 0.819817 3.20474C1.36636 2.45945 2.03712 1.86322 2.8321 1.41605C3.67676 0.968874 4.59594 0.645916 5.58966 0.447172C6.63307 0.248431 7.60194 0.14906 8.49629 0.14906H17.2162V25.5634H9.76328ZM0 29.1408V25.8615H7.45288V29.1408H0ZM9.76328 29.1408V25.8615H17.2162V29.1408H9.76328ZM9.76328 5.44061H8.57082C8.32239 5.49029 8.07396 5.63935 7.82553 5.88778C7.5771 6.13621 7.45288 6.45917 7.45288 6.85665V15.8001H9.76328V5.44061ZM0 32.7927V29.737H7.45288V32.7927H0ZM9.76328 32.7927V29.737H17.2162V32.7927H9.76328ZM0 36.3701V33.538H7.45288V36.3701H0ZM9.76328 36.3701V33.538H17.2162V36.3701H9.76328ZM9.76328 39.9475V37.4135H17.2162V39.9475H9.76328ZM0 39.9475V37.4135H7.45288V39.9475H0ZM9.76328 43.5248V41.289H17.2162V43.5248H9.76328ZM0 43.5248V41.289H7.45288V43.5248H0ZM9.76328 47.1768V45.1645H17.2162V47.1768H9.76328ZM0 47.1768V45.1645H7.45288V47.1768H0ZM9.76328 50.7541V49.04H17.2162V50.7541H9.76328ZM0 50.7541V49.04H7.45288V50.7541H0ZM9.76328 54.3315V52.8409H17.2162V54.3315H9.76328ZM0 54.3315V52.8409H7.45288V54.3315H0ZM17.2162 57.3872H9.76328V56.7164H17.2162V57.3872ZM7.45288 57.3872H0V56.7164H7.45288V57.3872Z" stroke="#F7941D" stroke-width="2" mask="url(#path-1-inside-1_244_3844)"/>
<path d="M27.3224 21.0171V25.5634H19.8695V0.14906H28.5894C29.4837 0.14906 30.4278 0.248431 31.4215 0.447172C32.4649 0.645916 33.3841 0.968874 34.179 1.41605C35.0237 1.86322 35.7193 2.45945 36.2658 3.20474C36.8124 3.90034 37.0857 4.76984 37.0857 5.81325V10.2105C37.0857 11.4029 37.036 12.4215 36.9366 13.2661C36.8372 14.1108 36.6385 14.8561 36.3404 15.502C36.0423 16.0982 35.6199 16.6448 35.0734 17.1416C34.5268 17.5888 33.8312 18.036 32.9866 18.4832C34.5765 19.2284 35.6199 20.1228 36.1168 21.1662C36.6633 22.2096 36.9863 23.6753 37.0857 25.5634H29.6328V22.4332C29.6328 22.0357 29.5086 21.7376 29.2601 21.5388C29.0614 21.2904 28.8378 21.1165 28.5894 21.0171H27.3224ZM19.8695 29.1408V25.8615H27.3224V29.1408H19.8695ZM37.0857 29.1408H29.6328V25.8615H37.0857V29.1408ZM27.3224 15.8001H28.5894C28.8378 15.7504 29.0614 15.6014 29.2601 15.3529C29.5086 15.1045 29.6328 14.7816 29.6328 14.3841V6.85665C29.6328 6.45917 29.5086 6.13621 29.2601 5.88778C29.0117 5.63935 28.7633 5.49029 28.5148 5.44061H27.3224V15.8001ZM19.8695 32.7927V29.737H27.3224V32.7927H19.8695ZM29.6328 32.7927V29.737H37.0857V32.7927H29.6328ZM19.8695 36.3701V33.538H27.3224V36.3701H19.8695ZM29.6328 36.3701V33.538H37.0857V36.3701H29.6328ZM19.8695 39.9475V37.4135H27.3224V39.9475H19.8695ZM29.6328 39.9475V37.4135H37.0857V39.9475H29.6328ZM29.6328 43.5248V41.289H37.0857V43.5248H29.6328ZM19.8695 43.5248V41.289H27.3224V43.5248H19.8695ZM29.6328 47.1768V45.1645H37.0857V47.1768H29.6328ZM19.8695 47.1768V45.1645H27.3224V47.1768H19.8695ZM29.6328 50.7541V49.04H37.0857V50.7541H29.6328ZM19.8695 50.7541V49.04H27.3224V50.7541H19.8695ZM29.6328 54.3315V52.8409H37.0857V54.3315H29.6328ZM19.8695 54.3315V52.8409H27.3224V54.3315H19.8695ZM27.3224 57.3872H19.8695V56.7164H27.3224V57.3872ZM37.0857 57.3872H29.6328V56.7164H37.0857V57.3872Z" stroke="#F7941D" stroke-width="2" mask="url(#path-1-inside-1_244_3844)"/>
<path d="M39.739 25.5634V5.81325C39.739 4.76984 40.0123 3.90034 40.5588 3.20474C41.1054 2.45945 41.7761 1.86322 42.5711 1.41605C43.4158 0.968874 44.3349 0.645916 45.3287 0.447172C46.3721 0.248431 47.341 0.14906 48.2353 0.14906H53.0797V5.44061H48.3098C48.0614 5.49029 47.813 5.63935 47.5645 5.88778C47.3161 6.13621 47.1919 6.45917 47.1919 6.85665V25.5634H39.739ZM39.739 29.1408V25.8615H47.1919V29.1408H39.739ZM39.739 32.7927V29.737H47.1919V32.7927H39.739ZM39.739 36.3701V33.538H47.1919V36.3701H39.739ZM40.4843 54.3315C40.1365 53.8347 39.9378 53.3378 39.8881 52.8409H53.0797V54.3315H40.4843ZM39.739 39.9475V37.4135H47.1919V39.9475H39.739ZM39.739 43.5248V41.289H47.1919V43.5248H39.739ZM39.739 47.1768V45.1645H47.1919V47.1768H39.739ZM47.1919 50.7541H39.739V49.04H47.1919V50.7541ZM53.0797 57.3872H48.2353C47.5397 57.3872 46.8192 57.3375 46.074 57.2381C45.3784 57.1388 44.6828 56.9649 43.9871 56.7164H53.0797V57.3872Z" stroke="#F7941D" stroke-width="2" mask="url(#path-1-inside-1_244_3844)"/>
<path d="M63.2039 21.0917V25.5634H55.7511V0.14906H63.2039V15.8001H65.5143V0.14906H72.9672V25.5634H65.5143V21.0917H63.2039ZM55.7511 29.1408V25.8615H63.2039V29.1408H55.7511ZM65.5143 29.1408V25.8615H72.9672V29.1408H65.5143ZM55.7511 32.7927V29.737H63.2039V32.7927H55.7511ZM65.5143 32.7927V29.737H72.9672V32.7927H65.5143ZM65.5143 36.3701V33.538H72.9672V36.3701H65.5143ZM55.7511 36.3701V33.538H63.2039V36.3701H55.7511ZM65.5143 39.9475V37.4135H72.9672V39.9475H65.5143ZM55.7511 39.9475V37.4135H63.2039V39.9475H55.7511ZM65.5143 43.5248V41.289H72.9672V43.5248H65.5143ZM55.7511 43.5248V41.289H63.2039V43.5248H55.7511ZM65.5143 47.1768V45.1645H72.9672V47.1768H65.5143ZM55.7511 47.1768V45.1645H63.2039V47.1768H55.7511ZM65.5143 50.7541V49.04H72.9672V50.7541H65.5143ZM55.7511 50.7541V49.04H63.2039V50.7541H55.7511ZM65.5143 54.3315V52.8409H72.9672V54.3315H65.5143ZM55.7511 54.3315V52.8409H63.2039V54.3315H55.7511ZM55.7511 57.3872V56.7164H63.2039V57.3872H55.7511ZM72.9672 57.3872H65.5143V56.7164H72.9672V57.3872Z" stroke="#F7941D" stroke-width="2" mask="url(#path-1-inside-1_244_3844)"/>
<path d="M85.3838 25.5634V21.0917H83.0734V25.5634H75.6206V5.81325C75.6206 4.76984 75.8938 3.90034 76.4404 3.20474C76.9869 2.45945 77.6577 1.86322 78.4527 1.41605C79.2973 0.968874 80.2165 0.645916 81.2102 0.447172C82.2536 0.248431 83.2225 0.14906 84.1168 0.14906H92.8367V25.5634H85.3838ZM75.6206 29.1408V25.8615H83.0734V29.1408H75.6206ZM85.3838 29.1408V25.8615H92.8367V29.1408H85.3838ZM85.3838 5.44061H84.1914C83.9429 5.49029 83.6945 5.63935 83.4461 5.88778C83.1977 6.13621 83.0734 6.45917 83.0734 6.85665V15.8001H85.3838V5.44061ZM75.6206 32.7927V29.737H83.0734V32.7927H75.6206ZM85.3838 32.7927V29.737H92.8367V32.7927H85.3838ZM75.6206 36.3701V33.538H83.0734V36.3701H75.6206ZM85.3838 36.3701V33.538H92.8367V36.3701H85.3838ZM85.3838 39.9475V37.4135H92.8367V39.9475H85.3838ZM75.6206 39.9475V37.4135H83.0734V39.9475H75.6206ZM85.3838 43.5248V41.289H92.8367V43.5248H85.3838ZM75.6206 43.5248V41.289H83.0734V43.5248H75.6206ZM85.3838 47.1768V45.1645H92.8367V47.1768H85.3838ZM75.6206 47.1768V45.1645H83.0734V47.1768H75.6206ZM85.3838 50.7541V49.04H92.8367V50.7541H85.3838ZM75.6206 50.7541V49.04H83.0734V50.7541H75.6206ZM85.3838 54.3315V52.8409H92.8367V54.3315H85.3838ZM75.6206 54.3315V52.8409H83.0734V54.3315H75.6206ZM92.8367 57.3872H85.3838V56.7164H92.8367V57.3872ZM83.0734 57.3872H75.6206V56.7164H83.0734V57.3872Z" stroke="#F7941D" stroke-width="2" mask="url(#path-1-inside-1_244_3844)"/>
<path d="M95.4901 25.5634V0.14906H104.21C105.104 0.14906 106.048 0.248431 107.042 0.447172C108.085 0.645916 109.005 0.968874 109.8 1.41605C110.644 1.86322 111.34 2.45945 111.886 3.20474C112.433 3.90034 112.706 4.76984 112.706 5.81325V25.5634H105.253V6.85665C105.253 6.45917 105.129 6.13621 104.881 5.88778C104.632 5.63935 104.384 5.49029 104.135 5.44061H102.943V25.5634H95.4901ZM95.4901 29.1408V25.8615H102.943V29.1408H95.4901ZM105.253 29.1408V25.8615H112.706V29.1408H105.253ZM95.4901 32.7927V29.737H102.943V32.7927H95.4901ZM105.253 32.7927V29.737H112.706V32.7927H105.253ZM105.253 36.3701V33.538H112.706V36.3701H105.253ZM95.4901 36.3701V33.538H102.943V36.3701H95.4901ZM105.253 39.9475V37.4135H112.706V39.9475H105.253ZM95.4901 39.9475V37.4135H102.943V39.9475H95.4901ZM105.253 43.5248V41.289H112.706V43.5248H105.253ZM95.4901 43.5248V41.289H102.943V43.5248H95.4901ZM105.253 47.1768V45.1645H112.706V47.1768H105.253ZM95.4901 47.1768V45.1645H102.943V47.1768H95.4901ZM105.253 50.7541V49.04H112.706V50.7541H105.253ZM95.4901 50.7541V49.04H102.943V50.7541H95.4901ZM105.253 54.3315V52.8409H112.706V54.3315H105.253ZM95.4901 54.3315V52.8409H102.943V54.3315H95.4901ZM112.706 57.3872H105.253V56.7164H112.706V57.3872ZM95.4901 57.3872V56.7164H102.943V57.3872H95.4901Z" stroke="#F7941D" stroke-width="2" mask="url(#path-1-inside-1_244_3844)"/>
<path d="M115.36 5.58966C115.36 4.59594 115.633 3.75129 116.179 3.05568C116.776 2.3104 117.496 1.71416 118.341 1.26699C119.185 0.819818 120.129 0.49686 121.173 0.298116C122.216 0.099372 123.185 0 124.079 0C124.974 0 125.918 0.099372 126.912 0.298116C127.955 0.49686 128.874 0.819818 129.669 1.26699C130.514 1.71416 131.209 2.3104 131.756 3.05568C132.302 3.75129 132.576 4.62079 132.576 5.66419V9.68875H125.123V6.7076C125.123 6.31011 124.999 5.98715 124.75 5.73872C124.502 5.4406 124.253 5.2667 124.005 5.21702C123.756 5.21702 123.483 5.34123 123.185 5.58966C122.937 5.83809 122.812 6.21074 122.812 6.7076V25.5634H115.36V5.58966ZM125.123 25.5634V15.8001H132.576V25.5634H125.123ZM132.427 52.8409C132.377 53.3378 132.178 53.8347 131.83 54.3315H116.105C115.956 54.0831 115.807 53.8595 115.658 53.6608C115.558 53.4123 115.484 53.1391 115.434 52.8409H132.427ZM115.36 29.1408V25.8615H122.812V29.1408H115.36ZM125.123 29.1408V25.8615H132.576V29.1408H125.123ZM115.36 32.7927V29.737H122.812V32.7927H115.36ZM125.123 32.7927V29.737H132.576V32.7927H125.123ZM115.36 36.3701V33.538H122.812V36.3701H115.36ZM125.123 36.3701V33.538H132.576V36.3701H125.123ZM125.123 39.9475V37.4135H132.576V39.9475H125.123ZM115.36 39.9475V37.4135H122.812V39.9475H115.36ZM125.123 43.5248V41.289H132.576V43.5248H125.123ZM115.36 43.5248V41.289H122.812V43.5248H115.36ZM125.123 47.1768V45.1645H132.576V47.1768H125.123ZM115.36 47.1768V45.1645H122.812V47.1768H115.36ZM125.123 50.7541V49.04H132.576V50.7541H125.123ZM115.36 50.7541V49.04H122.812V50.7541H115.36ZM128.7 56.7164C127.955 57.0146 127.185 57.2381 126.39 57.3872C125.595 57.4866 124.825 57.5363 124.079 57.5363C123.334 57.5363 122.539 57.4866 121.695 57.3872C120.9 57.2381 120.129 57.0146 119.384 56.7164H128.7Z" stroke="#F7941D" stroke-width="2" mask="url(#path-1-inside-1_244_3844)"/>
<path d="M151.849 21.0917H142.682V25.5634H135.229V0.14906H152.371V11.8501H144.918V5.44061H142.682V15.8001H151.849V21.0917ZM135.229 54.3315V52.8409H152.371V54.3315H135.229ZM135.229 29.1408V25.8615H142.682V29.1408H135.229ZM144.918 29.1408V25.8615H152.371V29.1408H144.918ZM135.229 32.7927V29.737H142.682V32.7927H135.229ZM144.918 32.7927V29.737H152.371V32.7927H144.918ZM135.229 36.3701V33.538H142.682V36.3701H135.229ZM144.918 36.3701V33.538H152.371V36.3701H144.918ZM144.918 39.9475V37.4135H152.371V39.9475H144.918ZM135.229 39.9475V37.4135H142.682V39.9475H135.229ZM144.918 43.5248V41.289H152.371V43.5248H144.918ZM135.229 43.5248V41.289H142.682V43.5248H135.229ZM144.918 47.1768V45.1645H152.371V47.1768H144.918ZM135.229 47.1768V45.1645H142.682V47.1768H135.229ZM144.918 50.7541V49.04H152.371V50.7541H144.918ZM135.229 50.7541V49.04H142.682V50.7541H135.229ZM152.371 57.3872H135.229V56.7164H152.371V57.3872ZM152.371 24.9672V25.5634H144.918V24.9672H152.371Z" stroke="#F7941D" stroke-width="2" mask="url(#path-1-inside-1_244_3844)"/>
<path d="M155.026 25.5634V0.14906H162.479V25.5634H155.026ZM155.026 54.3315V52.8409H172.093V54.3315H155.026ZM155.026 29.1408V25.8615H162.479V29.1408H155.026ZM164.64 29.1408V25.8615H172.093V29.1408H164.64ZM155.026 32.7927V29.737H162.479V32.7927H155.026ZM164.64 32.7927V29.737H172.093V32.7927H164.64ZM155.026 36.3701V33.538H162.479V36.3701H155.026ZM164.64 36.3701V33.538H172.093V36.3701H164.64ZM164.64 39.9475V37.4135H172.093V39.9475H164.64ZM155.026 39.9475V37.4135H162.479V39.9475H155.026ZM164.64 43.5248V41.289H172.093V43.5248H164.64ZM155.026 43.5248V41.289H162.479V43.5248H155.026ZM164.64 47.1768V45.1645H172.093V47.1768H164.64ZM155.026 47.1768V45.1645H162.479V47.1768H155.026ZM164.64 50.7541V49.04H172.093V50.7541H164.64ZM155.026 50.7541V49.04H162.479V50.7541H155.026ZM155.026 57.3872V56.7164H172.093V57.3872H155.026ZM164.64 25.5634V24.9672H172.093V25.5634H164.64Z" stroke="#F7941D" stroke-width="2" mask="url(#path-1-inside-1_244_3844)"/>
<path d="M61.5517 135.239H46.9946L42.7409 120.965H18.6365L14.3828 135.239H0.29834L21.0942 69.0699H40.6613L61.5517 135.239ZM30.4524 81.3583L22.2285 108.96H39.1488L30.925 81.3583H30.4524Z" fill="black"/>
<path d="M107.421 135.239L93.6199 110.851H83.1274V135.239H68.4758V69.0699H96.3612C100.583 69.0699 104.396 69.9521 107.799 71.7166C111.202 73.4811 113.849 75.9388 115.739 79.0897C117.693 82.1776 118.669 85.612 118.669 89.3931C118.669 93.3002 117.598 96.8292 115.456 99.9801C113.376 103.068 110.603 105.463 107.137 107.164L123.774 135.239H107.421ZM82.7493 81.5474V99.0348H93.7144C96.9913 99.0348 99.512 98.2786 101.277 96.7662C103.104 95.1908 104.018 93.0166 104.018 90.2439C104.018 87.5341 103.104 85.423 101.277 83.9106C99.449 82.3351 96.9283 81.5474 93.7144 81.5474H82.7493Z" fill="black"/>
<path d="M159.549 136.373C153.121 136.373 147.418 134.923 142.439 132.025C137.524 129.126 133.68 125.093 130.907 119.925C128.197 114.758 126.842 108.834 126.842 102.154C126.842 95.4743 128.197 89.5507 130.907 84.3832C133.68 79.2157 137.524 75.1826 142.439 72.2838C147.418 69.385 153.089 67.9355 159.454 67.9355C166.953 67.9355 173.223 69.9206 178.265 73.8907C183.369 77.7978 186.867 83.4064 188.757 90.7165L174.673 92.5125C173.602 88.9835 171.743 86.2422 169.096 84.2887C166.449 82.3351 163.204 81.3583 159.36 81.3583C154.003 81.3583 149.718 83.2489 146.504 87.0299C143.353 90.811 141.778 95.8524 141.778 102.154C141.778 108.519 143.385 113.592 146.598 117.373C149.812 121.091 154.098 122.95 159.454 122.95C163.298 122.95 166.544 121.973 169.19 120.02C171.9 118.066 173.822 115.325 174.956 111.796L189.135 113.592C187.182 120.902 183.621 126.542 178.454 130.512C173.349 134.419 167.048 136.373 159.549 136.373Z" fill="black"/>
<path d="M238.723 95.1592V69.0699H253.374V135.239H238.723V108.204H212.917V135.239H198.265V69.0699H212.917V95.1592H238.723Z" fill="black"/>
<path d="M321.5 135.239H306.943L302.689 120.965H278.585L274.331 135.239H260.247L281.043 69.0699H300.61L321.5 135.239ZM290.401 81.3583L282.177 108.96H299.097L290.874 81.3583H290.401Z" fill="black"/>
<path d="M342.32 135.239H328.424V69.0699H343.927L370.016 113.497H370.489V69.0699H384.479V135.239H368.882L342.792 90.811H342.32V135.239Z" fill="black"/>
<path d="M430.555 99.9801H458.535V135.239H450.784L448.704 124.463C446.688 128.37 443.789 131.331 440.008 133.348C436.29 135.365 431.942 136.373 426.963 136.373C420.788 136.373 415.242 134.955 410.327 132.119C405.474 129.22 401.662 125.187 398.889 120.02C396.116 114.789 394.73 108.834 394.73 102.154C394.73 95.4743 396.116 89.5507 398.889 84.3832C401.725 79.2157 405.663 75.1826 410.705 72.2838C415.746 69.385 421.512 67.9355 428.003 67.9355C435.502 67.9355 441.804 69.8576 446.908 73.7017C452.076 77.4827 455.573 82.7447 457.401 89.4876L443.222 91.2836C442.088 88.1328 440.197 85.7066 437.55 84.0051C434.904 82.2406 431.721 81.3583 428.003 81.3583C422.458 81.3583 418.015 83.2489 414.675 87.0299C411.335 90.811 409.665 95.8524 409.665 102.154C409.665 108.456 411.303 113.497 414.58 117.278C417.857 121.06 422.237 122.95 427.72 122.95C432.068 122.95 435.66 121.816 438.496 119.547C441.394 117.215 443.127 114.065 443.695 110.094H430.555V99.9801Z" fill="black"/>
<path d="M484.95 107.826V122.761H515.765V135.239H470.676V69.0699H515.293V81.5474H484.95V95.9155H511.984V107.826H484.95Z" fill="black"/>
<path d="M570 135.239H526.801V69.0699H541.453V122.099H570V135.239Z" fill="black"/>
</svg>
