<svg width="423" height="94" viewBox="0 0 423 94" fill="none" xmlns="http://www.w3.org/2000/svg">
<path d="M11.2184 55.9898L0.175781 37.0453H5.26403L15.1157 54.1765H12.1927L22.1527 37.0453H26.844L15.8375 55.9898H11.2184Z" fill="white"/>
<path d="M100.875 55.5215L112.242 36.577H116.861L128.265 55.5215H123.357L113.578 38.4444H115.454L105.711 55.5215H100.875ZM106.108 51.1372L107.371 48.3767H121.011L122.275 51.1372H106.108Z" fill="white"/>
<path d="M213.59 55.792C210.126 55.792 207.408 55.0613 205.435 53.5999C203.486 52.1385 202.512 50.0275 202.512 47.267V36.577H207.203V47.1317C207.203 49.0803 207.756 50.4966 208.863 51.3807C209.994 52.2647 211.582 52.7068 213.626 52.7068C215.671 52.7068 217.247 52.2647 218.354 51.3807C219.461 50.4966 220.014 49.0803 220.014 47.1317V36.577H224.633V47.267C224.633 50.0275 223.647 52.1385 221.674 53.5999C219.725 55.0613 217.031 55.792 213.59 55.792Z" fill="white"/>
<path d="M303.682 55.9898V37.0453H308.373V53.0128H321.581V55.9898H303.682Z" fill="white"/>
<path d="M20.6484 74.7334H32.2383C40.5862 74.7333 47.2025 72.2017 52.0869 67.1396C53.2426 65.9427 54.2623 64.6536 55.1494 63.2744H77.9043C77.0204 65.8142 75.9193 68.2574 74.5996 70.6035C70.692 77.7082 65.0977 83.2595 57.8154 87.2559C50.533 91.2523 42.0953 93.25 32.5039 93.25H0V63.2744H20.6484V74.7334ZM115.882 93.25H95.6328V63.2744H115.882V93.25ZM168.878 72.335H169.544L172.23 63.2744H192.067L182.732 93.25H155.024L145.731 63.2744H166.191L168.878 72.335ZM242.462 93.25H222.213V63.2744H242.462V93.25ZM280.938 93.25H261.355V63.2744H280.938V93.25ZM340.352 93.25H318.371L300.769 63.2744H340.352V93.25ZM378.909 75.666H422.337V93.25H358.794V63.2744H378.909V75.666ZM421.671 37.0449H400.166V40.3232H408.597V56.248H413.28V40.3232H421.671V63.2744H379.089V29.7852H421.671V37.0449ZM32.5039 0C42.0953 0 50.533 1.99869 57.8154 5.99512C65.0975 9.9915 70.6921 15.542 74.5996 22.6465C75.8558 24.8518 76.915 27.1535 77.7764 29.5518H54.8701C54.0497 28.3318 53.1233 27.1838 52.0869 26.1104C47.2025 20.9595 40.5862 18.3839 32.2383 18.3838H20.6484V29.5518H0V0H32.5039ZM115.882 29.5518H95.6328V0H115.882V29.5518ZM156.192 29.5518H135.277L126.116 0H147.431L156.192 29.5518ZM202.57 29.5518H182.229L190.992 0H211.773L202.57 29.5518ZM242.462 29.5518H222.213V0H242.462V29.5518ZM300.557 29.5518H261.355V0H283.202L300.557 29.5518ZM340.352 29.5518H320.636V0H340.352V29.5518ZM421.671 17.584H378.909V29.5518H358.794V0H421.671V17.584Z" fill="white"/>
<path d="M60.752 42.6658L63.3917 45.3413L63.3916 45.9686L62.7728 45.9686L60.1331 43.2931L60.752 42.6658Z" fill="white"/>
<path d="M66.5156 42.6658L63.8759 45.3413L63.876 45.9686L64.4948 45.9686L67.1345 43.2931L66.5156 42.6658Z" fill="white"/>
<path d="M60.752 49.6915L63.3917 47.016L63.3916 46.3887L62.7728 46.3887L60.1331 49.0642L60.752 49.6915Z" fill="white"/>
<path d="M66.5156 49.6915L63.8759 47.016L63.876 46.3887L64.4948 46.3887L67.1345 49.0642L66.5156 49.6915Z" fill="white"/>
<rect x="60.127" y="45.6962" width="0.822119" height="0.757532" fill="white"/>
<rect x="66.3301" y="45.6962" width="0.822119" height="0.757532" fill="white"/>
<path d="M165.275 45.5349C165.646 45.5349 165.938 45.8275 165.938 46.1785C165.938 46.5295 165.646 46.823 165.275 46.823C164.905 46.8228 164.613 46.5294 164.613 46.1785C164.613 45.8277 164.905 45.5351 165.275 45.5349Z" stroke="white" stroke-width="0.468372"/>
<path d="M162.714 46.6951C162.958 47.8622 164.013 48.74 165.277 48.74C166.541 48.7398 167.595 47.8619 167.839 46.6951L168.788 46.8943C168.45 48.491 167.007 49.6912 165.276 49.6912C163.546 49.6911 162.102 48.4916 161.764 46.8953L162.714 46.6951ZM165.276 42.6658C167.007 42.6658 168.451 43.866 168.789 45.4626L167.839 45.6619C167.595 44.4951 166.541 43.6172 165.277 43.6169C164.013 43.6169 162.958 44.4949 162.714 45.6619L161.764 45.4617C162.102 43.8655 163.546 42.6659 165.276 42.6658Z" fill="white"/>
<path d="M258.248 48.5245L261.485 43.1342V44.4489L259.522 47.7357L258.248 48.5245Z" fill="white"/>
<path d="M265.273 48.5247L262.036 43.1343V44.449L263.999 47.7358L265.273 48.5247Z" fill="white"/>
<path d="M263.827 48.1304L264.929 48.7554H258.592L259.694 48.1304H263.827Z" fill="white"/>
<mask id="mask0_276_46" style="mask-type:alpha" maskUnits="userSpaceOnUse" x="354" y="42" width="9" height="9">
<rect width="1.21437" height="0.594275" transform="matrix(0.720939 -0.692999 0.720939 0.692999 355.633 44.2843)" fill="#D9D9D9"/>
<rect width="7.3116" height="0.469159" transform="matrix(0.720939 -0.692999 0.720939 0.692999 354.266 47.2644)" fill="#D9D9D9"/>
<rect width="7.3116" height="0.469159" transform="matrix(0.720939 -0.692999 0.720939 0.692999 354.875 48.0729)" fill="#D9D9D9"/>
<rect width="7.3116" height="0.469159" transform="matrix(0.720939 -0.692999 0.720939 0.692999 355.793 48.6952)" fill="#D9D9D9"/>
<rect width="7.3116" height="0.469159" transform="matrix(0.720939 -0.692999 0.720939 0.692999 356.439 49.4733)" fill="#D9D9D9"/>
<rect width="7.3116" height="0.469159" transform="matrix(0.720939 -0.692999 0.720939 0.692999 357.088 50.3032)" fill="#D9D9D9"/>
<rect width="1.49245" height="0.594275" transform="matrix(0.720939 -0.692999 0.720939 0.692999 360.168 48.803)" fill="#D9D9D9"/>
</mask>
<g mask="url(#mask0_276_46)">
<rect x="356.115" y="43.8873" width="5.07239" height="4.87581" fill="white"/>
</g>
</svg>
