<svg width="399" height="66" viewBox="0 0 399 66" fill="none" xmlns="http://www.w3.org/2000/svg">
<path d="M2.25606 4.36463H1.08778V3.19634L1.61149 0.900061H2.23592V1.14178L1.45035 3.19634H2.25606V4.36463ZM4.5322 4.36463H3.36392V3.19634L3.88763 0.900061H4.51206V1.14178L3.72649 3.19634H4.5322V4.36463Z" fill="black"/>
<path d="M8.16389 15H7.5596V0.900061H8.16389V15ZM16.1807 0.900061L9.05017 7.80905L16.8857 15H16.0196L8.22432 7.82919L15.3952 0.900061H16.1807Z" fill="black"/>
<path d="M21.1634 14.4562L24.6078 5.10991H25.192L20.0958 19.0286H19.5117L20.9821 15H20.3778L16.591 5.10991H17.2154L20.7807 14.4562H21.1634Z" fill="black"/>
<path d="M30.6935 15.2015C29.834 15.2015 29.0686 14.9866 28.3972 14.5569C27.7392 14.1138 27.2222 13.5028 26.8462 12.7239C26.4836 11.9316 26.3023 11.0386 26.3023 10.0449C26.3023 9.05119 26.4836 8.16491 26.8462 7.38605C27.2222 6.60719 27.7392 6.00291 28.3972 5.5732C29.0686 5.13005 29.834 4.90848 30.6935 4.90848C31.5529 4.90848 32.3183 5.13005 32.9898 5.5732C33.6612 6.00291 34.1782 6.60719 34.5408 7.38605C34.9168 8.16491 35.1048 9.05119 35.1048 10.0449C35.1048 11.0386 34.9168 11.9316 34.5408 12.7239C34.1782 13.5028 33.6612 14.1138 32.9898 14.5569C32.3183 14.9866 31.5529 15.2015 30.6935 15.2015ZM30.6935 14.6375C31.4455 14.6375 32.1102 14.4428 32.6876 14.0533C33.265 13.6639 33.7082 13.1268 34.017 12.4419C34.3393 11.7436 34.5005 10.9446 34.5005 10.0449C34.5005 9.15862 34.3393 8.36633 34.017 7.66805C33.7082 6.96977 33.265 6.42591 32.6876 6.03648C32.1102 5.64705 31.4455 5.45234 30.6935 5.45234C29.9415 5.45234 29.2768 5.64705 28.6993 6.03648C28.1219 6.42591 27.6721 6.96977 27.3498 7.66805C27.0409 8.36633 26.8865 9.15862 26.8865 10.0449C26.8865 10.9446 27.0409 11.7436 27.3498 12.4419C27.6721 13.1268 28.1219 13.6639 28.6993 14.0533C29.2768 14.4428 29.9415 14.6375 30.6935 14.6375Z" fill="black"/>
<path d="M40.7498 15.2015C39.7829 15.2015 39.0108 14.8389 38.4334 14.1138C37.8694 13.3752 37.5874 12.368 37.5874 11.0923V5.10991H38.1916V11.0722C38.1916 12.1868 38.4266 13.0596 38.8966 13.6908C39.3666 14.3219 40.0045 14.6375 40.8102 14.6375C41.4682 14.6375 42.0792 14.4428 42.6432 14.0533C43.2072 13.6639 43.6571 13.1402 43.9928 12.4822C44.3285 11.8242 44.4963 11.1259 44.4963 10.3873V5.10991H45.1006V15H44.5165V12.5023H44.4158C44.0263 13.3483 43.5093 14.013 42.8648 14.4965C42.2336 14.9665 41.5286 15.2015 40.7498 15.2015Z" fill="black"/>
<path d="M49.0743 15H48.47V0.900061H49.0743V15ZM55.1574 5.10991L49.9203 9.82333L55.7415 15H54.9157L49.1347 9.84347L54.3517 5.10991H55.1574Z" fill="black"/>
<path d="M65.1588 14.4763V15H64.6149C64.2389 15 63.9301 14.8792 63.6884 14.6375C63.4601 14.3958 63.3459 14.06 63.3459 13.6303V12.4822H63.2452C62.8826 13.3416 62.3589 14.013 61.6741 14.4965C61.0026 14.9665 60.2641 15.2015 59.4584 15.2015C58.5989 15.2015 57.8738 14.9463 57.2829 14.436C56.6921 13.9123 56.3967 13.2342 56.3967 12.4016C56.3967 11.8108 56.5511 11.287 56.8599 10.8305C57.1688 10.3739 57.5918 10.018 58.1289 9.7629C58.6795 9.50776 59.2905 9.38019 59.9619 9.38019H63.3056V8.6349C63.3056 7.68148 63.0438 6.91605 62.5201 6.33862C61.9964 5.74777 61.2712 5.45234 60.3447 5.45234C59.6061 5.45234 58.9749 5.65377 58.4512 6.05662C57.9275 6.45948 57.5582 7.02348 57.3434 7.74862L56.7794 7.66805C57.0211 6.82205 57.4441 6.15062 58.0484 5.65377C58.6661 5.15691 59.4315 4.90848 60.3447 4.90848C61.4458 4.90848 62.3119 5.25763 62.9431 5.95591C63.5742 6.64077 63.8898 7.53376 63.8898 8.6349V13.59C63.8898 13.872 63.9569 14.0936 64.0912 14.2548C64.2389 14.4025 64.4336 14.4763 64.6754 14.4763H65.1588ZM59.4785 14.6375C60.1902 14.6375 60.8348 14.4428 61.4122 14.0533C62.0031 13.6639 62.4664 13.1469 62.8021 12.5023C63.1378 11.8443 63.3056 11.1393 63.3056 10.3873V9.94419H59.9821C59.1227 9.94419 58.4042 10.1725 57.8268 10.629C57.2628 11.0856 56.9808 11.6765 56.9808 12.4016C56.9808 13.073 57.2158 13.6169 57.6858 14.0332C58.1558 14.436 58.7534 14.6375 59.4785 14.6375Z" fill="black"/>
<path d="M75.6145 15.2015C74.3119 15.2015 73.2041 14.8725 72.2909 14.2145C71.3778 13.543 70.7668 12.5829 70.4579 11.334L71.0421 11.2132C71.3106 12.3412 71.8478 13.1939 72.6535 13.7713C73.4726 14.3353 74.4596 14.6173 75.6145 14.6173C76.823 14.6173 77.7698 14.3219 78.4546 13.731C79.1395 13.1268 79.4819 12.3278 79.4819 11.334C79.4819 10.6223 79.3006 10.0583 78.938 9.64205C78.5755 9.21233 78.1256 8.89005 77.5885 8.67519C77.0648 8.46033 76.3531 8.23205 75.4533 7.99033C74.4999 7.73519 73.7412 7.49348 73.1772 7.26519C72.6132 7.02348 72.1365 6.66762 71.7471 6.19762C71.3576 5.7142 71.1629 5.06963 71.1629 4.26391C71.1629 3.56563 71.3442 2.94792 71.7068 2.41077C72.0693 1.8602 72.5729 1.4372 73.2175 1.14178C73.8621 0.846347 74.5939 0.698633 75.4131 0.698633C76.5948 0.698633 77.5683 1.00078 78.3338 1.60506C79.1126 2.19592 79.6363 3.04863 79.9049 4.1632L79.3208 4.28406C79.0925 3.30377 78.6426 2.55849 77.9712 2.0482C77.2998 1.53792 76.4471 1.28277 75.4131 1.28277C74.3388 1.28277 73.4592 1.55806 72.7743 2.10863C72.1029 2.64577 71.7672 3.3642 71.7672 4.26391C71.7672 4.94877 71.9418 5.49934 72.2909 5.91562C72.6401 6.31848 73.0765 6.62734 73.6002 6.84219C74.1239 7.04362 74.8222 7.25176 75.6951 7.46662C76.6619 7.72176 77.434 7.97019 78.0115 8.21191C78.5889 8.45362 79.079 8.82291 79.4819 9.31976C79.8848 9.81662 80.0862 10.488 80.0862 11.334C80.0862 12.4889 79.6833 13.4222 78.8776 14.1339C78.0853 14.8456 76.9976 15.2015 75.6145 15.2015Z" fill="black"/>
<path d="M85.8351 15.2015C84.8682 15.2015 84.0961 14.8389 83.5186 14.1138C82.9546 13.3752 82.6727 12.368 82.6727 11.0923V5.10991H83.2769V11.0722C83.2769 12.1868 83.5119 13.0596 83.9819 13.6908C84.4519 14.3219 85.0898 14.6375 85.8955 14.6375C86.5535 14.6375 87.1645 14.4428 87.7285 14.0533C88.2925 13.6639 88.7424 13.1402 89.0781 12.4822C89.4138 11.8242 89.5816 11.1259 89.5816 10.3873V5.10991H90.1859V15H89.6018V12.5023H89.5011C89.1116 13.3483 88.5946 14.013 87.9501 14.4965C87.3189 14.9665 86.6139 15.2015 85.8351 15.2015Z" fill="black"/>
<path d="M94.1394 15H93.5553V5.10991H94.1394V15ZM94.3207 2.93449H93.3941V1.9072H94.3207V2.93449Z" fill="black"/>
<path d="M101.273 19.0286C100.212 19.0286 99.299 18.7533 98.5335 18.2027C97.7681 17.6656 97.2645 16.927 97.0228 15.987L97.5868 15.8863C97.7883 16.692 98.218 17.3232 98.876 17.7797C99.5474 18.2363 100.346 18.4646 101.273 18.4646C102.428 18.4646 103.328 18.102 103.972 17.3769C104.617 16.6517 104.939 15.6177 104.939 14.2749V12.0995H104.838C104.462 12.9723 103.939 13.6438 103.267 14.1138C102.596 14.5703 101.85 14.7986 101.031 14.7986C100.239 14.7986 99.5205 14.5905 98.876 14.1742C98.2448 13.7445 97.748 13.1536 97.3854 12.4016C97.0228 11.6496 96.8416 10.7969 96.8416 9.84347C96.8416 8.90348 97.0228 8.05748 97.3854 7.30548C97.748 6.55348 98.2448 5.96934 98.876 5.55305C99.5205 5.12334 100.239 4.90848 101.031 4.90848C101.85 4.90848 102.596 5.14348 103.267 5.61348C103.939 6.07005 104.469 6.73477 104.858 7.60762H104.959V5.10991H105.543V14.2749C105.543 15.7789 105.161 16.9472 104.395 17.7797C103.643 18.6123 102.602 19.0286 101.273 19.0286ZM101.072 14.2346C101.797 14.2346 102.455 14.0399 103.046 13.6505C103.636 13.261 104.1 12.7306 104.435 12.0592C104.771 11.3878 104.939 10.6492 104.939 9.84347C104.939 9.03776 104.771 8.29919 104.435 7.62776C104.1 6.95634 103.636 6.42591 103.046 6.03648C102.455 5.64705 101.797 5.45234 101.072 5.45234C100.373 5.45234 99.7488 5.64034 99.1983 6.01634C98.6477 6.39234 98.2113 6.91605 97.889 7.58748C97.5801 8.25891 97.4257 9.0109 97.4257 9.84347C97.4257 10.6895 97.5801 11.4482 97.889 12.1196C98.2113 12.7776 98.6477 13.2946 99.1983 13.6706C99.7488 14.0466 100.373 14.2346 101.072 14.2346Z" fill="black"/>
<path d="M116.714 9.66219C116.714 9.8099 116.694 9.96433 116.653 10.1255H108.697C108.724 11.4818 109.086 12.5762 109.785 13.4088C110.496 14.2279 111.436 14.6375 112.605 14.6375C113.397 14.6375 114.055 14.4495 114.579 14.0735C115.116 13.684 115.539 13.1738 115.848 12.5426L116.412 12.6433C116.076 13.4356 115.586 14.06 114.941 14.5166C114.297 14.9732 113.518 15.2015 112.605 15.2015C111.718 15.2015 110.933 14.9866 110.248 14.5569C109.577 14.1138 109.053 13.5028 108.677 12.7239C108.301 11.9316 108.113 11.0386 108.113 10.0449C108.113 9.05119 108.294 8.16491 108.657 7.38605C109.033 6.60719 109.543 6.00291 110.188 5.5732C110.846 5.13005 111.598 4.90848 112.444 4.90848C113.263 4.90848 113.995 5.10991 114.639 5.51277C115.297 5.91562 115.807 6.47962 116.17 7.20476C116.533 7.91648 116.714 8.73562 116.714 9.66219ZM112.444 5.45234C111.396 5.45234 110.53 5.83505 109.845 6.60048C109.174 7.35248 108.798 8.34619 108.717 9.58162H116.15C116.096 8.31933 115.727 7.31891 115.042 6.58034C114.371 5.82834 113.504 5.45234 112.444 5.45234Z" fill="black"/>
<path d="M122.187 15C121.448 15 120.898 14.812 120.535 14.436C120.186 14.06 120.012 13.4625 120.012 12.6433V5.65377H117.655V5.10991H120.012L120.132 2.28992H120.616V5.10991H123.96V5.65377H120.616V12.6433C120.616 13.2879 120.737 13.7512 120.978 14.0332C121.234 14.3018 121.65 14.436 122.227 14.436H124.06V15H122.187Z" fill="black"/>
<path d="M128.969 15.2015C127.948 15.2015 127.089 14.953 126.39 14.4562C125.692 13.9593 125.236 13.2543 125.021 12.3412L125.585 12.2405C125.732 12.979 126.108 13.5632 126.713 13.9929C127.317 14.4226 128.069 14.6375 128.969 14.6375C129.855 14.6375 130.553 14.4293 131.064 14.013C131.574 13.5968 131.829 13.0462 131.829 12.3613C131.829 11.8779 131.695 11.4952 131.426 11.2132C131.171 10.9312 130.842 10.723 130.439 10.5888C130.036 10.441 129.513 10.3 128.868 10.1658C128.143 10.0046 127.559 9.84347 127.116 9.68233C126.672 9.52119 126.296 9.26605 125.988 8.9169C125.679 8.55433 125.524 8.07091 125.524 7.46662C125.524 6.68777 125.833 6.07005 126.451 5.61348C127.069 5.14348 127.841 4.90848 128.767 4.90848C129.667 4.90848 130.432 5.13677 131.064 5.59334C131.708 6.03648 132.124 6.69448 132.312 7.56734L131.748 7.64791C131.628 6.96305 131.292 6.42591 130.741 6.03648C130.204 5.64705 129.546 5.45234 128.767 5.45234C128.015 5.45234 127.384 5.63362 126.874 5.9962C126.364 6.35877 126.108 6.84891 126.108 7.46662C126.108 7.95005 126.236 8.33276 126.491 8.61476C126.76 8.88333 127.089 9.09148 127.478 9.23919C127.881 9.37348 128.411 9.50776 129.069 9.64205C129.808 9.81662 130.392 9.98447 130.822 10.1456C131.265 10.3068 131.641 10.5686 131.95 10.9312C132.259 11.2803 132.413 11.757 132.413 12.3613C132.413 13.2342 132.098 13.9258 131.466 14.436C130.835 14.9463 130.003 15.2015 128.969 15.2015Z" fill="black"/>
<path d="M137.943 15.2015C136.976 15.2015 136.204 14.8389 135.626 14.1138C135.062 13.3752 134.78 12.368 134.78 11.0923V5.10991H135.385V11.0722C135.385 12.1868 135.62 13.0596 136.09 13.6908C136.56 14.3219 137.198 14.6375 138.003 14.6375C138.661 14.6375 139.272 14.4428 139.836 14.0533C140.4 13.6639 140.85 13.1402 141.186 12.4822C141.522 11.8242 141.689 11.1259 141.689 10.3873V5.10991H142.294V15H141.71V12.5023H141.609C141.219 13.3483 140.702 14.013 140.058 14.4965C139.427 14.9665 138.722 15.2015 137.943 15.2015Z" fill="black"/>
<path d="M145.643 4.36463H145.018V4.12291L145.824 2.08849H145.018V0.900061H146.187V2.08849L145.643 4.36463ZM147.919 4.36463H147.295V4.12291L148.1 2.08849H147.295V0.900061H148.463V2.08849L147.919 4.36463Z" fill="black"/>
<path d="M160.113 19.2502C158.958 18.0013 158.065 16.5577 157.434 14.9195C156.803 13.2678 156.487 11.5489 156.487 9.7629C156.487 7.97691 156.803 6.26477 157.434 4.62648C158.065 2.97477 158.958 1.52449 160.113 0.275635L160.556 0.577777C158.246 3.25006 157.091 6.31177 157.091 9.7629C157.091 13.214 158.246 16.2757 160.556 18.948L160.113 19.2502Z" fill="black"/>
<path d="M163.484 15H162.88V0.900061H163.826L169.527 14.295H169.627L175.348 0.900061H176.275V15H175.67V1.78635H175.57L169.93 15H169.225L163.585 1.78635H163.484V15Z" fill="black"/>
<path d="M180.533 15H179.949V5.10991H180.533V15ZM180.715 2.93449H179.788V1.9072H180.715V2.93449Z" fill="black"/>
<path d="M183.92 15V5.10991H184.504V7.60762H184.605C184.968 6.80191 185.438 6.1842 186.015 5.75448C186.593 5.32477 187.271 5.10991 188.049 5.10991H188.956V5.67391H187.949C187.304 5.67391 186.72 5.86862 186.196 6.25805C185.673 6.63405 185.263 7.13091 184.968 7.74862C184.672 8.36633 184.525 9.02433 184.525 9.72262V15H183.92Z" fill="black"/>
<path d="M190.687 15V5.10991H191.271V7.60762H191.372C191.734 6.80191 192.204 6.1842 192.782 5.75448C193.359 5.32477 194.037 5.10991 194.816 5.10991H195.723V5.67391H194.716C194.071 5.67391 193.487 5.86862 192.963 6.25805C192.439 6.63405 192.03 7.13091 191.734 7.74862C191.439 8.36633 191.291 9.02433 191.291 9.72262V15H190.687Z" fill="black"/>
<path d="M200.963 15.2015C200.104 15.2015 199.338 14.9866 198.667 14.5569C198.009 14.1138 197.492 13.5028 197.116 12.7239C196.753 11.9316 196.572 11.0386 196.572 10.0449C196.572 9.05119 196.753 8.16491 197.116 7.38605C197.492 6.60719 198.009 6.00291 198.667 5.5732C199.338 5.13005 200.104 4.90848 200.963 4.90848C201.823 4.90848 202.588 5.13005 203.26 5.5732C203.931 6.00291 204.448 6.60719 204.811 7.38605C205.187 8.16491 205.375 9.05119 205.375 10.0449C205.375 11.0386 205.187 11.9316 204.811 12.7239C204.448 13.5028 203.931 14.1138 203.26 14.5569C202.588 14.9866 201.823 15.2015 200.963 15.2015ZM200.963 14.6375C201.715 14.6375 202.38 14.4428 202.957 14.0533C203.535 13.6639 203.978 13.1268 204.287 12.4419C204.609 11.7436 204.77 10.9446 204.77 10.0449C204.77 9.15862 204.609 8.36633 204.287 7.66805C203.978 6.96977 203.535 6.42591 202.957 6.03648C202.38 5.64705 201.715 5.45234 200.963 5.45234C200.211 5.45234 199.547 5.64705 198.969 6.03648C198.392 6.42591 197.942 6.96977 197.62 7.66805C197.311 8.36633 197.156 9.15862 197.156 10.0449C197.156 10.9446 197.311 11.7436 197.62 12.4419C197.942 13.1268 198.392 13.6639 198.969 14.0533C199.547 14.4428 200.211 14.6375 200.963 14.6375Z" fill="black"/>
<path d="M207.958 15V5.10991H208.542V7.60762H208.643C209.005 6.80191 209.475 6.1842 210.053 5.75448C210.63 5.32477 211.308 5.10991 212.087 5.10991H212.994V5.67391H211.986C211.342 5.67391 210.758 5.86862 210.234 6.25805C209.71 6.63405 209.301 7.13091 209.005 7.74862C208.71 8.36633 208.562 9.02433 208.562 9.72262V15H207.958Z" fill="black"/>
<path d="M227.466 0.900061V1.4842H220.214V7.66805H226.781V8.23205H220.214V15H219.61V0.900061H227.466Z" fill="black"/>
<path d="M230.615 15H230.011V0.900061H230.615V15Z" fill="black"/>
<path d="M237.688 15.2015C236.829 15.2015 236.064 14.9866 235.392 14.5569C234.734 14.1138 234.217 13.5028 233.841 12.7239C233.479 11.9316 233.297 11.0386 233.297 10.0449C233.297 9.05119 233.479 8.16491 233.841 7.38605C234.217 6.60719 234.734 6.00291 235.392 5.5732C236.064 5.13005 236.829 4.90848 237.688 4.90848C238.548 4.90848 239.313 5.13005 239.985 5.5732C240.656 6.00291 241.173 6.60719 241.536 7.38605C241.912 8.16491 242.1 9.05119 242.1 10.0449C242.1 11.0386 241.912 11.9316 241.536 12.7239C241.173 13.5028 240.656 14.1138 239.985 14.5569C239.313 14.9866 238.548 15.2015 237.688 15.2015ZM237.688 14.6375C238.44 14.6375 239.105 14.4428 239.683 14.0533C240.26 13.6639 240.703 13.1268 241.012 12.4419C241.334 11.7436 241.495 10.9446 241.495 10.0449C241.495 9.15862 241.334 8.36633 241.012 7.66805C240.703 6.96977 240.26 6.42591 239.683 6.03648C239.105 5.64705 238.44 5.45234 237.688 5.45234C236.936 5.45234 236.272 5.64705 235.694 6.03648C235.117 6.42591 234.667 6.96977 234.345 7.66805C234.036 8.36633 233.882 9.15862 233.882 10.0449C233.882 10.9446 234.036 11.7436 234.345 12.4419C234.667 13.1268 235.117 13.6639 235.694 14.0533C236.272 14.4428 236.936 14.6375 237.688 14.6375Z" fill="black"/>
<path d="M247.186 15H246.42L243.318 5.10991H243.922L246.763 14.2749H246.863L249.764 5.10991H250.489L253.39 14.2749H253.49L256.33 5.10991H256.935L253.833 15H253.047L250.167 5.87534H250.066L247.186 15Z" fill="black"/>
<path d="M266.723 9.66219C266.723 9.8099 266.703 9.96433 266.662 10.1255H258.706C258.733 11.4818 259.095 12.5762 259.794 13.4088C260.505 14.2279 261.445 14.6375 262.614 14.6375C263.406 14.6375 264.064 14.4495 264.588 14.0735C265.125 13.684 265.548 13.1738 265.857 12.5426L266.421 12.6433C266.085 13.4356 265.595 14.06 264.95 14.5166C264.306 14.9732 263.527 15.2015 262.614 15.2015C261.727 15.2015 260.942 14.9866 260.257 14.5569C259.586 14.1138 259.062 13.5028 258.686 12.7239C258.31 11.9316 258.122 11.0386 258.122 10.0449C258.122 9.05119 258.303 8.16491 258.666 7.38605C259.042 6.60719 259.552 6.00291 260.197 5.5732C260.855 5.13005 261.607 4.90848 262.453 4.90848C263.272 4.90848 264.004 5.10991 264.648 5.51277C265.306 5.91562 265.816 6.47962 266.179 7.20476C266.542 7.91648 266.723 8.73562 266.723 9.66219ZM262.453 5.45234C261.405 5.45234 260.539 5.83505 259.854 6.60048C259.183 7.35248 258.807 8.34619 258.726 9.58162H266.159C266.105 8.31933 265.736 7.31891 265.051 6.58034C264.38 5.82834 263.513 5.45234 262.453 5.45234Z" fill="black"/>
<path d="M269.311 15V5.10991H269.895V7.60762H269.996C270.358 6.80191 270.828 6.1842 271.406 5.75448C271.983 5.32477 272.661 5.10991 273.44 5.10991H274.347V5.67391H273.339C272.695 5.67391 272.111 5.86862 271.587 6.25805C271.063 6.63405 270.654 7.13091 270.358 7.74862C270.063 8.36633 269.915 9.02433 269.915 9.72262V15H269.311Z" fill="black"/>
<path d="M274.958 17.2963H274.334V17.0345L275.139 15H274.334V13.8116H275.502V15L274.958 17.2963Z" fill="black"/>
<path d="M286.672 15H285.826L281.737 0.900061H282.362L286.209 14.2749H286.31L290.177 0.900061H290.983L294.83 14.2749H294.931L298.798 0.900061H299.403L295.314 15H294.468L290.62 1.66549H290.52L286.672 15Z" fill="black"/>
<path d="M308.781 14.4763V15H308.237C307.861 15 307.552 14.8792 307.31 14.6375C307.082 14.3958 306.968 14.06 306.968 13.6303V12.4822H306.867C306.505 13.3416 305.981 14.013 305.296 14.4965C304.625 14.9665 303.886 15.2015 303.08 15.2015C302.221 15.2015 301.496 14.9463 300.905 14.436C300.314 13.9123 300.019 13.2342 300.019 12.4016C300.019 11.8108 300.173 11.287 300.482 10.8305C300.791 10.3739 301.214 10.018 301.751 9.7629C302.301 9.50776 302.912 9.38019 303.584 9.38019H306.928V8.6349C306.928 7.68148 306.666 6.91605 306.142 6.33862C305.618 5.74777 304.893 5.45234 303.967 5.45234C303.228 5.45234 302.597 5.65377 302.073 6.05662C301.549 6.45948 301.18 7.02348 300.965 7.74862L300.401 7.66805C300.643 6.82205 301.066 6.15062 301.67 5.65377C302.288 5.15691 303.053 4.90848 303.967 4.90848C305.068 4.90848 305.934 5.25763 306.565 5.95591C307.196 6.64077 307.512 7.53376 307.512 8.6349V13.59C307.512 13.872 307.579 14.0936 307.713 14.2548C307.861 14.4025 308.056 14.4763 308.297 14.4763H308.781ZM303.1 14.6375C303.812 14.6375 304.457 14.4428 305.034 14.0533C305.625 13.6639 306.088 13.1469 306.424 12.5023C306.76 11.8443 306.928 11.1393 306.928 10.3873V9.94419H303.604C302.745 9.94419 302.026 10.1725 301.449 10.629C300.885 11.0856 300.603 11.6765 300.603 12.4016C300.603 13.073 300.838 13.6169 301.308 14.0332C301.778 14.436 302.375 14.6375 303.1 14.6375Z" fill="black"/>
<path d="M313.682 15C312.943 15 312.392 14.812 312.03 14.436C311.681 14.06 311.506 13.4625 311.506 12.6433V5.65377H309.149V5.10991H311.506L311.627 2.28992H312.11V5.10991H315.454V5.65377H312.11V12.6433C312.11 13.2879 312.231 13.7512 312.473 14.0332C312.728 14.3018 313.144 14.436 313.722 14.436H315.555V15H313.682Z" fill="black"/>
<path d="M325.302 9.66219C325.302 9.8099 325.282 9.96433 325.242 10.1255H317.285C317.312 11.4818 317.675 12.5762 318.373 13.4088C319.085 14.2279 320.025 14.6375 321.193 14.6375C321.985 14.6375 322.643 14.4495 323.167 14.0735C323.704 13.684 324.127 13.1738 324.436 12.5426L325 12.6433C324.664 13.4356 324.174 14.06 323.53 14.5166C322.885 14.9732 322.106 15.2015 321.193 15.2015C320.307 15.2015 319.521 14.9866 318.836 14.5569C318.165 14.1138 317.641 13.5028 317.265 12.7239C316.889 11.9316 316.701 11.0386 316.701 10.0449C316.701 9.05119 316.883 8.16491 317.245 7.38605C317.621 6.60719 318.131 6.00291 318.776 5.5732C319.434 5.13005 320.186 4.90848 321.032 4.90848C321.851 4.90848 322.583 5.10991 323.228 5.51277C323.886 5.91562 324.396 6.47962 324.758 7.20476C325.121 7.91648 325.302 8.73562 325.302 9.66219ZM321.032 5.45234C319.985 5.45234 319.118 5.83505 318.434 6.60048C317.762 7.35248 317.386 8.34619 317.306 9.58162H324.738C324.685 8.31933 324.315 7.31891 323.63 6.58034C322.959 5.82834 322.093 5.45234 321.032 5.45234Z" fill="black"/>
<path d="M327.89 15V5.10991H328.474V7.60762H328.575C328.938 6.80191 329.408 6.1842 329.985 5.75448C330.563 5.32477 331.241 5.10991 332.02 5.10991H332.926V5.67391H331.919C331.274 5.67391 330.69 5.86862 330.166 6.25805C329.643 6.63405 329.233 7.13091 328.938 7.74862C328.642 8.36633 328.495 9.02433 328.495 9.72262V15H327.89Z" fill="black"/>
<path d="M340.147 15H339.542V0.900061H340.489L346.19 14.295H346.29L352.011 0.900061H352.937V15H352.333V1.78635H352.232L346.592 15H345.887L340.247 1.78635H340.147V15Z" fill="black"/>
<path d="M360.217 15.2015C359.358 15.2015 358.593 14.9866 357.921 14.5569C357.263 14.1138 356.746 13.5028 356.37 12.7239C356.008 11.9316 355.826 11.0386 355.826 10.0449C355.826 9.05119 356.008 8.16491 356.37 7.38605C356.746 6.60719 357.263 6.00291 357.921 5.5732C358.593 5.13005 359.358 4.90848 360.217 4.90848C361.077 4.90848 361.842 5.13005 362.514 5.5732C363.185 6.00291 363.702 6.60719 364.065 7.38605C364.441 8.16491 364.629 9.05119 364.629 10.0449C364.629 11.0386 364.441 11.9316 364.065 12.7239C363.702 13.5028 363.185 14.1138 362.514 14.5569C361.842 14.9866 361.077 15.2015 360.217 15.2015ZM360.217 14.6375C360.969 14.6375 361.634 14.4428 362.212 14.0533C362.789 13.6639 363.232 13.1268 363.541 12.4419C363.863 11.7436 364.024 10.9446 364.024 10.0449C364.024 9.15862 363.863 8.36633 363.541 7.66805C363.232 6.96977 362.789 6.42591 362.212 6.03648C361.634 5.64705 360.969 5.45234 360.217 5.45234C359.465 5.45234 358.801 5.64705 358.223 6.03648C357.646 6.42591 357.196 6.96977 356.874 7.66805C356.565 8.36633 356.41 9.15862 356.41 10.0449C356.41 10.9446 356.565 11.7436 356.874 12.4419C357.196 13.1268 357.646 13.6639 358.223 14.0533C358.801 14.4428 359.465 14.6375 360.217 14.6375Z" fill="black"/>
<path d="M370.918 15.2015C370.059 15.2015 369.293 14.9866 368.622 14.5569C367.964 14.1138 367.447 13.5028 367.071 12.7239C366.708 11.9316 366.527 11.0386 366.527 10.0449C366.527 9.05119 366.708 8.16491 367.071 7.38605C367.447 6.60719 367.964 6.00291 368.622 5.5732C369.293 5.13005 370.059 4.90848 370.918 4.90848C371.778 4.90848 372.543 5.13005 373.215 5.5732C373.886 6.00291 374.403 6.60719 374.766 7.38605C375.142 8.16491 375.33 9.05119 375.33 10.0449C375.33 11.0386 375.142 11.9316 374.766 12.7239C374.403 13.5028 373.886 14.1138 373.215 14.5569C372.543 14.9866 371.778 15.2015 370.918 15.2015ZM370.918 14.6375C371.67 14.6375 372.335 14.4428 372.912 14.0533C373.49 13.6639 373.933 13.1268 374.242 12.4419C374.564 11.7436 374.725 10.9446 374.725 10.0449C374.725 9.15862 374.564 8.36633 374.242 7.66805C373.933 6.96977 373.49 6.42591 372.912 6.03648C372.335 5.64705 371.67 5.45234 370.918 5.45234C370.166 5.45234 369.502 5.64705 368.924 6.03648C368.347 6.42591 367.897 6.96977 367.575 7.66805C367.266 8.36633 367.111 9.15862 367.111 10.0449C367.111 10.9446 367.266 11.7436 367.575 12.4419C367.897 13.1268 368.347 13.6639 368.924 14.0533C369.502 14.4428 370.166 14.6375 370.918 14.6375Z" fill="black"/>
<path d="M377.913 15V5.10991H378.497V7.60762H378.598C378.987 6.74819 379.504 6.08348 380.149 5.61348C380.793 5.14348 381.512 4.90848 382.304 4.90848C383.311 4.90848 384.097 5.27105 384.661 5.9962C385.238 6.70791 385.527 7.70833 385.527 8.99748V15H384.923V9.03776C384.923 7.90976 384.688 7.03019 384.218 6.39905C383.748 5.76791 383.09 5.45234 382.244 5.45234C381.572 5.45234 380.948 5.64705 380.37 6.03648C379.806 6.42591 379.356 6.94962 379.021 7.60762C378.685 8.26562 378.517 8.9639 378.517 9.70247V15H377.913Z" fill="black"/>
<path d="M387.444 18.948C389.753 16.2757 390.908 13.214 390.908 9.7629C390.908 6.31177 389.753 3.25006 387.444 0.577777L387.867 0.275635C389.021 1.52449 389.914 2.97477 390.546 4.62648C391.19 6.26477 391.512 7.97691 391.512 9.7629C391.512 11.5489 391.19 13.2678 390.546 14.9195C389.914 16.5577 389.021 18.0013 387.867 19.2502L387.444 18.948Z" fill="black"/>
<path d="M2.31649 40H1.73235V30.1099H2.31649V40ZM2.49777 27.9345H1.5712V26.9072H2.49777V27.9345Z" fill="black"/>
<path d="M8.5839 40.2015C7.56333 40.2015 6.7039 39.953 6.00562 39.4562C5.30733 38.9593 4.85076 38.2543 4.6359 37.3412L5.1999 37.2405C5.34762 37.979 5.72362 38.5632 6.3279 38.9929C6.93219 39.4226 7.68418 39.6375 8.5839 39.6375C9.47018 39.6375 10.1685 39.4293 10.6788 39.013C11.189 38.5968 11.4442 38.0462 11.4442 37.3613C11.4442 36.8779 11.3099 36.4952 11.0413 36.2132C10.7862 35.9312 10.4572 35.723 10.0543 35.5888C9.65147 35.441 9.12775 35.3 8.48318 35.1658C7.75804 35.0046 7.1739 34.8435 6.73076 34.6823C6.28761 34.5212 5.91162 34.266 5.60276 33.9169C5.2939 33.5543 5.13947 33.0709 5.13947 32.4666C5.13947 31.6878 5.44833 31.0701 6.06604 30.6135C6.68376 30.1435 7.4559 29.9085 8.38247 29.9085C9.28218 29.9085 10.0476 30.1368 10.6788 30.5933C11.3233 31.0365 11.7396 31.6945 11.9276 32.5673L11.3636 32.6479C11.2427 31.9631 10.907 31.4259 10.3565 31.0365C9.81932 30.6471 9.16132 30.4523 8.38247 30.4523C7.63047 30.4523 6.99933 30.6336 6.48904 30.9962C5.97876 31.3588 5.72362 31.8489 5.72362 32.4666C5.72362 32.95 5.85119 33.3328 6.10633 33.6148C6.3749 33.8833 6.7039 34.0915 7.09333 34.2392C7.49618 34.3735 8.02661 34.5078 8.68461 34.642C9.42318 34.8166 10.0073 34.9845 10.437 35.1456C10.8802 35.3068 11.2562 35.5686 11.565 35.9312C11.8739 36.2803 12.0283 36.757 12.0283 37.3613C12.0283 38.2342 11.7127 38.9258 11.0816 39.436C10.4505 39.9463 9.6179 40.2015 8.5839 40.2015Z" fill="black"/>
<path d="M27.0763 39.4763V40H26.5324C26.1564 40 25.8476 39.8792 25.6058 39.6375C25.3776 39.3958 25.2634 39.06 25.2634 38.6303V37.4822H25.1627C24.8001 38.3416 24.2764 39.013 23.5916 39.4965C22.9201 39.9665 22.1816 40.2015 21.3758 40.2015C20.5164 40.2015 19.7913 39.9463 19.2004 39.436C18.6096 38.9123 18.3141 38.2342 18.3141 37.4016C18.3141 36.8108 18.4686 36.287 18.7774 35.8305C19.0863 35.3739 19.5093 35.018 20.0464 34.7629C20.597 34.5078 21.208 34.3802 21.8794 34.3802H25.2231V33.6349C25.2231 32.6815 24.9613 31.9161 24.4376 31.3386C23.9138 30.7478 23.1887 30.4523 22.2621 30.4523C21.5236 30.4523 20.8924 30.6538 20.3687 31.0566C19.845 31.4595 19.4757 32.0235 19.2608 32.7486L18.6969 32.668C18.9386 31.8221 19.3616 31.1506 19.9658 30.6538C20.5836 30.1569 21.349 29.9085 22.2621 29.9085C23.3633 29.9085 24.2294 30.2576 24.8606 30.9559C25.4917 31.6408 25.8073 32.5338 25.8073 33.6349V38.59C25.8073 38.872 25.8744 39.0936 26.0087 39.2548C26.1564 39.4025 26.3511 39.4763 26.5928 39.4763H27.0763ZM21.396 39.6375C22.1077 39.6375 22.7523 39.4428 23.3297 39.0533C23.9206 38.6639 24.3838 38.1469 24.7196 37.5023C25.0553 36.8443 25.2231 36.1393 25.2231 35.3873V34.9442H21.8996C21.0401 34.9442 20.3217 35.1725 19.7443 35.629C19.1803 36.0856 18.8983 36.6765 18.8983 37.4016C18.8983 38.073 19.1333 38.6169 19.6033 39.0332C20.0733 39.436 20.6708 39.6375 21.396 39.6375Z" fill="black"/>
<path d="M35.7191 40.141C34.7388 40.141 33.913 39.8255 33.2415 39.1943C32.5701 38.5632 32.1538 37.7105 31.9927 36.6362L32.5768 36.5153C32.7245 37.4688 33.0737 38.214 33.6243 38.7512C34.1748 39.2883 34.8731 39.5569 35.7191 39.5569C36.6322 39.5569 37.344 39.2413 37.8542 38.6102C38.3645 37.9656 38.6197 37.0793 38.6197 35.9513V25.9001H39.224V35.9513C39.224 37.2539 38.9084 38.2812 38.2772 39.0332C37.6595 39.7718 36.8068 40.141 35.7191 40.141Z" fill="black"/>
<path d="M50.6811 39.4763V40H50.1373C49.7613 40 49.4524 39.8792 49.2107 39.6375C48.9824 39.3958 48.8683 39.06 48.8683 38.6303V37.4822H48.7676C48.405 38.3416 47.8813 39.013 47.1964 39.4965C46.525 39.9665 45.7864 40.2015 44.9807 40.2015C44.1213 40.2015 43.3961 39.9463 42.8053 39.436C42.2144 38.9123 41.919 38.2342 41.919 37.4016C41.919 36.8108 42.0734 36.287 42.3823 35.8305C42.6911 35.3739 43.1141 35.018 43.6513 34.7629C44.2019 34.5078 44.8129 34.3802 45.4843 34.3802H48.828V33.6349C48.828 32.6815 48.5661 31.9161 48.0424 31.3386C47.5187 30.7478 46.7936 30.4523 45.867 30.4523C45.1284 30.4523 44.4973 30.6538 43.9736 31.0566C43.4499 31.4595 43.0806 32.0235 42.8657 32.7486L42.3017 32.668C42.5434 31.8221 42.9664 31.1506 43.5707 30.6538C44.1884 30.1569 44.9539 29.9085 45.867 29.9085C46.9681 29.9085 47.8343 30.2576 48.4654 30.9559C49.0966 31.6408 49.4121 32.5338 49.4121 33.6349V38.59C49.4121 38.872 49.4793 39.0936 49.6136 39.2548C49.7613 39.4025 49.956 39.4763 50.1977 39.4763H50.6811ZM45.0009 39.6375C45.7126 39.6375 46.3571 39.4428 46.9346 39.0533C47.5254 38.6639 47.9887 38.1469 48.3244 37.5023C48.6601 36.8443 48.828 36.1393 48.828 35.3873V34.9442H45.5044C44.645 34.9442 43.9266 35.1725 43.3491 35.629C42.7851 36.0856 42.5031 36.6765 42.5031 37.4016C42.5031 38.073 42.7381 38.6169 43.2081 39.0332C43.6781 39.436 44.2757 39.6375 45.0009 39.6375Z" fill="black"/>
<path d="M52.6968 44.0286V30.1099H53.281V32.6882H53.3817C53.7577 31.8019 54.2814 31.1171 54.9528 30.6336C55.6377 30.1502 56.4031 29.9085 57.2491 29.9085C58.0548 29.9085 58.78 30.1301 59.4245 30.5732C60.0825 31.0029 60.5928 31.6072 60.9554 32.3861C61.318 33.1649 61.4992 34.0512 61.4992 35.0449C61.4992 36.0386 61.318 36.9316 60.9554 37.7239C60.5928 38.5028 60.0825 39.1138 59.4245 39.5569C58.78 39.9866 58.0548 40.2015 57.2491 40.2015C56.4031 40.2015 55.6444 39.9597 54.973 39.4763C54.3015 38.9929 53.7778 38.308 53.4018 37.4218H53.3011V44.0286H52.6968ZM57.2088 39.6375C57.9205 39.6375 58.5584 39.4428 59.1224 39.0533C59.6864 38.6639 60.1228 38.1268 60.4317 37.4419C60.754 36.7436 60.9151 35.9446 60.9151 35.0449C60.9151 34.1452 60.754 33.3529 60.4317 32.668C60.1228 31.9698 59.6864 31.4259 59.1224 31.0365C58.5584 30.6471 57.9205 30.4523 57.2088 30.4523C56.4703 30.4523 55.8055 30.6538 55.2147 31.0566C54.6238 31.4595 54.1538 32.0101 53.8047 32.7083C53.469 33.4066 53.3011 34.1855 53.3011 35.0449C53.3011 35.9043 53.469 36.6832 53.8047 37.3815C54.1538 38.0798 54.6238 38.6303 55.2147 39.0332C55.8055 39.436 56.4703 39.6375 57.2088 39.6375Z" fill="black"/>
<path d="M72.0829 39.4763V40H71.539C71.163 40 70.8542 39.8792 70.6125 39.6375C70.3842 39.3958 70.27 39.06 70.27 38.6303V37.4822H70.1693C69.8067 38.3416 69.283 39.013 68.5982 39.4965C67.9267 39.9665 67.1882 40.2015 66.3825 40.2015C65.523 40.2015 64.7979 39.9463 64.207 39.436C63.6162 38.9123 63.3208 38.2342 63.3208 37.4016C63.3208 36.8108 63.4752 36.287 63.784 35.8305C64.0929 35.3739 64.5159 35.018 65.053 34.7629C65.6036 34.5078 66.2146 34.3802 66.886 34.3802H70.2297V33.6349C70.2297 32.6815 69.9679 31.9161 69.4442 31.3386C68.9205 30.7478 68.1953 30.4523 67.2687 30.4523C66.5302 30.4523 65.899 30.6538 65.3753 31.0566C64.8516 31.4595 64.4823 32.0235 64.2675 32.7486L63.7035 32.668C63.9452 31.8221 64.3682 31.1506 64.9725 30.6538C65.5902 30.1569 66.3556 29.9085 67.2687 29.9085C68.3699 29.9085 69.236 30.2576 69.8672 30.9559C70.4983 31.6408 70.8139 32.5338 70.8139 33.6349V38.59C70.8139 38.872 70.881 39.0936 71.0153 39.2548C71.163 39.4025 71.3577 39.4763 71.5995 39.4763H72.0829ZM66.4026 39.6375C67.1143 39.6375 67.7589 39.4428 68.3363 39.0533C68.9272 38.6639 69.3905 38.1469 69.7262 37.5023C70.0619 36.8443 70.2297 36.1393 70.2297 35.3873V34.9442H66.9062C66.0467 34.9442 65.3283 35.1725 64.7509 35.629C64.1869 36.0856 63.9049 36.6765 63.9049 37.4016C63.9049 38.073 64.1399 38.6169 64.6099 39.0332C65.0799 39.436 65.6775 39.6375 66.4026 39.6375Z" fill="black"/>
<path d="M74.0986 40V30.1099H74.6827V32.6076H74.7834C75.1729 31.7482 75.6899 31.0835 76.3344 30.6135C76.979 30.1435 77.6974 29.9085 78.4897 29.9085C79.4968 29.9085 80.2824 30.2711 80.8464 30.9962C81.4238 31.7079 81.7126 32.7083 81.7126 33.9975V40H81.1083V34.0378C81.1083 32.9098 80.8733 32.0302 80.4033 31.3991C79.9333 30.7679 79.2753 30.4523 78.4293 30.4523C77.7579 30.4523 77.1334 30.6471 76.556 31.0365C75.992 31.4259 75.5421 31.9496 75.2064 32.6076C74.8707 33.2656 74.7029 33.9639 74.7029 34.7025V40H74.0986Z" fill="black"/>
<path d="M92.7943 34.6622C92.7943 34.8099 92.7741 34.9643 92.7338 35.1255H84.7774C84.8043 36.4818 85.1668 37.5762 85.8651 38.4088C86.5768 39.2279 87.5168 39.6375 88.6851 39.6375C89.4774 39.6375 90.1354 39.4495 90.6591 39.0735C91.1963 38.684 91.6193 38.1738 91.9281 37.5426L92.4921 37.6433C92.1564 38.4356 91.6663 39.06 91.0217 39.5166C90.3771 39.9732 89.5983 40.2015 88.6851 40.2015C87.7988 40.2015 87.0133 39.9866 86.3284 39.5569C85.657 39.1138 85.1333 38.5028 84.7573 37.7239C84.3813 36.9316 84.1933 36.0386 84.1933 35.0449C84.1933 34.0512 84.3746 33.1649 84.7371 32.3861C85.1131 31.6072 85.6234 31.0029 86.268 30.5732C86.926 30.1301 87.678 29.9085 88.524 29.9085C89.3431 29.9085 90.075 30.1099 90.7196 30.5128C91.3775 30.9156 91.8878 31.4796 92.2504 32.2048C92.613 32.9165 92.7943 33.7356 92.7943 34.6622ZM88.524 30.4523C87.4766 30.4523 86.6104 30.8351 85.9256 31.6005C85.2541 32.3525 84.8781 33.3462 84.7976 34.5816H92.2303C92.1765 33.3193 91.8073 32.3189 91.1224 31.5803C90.451 30.8283 89.5848 30.4523 88.524 30.4523Z" fill="black"/>
<path d="M98.2627 40.2015C97.2421 40.2015 96.3827 39.953 95.6844 39.4562C94.9862 38.9593 94.5296 38.2543 94.3147 37.3412L94.8787 37.2405C95.0264 37.979 95.4024 38.5632 96.0067 38.9929C96.611 39.4226 97.363 39.6375 98.2627 39.6375C99.149 39.6375 99.8473 39.4293 100.358 39.013C100.868 38.5968 101.123 38.0462 101.123 37.3613C101.123 36.8779 100.989 36.4952 100.72 36.2132C100.465 35.9312 100.136 35.723 99.7331 35.5888C99.3303 35.441 98.8066 35.3 98.162 35.1658C97.4369 35.0046 96.8527 34.8435 96.4096 34.6823C95.9664 34.5212 95.5904 34.266 95.2816 33.9169C94.9727 33.5543 94.8183 33.0709 94.8183 32.4666C94.8183 31.6878 95.1272 31.0701 95.7449 30.6135C96.3626 30.1435 97.1347 29.9085 98.0613 29.9085C98.961 29.9085 99.7264 30.1368 100.358 30.5933C101.002 31.0365 101.418 31.6945 101.606 32.5673L101.042 32.6479C100.922 31.9631 100.586 31.4259 100.035 31.0365C99.4981 30.6471 98.8402 30.4523 98.0613 30.4523C97.3093 30.4523 96.6782 30.6336 96.1679 30.9962C95.6576 31.3588 95.4024 31.8489 95.4024 32.4666C95.4024 32.95 95.53 33.3328 95.7852 33.6148C96.0537 33.8833 96.3827 34.0915 96.7721 34.2392C97.175 34.3735 97.7054 34.5078 98.3634 34.642C99.102 34.8166 99.6861 34.9845 100.116 35.1456C100.559 35.3068 100.935 35.5686 101.244 35.9312C101.553 36.2803 101.707 36.757 101.707 37.3613C101.707 38.2342 101.392 38.9258 100.76 39.436C100.129 39.9463 99.2967 40.2015 98.2627 40.2015Z" fill="black"/>
<path d="M112.091 34.6622C112.091 34.8099 112.071 34.9643 112.031 35.1255H104.074C104.101 36.4818 104.464 37.5762 105.162 38.4088C105.874 39.2279 106.814 39.6375 107.982 39.6375C108.774 39.6375 109.432 39.4495 109.956 39.0735C110.493 38.684 110.916 38.1738 111.225 37.5426L111.789 37.6433C111.453 38.4356 110.963 39.06 110.319 39.5166C109.674 39.9732 108.895 40.2015 107.982 40.2015C107.096 40.2015 106.31 39.9866 105.625 39.5569C104.954 39.1138 104.43 38.5028 104.054 37.7239C103.678 36.9316 103.49 36.0386 103.49 35.0449C103.49 34.0512 103.672 33.1649 104.034 32.3861C104.41 31.6072 104.92 31.0029 105.565 30.5732C106.223 30.1301 106.975 29.9085 107.821 29.9085C108.64 29.9085 109.372 30.1099 110.017 30.5128C110.675 30.9156 111.185 31.4796 111.547 32.2048C111.91 32.9165 112.091 33.7356 112.091 34.6622ZM107.821 30.4523C106.774 30.4523 105.907 30.8351 105.223 31.6005C104.551 32.3525 104.175 33.3462 104.095 34.5816H111.527C111.474 33.3193 111.104 32.3189 110.419 31.5803C109.748 30.8283 108.882 30.4523 107.821 30.4523Z" fill="black"/>
<path d="M119.947 40H119.363V30.1099H119.947V40ZM120.129 27.9345H119.202V26.9072H120.129V27.9345Z" fill="black"/>
<path d="M126.9 40.2015C126.094 40.2015 125.362 39.9866 124.704 39.5569C124.06 39.1138 123.556 38.5028 123.193 37.7239C122.831 36.9316 122.65 36.0386 122.65 35.0449C122.65 34.0512 122.831 33.1649 123.193 32.3861C123.556 31.6072 124.06 31.0029 124.704 30.5732C125.362 30.1301 126.094 29.9085 126.9 29.9085C127.746 29.9085 128.504 30.1502 129.176 30.6336C129.847 31.1171 130.371 31.7952 130.747 32.668H130.848V25.9001H131.452V40H130.868V37.4016H130.767C130.391 38.3013 129.861 38.9929 129.176 39.4763C128.504 39.9597 127.746 40.2015 126.9 40.2015ZM126.94 39.6375C127.679 39.6375 128.343 39.436 128.934 39.0332C129.525 38.6303 129.988 38.0798 130.324 37.3815C130.673 36.6832 130.848 35.9043 130.848 35.0449C130.848 34.1855 130.673 33.4066 130.324 32.7083C129.988 32.0101 129.525 31.4595 128.934 31.0566C128.343 30.6538 127.679 30.4523 126.94 30.4523C126.228 30.4523 125.59 30.6471 125.026 31.0365C124.462 31.4259 124.019 31.9698 123.697 32.668C123.388 33.3529 123.234 34.1452 123.234 35.0449C123.234 35.9446 123.388 36.7436 123.697 37.4419C124.019 38.1268 124.462 38.6639 125.026 39.0533C125.59 39.4428 126.228 39.6375 126.94 39.6375Z" fill="black"/>
<path d="M135.507 40H134.923V30.1099H135.507V40ZM135.688 27.9345H134.762V26.9072H135.688V27.9345Z" fill="black"/>
<path d="M142.6 40.2015C141.741 40.2015 140.975 39.9866 140.304 39.5569C139.646 39.1138 139.129 38.5028 138.753 37.7239C138.39 36.9316 138.209 36.0386 138.209 35.0449C138.209 34.0512 138.39 33.1649 138.753 32.3861C139.129 31.6072 139.646 31.0029 140.304 30.5732C140.975 30.1301 141.741 29.9085 142.6 29.9085C143.46 29.9085 144.225 30.1301 144.896 30.5732C145.568 31.0029 146.085 31.6072 146.447 32.3861C146.823 33.1649 147.011 34.0512 147.011 35.0449C147.011 36.0386 146.823 36.9316 146.447 37.7239C146.085 38.5028 145.568 39.1138 144.896 39.5569C144.225 39.9866 143.46 40.2015 142.6 40.2015ZM142.6 39.6375C143.352 39.6375 144.017 39.4428 144.594 39.0533C145.172 38.6639 145.615 38.1268 145.924 37.4419C146.246 36.7436 146.407 35.9446 146.407 35.0449C146.407 34.1586 146.246 33.3663 145.924 32.668C145.615 31.9698 145.172 31.4259 144.594 31.0365C144.017 30.6471 143.352 30.4523 142.6 30.4523C141.848 30.4523 141.184 30.6471 140.606 31.0365C140.029 31.4259 139.579 31.9698 139.257 32.668C138.948 33.3663 138.793 34.1586 138.793 35.0449C138.793 35.9446 138.948 36.7436 139.257 37.4419C139.579 38.1268 140.029 38.6639 140.606 39.0533C141.184 39.4428 141.848 39.6375 142.6 39.6375Z" fill="black"/>
<path d="M149.595 40V30.1099H150.179V32.5069H150.28C150.602 31.7146 151.059 31.0835 151.649 30.6135C152.254 30.1435 152.925 29.9085 153.664 29.9085C154.402 29.9085 155.013 30.1569 155.497 30.6538C155.994 31.1372 156.316 31.8221 156.464 32.7083H156.564C156.94 31.8086 157.43 31.1171 158.035 30.6336C158.639 30.1502 159.317 29.9085 160.069 29.9085C161.009 29.9085 161.734 30.2643 162.245 30.9761C162.768 31.6743 163.03 32.6748 163.03 33.9773V40H162.446V34.0176C162.446 32.8762 162.231 31.9966 161.801 31.3789C161.385 30.7612 160.788 30.4523 160.009 30.4523C159.391 30.4523 158.82 30.6403 158.297 31.0163C157.786 31.3923 157.377 31.9093 157.068 32.5673C156.759 33.2119 156.605 33.9169 156.605 34.6823V40H156.02V34.0176C156.02 32.8628 155.806 31.9832 155.376 31.3789C154.96 30.7612 154.362 30.4523 153.583 30.4523C152.965 30.4523 152.395 30.6403 151.871 31.0163C151.361 31.3923 150.951 31.9026 150.642 32.5472C150.347 33.1918 150.199 33.9035 150.199 34.6823V40H149.595Z" fill="black"/>
<path d="M171.174 40V30.1099H171.758V32.6076H171.858C172.221 31.8019 172.691 31.1842 173.268 30.7545C173.846 30.3248 174.524 30.1099 175.303 30.1099H176.209V30.6739H175.202C174.558 30.6739 173.973 30.8686 173.45 31.2581C172.926 31.6341 172.516 32.1309 172.221 32.7486C171.926 33.3663 171.778 34.0243 171.778 34.7226V40H171.174Z" fill="black"/>
<path d="M185.66 34.6622C185.66 34.8099 185.64 34.9643 185.599 35.1255H177.643C177.67 36.4818 178.032 37.5762 178.731 38.4088C179.442 39.2279 180.382 39.6375 181.551 39.6375C182.343 39.6375 183.001 39.4495 183.525 39.0735C184.062 38.684 184.485 38.1738 184.794 37.5426L185.358 37.6433C185.022 38.4356 184.532 39.06 183.887 39.5166C183.243 39.9732 182.464 40.2015 181.551 40.2015C180.664 40.2015 179.879 39.9866 179.194 39.5569C178.522 39.1138 177.999 38.5028 177.623 37.7239C177.247 36.9316 177.059 36.0386 177.059 35.0449C177.059 34.0512 177.24 33.1649 177.603 32.3861C177.979 31.6072 178.489 31.0029 179.133 30.5732C179.791 30.1301 180.543 29.9085 181.389 29.9085C182.209 29.9085 182.94 30.1099 183.585 30.5128C184.243 30.9156 184.753 31.4796 185.116 32.2048C185.478 32.9165 185.66 33.7356 185.66 34.6622ZM181.389 30.4523C180.342 30.4523 179.476 30.8351 178.791 31.6005C178.12 32.3525 177.744 33.3462 177.663 34.5816H185.096C185.042 33.3193 184.673 32.3189 183.988 31.5803C183.316 30.8283 182.45 30.4523 181.389 30.4523Z" fill="black"/>
<path d="M191.173 26.4439C190.596 26.4439 190.18 26.5849 189.924 26.8669C189.683 27.1355 189.562 27.5988 189.562 28.2568V30.1099H192.805V30.6538H189.562V40H188.958V30.6538H186.601V30.1099H188.958V28.2568C188.958 27.4376 189.132 26.8401 189.481 26.4641C189.844 26.0881 190.394 25.9001 191.133 25.9001H192.906V26.4439H191.173Z" fill="black"/>
<path d="M202.242 34.6622C202.242 34.8099 202.222 34.9643 202.182 35.1255H194.225C194.252 36.4818 194.615 37.5762 195.313 38.4088C196.025 39.2279 196.965 39.6375 198.133 39.6375C198.925 39.6375 199.583 39.4495 200.107 39.0735C200.644 38.684 201.067 38.1738 201.376 37.5426L201.94 37.6433C201.604 38.4356 201.114 39.06 200.47 39.5166C199.825 39.9732 199.046 40.2015 198.133 40.2015C197.247 40.2015 196.461 39.9866 195.776 39.5569C195.105 39.1138 194.581 38.5028 194.205 37.7239C193.829 36.9316 193.641 36.0386 193.641 35.0449C193.641 34.0512 193.822 33.1649 194.185 32.3861C194.561 31.6072 195.071 31.0029 195.716 30.5732C196.374 30.1301 197.126 29.9085 197.972 29.9085C198.791 29.9085 199.523 30.1099 200.167 30.5128C200.825 30.9156 201.336 31.4796 201.698 32.2048C202.061 32.9165 202.242 33.7356 202.242 34.6622ZM197.972 30.4523C196.924 30.4523 196.058 30.8351 195.373 31.6005C194.702 32.3525 194.326 33.3462 194.245 34.5816H201.678C201.624 33.3193 201.255 32.3189 200.57 31.5803C199.899 30.8283 199.033 30.4523 197.972 30.4523Z" fill="black"/>
<path d="M204.83 40V30.1099H205.414V32.6076H205.515C205.878 31.8019 206.348 31.1842 206.925 30.7545C207.502 30.3248 208.181 30.1099 208.959 30.1099H209.866V30.6739H208.859C208.214 30.6739 207.63 30.8686 207.106 31.2581C206.583 31.6341 206.173 32.1309 205.878 32.7486C205.582 33.3663 205.434 34.0243 205.434 34.7226V40H204.83Z" fill="black"/>
<path d="M211.597 40V30.1099H212.181V32.6076H212.282C212.644 31.8019 213.114 31.1842 213.692 30.7545C214.269 30.3248 214.947 30.1099 215.726 30.1099H216.633V30.6739H215.626C214.981 30.6739 214.397 30.8686 213.873 31.2581C213.349 31.6341 212.94 32.1309 212.644 32.7486C212.349 33.3663 212.201 34.0243 212.201 34.7226V40H211.597Z" fill="black"/>
<path d="M219.049 40H218.464V30.1099H219.049V40ZM219.23 27.9345H218.303V26.9072H219.23V27.9345Z" fill="black"/>
<path d="M222.436 40V30.1099H223.02V32.6076H223.12C223.51 31.7482 224.027 31.0835 224.671 30.6135C225.316 30.1435 226.034 29.9085 226.827 29.9085C227.834 29.9085 228.619 30.2711 229.183 30.9962C229.761 31.7079 230.049 32.7083 230.049 33.9975V40H229.445V34.0378C229.445 32.9098 229.21 32.0302 228.74 31.3991C228.27 30.7679 227.612 30.4523 226.766 30.4523C226.095 30.4523 225.47 30.6471 224.893 31.0365C224.329 31.4259 223.879 31.9496 223.543 32.6076C223.208 33.2656 223.04 33.9639 223.04 34.7025V40H222.436Z" fill="black"/>
<path d="M236.962 44.0286C235.901 44.0286 234.988 43.7533 234.222 43.2027C233.457 42.6656 232.953 41.927 232.711 40.987L233.275 40.8863C233.477 41.692 233.907 42.3232 234.565 42.7797C235.236 43.2363 236.035 43.4646 236.962 43.4646C238.116 43.4646 239.016 43.102 239.661 42.3769C240.305 41.6517 240.628 40.6177 240.628 39.2749V37.0995H240.527C240.151 37.9723 239.627 38.6438 238.956 39.1138C238.284 39.5703 237.539 39.7986 236.72 39.7986C235.928 39.7986 235.209 39.5905 234.565 39.1742C233.933 38.7445 233.437 38.1536 233.074 37.4016C232.711 36.6496 232.53 35.7969 232.53 34.8435C232.53 33.9035 232.711 33.0575 233.074 32.3055C233.437 31.5535 233.933 30.9693 234.565 30.5531C235.209 30.1233 235.928 29.9085 236.72 29.9085C237.539 29.9085 238.284 30.1435 238.956 30.6135C239.627 31.0701 240.158 31.7348 240.547 32.6076H240.648V30.1099H241.232V39.2749C241.232 40.7789 240.849 41.9472 240.084 42.7797C239.332 43.6123 238.291 44.0286 236.962 44.0286ZM236.76 39.2346C237.485 39.2346 238.143 39.0399 238.734 38.6505C239.325 38.261 239.788 37.7306 240.124 37.0592C240.46 36.3878 240.628 35.6492 240.628 34.8435C240.628 34.0378 240.46 33.2992 240.124 32.6278C239.788 31.9563 239.325 31.4259 238.734 31.0365C238.143 30.6471 237.485 30.4523 236.76 30.4523C236.062 30.4523 235.437 30.6403 234.887 31.0163C234.336 31.3923 233.9 31.9161 233.578 32.5875C233.269 33.2589 233.114 34.0109 233.114 34.8435C233.114 35.6895 233.269 36.4482 233.578 37.1196C233.9 37.7776 234.336 38.2946 234.887 38.6706C235.437 39.0466 236.062 39.2346 236.76 39.2346Z" fill="black"/>
<path d="M252.152 40C251.413 40 250.862 39.812 250.5 39.436C250.151 39.06 249.976 38.4625 249.976 37.6433V30.6538H247.619V30.1099H249.976L250.097 27.2899H250.58V30.1099H253.924V30.6538H250.58V37.6433C250.58 38.2879 250.701 38.7512 250.943 39.0332C251.198 39.3018 251.614 39.436 252.192 39.436H254.025V40H252.152Z" fill="black"/>
<path d="M259.562 40.2015C258.703 40.2015 257.937 39.9866 257.266 39.5569C256.608 39.1138 256.091 38.5028 255.715 37.7239C255.352 36.9316 255.171 36.0386 255.171 35.0449C255.171 34.0512 255.352 33.1649 255.715 32.3861C256.091 31.6072 256.608 31.0029 257.266 30.5732C257.937 30.1301 258.703 29.9085 259.562 29.9085C260.422 29.9085 261.187 30.1301 261.859 30.5732C262.53 31.0029 263.047 31.6072 263.41 32.3861C263.786 33.1649 263.974 34.0512 263.974 35.0449C263.974 36.0386 263.786 36.9316 263.41 37.7239C263.047 38.5028 262.53 39.1138 261.859 39.5569C261.187 39.9866 260.422 40.2015 259.562 40.2015ZM259.562 39.6375C260.314 39.6375 260.979 39.4428 261.556 39.0533C262.134 38.6639 262.577 38.1268 262.886 37.4419C263.208 36.7436 263.369 35.9446 263.369 35.0449C263.369 34.1586 263.208 33.3663 262.886 32.668C262.577 31.9698 262.134 31.4259 261.556 31.0365C260.979 30.6471 260.314 30.4523 259.562 30.4523C258.81 30.4523 258.146 30.6471 257.568 31.0365C256.991 31.4259 256.541 31.9698 256.219 32.668C255.91 33.3663 255.755 34.1586 255.755 35.0449C255.755 35.9446 255.91 36.7436 256.219 37.4419C256.541 38.1268 256.991 38.6639 257.568 39.0533C258.146 39.4428 258.81 39.6375 259.562 39.6375Z" fill="black"/>
<path d="M273.627 40.2015C272.607 40.2015 271.747 39.953 271.049 39.4562C270.351 38.9593 269.894 38.2543 269.679 37.3412L270.243 37.2405C270.391 37.979 270.767 38.5632 271.371 38.9929C271.976 39.4226 272.728 39.6375 273.627 39.6375C274.514 39.6375 275.212 39.4293 275.722 39.013C276.232 38.5968 276.488 38.0462 276.488 37.3613C276.488 36.8779 276.353 36.4952 276.085 36.2132C275.83 35.9312 275.501 35.723 275.098 35.5888C274.695 35.441 274.171 35.3 273.527 35.1658C272.801 35.0046 272.217 34.8435 271.774 34.6823C271.331 34.5212 270.955 34.266 270.646 33.9169C270.337 33.5543 270.183 33.0709 270.183 32.4666C270.183 31.6878 270.492 31.0701 271.109 30.6135C271.727 30.1435 272.499 29.9085 273.426 29.9085C274.326 29.9085 275.091 30.1368 275.722 30.5933C276.367 31.0365 276.783 31.6945 276.971 32.5673L276.407 32.6479C276.286 31.9631 275.95 31.4259 275.4 31.0365C274.863 30.6471 274.205 30.4523 273.426 30.4523C272.674 30.4523 272.043 30.6336 271.532 30.9962C271.022 31.3588 270.767 31.8489 270.767 32.4666C270.767 32.95 270.895 33.3328 271.15 33.6148C271.418 33.8833 271.747 34.0915 272.137 34.2392C272.54 34.3735 273.07 34.5078 273.728 34.642C274.467 34.8166 275.051 34.9845 275.48 35.1456C275.924 35.3068 276.3 35.5686 276.608 35.9312C276.917 36.2803 277.072 36.757 277.072 37.3613C277.072 38.2342 276.756 38.9258 276.125 39.436C275.494 39.9463 274.661 40.2015 273.627 40.2015Z" fill="black"/>
<path d="M283.246 40.2015C282.386 40.2015 281.621 39.9866 280.95 39.5569C280.292 39.1138 279.775 38.5028 279.399 37.7239C279.036 36.9316 278.855 36.0386 278.855 35.0449C278.855 34.0512 279.036 33.1649 279.399 32.3861C279.775 31.6072 280.292 31.0029 280.95 30.5732C281.621 30.1301 282.386 29.9085 283.246 29.9085C284.105 29.9085 284.871 30.1301 285.542 30.5732C286.214 31.0029 286.731 31.6072 287.093 32.3861C287.469 33.1649 287.657 34.0512 287.657 35.0449C287.657 36.0386 287.469 36.9316 287.093 37.7239C286.731 38.5028 286.214 39.1138 285.542 39.5569C284.871 39.9866 284.105 40.2015 283.246 40.2015ZM283.246 39.6375C283.998 39.6375 284.663 39.4428 285.24 39.0533C285.817 38.6639 286.261 38.1268 286.569 37.4419C286.892 36.7436 287.053 35.9446 287.053 35.0449C287.053 34.1586 286.892 33.3663 286.569 32.668C286.261 31.9698 285.817 31.4259 285.24 31.0365C284.663 30.6471 283.998 30.4523 283.246 30.4523C282.494 30.4523 281.829 30.6471 281.252 31.0365C280.674 31.4259 280.224 31.9698 279.902 32.668C279.593 33.3663 279.439 34.1586 279.439 35.0449C279.439 35.9446 279.593 36.7436 279.902 37.4419C280.224 38.1268 280.674 38.6639 281.252 39.0533C281.829 39.4428 282.494 39.6375 283.246 39.6375Z" fill="black"/>
<path d="M290.24 40V30.1099H290.825V32.5069H290.925C291.248 31.7146 291.704 31.0835 292.295 30.6135C292.899 30.1435 293.571 29.9085 294.309 29.9085C295.048 29.9085 295.659 30.1569 296.142 30.6538C296.639 31.1372 296.961 31.8221 297.109 32.7083H297.21C297.586 31.8086 298.076 31.1171 298.68 30.6336C299.285 30.1502 299.963 29.9085 300.715 29.9085C301.655 29.9085 302.38 30.2643 302.89 30.9761C303.414 31.6743 303.676 32.6748 303.676 33.9773V40H303.092V34.0176C303.092 32.8762 302.877 31.9966 302.447 31.3789C302.031 30.7612 301.433 30.4523 300.654 30.4523C300.037 30.4523 299.466 30.6403 298.942 31.0163C298.432 31.3923 298.022 31.9093 297.713 32.5673C297.405 33.2119 297.25 33.9169 297.25 34.6823V40H296.666V34.0176C296.666 32.8628 296.451 31.9832 296.021 31.3789C295.605 30.7612 295.008 30.4523 294.229 30.4523C293.611 30.4523 293.04 30.6403 292.517 31.0163C292.006 31.3923 291.597 31.9026 291.288 32.5472C290.992 33.1918 290.845 33.9035 290.845 34.6823V40H290.24Z" fill="black"/>
<path d="M314.759 34.6622C314.759 34.8099 314.739 34.9643 314.698 35.1255H306.742C306.769 36.4818 307.131 37.5762 307.83 38.4088C308.541 39.2279 309.481 39.6375 310.65 39.6375C311.442 39.6375 312.1 39.4495 312.624 39.0735C313.161 38.684 313.584 38.1738 313.893 37.5426L314.457 37.6433C314.121 38.4356 313.631 39.06 312.986 39.5166C312.342 39.9732 311.563 40.2015 310.65 40.2015C309.763 40.2015 308.978 39.9866 308.293 39.5569C307.621 39.1138 307.098 38.5028 306.722 37.7239C306.346 36.9316 306.158 36.0386 306.158 35.0449C306.158 34.0512 306.339 33.1649 306.702 32.3861C307.078 31.6072 307.588 31.0029 308.232 30.5732C308.89 30.1301 309.642 29.9085 310.488 29.9085C311.308 29.9085 312.039 30.1099 312.684 30.5128C313.342 30.9156 313.852 31.4796 314.215 32.2048C314.577 32.9165 314.759 33.7356 314.759 34.6622ZM310.488 30.4523C309.441 30.4523 308.575 30.8351 307.89 31.6005C307.219 32.3525 306.843 33.3462 306.762 34.5816H314.195C314.141 33.3193 313.772 32.3189 313.087 31.5803C312.415 30.8283 311.549 30.4523 310.488 30.4523Z" fill="black"/>
<path d="M320.232 40C319.493 40 318.943 39.812 318.58 39.436C318.231 39.06 318.056 38.4625 318.056 37.6433V30.6538H315.7V30.1099H318.056L318.177 27.2899H318.661V30.1099H322.004V30.6538H318.661V37.6433C318.661 38.2879 318.782 38.7512 319.023 39.0332C319.278 39.3018 319.695 39.436 320.272 39.436H322.105V40H320.232Z" fill="black"/>
<path d="M324.234 40V25.9001H324.838V32.5875H324.939C325.315 31.7415 325.825 31.0835 326.47 30.6135C327.114 30.1435 327.833 29.9085 328.625 29.9085C329.632 29.9085 330.418 30.2711 330.982 30.9962C331.559 31.7079 331.848 32.7083 331.848 33.9975V40H331.244V34.0378C331.244 32.9098 331.009 32.0302 330.539 31.3991C330.069 30.7679 329.411 30.4523 328.565 30.4523C327.893 30.4523 327.269 30.6471 326.691 31.0365C326.127 31.4259 325.677 31.9496 325.342 32.6076C325.006 33.2656 324.838 33.9639 324.838 34.7025V40H324.234Z" fill="black"/>
<path d="M335.696 40H335.112V30.1099H335.696V40ZM335.877 27.9345H334.951V26.9072H335.877V27.9345Z" fill="black"/>
<path d="M339.083 40V30.1099H339.667V32.6076H339.768C340.157 31.7482 340.674 31.0835 341.319 30.6135C341.963 30.1435 342.682 29.9085 343.474 29.9085C344.481 29.9085 345.267 30.2711 345.831 30.9962C346.408 31.7079 346.697 32.7083 346.697 33.9975V40H346.093V34.0378C346.093 32.9098 345.858 32.0302 345.388 31.3991C344.918 30.7679 344.26 30.4523 343.414 30.4523C342.742 30.4523 342.118 30.6471 341.54 31.0365C340.976 31.4259 340.526 31.9496 340.191 32.6076C339.855 33.2656 339.687 33.9639 339.687 34.7025V40H339.083Z" fill="black"/>
<path d="M353.609 44.0286C352.548 44.0286 351.635 43.7533 350.87 43.2027C350.104 42.6656 349.601 41.927 349.359 40.987L349.923 40.8863C350.124 41.692 350.554 42.3232 351.212 42.7797C351.883 43.2363 352.682 43.4646 353.609 43.4646C354.764 43.4646 355.664 43.102 356.308 42.3769C356.953 41.6517 357.275 40.6177 357.275 39.2749V37.0995H357.174C356.798 37.9723 356.275 38.6438 355.603 39.1138C354.932 39.5703 354.186 39.7986 353.367 39.7986C352.575 39.7986 351.857 39.5905 351.212 39.1742C350.581 38.7445 350.084 38.1536 349.721 37.4016C349.359 36.6496 349.178 35.7969 349.178 34.8435C349.178 33.9035 349.359 33.0575 349.721 32.3055C350.084 31.5535 350.581 30.9693 351.212 30.5531C351.857 30.1233 352.575 29.9085 353.367 29.9085C354.186 29.9085 354.932 30.1435 355.603 30.6135C356.275 31.0701 356.805 31.7348 357.194 32.6076H357.295V30.1099H357.879V39.2749C357.879 40.7789 357.497 41.9472 356.731 42.7797C355.979 43.6123 354.938 44.0286 353.609 44.0286ZM353.408 39.2346C354.133 39.2346 354.791 39.0399 355.382 38.6505C355.972 38.261 356.436 37.7306 356.771 37.0592C357.107 36.3878 357.275 35.6492 357.275 34.8435C357.275 34.0378 357.107 33.2992 356.771 32.6278C356.436 31.9563 355.972 31.4259 355.382 31.0365C354.791 30.6471 354.133 30.4523 353.408 30.4523C352.709 30.4523 352.085 30.6403 351.534 31.0163C350.984 31.3923 350.547 31.9161 350.225 32.5875C349.916 33.2589 349.762 34.0109 349.762 34.8435C349.762 35.6895 349.916 36.4482 350.225 37.1196C350.547 37.7776 350.984 38.2946 351.534 38.6706C352.085 39.0466 352.709 39.2346 353.408 39.2346Z" fill="black"/>
<path d="M368.799 40C368.06 40 367.51 39.812 367.147 39.436C366.798 39.06 366.623 38.4625 366.623 37.6433V30.6538H364.267V30.1099H366.623L366.744 27.2899H367.228V30.1099H370.571V30.6538H367.228V37.6433C367.228 38.2879 367.349 38.7512 367.59 39.0332C367.845 39.3018 368.262 39.436 368.839 39.436H370.672V40H368.799Z" fill="black"/>
<path d="M372.801 40V25.9001H373.405V32.5875H373.506C373.882 31.7415 374.392 31.0835 375.037 30.6135C375.681 30.1435 376.4 29.9085 377.192 29.9085C378.199 29.9085 378.985 30.2711 379.549 30.9962C380.126 31.7079 380.415 32.7083 380.415 33.9975V40H379.811V34.0378C379.811 32.9098 379.576 32.0302 379.106 31.3991C378.636 30.7679 377.978 30.4523 377.132 30.4523C376.46 30.4523 375.836 30.6471 375.258 31.0365C374.694 31.4259 374.244 31.9496 373.909 32.6076C373.573 33.2656 373.405 33.9639 373.405 34.7025V40H372.801Z" fill="black"/>
<path d="M391.575 39.4763V40H391.031C390.655 40 390.346 39.8792 390.104 39.6375C389.876 39.3958 389.762 39.06 389.762 38.6303V37.4822H389.661C389.299 38.3416 388.775 39.013 388.09 39.4965C387.419 39.9665 386.68 40.2015 385.874 40.2015C385.015 40.2015 384.29 39.9463 383.699 39.436C383.108 38.9123 382.813 38.2342 382.813 37.4016C382.813 36.8108 382.967 36.287 383.276 35.8305C383.585 35.3739 384.008 35.018 384.545 34.7629C385.095 34.5078 385.707 34.3802 386.378 34.3802H389.722V33.6349C389.722 32.6815 389.46 31.9161 388.936 31.3386C388.412 30.7478 387.687 30.4523 386.761 30.4523C386.022 30.4523 385.391 30.6538 384.867 31.0566C384.344 31.4595 383.974 32.0235 383.759 32.7486L383.195 32.668C383.437 31.8221 383.86 31.1506 384.464 30.6538C385.082 30.1569 385.848 29.9085 386.761 29.9085C387.862 29.9085 388.728 30.2576 389.359 30.9559C389.99 31.6408 390.306 32.5338 390.306 33.6349V38.59C390.306 38.872 390.373 39.0936 390.507 39.2548C390.655 39.4025 390.85 39.4763 391.091 39.4763H391.575ZM385.895 39.6375C386.606 39.6375 387.251 39.4428 387.828 39.0533C388.419 38.6639 388.882 38.1469 389.218 37.5023C389.554 36.8443 389.722 36.1393 389.722 35.3873V34.9442H386.398C385.539 34.9442 384.82 35.1725 384.243 35.629C383.679 36.0856 383.397 36.6765 383.397 37.4016C383.397 38.073 383.632 38.6169 384.102 39.0332C384.572 39.436 385.169 39.6375 385.895 39.6375Z" fill="black"/>
<path d="M396.476 40C395.737 40 395.186 39.812 394.824 39.436C394.475 39.06 394.3 38.4625 394.3 37.6433V30.6538H391.943V30.1099H394.3L394.421 27.2899H394.904V30.1099H398.248V30.6538H394.904V37.6433C394.904 38.2879 395.025 38.7512 395.267 39.0332C395.522 39.3018 395.938 39.436 396.516 39.436H398.349V40H396.476Z" fill="black"/>
<path d="M9.54776 59.6622C9.54776 59.8099 9.52762 59.9643 9.48733 60.1255H1.53092C1.55778 61.4818 1.92035 62.5762 2.61863 63.4088C3.33034 64.2279 4.27034 64.6375 5.43863 64.6375C6.23091 64.6375 6.88891 64.4495 7.41262 64.0735C7.94977 63.684 8.37276 63.1738 8.68162 62.5426L9.24562 62.6433C8.90991 63.4356 8.41976 64.06 7.77519 64.5166C7.13062 64.9732 6.35177 65.2015 5.43863 65.2015C4.55234 65.2015 3.76677 64.9866 3.08192 64.5569C2.41049 64.1138 1.88678 63.5028 1.51078 62.7239C1.13478 61.9316 0.946777 61.0386 0.946777 60.0449C0.946777 59.0512 1.12806 58.1649 1.49063 57.3861C1.86663 56.6072 2.37692 56.0029 3.02149 55.5732C3.67949 55.1301 4.43149 54.9085 5.27748 54.9085C6.09663 54.9085 6.82848 55.1099 7.47305 55.5128C8.13105 55.9156 8.64134 56.4796 9.00391 57.2048C9.36648 57.9165 9.54776 58.7356 9.54776 59.6622ZM5.27748 55.4523C4.23006 55.4523 3.36392 55.8351 2.67906 56.6005C2.00763 57.3525 1.63163 58.3462 1.55106 59.5816H8.98376C8.93005 58.3193 8.56076 57.3189 7.87591 56.5803C7.20448 55.8283 6.33834 55.4523 5.27748 55.4523Z" fill="black"/>
<path d="M18.2888 55.1099L14.8645 60.0046L18.4902 65H17.7852L14.5221 60.4679H14.4214L11.1784 65H10.4734L14.0991 60.0046L10.6748 55.1099H11.3597L14.4415 59.5212H14.5422L17.6241 55.1099H18.2888Z" fill="black"/>
<path d="M21.161 65H20.5769V55.1099H21.161V65ZM21.3423 52.9345H20.4158V51.9072H21.3423V52.9345Z" fill="black"/>
<path d="M27.4284 65.2015C26.4079 65.2015 25.5485 64.953 24.8502 64.4562C24.1519 63.9593 23.6953 63.2543 23.4805 62.3412L24.0445 62.2405C24.1922 62.979 24.5682 63.5632 25.1725 63.9929C25.7767 64.4226 26.5287 64.6375 27.4284 64.6375C28.3147 64.6375 29.013 64.4293 29.5233 64.013C30.0336 63.5968 30.2887 63.0462 30.2887 62.3613C30.2887 61.8779 30.1544 61.4952 29.8859 61.2132C29.6307 60.9312 29.3017 60.723 28.8989 60.5888C28.496 60.441 27.9723 60.3 27.3277 60.1658C26.6026 60.0046 26.0184 59.8435 25.5753 59.6823C25.1322 59.5212 24.7562 59.266 24.4473 58.9169C24.1385 58.5543 23.984 58.0709 23.984 57.4666C23.984 56.6878 24.2929 56.0701 24.9106 55.6135C25.5283 55.1435 26.3005 54.9085 27.227 54.9085C28.1267 54.9085 28.8922 55.1368 29.5233 55.5933C30.1679 56.0365 30.5842 56.6945 30.7722 57.5673L30.2082 57.6479C30.0873 56.9631 29.7516 56.4259 29.201 56.0365C28.6639 55.6471 28.0059 55.4523 27.227 55.4523C26.475 55.4523 25.8439 55.6336 25.3336 55.9962C24.8233 56.3588 24.5682 56.8489 24.5682 57.4666C24.5682 57.95 24.6957 58.3328 24.9509 58.6148C25.2195 58.8833 25.5485 59.0915 25.9379 59.2392C26.3407 59.3735 26.8712 59.5078 27.5292 59.642C28.2677 59.8166 28.8519 59.9845 29.2816 60.1456C29.7247 60.3068 30.1007 60.5686 30.4096 60.9312C30.7184 61.2803 30.8729 61.757 30.8729 62.3613C30.8729 63.2342 30.5573 63.9258 29.9262 64.436C29.295 64.9463 28.4624 65.2015 27.4284 65.2015Z" fill="black"/>
<path d="M36.226 65C35.4874 65 34.9368 64.812 34.5743 64.436C34.2251 64.06 34.0506 63.4625 34.0506 62.6433V55.6538H31.6938V55.1099H34.0506L34.1714 52.2899H34.6548V55.1099H37.9986V55.6538H34.6548V62.6433C34.6548 63.2879 34.7757 63.7512 35.0174 64.0332C35.2726 64.3018 35.6888 64.436 36.2663 64.436H38.0993V65H36.226Z" fill="black"/>
<path d="M43.0077 65.2015C41.9871 65.2015 41.1277 64.953 40.4294 64.4562C39.7311 63.9593 39.2745 63.2543 39.0597 62.3412L39.6237 62.2405C39.7714 62.979 40.1474 63.5632 40.7517 63.9929C41.356 64.4226 42.108 64.6375 43.0077 64.6375C43.8939 64.6375 44.5922 64.4293 45.1025 64.013C45.6128 63.5968 45.8679 63.0462 45.8679 62.3613C45.8679 61.8779 45.7337 61.4952 45.4651 61.2132C45.2099 60.9312 44.8809 60.723 44.4781 60.5888C44.0752 60.441 43.5515 60.3 42.9069 60.1658C42.1818 60.0046 41.5977 59.8435 41.1545 59.6823C40.7114 59.5212 40.3354 59.266 40.0265 58.9169C39.7177 58.5543 39.5632 58.0709 39.5632 57.4666C39.5632 56.6878 39.8721 56.0701 40.4898 55.6135C41.1075 55.1435 41.8797 54.9085 42.8062 54.9085C43.7059 54.9085 44.4714 55.1368 45.1025 55.5933C45.7471 56.0365 46.1634 56.6945 46.3514 57.5673L45.7874 57.6479C45.6665 56.9631 45.3308 56.4259 44.7802 56.0365C44.2431 55.6471 43.5851 55.4523 42.8062 55.4523C42.0542 55.4523 41.4231 55.6336 40.9128 55.9962C40.4025 56.3588 40.1474 56.8489 40.1474 57.4666C40.1474 57.95 40.275 58.3328 40.5301 58.6148C40.7987 58.8833 41.1277 59.0915 41.5171 59.2392C41.92 59.3735 42.4504 59.5078 43.1084 59.642C43.8469 59.8166 44.4311 59.9845 44.8608 60.1456C45.3039 60.3068 45.6799 60.5686 45.9888 60.9312C46.2977 61.2803 46.4521 61.757 46.4521 62.3613C46.4521 63.2342 46.1365 63.9258 45.5054 64.436C44.8742 64.9463 44.0417 65.2015 43.0077 65.2015Z" fill="black"/>
<path d="M58.1563 65.2015C57.3103 65.2015 56.5449 64.9598 55.86 64.4763C55.1886 63.9929 54.6649 63.3013 54.2889 62.4016H54.1882V65H53.604V50.9001H54.2083V57.668H54.309C54.685 56.7952 55.2088 56.1171 55.8802 55.6336C56.5516 55.1502 57.3103 54.9085 58.1563 54.9085C58.962 54.9085 59.6872 55.1301 60.3317 55.5732C60.9897 56.0029 61.5 56.6072 61.8626 57.3861C62.2252 58.1649 62.4065 59.0512 62.4065 60.0449C62.4065 61.0386 62.2252 61.9316 61.8626 62.7239C61.5 63.5028 60.9897 64.1138 60.3317 64.5569C59.6872 64.9866 58.962 65.2015 58.1563 65.2015ZM58.116 64.6375C58.8277 64.6375 59.4656 64.4428 60.0296 64.0533C60.5936 63.6639 61.03 63.1268 61.3389 62.4419C61.6612 61.7436 61.8223 60.9446 61.8223 60.0449C61.8223 59.1452 61.6612 58.3529 61.3389 57.668C61.03 56.9698 60.5936 56.4259 60.0296 56.0365C59.4656 55.6471 58.8277 55.4523 58.116 55.4523C57.3775 55.4523 56.7128 55.6538 56.1219 56.0566C55.531 56.4595 55.061 57.0101 54.7119 57.7083C54.3762 58.4066 54.2083 59.1855 54.2083 60.0449C54.2083 60.9043 54.3762 61.6832 54.7119 62.3815C55.061 63.0798 55.531 63.6303 56.1219 64.0332C56.7128 64.436 57.3775 64.6375 58.116 64.6375Z" fill="black"/>
<path d="M68.0527 65.2015C67.0859 65.2015 66.3137 64.8389 65.7363 64.1138C65.1723 63.3752 64.8903 62.368 64.8903 61.0923V55.1099H65.4946V61.0722C65.4946 62.1868 65.7296 63.0596 66.1996 63.6908C66.6696 64.3219 67.3075 64.6375 68.1132 64.6375C68.7712 64.6375 69.3822 64.4428 69.9462 64.0533C70.5102 63.6639 70.96 63.1402 71.2957 62.4822C71.6314 61.8242 71.7993 61.1259 71.7993 60.3873V55.1099H72.4036V65H71.8195V62.5023H71.7187C71.3293 63.3483 70.8123 64.013 70.1677 64.4965C69.5366 64.9665 68.8316 65.2015 68.0527 65.2015Z" fill="black"/>
<path d="M78.7541 65C78.0155 65 77.4649 64.812 77.1024 64.436C76.7532 64.06 76.5787 63.4625 76.5787 62.6433V55.6538H74.222V55.1099H76.5787L76.6995 52.2899H77.1829V55.1099H80.5267V55.6538H77.1829V62.6433C77.1829 63.2879 77.3038 63.7512 77.5455 64.0332C77.8007 64.3018 78.2169 64.436 78.7944 64.436H80.6274V65H78.7541Z" fill="black"/>
<path d="M87.9235 65H87.3393V55.1099H87.9235V65ZM88.1048 52.9345H87.1782V51.9072H88.1048V52.9345Z" fill="black"/>
<path d="M94.1909 65.2015C93.1703 65.2015 92.3109 64.953 91.6126 64.4562C90.9143 63.9593 90.4577 63.2543 90.2429 62.3412L90.8069 62.2405C90.9546 62.979 91.3306 63.5632 91.9349 63.9929C92.5392 64.4226 93.2912 64.6375 94.1909 64.6375C95.0772 64.6375 95.7755 64.4293 96.2857 64.013C96.796 63.5968 97.0512 63.0462 97.0512 62.3613C97.0512 61.8779 96.9169 61.4952 96.6483 61.2132C96.3932 60.9312 96.0642 60.723 95.6613 60.5888C95.2585 60.441 94.7347 60.3 94.0902 60.1658C93.365 60.0046 92.7809 59.8435 92.3377 59.6823C91.8946 59.5212 91.5186 59.266 91.2097 58.9169C90.9009 58.5543 90.7465 58.0709 90.7465 57.4666C90.7465 56.6878 91.0553 56.0701 91.673 55.6135C92.2907 55.1435 93.0629 54.9085 93.9895 54.9085C94.8892 54.9085 95.6546 55.1368 96.2857 55.5933C96.9303 56.0365 97.3466 56.6945 97.5346 57.5673L96.9706 57.6479C96.8497 56.9631 96.514 56.4259 95.9634 56.0365C95.4263 55.6471 94.7683 55.4523 93.9895 55.4523C93.2375 55.4523 92.6063 55.6336 92.096 55.9962C91.5857 56.3588 91.3306 56.8489 91.3306 57.4666C91.3306 57.95 91.4582 58.3328 91.7133 58.6148C91.9819 58.8833 92.3109 59.0915 92.7003 59.2392C93.1032 59.3735 93.6336 59.5078 94.2916 59.642C95.0302 59.8166 95.6143 59.9845 96.044 60.1456C96.4872 60.3068 96.8632 60.5686 97.172 60.9312C97.4809 61.2803 97.6353 61.757 97.6353 62.3613C97.6353 63.2342 97.3197 63.9258 96.6886 64.436C96.0574 64.9463 95.2249 65.2015 94.1909 65.2015Z" fill="black"/>
<path d="M104.687 65V55.1099H105.271V57.6076H105.371C105.761 56.7482 106.278 56.0835 106.922 55.6135C107.567 55.1435 108.285 54.9085 109.078 54.9085C110.085 54.9085 110.87 55.2711 111.434 55.9962C112.012 56.7079 112.301 57.7083 112.301 58.9975V65H111.696V59.0378C111.696 57.9098 111.461 57.0302 110.991 56.3991C110.521 55.7679 109.863 55.4523 109.017 55.4523C108.346 55.4523 107.721 55.6471 107.144 56.0365C106.58 56.4259 106.13 56.9496 105.794 57.6076C105.459 58.2656 105.291 58.9639 105.291 59.7025V65H104.687Z" fill="black"/>
<path d="M119.172 65.2015C118.313 65.2015 117.548 64.9866 116.876 64.5569C116.218 64.1138 115.701 63.5028 115.325 62.7239C114.963 61.9316 114.781 61.0386 114.781 60.0449C114.781 59.0512 114.963 58.1649 115.325 57.3861C115.701 56.6072 116.218 56.0029 116.876 55.5732C117.548 55.1301 118.313 54.9085 119.172 54.9085C120.032 54.9085 120.797 55.1301 121.469 55.5732C122.14 56.0029 122.657 56.6072 123.02 57.3861C123.396 58.1649 123.584 59.0512 123.584 60.0449C123.584 61.0386 123.396 61.9316 123.02 62.7239C122.657 63.5028 122.14 64.1138 121.469 64.5569C120.797 64.9866 120.032 65.2015 119.172 65.2015ZM119.172 64.6375C119.924 64.6375 120.589 64.4428 121.167 64.0533C121.744 63.6639 122.187 63.1268 122.496 62.4419C122.818 61.7436 122.979 60.9446 122.979 60.0449C122.979 59.1586 122.818 58.3663 122.496 57.668C122.187 56.9698 121.744 56.4259 121.167 56.0365C120.589 55.6471 119.924 55.4523 119.172 55.4523C118.42 55.4523 117.756 55.6471 117.178 56.0365C116.601 56.4259 116.151 56.9698 115.829 57.668C115.52 58.3663 115.365 59.1586 115.365 60.0449C115.365 60.9446 115.52 61.7436 115.829 62.4419C116.151 63.1268 116.601 63.6639 117.178 64.0533C117.756 64.4428 118.42 64.6375 119.172 64.6375Z" fill="black"/>
<path d="M129.052 65C128.314 65 127.763 64.812 127.4 64.436C127.051 64.06 126.877 63.4625 126.877 62.6433V55.6538H124.52V55.1099H126.877L126.998 52.2899H127.481V55.1099H130.825V55.6538H127.481V62.6433C127.481 63.2879 127.602 63.7512 127.844 64.0332C128.099 64.3018 128.515 64.436 129.092 64.436H130.925V65H129.052Z" fill="black"/>
<path d="M140.85 65.2015C139.99 65.2015 139.225 64.9866 138.553 64.5569C137.895 64.1138 137.378 63.5028 137.002 62.7239C136.64 61.9316 136.458 61.0386 136.458 60.0449C136.458 59.0512 136.64 58.1649 137.002 57.3861C137.378 56.6072 137.895 56.0029 138.553 55.5732C139.225 55.1301 139.99 54.9085 140.85 54.9085C141.709 54.9085 142.474 55.1301 143.146 55.5732C143.817 56.0029 144.334 56.6072 144.697 57.3861C145.073 58.1649 145.261 59.0512 145.261 60.0449C145.261 61.0386 145.073 61.9316 144.697 62.7239C144.334 63.5028 143.817 64.1138 143.146 64.5569C142.474 64.9866 141.709 65.2015 140.85 65.2015ZM140.85 64.6375C141.602 64.6375 142.266 64.4428 142.844 64.0533C143.421 63.6639 143.864 63.1268 144.173 62.4419C144.495 61.7436 144.657 60.9446 144.657 60.0449C144.657 59.1586 144.495 58.3663 144.173 57.668C143.864 56.9698 143.421 56.4259 142.844 56.0365C142.266 55.6471 141.602 55.4523 140.85 55.4523C140.098 55.4523 139.433 55.6471 138.855 56.0365C138.278 56.4259 137.828 56.9698 137.506 57.668C137.197 58.3663 137.043 59.1586 137.043 60.0449C137.043 60.9446 137.197 61.7436 137.506 62.4419C137.828 63.1268 138.278 63.6639 138.855 64.0533C139.433 64.4428 140.098 64.6375 140.85 64.6375Z" fill="black"/>
<path d="M152.497 65.2015C151.651 65.2015 150.886 64.9598 150.201 64.4763C149.529 63.9929 149.006 63.3013 148.63 62.4016H148.529V65H147.945V50.9001H148.549V57.668H148.65C149.026 56.7952 149.55 56.1171 150.221 55.6336C150.892 55.1502 151.651 54.9085 152.497 54.9085C153.303 54.9085 154.028 55.1301 154.673 55.5732C155.331 56.0029 155.841 56.6072 156.203 57.3861C156.566 58.1649 156.747 59.0512 156.747 60.0449C156.747 61.0386 156.566 61.9316 156.203 62.7239C155.841 63.5028 155.331 64.1138 154.673 64.5569C154.028 64.9866 153.303 65.2015 152.497 65.2015ZM152.457 64.6375C153.169 64.6375 153.806 64.4428 154.37 64.0533C154.934 63.6639 155.371 63.1268 155.68 62.4419C156.002 61.7436 156.163 60.9446 156.163 60.0449C156.163 59.1452 156.002 58.3529 155.68 57.668C155.371 56.9698 154.934 56.4259 154.37 56.0365C153.806 55.6471 153.169 55.4523 152.457 55.4523C151.718 55.4523 151.054 55.6538 150.463 56.0566C149.872 56.4595 149.402 57.0101 149.053 57.7083C148.717 58.4066 148.549 59.1855 148.549 60.0449C148.549 60.9043 148.717 61.6832 149.053 62.3815C149.402 63.0798 149.872 63.6303 150.463 64.0332C151.054 64.436 151.718 64.6375 152.457 64.6375Z" fill="black"/>
<path d="M162.217 65C161.478 65 160.928 64.812 160.565 64.436C160.216 64.06 160.042 63.4625 160.042 62.6433V55.6538H157.685V55.1099H160.042L160.162 52.2899H160.646V55.1099H163.99V55.6538H160.646V62.6433C160.646 63.2879 160.767 63.7512 161.008 64.0332C161.264 64.3018 161.68 64.436 162.257 64.436H164.09V65H162.217Z" fill="black"/>
<path d="M174.115 64.4763V65H173.571C173.195 65 172.886 64.8792 172.645 64.6375C172.416 64.3958 172.302 64.06 172.302 63.6303V62.4822H172.201C171.839 63.3416 171.315 64.013 170.63 64.4965C169.959 64.9665 169.22 65.2015 168.415 65.2015C167.555 65.2015 166.83 64.9463 166.239 64.436C165.648 63.9123 165.353 63.2342 165.353 62.4016C165.353 61.8108 165.507 61.287 165.816 60.8305C166.125 60.3739 166.548 60.018 167.085 59.7629C167.636 59.5078 168.247 59.3802 168.918 59.3802H172.262V58.6349C172.262 57.6815 172 56.9161 171.476 56.3386C170.952 55.7478 170.227 55.4523 169.301 55.4523C168.562 55.4523 167.931 55.6538 167.407 56.0566C166.884 56.4595 166.514 57.0235 166.299 57.7486L165.736 57.668C165.977 56.8221 166.4 56.1506 167.005 55.6538C167.622 55.1569 168.388 54.9085 169.301 54.9085C170.402 54.9085 171.268 55.2576 171.899 55.9559C172.53 56.6408 172.846 57.5338 172.846 58.6349V63.59C172.846 63.872 172.913 64.0936 173.047 64.2548C173.195 64.4025 173.39 64.4763 173.632 64.4763H174.115ZM168.435 64.6375C169.146 64.6375 169.791 64.4428 170.368 64.0533C170.959 63.6639 171.422 63.1469 171.758 62.5023C172.094 61.8443 172.262 61.1393 172.262 60.3873V59.9442H168.938C168.079 59.9442 167.36 60.1725 166.783 60.629C166.219 61.0856 165.937 61.6765 165.937 62.4016C165.937 63.073 166.172 63.6169 166.642 64.0332C167.112 64.436 167.71 64.6375 168.435 64.6375Z" fill="black"/>
<path d="M176.815 65H176.231V55.1099H176.815V65ZM176.997 52.9345H176.07V51.9072H176.997V52.9345Z" fill="black"/>
<path d="M180.202 65V55.1099H180.787V57.6076H180.887C181.277 56.7482 181.794 56.0835 182.438 55.6135C183.083 55.1435 183.801 54.9085 184.594 54.9085C185.601 54.9085 186.386 55.2711 186.95 55.9962C187.528 56.7079 187.816 57.7083 187.816 58.9975V65H187.212V59.0378C187.212 57.9098 186.977 57.0302 186.507 56.3991C186.037 55.7679 185.379 55.4523 184.533 55.4523C183.862 55.4523 183.237 55.6471 182.66 56.0365C182.096 56.4259 181.646 56.9496 181.31 57.6076C180.975 58.2656 180.807 58.9639 180.807 59.7025V65H180.202Z" fill="black"/>
<path d="M198.979 64.4763V65H198.435C198.059 65 197.75 64.8792 197.508 64.6375C197.28 64.3958 197.166 64.06 197.166 63.6303V62.4822H197.065C196.703 63.3416 196.179 64.013 195.494 64.4965C194.823 64.9665 194.084 65.2015 193.278 65.2015C192.419 65.2015 191.694 64.9463 191.103 64.436C190.512 63.9123 190.217 63.2342 190.217 62.4016C190.217 61.8108 190.371 61.287 190.68 60.8305C190.989 60.3739 191.412 60.018 191.949 59.7629C192.499 59.5078 193.11 59.3802 193.782 59.3802H197.126V58.6349C197.126 57.6815 196.864 56.9161 196.34 56.3386C195.816 55.7478 195.091 55.4523 194.165 55.4523C193.426 55.4523 192.795 55.6538 192.271 56.0566C191.747 56.4595 191.378 57.0235 191.163 57.7486L190.599 57.668C190.841 56.8221 191.264 56.1506 191.868 55.6538C192.486 55.1569 193.251 54.9085 194.165 54.9085C195.266 54.9085 196.132 55.2576 196.763 55.9559C197.394 56.6408 197.71 57.5338 197.71 58.6349V63.59C197.71 63.872 197.777 64.0936 197.911 64.2548C198.059 64.4025 198.254 64.4763 198.495 64.4763H198.979ZM193.298 64.6375C194.01 64.6375 194.655 64.4428 195.232 64.0533C195.823 63.6639 196.286 63.1469 196.622 62.5023C196.958 61.8443 197.126 61.1393 197.126 60.3873V59.9442H193.802C192.943 59.9442 192.224 60.1725 191.647 60.629C191.083 61.0856 190.801 61.6765 190.801 62.4016C190.801 63.073 191.036 63.6169 191.506 64.0332C191.976 64.436 192.573 64.6375 193.298 64.6375Z" fill="black"/>
<path d="M205.647 65.2015C204.801 65.2015 204.036 64.9598 203.351 64.4763C202.68 63.9929 202.156 63.3013 201.78 62.4016H201.679V65H201.095V50.9001H201.699V57.668H201.8C202.176 56.7952 202.7 56.1171 203.371 55.6336C204.043 55.1502 204.801 54.9085 205.647 54.9085C206.453 54.9085 207.178 55.1301 207.823 55.5732C208.481 56.0029 208.991 56.6072 209.354 57.3861C209.716 58.1649 209.898 59.0512 209.898 60.0449C209.898 61.0386 209.716 61.9316 209.354 62.7239C208.991 63.5028 208.481 64.1138 207.823 64.5569C207.178 64.9866 206.453 65.2015 205.647 65.2015ZM205.607 64.6375C206.319 64.6375 206.957 64.4428 207.521 64.0533C208.085 63.6639 208.521 63.1268 208.83 62.4419C209.152 61.7436 209.313 60.9446 209.313 60.0449C209.313 59.1452 209.152 58.3529 208.83 57.668C208.521 56.9698 208.085 56.4259 207.521 56.0365C206.957 55.6471 206.319 55.4523 205.607 55.4523C204.869 55.4523 204.204 55.6538 203.613 56.0566C203.022 56.4595 202.552 57.0101 202.203 57.7083C201.867 58.4066 201.699 59.1855 201.699 60.0449C201.699 60.9043 201.867 61.6832 202.203 62.3815C202.552 63.0798 203.022 63.6303 203.613 64.0332C204.204 64.436 204.869 64.6375 205.607 64.6375Z" fill="black"/>
<path d="M213.187 65H212.583V50.9001H213.187V65Z" fill="black"/>
<path d="M224.47 59.6622C224.47 59.8099 224.45 59.9643 224.41 60.1255H216.453C216.48 61.4818 216.843 62.5762 217.541 63.4088C218.253 64.2279 219.193 64.6375 220.361 64.6375C221.153 64.6375 221.811 64.4495 222.335 64.0735C222.872 63.684 223.295 63.1738 223.604 62.5426L224.168 62.6433C223.832 63.4356 223.342 64.06 222.698 64.5166C222.053 64.9732 221.274 65.2015 220.361 65.2015C219.475 65.2015 218.689 64.9866 218.004 64.5569C217.333 64.1138 216.809 63.5028 216.433 62.7239C216.057 61.9316 215.869 61.0386 215.869 60.0449C215.869 59.0512 216.05 58.1649 216.413 57.3861C216.789 56.6072 217.299 56.0029 217.944 55.5732C218.602 55.1301 219.354 54.9085 220.2 54.9085C221.019 54.9085 221.751 55.1099 222.395 55.5128C223.053 55.9156 223.564 56.4796 223.926 57.2048C224.289 57.9165 224.47 58.7356 224.47 59.6622ZM220.2 55.4523C219.152 55.4523 218.286 55.8351 217.601 56.6005C216.93 57.3525 216.554 58.3462 216.473 59.5816H223.906C223.852 58.3193 223.483 57.3189 222.798 56.5803C222.127 55.8283 221.261 55.4523 220.2 55.4523Z" fill="black"/>
</svg>
