<svg width="568" height="150" viewBox="0 0 568 150" fill="none" xmlns="http://www.w3.org/2000/svg">
<path d="M18.6981 25.7285L42.482 53.1773H31.1884L8.97507 27.374V53.1773H0V0.822713H8.97507V25.1302L29.8421 0.822713H40.2382L18.6981 25.7285Z" fill="black"/>
<path d="M67.0279 53.1773H58.0528V34.1801L40.4018 0.822713H50.1248L62.5403 25.0554H62.9143L75.3298 0.822713H84.604L67.0279 34.1801V53.1773Z" fill="black"/>
<path d="M110.744 54C105.907 54 101.594 52.8781 97.8049 50.6343C94.0653 48.3407 91.1484 45.1496 89.0542 41.0609C87.0099 36.9224 85.9877 32.2355 85.9877 27C85.9877 21.7147 87.0099 17.0277 89.0542 12.9391C91.1484 8.85042 94.0653 5.68421 97.8049 3.44044C101.594 1.14681 105.907 0 110.744 0C115.63 0 119.943 1.14681 123.683 3.44044C127.472 5.68421 130.389 8.85042 132.434 12.9391C134.528 17.0277 135.575 21.7147 135.575 27C135.575 32.2853 134.528 36.9723 132.434 41.0609C130.389 45.1496 127.472 48.3407 123.683 50.6343C119.943 52.8781 115.63 54 110.744 54ZM110.744 45.8476C115.581 45.8476 119.42 44.1524 122.262 40.7618C125.104 37.3712 126.525 32.7839 126.525 27C126.525 21.2161 125.104 16.6288 122.262 13.2382C119.42 9.84764 115.581 8.15235 110.744 8.15235C105.907 8.15235 102.093 9.84764 99.3007 13.2382C96.5085 16.6288 95.1124 21.2161 95.1124 27C95.1124 32.7839 96.5085 37.3712 99.3007 40.7618C102.093 44.1524 105.907 45.8476 110.744 45.8476Z" fill="black"/>
<path d="M164.226 54C160.087 54 156.472 53.1274 153.381 51.3823C150.289 49.5873 147.896 47.0443 146.201 43.7535C144.555 40.4127 143.733 36.4737 143.733 31.9363V0.822713H152.708V31.5623C152.708 36.1994 153.705 39.7396 155.699 42.1828C157.694 44.626 160.536 45.8476 164.226 45.8476C167.915 45.8476 170.733 44.626 172.677 42.1828C174.672 39.7396 175.669 36.1994 175.669 31.5623V0.822713H184.644V31.9363C184.644 36.4737 183.796 40.4127 182.101 43.7535C180.456 47.0443 178.087 49.5873 174.996 51.3823C171.954 53.1274 168.364 54 164.226 54Z" fill="black"/>
<path d="M213.713 25.7285L237.497 53.1773H226.203L203.99 27.374V53.1773H195.015V0.822713H203.99V25.1302L224.857 0.822713H235.253L213.713 25.7285Z" fill="black"/>
<path d="M284.068 53.1773H275.093L271.129 40.687H250.636L246.672 53.1773H237.921L255.198 0.822713H266.791L284.068 53.1773ZM260.658 8.75069L252.954 33.2826H268.81L261.032 8.75069H260.658Z" fill="black"/>
<path d="M36.5401 149.065C26.8274 149.065 18.7596 146.871 12.3367 142.485C5.99211 138.099 1.87988 131.754 0 123.451L16.9189 121.219C18.5638 125.37 21.0703 128.425 24.4384 130.383C27.8065 132.263 31.6838 133.203 36.0702 133.203C40.1432 133.203 43.3939 132.42 45.822 130.853C48.3286 129.287 49.5818 126.976 49.5818 123.921C49.5818 121.885 48.8377 120.201 47.3494 118.869C45.8612 117.459 43.9813 116.362 41.7098 115.579C39.4383 114.796 36.3052 113.895 32.3104 112.877C26.3575 111.31 21.5011 109.744 17.7414 108.177C13.9816 106.532 10.731 104.065 7.98949 100.775C5.24799 97.4853 3.87725 93.099 3.87725 87.616C3.87725 82.8379 5.16967 78.6866 7.7545 75.1618C10.3393 71.5587 13.9424 68.8172 18.5638 66.9373C23.2635 64.9791 28.5898 64 34.5428 64C43.2372 64 50.4043 66.0365 56.0439 70.1096C61.7619 74.1043 65.5216 79.8223 67.3232 87.2635L50.9917 89.4959C48.6419 82.603 43.1589 79.1565 34.5428 79.1565C30.8613 79.1565 27.8457 79.8615 25.4959 81.2714C23.2243 82.6813 22.0886 84.7962 22.0886 87.616C22.0886 89.6525 22.8327 91.3366 24.3209 92.6681C25.8092 93.9214 27.6891 94.9397 29.9606 95.723C32.2321 96.4279 35.3652 97.2504 39.36 98.1903C45.3129 99.6002 50.2084 101.088 54.0465 102.655C57.8846 104.143 61.1744 106.532 63.9159 109.822C66.7357 113.112 68.1456 117.577 68.1456 123.216C68.1456 131.441 65.3258 137.824 59.6862 142.367C54.0465 146.832 46.3312 149.065 36.5401 149.065Z" fill="black"/>
<path d="M112.809 149.065C105.916 149.065 99.9242 147.615 94.8329 144.717C89.7416 141.819 85.786 137.668 82.9662 132.263C80.2247 126.78 78.8539 120.357 78.8539 112.994V65.4099H97.0653V112.407C97.0653 118.908 98.436 123.882 101.177 127.328C103.919 130.697 107.796 132.381 112.809 132.381C117.822 132.381 121.7 130.697 124.441 127.328C127.182 123.882 128.553 118.908 128.553 112.407V65.4099H146.765V112.994C146.765 120.357 145.355 126.78 142.535 132.263C139.793 137.668 135.877 141.819 130.786 144.717C125.694 147.615 119.702 149.065 112.809 149.065Z" fill="black"/>
<path d="M180.844 147.655H162.985V65.4099H180.844V147.655Z" fill="black"/>
<path d="M238.512 103.83H273.29V147.655H263.656L261.071 134.26C258.564 139.117 254.961 142.798 250.262 145.305C245.64 147.811 240.236 149.065 234.048 149.065C226.371 149.065 219.479 147.302 213.369 143.777C207.338 140.174 202.599 135.161 199.152 128.738C195.706 122.237 193.983 114.835 193.983 106.532C193.983 98.2295 195.706 90.8666 199.152 84.4437C202.677 78.0208 207.573 73.0078 213.839 69.4047C220.105 65.8016 227.272 64 235.34 64C244.661 64 252.494 66.389 258.839 71.167C265.262 75.8667 269.609 82.4071 271.88 90.7883L254.256 93.0206C252.846 89.1042 250.497 86.0886 247.207 83.9737C243.917 81.7805 239.961 80.6839 235.34 80.6839C228.447 80.6839 222.925 83.0338 218.774 87.7335C214.622 92.4332 212.547 98.6994 212.547 106.532C212.547 114.365 214.583 120.631 218.656 125.331C222.729 130.031 228.173 132.381 234.988 132.381C240.392 132.381 244.857 130.971 248.382 128.151C251.985 125.253 254.139 121.336 254.844 116.402H238.512V103.83Z" fill="black"/>
<path d="M306.122 113.582V132.146H344.424V147.655H288.381V65.4099H343.837V80.9189H306.122V98.7778H339.725V113.582H306.122Z" fill="black"/>
<path d="M393.652 147.655H375.441V81.2714H350.062V65.4099H418.913V81.2714H393.652V147.655Z" fill="black"/>
<path d="M456.943 149.065C447.23 149.065 439.162 146.871 432.739 142.485C426.395 138.099 422.282 131.754 420.403 123.451L437.321 121.219C438.966 125.37 441.473 128.425 444.841 130.383C448.209 132.263 452.086 133.203 456.473 133.203C460.546 133.203 463.796 132.42 466.225 130.853C468.731 129.287 469.984 126.976 469.984 123.921C469.984 121.885 469.24 120.201 467.752 118.869C466.264 117.459 464.384 116.362 462.112 115.579C459.841 114.796 456.708 113.895 452.713 112.877C446.76 111.31 441.904 109.744 438.144 108.177C434.384 106.532 431.134 104.065 428.392 100.775C425.651 97.4853 424.28 93.099 424.28 87.616C424.28 82.8379 425.572 78.6866 428.157 75.1618C430.742 71.5587 434.345 68.8172 438.966 66.9373C443.666 64.9791 448.992 64 454.945 64C463.64 64 470.807 66.0365 476.446 70.1096C482.164 74.1043 485.924 79.8223 487.726 87.2635L471.394 89.4959C469.044 82.603 463.561 79.1565 454.945 79.1565C451.264 79.1565 448.248 79.8615 445.898 81.2714C443.627 82.6813 442.491 84.7962 442.491 87.616C442.491 89.6525 443.235 91.3366 444.723 92.6681C446.212 93.9214 448.092 94.9397 450.363 95.723C452.635 96.4279 455.768 97.2504 459.763 98.1903C465.715 99.6002 470.611 101.088 474.449 102.655C478.287 104.143 481.577 106.532 484.318 109.822C487.138 113.112 488.548 117.577 488.548 123.216C488.548 131.441 485.728 137.824 480.089 142.367C474.449 146.832 466.734 149.065 456.943 149.065Z" fill="black"/>
<path d="M533.212 149.065C526.319 149.065 520.327 147.615 515.235 144.717C510.144 141.819 506.189 137.668 503.369 132.263C500.627 126.78 499.256 120.357 499.256 112.994V65.4099H517.468V112.407C517.468 118.908 518.839 123.882 521.58 127.328C524.322 130.697 528.199 132.381 533.212 132.381C538.225 132.381 542.102 130.697 544.844 127.328C547.585 123.882 548.956 118.908 548.956 112.407V65.4099H567.167V112.994C567.167 120.357 565.757 126.78 562.937 132.263C560.196 137.668 556.28 141.819 551.188 144.717C546.097 147.615 540.105 149.065 533.212 149.065Z" fill="black"/>
<path d="M313.836 11.1493H337.88V15.3839H313.836V11.1493ZM312.613 19.054H338.679V23.4298H312.613V19.054ZM322.917 8.5144H328.469V14.8193H322.917V8.5144ZM317.412 15.7604L321.929 14.8193C322.243 15.4153 322.541 16.0897 322.823 16.8425C323.105 17.5954 323.309 18.2541 323.435 18.8187L318.682 19.948C318.62 19.352 318.463 18.6619 318.212 17.8777C317.961 17.0935 317.694 16.3877 317.412 15.7604ZM329.41 14.6311L334.539 15.5251C334.1 16.372 333.676 17.1562 333.269 17.8777C332.892 18.5991 332.531 19.2422 332.186 19.8068L327.858 18.9128C328.14 18.2541 328.422 17.5326 328.704 16.7484C328.987 15.9329 329.222 15.2271 329.41 14.6311ZM319.718 34.0635V36.2278H331.857V34.0635H319.718ZM319.718 28.6996V30.8639H331.857V28.6996H319.718ZM315.012 25.2177H336.797V39.7097H315.012V25.2177ZM318.73 39.2391H324.046C323.89 40.933 323.607 42.4857 323.199 43.8972C322.823 45.3088 322.227 46.5792 321.411 47.7084C320.627 48.8063 319.529 49.7944 318.118 50.6727C316.738 51.551 314.95 52.3038 312.754 52.9312C312.597 52.4606 312.346 51.9588 312.001 51.4255C311.687 50.8923 311.327 50.359 310.919 49.8258C310.543 49.2925 310.182 48.8847 309.837 48.6024C312.252 48.0064 314.056 47.3007 315.248 46.4851C316.471 45.6382 317.318 44.6187 317.789 43.4267C318.259 42.2348 318.573 40.8389 318.73 39.2391ZM297.98 20.3244H311.578V25.0295H297.98V20.3244ZM295.815 28.4643H312.989V33.2165H295.815V28.4643ZM296.192 35.8985L299.815 34.9574C300.191 36.2749 300.536 37.7021 300.85 39.2391C301.164 40.7448 301.367 42.0466 301.462 43.1444L297.65 44.1796C297.619 43.019 297.462 41.6858 297.18 40.1802C296.898 38.6431 296.568 37.2159 296.192 35.8985ZM295.204 46.6262C296.772 46.4067 298.544 46.1244 300.521 45.7793C302.497 45.4343 304.583 45.0735 306.778 44.6971C309.006 44.2893 311.217 43.8816 313.413 43.4738L313.836 48.1789C310.793 48.8063 307.719 49.4337 304.614 50.061C301.54 50.6884 298.764 51.253 296.286 51.7549L295.204 46.6262ZM309.225 34.6281L313.272 35.5691C312.895 36.9179 312.503 38.2824 312.095 39.6626C311.719 41.0428 311.358 42.2191 311.013 43.1915L307.578 42.2975C307.798 41.576 308.002 40.7605 308.19 39.8508C308.41 38.9411 308.613 38.0315 308.802 37.1218C308.99 36.1808 309.131 35.3495 309.225 34.6281ZM302.167 22.2064H307.061V47.5202L302.167 48.4142V22.2064ZM326.681 39.3803H331.904V46.8615C331.904 47.5202 331.951 47.8966 332.045 47.9907C332.202 48.1476 332.422 48.226 332.704 48.226C332.829 48.226 332.986 48.226 333.174 48.226C333.363 48.226 333.519 48.226 333.645 48.226C333.77 48.226 333.896 48.2103 334.021 48.1789C334.178 48.1476 334.304 48.1162 334.398 48.0848C334.586 47.9594 334.743 47.63 334.868 47.0968C334.931 46.7831 334.962 46.3126 334.962 45.6852C334.994 45.0265 335.009 44.2737 335.009 43.4267C335.511 43.8345 336.186 44.2737 337.033 44.7442C337.911 45.1833 338.711 45.5127 339.432 45.7323C339.338 46.6419 339.228 47.5202 339.103 48.3672C339.009 49.2141 338.883 49.8414 338.726 50.2492C338.507 50.7197 338.24 51.0961 337.927 51.3785C337.644 51.6608 337.284 51.9117 336.844 52.1313C336.499 52.2881 336.06 52.3979 335.527 52.4607C335.025 52.5234 334.555 52.5548 334.115 52.5548C333.833 52.5548 333.519 52.5548 333.174 52.5548C332.861 52.5548 332.531 52.5548 332.186 52.5548C331.873 52.5548 331.59 52.5548 331.339 52.5548C330.775 52.5548 330.163 52.4606 329.504 52.2724C328.846 52.0842 328.312 51.8019 327.905 51.4255C327.497 51.0177 327.183 50.4845 326.964 49.8258C326.775 49.1984 326.681 48.1633 326.681 46.7203V39.3803ZM301.932 8.56146H304.896V9.64364H306.496V11.1022C305.586 12.8588 304.379 14.8821 302.873 17.1719C301.367 19.4304 299.454 21.6104 297.133 23.7121C296.913 23.3357 296.6 22.9122 296.192 22.4417C295.784 21.9712 295.361 21.5163 294.921 21.0772C294.514 20.638 294.122 20.293 293.745 20.0421C295.094 18.9128 296.286 17.7052 297.321 16.4191C298.356 15.1016 299.266 13.7685 300.05 12.4197C300.834 11.0709 301.462 9.7848 301.932 8.56146ZM302.685 8.56146H306.59C307.5 9.34565 308.457 10.2239 309.46 11.1963C310.496 12.1374 311.452 13.0941 312.331 14.0665C313.24 15.0075 313.977 15.8858 314.542 16.7014L310.919 21.0301C310.448 20.2146 309.805 19.2892 308.99 18.2541C308.174 17.1876 307.296 16.1525 306.355 15.1487C305.414 14.1449 304.504 13.2823 303.626 12.5608H302.685V8.56146Z" fill="#264172"/>
<path d="M353.36 21.83L358.959 23.5709C357.892 25.7667 356.637 27.8997 355.195 29.97C353.752 32.0402 352.215 33.9693 350.584 35.7573C348.984 37.5453 347.368 39.098 345.737 40.4154C345.392 40.039 344.937 39.5999 344.373 39.098C343.808 38.5961 343.228 38.1099 342.632 37.6394C342.036 37.1375 341.518 36.7297 341.079 36.416C342.71 35.2868 344.294 33.9537 345.831 32.4166C347.368 30.8796 348.78 29.2014 350.066 27.3821C351.352 25.5628 352.45 23.7121 353.36 21.83ZM364.181 22.677H369.734V44.4619C369.734 45.497 369.875 46.1557 370.157 46.438C370.439 46.7203 371.098 46.8615 372.133 46.8615C372.384 46.8615 372.792 46.8615 373.357 46.8615C373.921 46.8615 374.533 46.8615 375.192 46.8615C375.85 46.8615 376.462 46.8615 377.027 46.8615C377.623 46.8615 378.046 46.8615 378.297 46.8615C378.956 46.8615 379.458 46.689 379.803 46.3439C380.148 45.9675 380.383 45.2931 380.508 44.3207C380.665 43.3169 380.791 41.8427 380.885 39.8979C381.324 40.2115 381.841 40.5252 382.437 40.8389C383.033 41.1212 383.645 41.3721 384.272 41.5917C384.931 41.8113 385.512 41.9995 386.013 42.1563C385.794 44.6658 385.433 46.6576 384.931 48.1319C384.461 49.5748 383.739 50.5943 382.767 51.1903C381.794 51.7862 380.477 52.0842 378.815 52.0842C378.564 52.0842 378.187 52.0842 377.685 52.0842C377.183 52.0842 376.619 52.0842 375.991 52.0842C375.395 52.0842 374.784 52.0842 374.156 52.0842C373.56 52.0842 373.011 52.0842 372.51 52.0842C372.039 52.0842 371.678 52.0842 371.427 52.0842C369.514 52.0842 368.024 51.8647 366.957 51.4255C365.922 50.9864 365.201 50.2022 364.793 49.0729C364.385 47.9751 364.181 46.438 364.181 44.4619V22.677ZM380.038 25.9235L384.32 30.2052C382.751 31.1776 381.057 32.1187 379.238 33.0283C377.419 33.9066 375.568 34.7535 373.686 35.5691C371.804 36.3533 369.969 37.0904 368.181 37.7805C367.993 37.1845 367.71 36.4788 367.334 35.6632C366.957 34.8476 366.581 34.1576 366.205 33.5929C367.899 32.9028 369.577 32.1343 371.239 31.2874C372.933 30.4091 374.533 29.5151 376.038 28.6055C377.575 27.6644 378.909 26.7704 380.038 25.9235ZM342.914 12.5608H384.79V17.9718H342.914V12.5608ZM353.36 8.56146H358.959V22.3476H353.36V8.56146ZM368.934 8.56146H374.533V22.4417H368.934V8.56146ZM349.878 31.7109L355.477 26.1588V52.79H349.878V31.7109Z" fill="#264172"/>
<path d="M389.825 20.1362H402.905V25.8294H389.825V20.1362ZM408.081 8.60851H414.103V45.45C414.103 47.1438 413.899 48.4613 413.492 49.4023C413.084 50.3433 412.378 51.0648 411.374 51.5667C410.37 52.0686 409.084 52.3979 407.516 52.5548C405.979 52.743 404.128 52.8371 401.964 52.8371C401.901 52.2411 401.744 51.551 401.493 50.7668C401.274 50.014 401.007 49.2611 400.694 48.5083C400.38 47.7241 400.066 47.0654 399.752 46.5321C401.29 46.5949 402.732 46.6262 404.081 46.6262C405.43 46.6262 406.34 46.6262 406.81 46.6262C407.281 46.6262 407.61 46.5321 407.798 46.3439C407.987 46.1557 408.081 45.8577 408.081 45.45V8.60851ZM400.976 20.1362H402.152L403.187 19.9009L407.045 21.3125C406.355 25.6098 405.32 29.5151 403.94 33.0283C402.591 36.5415 400.992 39.6312 399.141 42.2975C397.321 44.9324 395.283 47.0811 393.024 48.7436C392.71 48.2731 392.271 47.7555 391.707 47.1909C391.142 46.5949 390.546 46.0303 389.919 45.497C389.323 44.9638 388.789 44.556 388.319 44.2737C390.483 42.7994 392.412 40.9487 394.106 38.7216C395.8 36.4631 397.227 33.8752 398.388 30.958C399.58 28.0095 400.443 24.81 400.976 21.3595V20.1362ZM413.727 15.478C414.48 18.6148 415.436 21.6261 416.597 24.512C417.789 27.3978 419.185 30.0954 420.785 32.6048C422.384 35.1143 424.235 37.3571 426.337 39.3332C428.47 41.278 430.854 42.8778 433.489 44.1325C433.018 44.5089 432.5 44.9951 431.936 45.5911C431.371 46.1871 430.838 46.8301 430.336 47.5202C429.866 48.1789 429.458 48.7906 429.113 49.3552C425.474 47.285 422.384 44.6187 419.844 41.3565C417.303 38.0628 415.185 34.2987 413.492 30.0641C411.798 25.8294 410.386 21.2811 409.257 16.4191L413.727 15.478ZM426.948 15.9486L432.265 19.6656C430.916 21.0458 429.489 22.4731 427.983 23.9473C426.478 25.4216 424.972 26.8175 423.467 28.1349C421.992 29.4524 420.596 30.5973 419.279 31.5697L415.185 28.4173C416.472 27.3507 417.82 26.1117 419.232 24.7002C420.675 23.2886 422.071 21.83 423.419 20.3244C424.768 18.7873 425.945 17.3287 426.948 15.9486Z" fill="#264172"/>
<path d="M447.133 10.8199H470.612V16.325H447.133V10.8199ZM447.181 22.0653H470.848V27.4292H447.181V22.0653ZM446.898 33.1695H470.518V38.6745H446.898V33.1695ZM443.228 10.8199H449.063V26.394C449.063 28.4329 448.937 30.6287 448.686 32.9813C448.467 35.3338 448.043 37.7178 447.416 40.1331C446.788 42.5484 445.863 44.8383 444.64 47.0027C443.416 49.167 441.801 51.0961 439.793 52.79C439.511 52.3822 439.103 51.9117 438.57 51.3785C438.068 50.8452 437.519 50.3276 436.923 49.8258C436.359 49.3239 435.857 48.9475 435.418 48.6965C437.206 47.1909 438.617 45.5284 439.652 43.709C440.719 41.8583 441.503 39.9449 442.005 37.9687C442.538 35.9926 442.867 34.0164 442.993 32.0402C443.15 30.0641 443.228 28.1663 443.228 26.347V10.8199ZM467.977 10.8199H474V45.5911C474 47.285 473.765 48.5867 473.294 49.4964C472.855 50.4061 472.087 51.0961 470.989 51.5667C469.859 52.0686 468.448 52.3665 466.754 52.4607C465.06 52.5861 462.99 52.6489 460.543 52.6489C460.418 52.0842 460.23 51.4412 459.979 50.7197C459.728 49.9983 459.445 49.2768 459.132 48.5554C458.818 47.8339 458.504 47.2222 458.191 46.7203C459.289 46.7831 460.402 46.8301 461.531 46.8615C462.692 46.8615 463.711 46.8615 464.59 46.8615C465.499 46.8615 466.142 46.8615 466.519 46.8615C467.052 46.8615 467.428 46.7674 467.648 46.5792C467.868 46.3596 467.977 45.9989 467.977 45.497V10.8199Z" fill="#264172"/>
</svg>
