<svg width="1920" height="1080" viewBox="0 0 1920 1080" fill="none" xmlns="http://www.w3.org/2000/svg">
<g opacity="0.5">
<rect x="177.252" y="254.252" width="94.3289" height="94.3289" stroke="black" stroke-width="0.504433"/>
<rect x="177.252" y="349.085" width="94.3289" height="94.3289" stroke="black" stroke-width="0.504433"/>
<rect x="177.252" y="443.919" width="94.3289" height="94.3289" stroke="black" stroke-width="0.504433"/>
<rect x="272.085" y="254.252" width="94.3289" height="94.3289" stroke="black" stroke-width="0.504433"/>
<rect x="272.085" y="349.085" width="94.3289" height="94.3289" stroke="black" stroke-width="0.504433"/>
<rect x="272.085" y="443.919" width="94.3289" height="94.3289" stroke="black" stroke-width="0.504433"/>
<rect x="366.919" y="254.252" width="94.3289" height="94.3289" stroke="black" stroke-width="0.504433"/>
<rect x="366.919" y="349.085" width="94.3289" height="94.3289" stroke="black" stroke-width="0.504433"/>
<rect x="366.919" y="443.919" width="94.3289" height="94.3289" stroke="black" stroke-width="0.504433"/>
<path d="M460.639 443.666L366.666 538.143L271.686 443.666L366.666 349.19L460.639 443.666Z" stroke="black" stroke-width="0.504433"/>
<path d="M271.834 537.995L177.505 443.667L366.667 255.009L460.996 348.833" stroke="black" stroke-width="0.504433"/>
<path d="M271.834 443.667L177.505 537.995" stroke="black" stroke-width="0.504433"/>
<path d="M366.667 443.667L177.505 254.504" stroke="black" stroke-width="0.504433"/>
<rect x="221.39" y="445.684" width="2.01773" height="2.01773" fill="black"/>
<rect x="221.39" y="534.464" width="2.01773" height="2.01773" fill="black"/>
<rect x="316.224" y="439.631" width="2.01773" height="2.01773" fill="black"/>
<rect x="316.224" y="350.851" width="2.01773" height="2.01773" fill="black"/>
<rect x="225.426" y="445.684" width="2.01773" height="2.01773" fill="black"/>
<rect x="225.426" y="534.464" width="2.01773" height="2.01773" fill="black"/>
<rect x="320.259" y="439.631" width="2.01773" height="2.01773" fill="black"/>
<rect x="320.259" y="350.851" width="2.01773" height="2.01773" fill="black"/>
</g>
<g opacity="0.5">
<rect x="461.752" y="159.252" width="94.3289" height="94.3289" stroke="black" stroke-width="0.504433"/>
<rect x="461.752" y="254.086" width="94.3289" height="94.3289" stroke="black" stroke-width="0.504433"/>
<rect x="461.752" y="348.919" width="94.3289" height="94.3289" stroke="black" stroke-width="0.504433"/>
<rect x="556.585" y="159.252" width="94.3289" height="94.3289" stroke="black" stroke-width="0.504433"/>
<rect x="556.585" y="254.086" width="94.3289" height="94.3289" stroke="black" stroke-width="0.504433"/>
<rect x="556.585" y="348.919" width="94.3289" height="94.3289" stroke="black" stroke-width="0.504433"/>
<rect x="651.419" y="159.252" width="94.3289" height="94.3289" stroke="black" stroke-width="0.504433"/>
<rect x="651.419" y="254.086" width="94.3289" height="94.3289" stroke="black" stroke-width="0.504433"/>
<rect x="651.419" y="348.919" width="94.3289" height="94.3289" stroke="black" stroke-width="0.504433"/>
<path d="M745.139 348.667L651.166 443.143L556.186 348.667L651.166 254.19L745.139 348.667Z" stroke="black" stroke-width="0.504433"/>
<path d="M556.334 442.996L462.005 348.667L651.167 160.009L745.496 253.834" stroke="black" stroke-width="0.504433"/>
<path d="M556.334 348.667L462.005 442.996" stroke="black" stroke-width="0.504433"/>
<path d="M651.167 348.667L462.005 159.504" stroke="black" stroke-width="0.504433"/>
<rect x="505.89" y="350.685" width="2.01773" height="2.01773" fill="black"/>
<rect x="505.89" y="439.465" width="2.01773" height="2.01773" fill="black"/>
<rect x="600.724" y="344.631" width="2.01773" height="2.01773" fill="black"/>
<rect x="600.724" y="255.851" width="2.01773" height="2.01773" fill="black"/>
<rect x="509.926" y="350.685" width="2.01773" height="2.01773" fill="black"/>
<rect x="509.926" y="439.465" width="2.01773" height="2.01773" fill="black"/>
<rect x="604.759" y="344.631" width="2.01773" height="2.01773" fill="black"/>
<rect x="604.759" y="255.851" width="2.01773" height="2.01773" fill="black"/>
</g>
<g opacity="0.25">
<rect x="24" y="944" width="944" height="3" transform="rotate(-90 24 944)" fill="black"/>
<rect x="31" y="926.667" width="22.6667" height="3" transform="rotate(-90 31 926.667)" fill="black"/>
<rect x="31" y="894.667" width="97.3333" height="3" transform="rotate(-90 31 894.667)" fill="black"/>
<rect x="31" y="329.333" width="253.333" height="3" transform="rotate(-90 31 329.333)" fill="black"/>
<rect x="31" y="777.333" width="20" height="3" transform="rotate(-90 31 777.333)" fill="black"/>
<rect x="31" y="742.667" width="20" height="3" transform="rotate(-90 31 742.667)" fill="black"/>
<rect x="31" y="709.333" width="20" height="3" transform="rotate(-90 31 709.333)" fill="black"/>
<rect x="31" y="674.667" width="20" height="3" transform="rotate(-90 31 674.667)" fill="black"/>
<rect x="31" y="581.333" width="5.33333" height="3" transform="rotate(-90 31 581.333)" fill="black"/>
<rect x="31" y="568" width="5.33333" height="3" transform="rotate(-90 31 568)" fill="black"/>
<rect x="31" y="533.333" width="5.33333" height="3" transform="rotate(-90 31 533.333)" fill="black"/>
<rect x="31" y="500" width="5.33333" height="3" transform="rotate(-90 31 500)" fill="black"/>
<rect x="31" y="8" width="5.33333" height="3" transform="rotate(-90 31 8)" fill="black"/>
<rect x="31" y="465.333" width="5.33333" height="3" transform="rotate(-90 31 465.333)" fill="black"/>
<rect x="31" y="432" width="5.33333" height="3" transform="rotate(-90 31 432)" fill="black"/>
<rect x="31" y="397.333" width="5.33333" height="3" transform="rotate(-90 31 397.333)" fill="black"/>
<rect x="31" y="364" width="5.33333" height="3" transform="rotate(-90 31 364)" fill="black"/>
</g>
</svg>
