<svg width="399" height="70" viewBox="0 0 399 70" fill="none" xmlns="http://www.w3.org/2000/svg">
<path d="M2.256 4.36459H1.08771V3.19631L1.61143 0.900025H2.23585V1.14174L1.45028 3.19631H2.256V4.36459ZM4.53213 4.36459H3.36385V3.19631L3.88756 0.900025H4.51199V1.14174L3.72642 3.19631H4.53213V4.36459ZM8.16382 15H7.55954V0.900025H8.16382V15ZM16.1807 0.900025L9.05011 7.80901L16.8857 15H16.0195L8.22425 7.82916L15.3951 0.900025H16.1807ZM21.1633 14.4561L24.6078 5.10987H25.1919L20.0958 19.0286H19.5116L20.9821 15H20.3778L16.5909 5.10987H17.2153L20.7806 14.4561H21.1633ZM30.6934 15.2014C29.834 15.2014 29.0686 14.9866 28.3971 14.5569C27.7391 14.1137 27.2221 13.5027 26.8461 12.7239C26.4836 11.9316 26.3023 11.0386 26.3023 10.0449C26.3023 9.05115 26.4836 8.16487 26.8461 7.38601C27.2221 6.60716 27.7391 6.00287 28.3971 5.57316C29.0686 5.13002 29.834 4.90845 30.6934 4.90845C31.5528 4.90845 32.3183 5.13002 32.9897 5.57316C33.6611 6.00287 34.1781 6.60716 34.5407 7.38601C34.9167 8.16487 35.1047 9.05115 35.1047 10.0449C35.1047 11.0386 34.9167 11.9316 34.5407 12.7239C34.1781 13.5027 33.6611 14.1137 32.9897 14.5569C32.3183 14.9866 31.5528 15.2014 30.6934 15.2014ZM30.6934 14.6374C31.4454 14.6374 32.1101 14.4427 32.6875 14.0533C33.265 13.6639 33.7081 13.1267 34.017 12.4419C34.3393 11.7436 34.5004 10.9446 34.5004 10.0449C34.5004 9.15858 34.3393 8.3663 34.017 7.66801C33.7081 6.96973 33.265 6.42587 32.6875 6.03644C32.1101 5.64702 31.4454 5.4523 30.6934 5.4523C29.9414 5.4523 29.2767 5.64702 28.6993 6.03644C28.1218 6.42587 27.672 6.96973 27.3497 7.66801C27.0408 8.3663 26.8864 9.15858 26.8864 10.0449C26.8864 10.9446 27.0408 11.7436 27.3497 12.4419C27.672 13.1267 28.1218 13.6639 28.6993 14.0533C29.2767 14.4427 29.9414 14.6374 30.6934 14.6374ZM40.7497 15.2014C39.7829 15.2014 39.0107 14.8389 38.4333 14.1137C37.8693 13.3751 37.5873 12.368 37.5873 11.0923V5.10987H38.1916V11.0721C38.1916 12.1867 38.4266 13.0596 38.8966 13.6907C39.3666 14.3219 40.0044 14.6374 40.8101 14.6374C41.4681 14.6374 42.0791 14.4427 42.6431 14.0533C43.2071 13.6639 43.657 13.1401 43.9927 12.4821C44.3284 11.8241 44.4963 11.1259 44.4963 10.3873V5.10987H45.1006V15H44.5164V12.5023H44.4157C44.0263 13.3483 43.5093 14.013 42.8647 14.4964C42.2336 14.9664 41.5286 15.2014 40.7497 15.2014ZM49.0742 15H48.4699V0.900025H49.0742V15ZM55.1573 5.10987L49.9202 9.8233L55.7415 15H54.9156L49.1346 9.84344L54.3516 5.10987H55.1573ZM65.1587 14.4763V15H64.6149C64.2389 15 63.93 14.8791 63.6883 14.6374C63.46 14.3957 63.3459 14.06 63.3459 13.6303V12.4821H63.2452C62.8826 13.3416 62.3589 14.013 61.674 14.4964C61.0026 14.9664 60.264 15.2014 59.4583 15.2014C58.5989 15.2014 57.8737 14.9463 57.2829 14.436C56.692 13.9123 56.3966 13.2341 56.3966 12.4016C56.3966 11.8107 56.551 11.287 56.8599 10.8304C57.1687 10.3739 57.5917 10.018 58.1289 9.76287C58.6794 9.50772 59.2904 9.38015 59.9619 9.38015H63.3056V8.63487C63.3056 7.68144 63.0437 6.91601 62.52 6.33859C61.9963 5.74773 61.2712 5.4523 60.3446 5.4523C59.606 5.4523 58.9749 5.65373 58.4512 6.05659C57.9274 6.45944 57.5582 7.02344 57.3433 7.74858L56.7793 7.66801C57.021 6.82201 57.444 6.15059 58.0483 5.65373C58.666 5.15687 59.4314 4.90845 60.3446 4.90845C61.4457 4.90845 62.3119 5.25759 62.943 5.95587C63.5742 6.64073 63.8897 7.53373 63.8897 8.63487V13.59C63.8897 13.872 63.9569 14.0936 64.0912 14.2547C64.2389 14.4024 64.4336 14.4763 64.6753 14.4763H65.1587ZM59.4784 14.6374C60.1902 14.6374 60.8347 14.4427 61.4122 14.0533C62.003 13.6639 62.4663 13.1469 62.802 12.5023C63.1377 11.8443 63.3056 11.1393 63.3056 10.3873V9.94415H59.982C59.1226 9.94415 58.4042 10.1724 57.8267 10.629C57.2627 11.0856 56.9807 11.6764 56.9807 12.4016C56.9807 13.073 57.2157 13.6169 57.6857 14.0331C58.1557 14.436 58.7533 14.6374 59.4784 14.6374ZM75.6144 15.2014C74.3118 15.2014 73.204 14.8724 72.2909 14.2144C71.3777 13.543 70.7667 12.5829 70.4579 11.334L71.042 11.2131C71.3106 12.3411 71.8477 13.1939 72.6534 13.7713C73.4726 14.3353 74.4596 14.6173 75.6144 14.6173C76.823 14.6173 77.7697 14.3219 78.4546 13.731C79.1394 13.1267 79.4818 12.3277 79.4818 11.334C79.4818 10.6223 79.3006 10.0583 78.938 9.64201C78.5754 9.2123 78.1256 8.89001 77.5884 8.67515C77.0647 8.4603 76.353 8.23201 75.4533 7.9903C74.4998 7.73516 73.7411 7.49344 73.1771 7.26516C72.6131 7.02344 72.1364 6.66759 71.747 6.19759C71.3576 5.71416 71.1629 5.06959 71.1629 4.26388C71.1629 3.56559 71.3441 2.94788 71.7067 2.41074C72.0693 1.86017 72.5728 1.43717 73.2174 1.14174C73.862 0.846311 74.5938 0.698597 75.413 0.698597C76.5947 0.698597 77.5683 1.00074 78.3337 1.60502C79.1126 2.19588 79.6363 3.04859 79.9048 4.16316L79.3207 4.28402C79.0924 3.30374 78.6426 2.55845 77.9711 2.04817C77.2997 1.53788 76.447 1.28274 75.413 1.28274C74.3387 1.28274 73.4591 1.55802 72.7743 2.10859C72.1029 2.64574 71.7671 3.36416 71.7671 4.26388C71.7671 4.94873 71.9417 5.4993 72.2909 5.91559C72.64 6.31844 73.0764 6.6273 73.6001 6.84216C74.1238 7.04359 74.8221 7.25173 75.695 7.46658C76.6618 7.72173 77.434 7.97016 78.0114 8.21187C78.5888 8.45358 79.079 8.82287 79.4818 9.31972C79.8847 9.81658 80.0861 10.488 80.0861 11.334C80.0861 12.4889 79.6833 13.4221 78.8776 14.1339C78.0853 14.8456 76.9976 15.2014 75.6144 15.2014ZM85.835 15.2014C84.8682 15.2014 84.096 14.8389 83.5186 14.1137C82.9546 13.3751 82.6726 12.368 82.6726 11.0923V5.10987H83.2769V11.0721C83.2769 12.1867 83.5119 13.0596 83.9819 13.6907C84.4519 14.3219 85.0897 14.6374 85.8954 14.6374C86.5534 14.6374 87.1644 14.4427 87.7284 14.0533C88.2924 13.6639 88.7423 13.1401 89.078 12.4821C89.4137 11.8241 89.5816 11.1259 89.5816 10.3873V5.10987H90.1859V15H89.6017V12.5023H89.501C89.1116 13.3483 88.5946 14.013 87.95 14.4964C87.3189 14.9664 86.6139 15.2014 85.835 15.2014ZM94.1394 15H93.5552V5.10987H94.1394V15ZM94.3206 2.93445H93.3941V1.90717H94.3206V2.93445ZM101.273 19.0286C100.212 19.0286 99.2989 18.7533 98.5335 18.2027C97.7681 17.6656 97.2645 16.927 97.0228 15.987L97.5868 15.8863C97.7882 16.692 98.2179 17.3231 98.8759 17.7797C99.5473 18.2363 100.346 18.4646 101.273 18.4646C102.428 18.4646 103.327 18.102 103.972 17.3769C104.617 16.6517 104.939 15.6177 104.939 14.2749V12.0994H104.838C104.462 12.9723 103.938 13.6437 103.267 14.1137C102.596 14.5703 101.85 14.7986 101.031 14.7986C100.239 14.7986 99.5205 14.5904 98.8759 14.1741C98.2448 13.7444 97.7479 13.1536 97.3853 12.4016C97.0228 11.6496 96.8415 10.7969 96.8415 9.84344C96.8415 8.90344 97.0228 8.05744 97.3853 7.30544C97.7479 6.55344 98.2448 5.9693 98.8759 5.55302C99.5205 5.1233 100.239 4.90845 101.031 4.90845C101.85 4.90845 102.596 5.14345 103.267 5.61345C103.938 6.07002 104.469 6.73473 104.858 7.60758H104.959V5.10987H105.543V14.2749C105.543 15.7789 105.16 16.9471 104.395 17.7797C103.643 18.6123 102.602 19.0286 101.273 19.0286ZM101.071 14.2346C101.797 14.2346 102.455 14.0399 103.045 13.6504C103.636 13.261 104.1 12.7306 104.435 12.0591C104.771 11.3877 104.939 10.6492 104.939 9.84344C104.939 9.03772 104.771 8.29915 104.435 7.62773C104.1 6.9563 103.636 6.42587 103.045 6.03644C102.455 5.64702 101.797 5.4523 101.071 5.4523C100.373 5.4523 99.7488 5.6403 99.1982 6.0163C98.6476 6.3923 98.2112 6.91601 97.8889 7.58744C97.5801 8.25887 97.4256 9.01087 97.4256 9.84344C97.4256 10.6894 97.5801 11.4481 97.8889 12.1196C98.2112 12.7776 98.6476 13.2946 99.1982 13.6706C99.7488 14.0466 100.373 14.2346 101.071 14.2346ZM116.714 9.66215C116.714 9.80987 116.694 9.96429 116.653 10.1254H108.697C108.724 11.4817 109.086 12.5761 109.785 13.4087C110.496 14.2279 111.436 14.6374 112.605 14.6374C113.397 14.6374 114.055 14.4494 114.579 14.0734C115.116 13.684 115.539 13.1737 115.848 12.5426L116.412 12.6433C116.076 13.4356 115.586 14.06 114.941 14.5166C114.297 14.9731 113.518 15.2014 112.605 15.2014C111.718 15.2014 110.933 14.9866 110.248 14.5569C109.577 14.1137 109.053 13.5027 108.677 12.7239C108.301 11.9316 108.113 11.0386 108.113 10.0449C108.113 9.05115 108.294 8.16487 108.657 7.38601C109.033 6.60716 109.543 6.00287 110.188 5.57316C110.846 5.13002 111.598 4.90845 112.444 4.90845C113.263 4.90845 113.995 5.10987 114.639 5.51273C115.297 5.91559 115.807 6.47959 116.17 7.20473C116.533 7.91644 116.714 8.73558 116.714 9.66215ZM112.444 5.4523C111.396 5.4523 110.53 5.83502 109.845 6.60044C109.174 7.35244 108.798 8.34615 108.717 9.58158H116.15C116.096 8.3193 115.727 7.31887 115.042 6.5803C114.371 5.8283 113.504 5.4523 112.444 5.4523ZM122.187 15C121.448 15 120.898 14.812 120.535 14.436C120.186 14.06 120.012 13.4624 120.012 12.6433V5.65373H117.655V5.10987H120.012L120.132 2.28988H120.616V5.10987H123.96V5.65373H120.616V12.6433C120.616 13.2879 120.737 13.7511 120.978 14.0331C121.234 14.3017 121.65 14.436 122.227 14.436H124.06V15H122.187ZM128.969 15.2014C127.948 15.2014 127.089 14.953 126.39 14.4561C125.692 13.9593 125.236 13.2543 125.021 12.3411L125.585 12.2404C125.732 12.979 126.108 13.5631 126.713 13.9929C127.317 14.4226 128.069 14.6374 128.969 14.6374C129.855 14.6374 130.553 14.4293 131.064 14.013C131.574 13.5967 131.829 13.0461 131.829 12.3613C131.829 11.8779 131.695 11.4951 131.426 11.2131C131.171 10.9312 130.842 10.723 130.439 10.5887C130.036 10.441 129.513 10.3 128.868 10.1657C128.143 10.0046 127.559 9.84344 127.116 9.6823C126.672 9.52115 126.296 9.26601 125.988 8.91687C125.679 8.5543 125.524 8.07087 125.524 7.46658C125.524 6.68773 125.833 6.07002 126.451 5.61345C127.069 5.14345 127.841 4.90845 128.767 4.90845C129.667 4.90845 130.432 5.13673 131.064 5.5933C131.708 6.03644 132.124 6.69444 132.312 7.5673L131.748 7.64787C131.628 6.96301 131.292 6.42587 130.741 6.03644C130.204 5.64702 129.546 5.4523 128.767 5.4523C128.015 5.4523 127.384 5.63359 126.874 5.99616C126.364 6.35873 126.108 6.84887 126.108 7.46658C126.108 7.95001 126.236 8.33273 126.491 8.61473C126.76 8.8833 127.089 9.09144 127.478 9.23915C127.881 9.37344 128.411 9.50772 129.069 9.64201C129.808 9.81658 130.392 9.98444 130.822 10.1456C131.265 10.3067 131.641 10.5686 131.95 10.9312C132.259 11.2803 132.413 11.757 132.413 12.3613C132.413 13.2341 132.098 13.9257 131.466 14.436C130.835 14.9463 130.003 15.2014 128.969 15.2014ZM137.943 15.2014C136.976 15.2014 136.204 14.8389 135.626 14.1137C135.062 13.3751 134.78 12.368 134.78 11.0923V5.10987H135.385V11.0721C135.385 12.1867 135.62 13.0596 136.09 13.6907C136.56 14.3219 137.197 14.6374 138.003 14.6374C138.661 14.6374 139.272 14.4427 139.836 14.0533C140.4 13.6639 140.85 13.1401 141.186 12.4821C141.521 11.8241 141.689 11.1259 141.689 10.3873V5.10987H142.294V15H141.709V12.5023H141.609C141.219 13.3483 140.702 14.013 140.058 14.4964C139.427 14.9664 138.722 15.2014 137.943 15.2014ZM145.643 4.36459H145.018V4.12288L145.824 2.08845H145.018V0.900025H146.187V2.08845L145.643 4.36459ZM147.919 4.36459H147.295V4.12288L148.1 2.08845H147.295V0.900025H148.463V2.08845L147.919 4.36459ZM160.113 19.2501C158.958 18.0013 158.065 16.5577 157.434 14.9194C156.803 13.2677 156.487 11.5489 156.487 9.76287C156.487 7.97687 156.803 6.26473 157.434 4.62645C158.065 2.97474 158.958 1.52445 160.113 0.275598L160.556 0.57774C158.246 3.25002 157.091 6.31173 157.091 9.76287C157.091 13.214 158.246 16.2757 160.556 18.948L160.113 19.2501ZM163.484 15H162.88V0.900025H163.826L169.527 14.295H169.627L175.348 0.900025H176.275V15H175.67V1.78631H175.57L169.93 15H169.225L163.585 1.78631H163.484V15ZM180.533 15H179.949V5.10987H180.533V15ZM180.714 2.93445H179.788V1.90717H180.714V2.93445ZM183.92 15V5.10987H184.504V7.60758H184.605C184.968 6.80187 185.438 6.18416 186.015 5.75445C186.592 5.32473 187.271 5.10987 188.049 5.10987H188.956V5.67387H187.949C187.304 5.67387 186.72 5.86859 186.196 6.25802C185.673 6.63401 185.263 7.13087 184.968 7.74858C184.672 8.3663 184.524 9.0243 184.524 9.72258V15H183.92ZM190.687 15V5.10987H191.271V7.60758H191.372C191.734 6.80187 192.204 6.18416 192.782 5.75445C193.359 5.32473 194.037 5.10987 194.816 5.10987H195.723V5.67387H194.715C194.071 5.67387 193.487 5.86859 192.963 6.25802C192.439 6.63401 192.03 7.13087 191.734 7.74858C191.439 8.3663 191.291 9.0243 191.291 9.72258V15H190.687ZM200.963 15.2014C200.104 15.2014 199.338 14.9866 198.667 14.5569C198.009 14.1137 197.492 13.5027 197.116 12.7239C196.753 11.9316 196.572 11.0386 196.572 10.0449C196.572 9.05115 196.753 8.16487 197.116 7.38601C197.492 6.60716 198.009 6.00287 198.667 5.57316C199.338 5.13002 200.104 4.90845 200.963 4.90845C201.823 4.90845 202.588 5.13002 203.259 5.57316C203.931 6.00287 204.448 6.60716 204.81 7.38601C205.186 8.16487 205.374 9.05115 205.374 10.0449C205.374 11.0386 205.186 11.9316 204.81 12.7239C204.448 13.5027 203.931 14.1137 203.259 14.5569C202.588 14.9866 201.823 15.2014 200.963 15.2014ZM200.963 14.6374C201.715 14.6374 202.38 14.4427 202.957 14.0533C203.535 13.6639 203.978 13.1267 204.287 12.4419C204.609 11.7436 204.77 10.9446 204.77 10.0449C204.77 9.15858 204.609 8.3663 204.287 7.66801C203.978 6.96973 203.535 6.42587 202.957 6.03644C202.38 5.64702 201.715 5.4523 200.963 5.4523C200.211 5.4523 199.546 5.64702 198.969 6.03644C198.392 6.42587 197.942 6.96973 197.619 7.66801C197.311 8.3663 197.156 9.15858 197.156 10.0449C197.156 10.9446 197.311 11.7436 197.619 12.4419C197.942 13.1267 198.392 13.6639 198.969 14.0533C199.546 14.4427 200.211 14.6374 200.963 14.6374ZM207.958 15V5.10987H208.542V7.60758H208.643C209.005 6.80187 209.475 6.18416 210.053 5.75445C210.63 5.32473 211.308 5.10987 212.087 5.10987H212.993V5.67387H211.986C211.342 5.67387 210.758 5.86859 210.234 6.25802C209.71 6.63401 209.301 7.13087 209.005 7.74858C208.71 8.3663 208.562 9.0243 208.562 9.72258V15H207.958ZM227.466 0.900025V1.48417H220.214V7.66801H226.781V8.23201H220.214V15H219.61V0.900025H227.466ZM230.615 15H230.011V0.900025H230.615V15ZM237.688 15.2014C236.829 15.2014 236.064 14.9866 235.392 14.5569C234.734 14.1137 234.217 13.5027 233.841 12.7239C233.479 11.9316 233.297 11.0386 233.297 10.0449C233.297 9.05115 233.479 8.16487 233.841 7.38601C234.217 6.60716 234.734 6.00287 235.392 5.57316C236.064 5.13002 236.829 4.90845 237.688 4.90845C238.548 4.90845 239.313 5.13002 239.985 5.57316C240.656 6.00287 241.173 6.60716 241.536 7.38601C241.912 8.16487 242.1 9.05115 242.1 10.0449C242.1 11.0386 241.912 11.9316 241.536 12.7239C241.173 13.5027 240.656 14.1137 239.985 14.5569C239.313 14.9866 238.548 15.2014 237.688 15.2014ZM237.688 14.6374C238.44 14.6374 239.105 14.4427 239.683 14.0533C240.26 13.6639 240.703 13.1267 241.012 12.4419C241.334 11.7436 241.495 10.9446 241.495 10.0449C241.495 9.15858 241.334 8.3663 241.012 7.66801C240.703 6.96973 240.26 6.42587 239.683 6.03644C239.105 5.64702 238.44 5.4523 237.688 5.4523C236.936 5.4523 236.272 5.64702 235.694 6.03644C235.117 6.42587 234.667 6.96973 234.345 7.66801C234.036 8.3663 233.881 9.15858 233.881 10.0449C233.881 10.9446 234.036 11.7436 234.345 12.4419C234.667 13.1267 235.117 13.6639 235.694 14.0533C236.272 14.4427 236.936 14.6374 237.688 14.6374ZM247.185 15H246.42L243.318 5.10987H243.922L246.762 14.2749H246.863L249.764 5.10987H250.489L253.389 14.2749H253.49L256.33 5.10987H256.935L253.833 15H253.047L250.167 5.8753H250.066L247.185 15ZM266.723 9.66215C266.723 9.80987 266.703 9.96429 266.662 10.1254H258.706C258.733 11.4817 259.095 12.5761 259.794 13.4087C260.505 14.2279 261.445 14.6374 262.614 14.6374C263.406 14.6374 264.064 14.4494 264.588 14.0734C265.125 13.684 265.548 13.1737 265.857 12.5426L266.421 12.6433C266.085 13.4356 265.595 14.06 264.95 14.5166C264.306 14.9731 263.527 15.2014 262.614 15.2014C261.727 15.2014 260.942 14.9866 260.257 14.5569C259.585 14.1137 259.062 13.5027 258.686 12.7239C258.31 11.9316 258.122 11.0386 258.122 10.0449C258.122 9.05115 258.303 8.16487 258.666 7.38601C259.042 6.60716 259.552 6.00287 260.196 5.57316C260.854 5.13002 261.606 4.90845 262.452 4.90845C263.272 4.90845 264.003 5.10987 264.648 5.51273C265.306 5.91559 265.816 6.47959 266.179 7.20473C266.541 7.91644 266.723 8.73558 266.723 9.66215ZM262.452 5.4523C261.405 5.4523 260.539 5.83502 259.854 6.60044C259.183 7.35244 258.807 8.34615 258.726 9.58158H266.159C266.105 8.3193 265.736 7.31887 265.051 6.5803C264.379 5.8283 263.513 5.4523 262.452 5.4523ZM269.311 15V5.10987H269.895V7.60758H269.996C270.358 6.80187 270.828 6.18416 271.406 5.75445C271.983 5.32473 272.661 5.10987 273.44 5.10987H274.346V5.67387H273.339C272.695 5.67387 272.111 5.86859 271.587 6.25802C271.063 6.63401 270.654 7.13087 270.358 7.74858C270.063 8.3663 269.915 9.0243 269.915 9.72258V15H269.311ZM274.958 17.2963H274.334V17.0344L275.139 15H274.334V13.8116H275.502V15L274.958 17.2963ZM286.672 15H285.826L281.737 0.900025H282.362L286.209 14.2749H286.31L290.177 0.900025H290.983L294.83 14.2749H294.931L298.798 0.900025H299.403L295.314 15H294.468L290.62 1.66545H290.52L286.672 15ZM308.781 14.4763V15H308.237C307.861 15 307.552 14.8791 307.31 14.6374C307.082 14.3957 306.968 14.06 306.968 13.6303V12.4821H306.867C306.504 13.3416 305.981 14.013 305.296 14.4964C304.624 14.9664 303.886 15.2014 303.08 15.2014C302.221 15.2014 301.496 14.9463 300.905 14.436C300.314 13.9123 300.018 13.2341 300.018 12.4016C300.018 11.8107 300.173 11.287 300.482 10.8304C300.791 10.3739 301.214 10.018 301.751 9.76287C302.301 9.50772 302.912 9.38015 303.584 9.38015H306.927V8.63487C306.927 7.68144 306.666 6.91601 306.142 6.33859C305.618 5.74773 304.893 5.4523 303.966 5.4523C303.228 5.4523 302.597 5.65373 302.073 6.05659C301.549 6.45944 301.18 7.02344 300.965 7.74858L300.401 7.66801C300.643 6.82201 301.066 6.15059 301.67 5.65373C302.288 5.15687 303.053 4.90845 303.966 4.90845C305.068 4.90845 305.934 5.25759 306.565 5.95587C307.196 6.64073 307.512 7.53373 307.512 8.63487V13.59C307.512 13.872 307.579 14.0936 307.713 14.2547C307.861 14.4024 308.055 14.4763 308.297 14.4763H308.781ZM303.1 14.6374C303.812 14.6374 304.457 14.4427 305.034 14.0533C305.625 13.6639 306.088 13.1469 306.424 12.5023C306.76 11.8443 306.927 11.1393 306.927 10.3873V9.94415H303.604C302.744 9.94415 302.026 10.1724 301.449 10.629C300.885 11.0856 300.603 11.6764 300.603 12.4016C300.603 13.073 300.838 13.6169 301.308 14.0331C301.778 14.436 302.375 14.6374 303.1 14.6374ZM313.681 15C312.943 15 312.392 14.812 312.03 14.436C311.681 14.06 311.506 13.4624 311.506 12.6433V5.65373H309.149V5.10987H311.506L311.627 2.28988H312.11V5.10987H315.454V5.65373H312.11V12.6433C312.11 13.2879 312.231 13.7511 312.473 14.0331C312.728 14.3017 313.144 14.436 313.722 14.436H315.555V15H313.681ZM325.302 9.66215C325.302 9.80987 325.282 9.96429 325.242 10.1254H317.285C317.312 11.4817 317.675 12.5761 318.373 13.4087C319.085 14.2279 320.025 14.6374 321.193 14.6374C321.985 14.6374 322.643 14.4494 323.167 14.0734C323.704 13.684 324.127 13.1737 324.436 12.5426L325 12.6433C324.664 13.4356 324.174 14.06 323.53 14.5166C322.885 14.9731 322.106 15.2014 321.193 15.2014C320.307 15.2014 319.521 14.9866 318.836 14.5569C318.165 14.1137 317.641 13.5027 317.265 12.7239C316.889 11.9316 316.701 11.0386 316.701 10.0449C316.701 9.05115 316.882 8.16487 317.245 7.38601C317.621 6.60716 318.131 6.00287 318.776 5.57316C319.434 5.13002 320.186 4.90845 321.032 4.90845C321.851 4.90845 322.583 5.10987 323.227 5.51273C323.885 5.91559 324.396 6.47959 324.758 7.20473C325.121 7.91644 325.302 8.73558 325.302 9.66215ZM321.032 5.4523C319.984 5.4523 319.118 5.83502 318.433 6.60044C317.762 7.35244 317.386 8.34615 317.305 9.58158H324.738C324.684 8.3193 324.315 7.31887 323.63 6.5803C322.959 5.8283 322.093 5.4523 321.032 5.4523ZM327.89 15V5.10987H328.474V7.60758H328.575C328.938 6.80187 329.408 6.18416 329.985 5.75445C330.562 5.32473 331.241 5.10987 332.019 5.10987H332.926V5.67387H331.919C331.274 5.67387 330.69 5.86859 330.166 6.25802C329.643 6.63401 329.233 7.13087 328.938 7.74858C328.642 8.3663 328.494 9.0243 328.494 9.72258V15H327.89ZM340.147 15H339.542V0.900025H340.489L346.189 14.295H346.29L352.011 0.900025H352.937V15H352.333V1.78631H352.232L346.592 15H345.887L340.247 1.78631H340.147V15ZM360.217 15.2014C359.358 15.2014 358.593 14.9866 357.921 14.5569C357.263 14.1137 356.746 13.5027 356.37 12.7239C356.008 11.9316 355.826 11.0386 355.826 10.0449C355.826 9.05115 356.008 8.16487 356.37 7.38601C356.746 6.60716 357.263 6.00287 357.921 5.57316C358.593 5.13002 359.358 4.90845 360.217 4.90845C361.077 4.90845 361.842 5.13002 362.514 5.57316C363.185 6.00287 363.702 6.60716 364.065 7.38601C364.441 8.16487 364.629 9.05115 364.629 10.0449C364.629 11.0386 364.441 11.9316 364.065 12.7239C363.702 13.5027 363.185 14.1137 362.514 14.5569C361.842 14.9866 361.077 15.2014 360.217 15.2014ZM360.217 14.6374C360.969 14.6374 361.634 14.4427 362.212 14.0533C362.789 13.6639 363.232 13.1267 363.541 12.4419C363.863 11.7436 364.024 10.9446 364.024 10.0449C364.024 9.15858 363.863 8.3663 363.541 7.66801C363.232 6.96973 362.789 6.42587 362.212 6.03644C361.634 5.64702 360.969 5.4523 360.217 5.4523C359.465 5.4523 358.801 5.64702 358.223 6.03644C357.646 6.42587 357.196 6.96973 356.874 7.66801C356.565 8.3663 356.41 9.15858 356.41 10.0449C356.41 10.9446 356.565 11.7436 356.874 12.4419C357.196 13.1267 357.646 13.6639 358.223 14.0533C358.801 14.4427 359.465 14.6374 360.217 14.6374ZM370.918 15.2014C370.059 15.2014 369.293 14.9866 368.622 14.5569C367.964 14.1137 367.447 13.5027 367.071 12.7239C366.708 11.9316 366.527 11.0386 366.527 10.0449C366.527 9.05115 366.708 8.16487 367.071 7.38601C367.447 6.60716 367.964 6.00287 368.622 5.57316C369.293 5.13002 370.059 4.90845 370.918 4.90845C371.778 4.90845 372.543 5.13002 373.215 5.57316C373.886 6.00287 374.403 6.60716 374.766 7.38601C375.142 8.16487 375.33 9.05115 375.33 10.0449C375.33 11.0386 375.142 11.9316 374.766 12.7239C374.403 13.5027 373.886 14.1137 373.215 14.5569C372.543 14.9866 371.778 15.2014 370.918 15.2014ZM370.918 14.6374C371.67 14.6374 372.335 14.4427 372.912 14.0533C373.49 13.6639 373.933 13.1267 374.242 12.4419C374.564 11.7436 374.725 10.9446 374.725 10.0449C374.725 9.15858 374.564 8.3663 374.242 7.66801C373.933 6.96973 373.49 6.42587 372.912 6.03644C372.335 5.64702 371.67 5.4523 370.918 5.4523C370.166 5.4523 369.502 5.64702 368.924 6.03644C368.347 6.42587 367.897 6.96973 367.575 7.66801C367.266 8.3663 367.111 9.15858 367.111 10.0449C367.111 10.9446 367.266 11.7436 367.575 12.4419C367.897 13.1267 368.347 13.6639 368.924 14.0533C369.502 14.4427 370.166 14.6374 370.918 14.6374ZM377.913 15V5.10987H378.497V7.60758H378.598C378.987 6.74816 379.504 6.08344 380.149 5.61345C380.793 5.14345 381.512 4.90845 382.304 4.90845C383.311 4.90845 384.097 5.27102 384.661 5.99616C385.238 6.70787 385.527 7.7083 385.527 8.99744V15H384.923V9.03773C384.923 7.90973 384.688 7.03016 384.218 6.39902C383.748 5.76787 383.09 5.4523 382.244 5.4523C381.572 5.4523 380.948 5.64702 380.37 6.03644C379.806 6.42587 379.356 6.94959 379.021 7.60758C378.685 8.26558 378.517 8.96387 378.517 9.70244V15H377.913ZM387.444 18.948C389.753 16.2757 390.908 13.214 390.908 9.76287C390.908 6.31173 389.753 3.25002 387.444 0.57774L387.867 0.275598C389.021 1.52445 389.914 2.97474 390.546 4.62645C391.19 6.26473 391.512 7.97687 391.512 9.76287C391.512 11.5489 391.19 13.2677 390.546 14.9194C389.914 16.5577 389.021 18.0013 387.867 19.2501L387.444 18.948ZM2.31642 40H1.73228V30.1099H2.31642V40ZM2.49771 27.9344H1.57114V26.9072H2.49771V27.9344ZM8.58383 40.2014C7.56326 40.2014 6.70384 39.953 6.00555 39.4561C5.30727 38.9593 4.8507 38.2543 4.63584 37.3411L5.19984 37.2404C5.34755 37.979 5.72355 38.5631 6.32784 38.9929C6.93212 39.4226 7.68412 39.6374 8.58383 39.6374C9.47012 39.6374 10.1684 39.4293 10.6787 39.013C11.189 38.5967 11.4441 38.0461 11.4441 37.3613C11.4441 36.8779 11.3098 36.4951 11.0413 36.2131C10.7861 35.9312 10.4571 35.723 10.0543 35.5887C9.6514 35.441 9.12769 35.3 8.48312 35.1657C7.75798 35.0046 7.17383 34.8434 6.73069 34.6823C6.28755 34.5212 5.91155 34.266 5.60269 33.9169C5.29384 33.5543 5.13941 33.0709 5.13941 32.4666C5.13941 31.6877 5.44827 31.07 6.06598 30.6134C6.68369 30.1434 7.45583 29.9084 8.3824 29.9084C9.28212 29.9084 10.0475 30.1367 10.6787 30.5933C11.3233 31.0364 11.7395 31.6944 11.9275 32.5673L11.3635 32.6479C11.2427 31.963 10.907 31.4259 10.3564 31.0364C9.81926 30.647 9.16126 30.4523 8.3824 30.4523C7.6304 30.4523 6.99926 30.6336 6.48898 30.9962C5.97869 31.3587 5.72355 31.8489 5.72355 32.4666C5.72355 32.95 5.85112 33.3327 6.10626 33.6147C6.37484 33.8833 6.70384 34.0914 7.09326 34.2392C7.49612 34.3734 8.02655 34.5077 8.68455 34.642C9.42312 34.8166 10.0073 34.9844 10.437 35.1456C10.8801 35.3067 11.2561 35.5686 11.565 35.9312C11.8738 36.2803 12.0283 36.757 12.0283 37.3613C12.0283 38.2341 11.7127 38.9257 11.0815 39.436C10.4504 39.9463 9.61783 40.2014 8.58383 40.2014ZM27.0762 39.4763V40H26.5323C26.1563 40 25.8475 39.8791 25.6058 39.6374C25.3775 39.3957 25.2633 39.06 25.2633 38.6303V37.4821H25.1626C24.8001 38.3416 24.2763 39.013 23.5915 39.4964C22.9201 39.9664 22.1815 40.2014 21.3758 40.2014C20.5164 40.2014 19.7912 39.9463 19.2004 39.436C18.6095 38.9123 18.3141 38.2341 18.3141 37.4016C18.3141 36.8107 18.4685 36.287 18.7774 35.8304C19.0862 35.3739 19.5092 35.018 20.0464 34.7629C20.5969 34.5077 21.2079 34.3802 21.8794 34.3802H25.2231V33.6349C25.2231 32.6814 24.9612 31.916 24.4375 31.3386C23.9138 30.7477 23.1886 30.4523 22.2621 30.4523C21.5235 30.4523 20.8924 30.6537 20.3686 31.0566C19.8449 31.4594 19.4756 32.0234 19.2608 32.7486L18.6968 32.668C18.9385 31.822 19.3615 31.1506 19.9658 30.6537C20.5835 30.1569 21.3489 29.9084 22.2621 29.9084C23.3632 29.9084 24.2293 30.2576 24.8605 30.9559C25.4916 31.6407 25.8072 32.5337 25.8072 33.6349V38.59C25.8072 38.872 25.8743 39.0936 26.0086 39.2547C26.1563 39.4024 26.3511 39.4763 26.5928 39.4763H27.0762ZM21.3959 39.6374C22.1076 39.6374 22.7522 39.4427 23.3296 39.0533C23.9205 38.6639 24.3838 38.1469 24.7195 37.5023C25.0552 36.8443 25.2231 36.1393 25.2231 35.3873V34.9442H21.8995C21.0401 34.9442 20.3216 35.1724 19.7442 35.629C19.1802 36.0856 18.8982 36.6764 18.8982 37.4016C18.8982 38.073 19.1332 38.6169 19.6032 39.0331C20.0732 39.436 20.6708 39.6374 21.3959 39.6374ZM35.719 40.141C34.7388 40.141 33.9129 39.8254 33.2415 39.1943C32.57 38.5631 32.1538 37.7104 31.9926 36.6361L32.5768 36.5153C32.7245 37.4687 33.0736 38.214 33.6242 38.7511C34.1748 39.2883 34.873 39.5569 35.719 39.5569C36.6322 39.5569 37.3439 39.2413 37.8542 38.6101C38.3645 37.9656 38.6196 37.0793 38.6196 35.9513V25.9H39.2239V35.9513C39.2239 37.2539 38.9083 38.2811 38.2772 39.0331C37.6595 39.7717 36.8068 40.141 35.719 40.141ZM50.6811 39.4763V40H50.1372C49.7612 40 49.4524 39.8791 49.2106 39.6374C48.9824 39.3957 48.8682 39.06 48.8682 38.6303V37.4821H48.7675C48.4049 38.3416 47.8812 39.013 47.1964 39.4964C46.5249 39.9664 45.7864 40.2014 44.9806 40.2014C44.1212 40.2014 43.3961 39.9463 42.8052 39.436C42.2144 38.9123 41.9189 38.2341 41.9189 37.4016C41.9189 36.8107 42.0734 36.287 42.3822 35.8304C42.6911 35.3739 43.1141 35.018 43.6512 34.7629C44.2018 34.5077 44.8128 34.3802 45.4842 34.3802H48.8279V33.6349C48.8279 32.6814 48.5661 31.916 48.0424 31.3386C47.5186 30.7477 46.7935 30.4523 45.8669 30.4523C45.1284 30.4523 44.4972 30.6537 43.9735 31.0566C43.4498 31.4594 43.0805 32.0234 42.8657 32.7486L42.3017 32.668C42.5434 31.822 42.9664 31.1506 43.5707 30.6537C44.1884 30.1569 44.9538 29.9084 45.8669 29.9084C46.9681 29.9084 47.8342 30.2576 48.4654 30.9559C49.0965 31.6407 49.4121 32.5337 49.4121 33.6349V38.59C49.4121 38.872 49.4792 39.0936 49.6135 39.2547C49.7612 39.4024 49.9559 39.4763 50.1976 39.4763H50.6811ZM45.0008 39.6374C45.7125 39.6374 46.3571 39.4427 46.9345 39.0533C47.5254 38.6639 47.9886 38.1469 48.3244 37.5023C48.6601 36.8443 48.8279 36.1393 48.8279 35.3873V34.9442H45.5044C44.6449 34.9442 43.9265 35.1724 43.3491 35.629C42.7851 36.0856 42.5031 36.6764 42.5031 37.4016C42.5031 38.073 42.7381 38.6169 43.2081 39.0331C43.6781 39.436 44.2757 39.6374 45.0008 39.6374ZM52.6968 44.0286V30.1099H53.2809V32.6882H53.3816C53.7576 31.8019 54.2813 31.117 54.9528 30.6336C55.6376 30.1502 56.403 29.9084 57.249 29.9084C58.0548 29.9084 58.7799 30.13 59.4245 30.5732C60.0825 31.0029 60.5928 31.6072 60.9553 32.386C61.3179 33.1649 61.4992 34.0512 61.4992 35.0449C61.4992 36.0386 61.3179 36.9316 60.9553 37.7239C60.5928 38.5027 60.0825 39.1137 59.4245 39.5569C58.7799 39.9866 58.0548 40.2014 57.249 40.2014C56.403 40.2014 55.6443 39.9597 54.9729 39.4763C54.3015 38.9929 53.7778 38.308 53.4018 37.4217H53.3011V44.0286H52.6968ZM57.2088 39.6374C57.9205 39.6374 58.5583 39.4427 59.1223 39.0533C59.6863 38.6639 60.1228 38.1267 60.4316 37.4419C60.7539 36.7436 60.915 35.9446 60.915 35.0449C60.915 34.1452 60.7539 33.3529 60.4316 32.668C60.1228 31.9697 59.6863 31.4259 59.1223 31.0364C58.5583 30.647 57.9205 30.4523 57.2088 30.4523C56.4702 30.4523 55.8055 30.6537 55.2146 31.0566C54.6238 31.4594 54.1538 32.01 53.8046 32.7083C53.4689 33.4066 53.3011 34.1854 53.3011 35.0449C53.3011 35.9043 53.4689 36.6831 53.8046 37.3814C54.1538 38.0797 54.6238 38.6303 55.2146 39.0331C55.8055 39.436 56.4702 39.6374 57.2088 39.6374ZM72.0828 39.4763V40H71.539C71.163 40 70.8541 39.8791 70.6124 39.6374C70.3841 39.3957 70.27 39.06 70.27 38.6303V37.4821H70.1692C69.8067 38.3416 69.283 39.013 68.5981 39.4964C67.9267 39.9664 67.1881 40.2014 66.3824 40.2014C65.523 40.2014 64.7978 39.9463 64.207 39.436C63.6161 38.9123 63.3207 38.2341 63.3207 37.4016C63.3207 36.8107 63.4751 36.287 63.784 35.8304C64.0928 35.3739 64.5158 35.018 65.053 34.7629C65.6035 34.5077 66.2145 34.3802 66.886 34.3802H70.2297V33.6349C70.2297 32.6814 69.9678 31.916 69.4441 31.3386C68.9204 30.7477 68.1953 30.4523 67.2687 30.4523C66.5301 30.4523 65.899 30.6537 65.3753 31.0566C64.8515 31.4594 64.4823 32.0234 64.2674 32.7486L63.7034 32.668C63.9451 31.822 64.3681 31.1506 64.9724 30.6537C65.5901 30.1569 66.3555 29.9084 67.2687 29.9084C68.3698 29.9084 69.236 30.2576 69.8671 30.9559C70.4982 31.6407 70.8138 32.5337 70.8138 33.6349V38.59C70.8138 38.872 70.881 39.0936 71.0152 39.2547C71.163 39.4024 71.3577 39.4763 71.5994 39.4763H72.0828ZM66.4025 39.6374C67.1143 39.6374 67.7588 39.4427 68.3363 39.0533C68.9271 38.6639 69.3904 38.1469 69.7261 37.5023C70.0618 36.8443 70.2297 36.1393 70.2297 35.3873V34.9442H66.9061C66.0467 34.9442 65.3283 35.1724 64.7508 35.629C64.1868 36.0856 63.9048 36.6764 63.9048 37.4016C63.9048 38.073 64.1398 38.6169 64.6098 39.0331C65.0798 39.436 65.6774 39.6374 66.4025 39.6374ZM74.0985 40V30.1099H74.6827V32.6076H74.7834C75.1728 31.7482 75.6898 31.0834 76.3344 30.6134C76.9789 30.1434 77.6974 29.9084 78.4896 29.9084C79.4968 29.9084 80.2824 30.271 80.8464 30.9962C81.4238 31.7079 81.7125 32.7083 81.7125 33.9974V40H81.1082V34.0377C81.1082 32.9097 80.8732 32.0302 80.4032 31.399C79.9332 30.7679 79.2752 30.4523 78.4292 30.4523C77.7578 30.4523 77.1334 30.647 76.5559 31.0364C75.9919 31.4259 75.5421 31.9496 75.2064 32.6076C74.8707 33.2656 74.7028 33.9639 74.7028 34.7024V40H74.0985ZM92.7942 34.6622C92.7942 34.8099 92.7741 34.9643 92.7338 35.1254H84.7774C84.8042 36.4817 85.1668 37.5761 85.8651 38.4087C86.5768 39.2279 87.5168 39.6374 88.6851 39.6374C89.4773 39.6374 90.1353 39.4494 90.6591 39.0734C91.1962 38.684 91.6192 38.1737 91.9281 37.5426L92.4921 37.6433C92.1563 38.4356 91.6662 39.06 91.0216 39.5166C90.3771 39.9731 89.5982 40.2014 88.6851 40.2014C87.7988 40.2014 87.0132 39.9866 86.3283 39.5569C85.6569 39.1137 85.1332 38.5027 84.7572 37.7239C84.3812 36.9316 84.1932 36.0386 84.1932 35.0449C84.1932 34.0512 84.3745 33.1649 84.7371 32.386C85.1131 31.6072 85.6234 31.0029 86.2679 30.5732C86.9259 30.13 87.6779 29.9084 88.5239 29.9084C89.3431 29.9084 90.0749 30.1099 90.7195 30.5127C91.3775 30.9156 91.8878 31.4796 92.2503 32.2047C92.6129 32.9164 92.7942 33.7356 92.7942 34.6622ZM88.5239 30.4523C87.4765 30.4523 86.6103 30.835 85.9255 31.6004C85.2541 32.3524 84.8781 33.3462 84.7975 34.5816H92.2302C92.1765 33.3193 91.8072 32.3189 91.1223 31.5803C90.4509 30.8283 89.5848 30.4523 88.5239 30.4523ZM98.2627 40.2014C97.2421 40.2014 96.3827 39.953 95.6844 39.4561C94.9861 38.9593 94.5295 38.2543 94.3147 37.3411L94.8787 37.2404C95.0264 37.979 95.4024 38.5631 96.0067 38.9929C96.6109 39.4226 97.3629 39.6374 98.2627 39.6374C99.1489 39.6374 99.8472 39.4293 100.358 39.013C100.868 38.5967 101.123 38.0461 101.123 37.3613C101.123 36.8779 100.989 36.4951 100.72 36.2131C100.465 35.9312 100.136 35.723 99.7331 35.5887C99.3302 35.441 98.8065 35.3 98.1619 35.1657C97.4368 35.0046 96.8527 34.8434 96.4095 34.6823C95.9664 34.5212 95.5904 34.266 95.2815 33.9169C94.9727 33.5543 94.8182 33.0709 94.8182 32.4666C94.8182 31.6877 95.1271 31.07 95.7448 30.6134C96.3625 30.1434 97.1347 29.9084 98.0612 29.9084C98.9609 29.9084 99.7264 30.1367 100.358 30.5933C101.002 31.0364 101.418 31.6944 101.606 32.5673L101.042 32.6479C100.922 31.963 100.586 31.4259 100.035 31.0364C99.4981 30.647 98.8401 30.4523 98.0612 30.4523C97.3092 30.4523 96.6781 30.6336 96.1678 30.9962C95.6575 31.3587 95.4024 31.8489 95.4024 32.4666C95.4024 32.95 95.5299 33.3327 95.7851 33.6147C96.0537 33.8833 96.3827 34.0914 96.7721 34.2392C97.1749 34.3734 97.7054 34.5077 98.3634 34.642C99.1019 34.8166 99.6861 34.9844 100.116 35.1456C100.559 35.3067 100.935 35.5686 101.244 35.9312C101.553 36.2803 101.707 36.757 101.707 37.3613C101.707 38.2341 101.392 38.9257 100.76 39.436C100.129 39.9463 99.2967 40.2014 98.2627 40.2014ZM112.091 34.6622C112.091 34.8099 112.071 34.9643 112.031 35.1254H104.074C104.101 36.4817 104.464 37.5761 105.162 38.4087C105.874 39.2279 106.814 39.6374 107.982 39.6374C108.774 39.6374 109.432 39.4494 109.956 39.0734C110.493 38.684 110.916 38.1737 111.225 37.5426L111.789 37.6433C111.453 38.4356 110.963 39.06 110.319 39.5166C109.674 39.9731 108.895 40.2014 107.982 40.2014C107.096 40.2014 106.31 39.9866 105.625 39.5569C104.954 39.1137 104.43 38.5027 104.054 37.7239C103.678 36.9316 103.49 36.0386 103.49 35.0449C103.49 34.0512 103.671 33.1649 104.034 32.386C104.41 31.6072 104.92 31.0029 105.565 30.5732C106.223 30.13 106.975 29.9084 107.821 29.9084C108.64 29.9084 109.372 30.1099 110.016 30.5127C110.674 30.9156 111.185 31.4796 111.547 32.2047C111.91 32.9164 112.091 33.7356 112.091 34.6622ZM107.821 30.4523C106.773 30.4523 105.907 30.835 105.222 31.6004C104.551 32.3524 104.175 33.3462 104.094 34.5816H111.527C111.473 33.3193 111.104 32.3189 110.419 31.5803C109.748 30.8283 108.882 30.4523 107.821 30.4523ZM119.947 40H119.363V30.1099H119.947V40ZM120.129 27.9344H119.202V26.9072H120.129V27.9344ZM126.9 40.2014C126.094 40.2014 125.362 39.9866 124.704 39.5569C124.059 39.1137 123.556 38.5027 123.193 37.7239C122.831 36.9316 122.649 36.0386 122.649 35.0449C122.649 34.0512 122.831 33.1649 123.193 32.386C123.556 31.6072 124.059 31.0029 124.704 30.5732C125.362 30.13 126.094 29.9084 126.9 29.9084C127.746 29.9084 128.504 30.1502 129.176 30.6336C129.847 31.117 130.371 31.7952 130.747 32.668H130.848V25.9H131.452V40H130.868V37.4016H130.767C130.391 38.3013 129.861 38.9929 129.176 39.4763C128.504 39.9597 127.746 40.2014 126.9 40.2014ZM126.94 39.6374C127.678 39.6374 128.343 39.436 128.934 39.0331C129.525 38.6303 129.988 38.0797 130.324 37.3814C130.673 36.6831 130.848 35.9043 130.848 35.0449C130.848 34.1854 130.673 33.4066 130.324 32.7083C129.988 32.01 129.525 31.4594 128.934 31.0566C128.343 30.6537 127.678 30.4523 126.94 30.4523C126.228 30.4523 125.59 30.647 125.026 31.0364C124.462 31.4259 124.019 31.9697 123.697 32.668C123.388 33.3529 123.234 34.1452 123.234 35.0449C123.234 35.9446 123.388 36.7436 123.697 37.4419C124.019 38.1267 124.462 38.6639 125.026 39.0533C125.59 39.4427 126.228 39.6374 126.94 39.6374ZM135.507 40H134.923V30.1099H135.507V40ZM135.688 27.9344H134.762V26.9072H135.688V27.9344ZM142.6 40.2014C141.741 40.2014 140.975 39.9866 140.304 39.5569C139.646 39.1137 139.129 38.5027 138.753 37.7239C138.39 36.9316 138.209 36.0386 138.209 35.0449C138.209 34.0512 138.39 33.1649 138.753 32.386C139.129 31.6072 139.646 31.0029 140.304 30.5732C140.975 30.13 141.741 29.9084 142.6 29.9084C143.46 29.9084 144.225 30.13 144.896 30.5732C145.568 31.0029 146.085 31.6072 146.447 32.386C146.823 33.1649 147.011 34.0512 147.011 35.0449C147.011 36.0386 146.823 36.9316 146.447 37.7239C146.085 38.5027 145.568 39.1137 144.896 39.5569C144.225 39.9866 143.46 40.2014 142.6 40.2014ZM142.6 39.6374C143.352 39.6374 144.017 39.4427 144.594 39.0533C145.172 38.6639 145.615 38.1267 145.924 37.4419C146.246 36.7436 146.407 35.9446 146.407 35.0449C146.407 34.1586 146.246 33.3663 145.924 32.668C145.615 31.9697 145.172 31.4259 144.594 31.0364C144.017 30.647 143.352 30.4523 142.6 30.4523C141.848 30.4523 141.183 30.647 140.606 31.0364C140.029 31.4259 139.579 31.9697 139.256 32.668C138.948 33.3663 138.793 34.1586 138.793 35.0449C138.793 35.9446 138.948 36.7436 139.256 37.4419C139.579 38.1267 140.029 38.6639 140.606 39.0533C141.183 39.4427 141.848 39.6374 142.6 39.6374ZM149.595 40V30.1099H150.179V32.5069H150.28C150.602 31.7146 151.058 31.0834 151.649 30.6134C152.254 30.1434 152.925 29.9084 153.664 29.9084C154.402 29.9084 155.013 30.1569 155.497 30.6537C155.993 31.1372 156.316 31.822 156.463 32.7083H156.564C156.94 31.8086 157.43 31.117 158.035 30.6336C158.639 30.1502 159.317 29.9084 160.069 29.9084C161.009 29.9084 161.734 30.2643 162.244 30.976C162.768 31.6743 163.03 32.6747 163.03 33.9773V40H162.446V34.0176C162.446 32.8762 162.231 31.9966 161.801 31.3789C161.385 30.7612 160.787 30.4523 160.009 30.4523C159.391 30.4523 158.82 30.6403 158.296 31.0163C157.786 31.3923 157.377 31.9093 157.068 32.5673C156.759 33.2119 156.604 33.9169 156.604 34.6823V40H156.02V34.0176C156.02 32.8627 155.805 31.9832 155.376 31.3789C154.959 30.7612 154.362 30.4523 153.583 30.4523C152.965 30.4523 152.395 30.6403 151.871 31.0163C151.361 31.3923 150.951 31.9026 150.642 32.5472C150.347 33.1917 150.199 33.9034 150.199 34.6823V40H149.595ZM171.174 40V30.1099H171.758V32.6076H171.858C172.221 31.8019 172.691 31.1842 173.268 30.7544C173.846 30.3247 174.524 30.1099 175.303 30.1099H176.209V30.6739H175.202C174.558 30.6739 173.973 30.8686 173.45 31.258C172.926 31.634 172.516 32.1309 172.221 32.7486C171.926 33.3663 171.778 34.0243 171.778 34.7226V40H171.174ZM185.66 34.6622C185.66 34.8099 185.64 34.9643 185.599 35.1254H177.643C177.67 36.4817 178.032 37.5761 178.731 38.4087C179.442 39.2279 180.382 39.6374 181.551 39.6374C182.343 39.6374 183.001 39.4494 183.525 39.0734C184.062 38.684 184.485 38.1737 184.794 37.5426L185.358 37.6433C185.022 38.4356 184.532 39.06 183.887 39.5166C183.243 39.9731 182.464 40.2014 181.551 40.2014C180.664 40.2014 179.879 39.9866 179.194 39.5569C178.522 39.1137 177.999 38.5027 177.623 37.7239C177.247 36.9316 177.059 36.0386 177.059 35.0449C177.059 34.0512 177.24 33.1649 177.603 32.386C177.979 31.6072 178.489 31.0029 179.133 30.5732C179.791 30.13 180.543 29.9084 181.389 29.9084C182.209 29.9084 182.94 30.1099 183.585 30.5127C184.243 30.9156 184.753 31.4796 185.116 32.2047C185.478 32.9164 185.66 33.7356 185.66 34.6622ZM181.389 30.4523C180.342 30.4523 179.476 30.835 178.791 31.6004C178.12 32.3524 177.744 33.3462 177.663 34.5816H185.096C185.042 33.3193 184.673 32.3189 183.988 31.5803C183.316 30.8283 182.45 30.4523 181.389 30.4523ZM191.173 26.4439C190.596 26.4439 190.179 26.5849 189.924 26.8669C189.683 27.1355 189.562 27.5987 189.562 28.2567V30.1099H192.805V30.6537H189.562V40H188.957V30.6537H186.601V30.1099H188.957V28.2567C188.957 27.4376 189.132 26.84 189.481 26.464C189.844 26.088 190.394 25.9 191.133 25.9H192.905V26.4439H191.173ZM202.242 34.6622C202.242 34.8099 202.222 34.9643 202.182 35.1254H194.225C194.252 36.4817 194.615 37.5761 195.313 38.4087C196.025 39.2279 196.965 39.6374 198.133 39.6374C198.925 39.6374 199.583 39.4494 200.107 39.0734C200.644 38.684 201.067 38.1737 201.376 37.5426L201.94 37.6433C201.604 38.4356 201.114 39.06 200.47 39.5166C199.825 39.9731 199.046 40.2014 198.133 40.2014C197.247 40.2014 196.461 39.9866 195.776 39.5569C195.105 39.1137 194.581 38.5027 194.205 37.7239C193.829 36.9316 193.641 36.0386 193.641 35.0449C193.641 34.0512 193.822 33.1649 194.185 32.386C194.561 31.6072 195.071 31.0029 195.716 30.5732C196.374 30.13 197.126 29.9084 197.972 29.9084C198.791 29.9084 199.523 30.1099 200.167 30.5127C200.825 30.9156 201.336 31.4796 201.698 32.2047C202.061 32.9164 202.242 33.7356 202.242 34.6622ZM197.972 30.4523C196.924 30.4523 196.058 30.835 195.373 31.6004C194.702 32.3524 194.326 33.3462 194.245 34.5816H201.678C201.624 33.3193 201.255 32.3189 200.57 31.5803C199.899 30.8283 199.033 30.4523 197.972 30.4523ZM204.83 40V30.1099H205.414V32.6076H205.515C205.878 31.8019 206.348 31.1842 206.925 30.7544C207.502 30.3247 208.181 30.1099 208.959 30.1099H209.866V30.6739H208.859C208.214 30.6739 207.63 30.8686 207.106 31.258C206.583 31.634 206.173 32.1309 205.878 32.7486C205.582 33.3663 205.434 34.0243 205.434 34.7226V40H204.83ZM211.597 40V30.1099H212.181V32.6076H212.282C212.644 31.8019 213.114 31.1842 213.692 30.7544C214.269 30.3247 214.947 30.1099 215.726 30.1099H216.633V30.6739H215.625C214.981 30.6739 214.397 30.8686 213.873 31.258C213.349 31.634 212.94 32.1309 212.644 32.7486C212.349 33.3663 212.201 34.0243 212.201 34.7226V40H211.597ZM219.048 40H218.464V30.1099H219.048V40ZM219.23 27.9344H218.303V26.9072H219.23V27.9344ZM222.435 40V30.1099H223.02V32.6076H223.12C223.51 31.7482 224.027 31.0834 224.671 30.6134C225.316 30.1434 226.034 29.9084 226.827 29.9084C227.834 29.9084 228.619 30.271 229.183 30.9962C229.761 31.7079 230.049 32.7083 230.049 33.9974V40H229.445V34.0377C229.445 32.9097 229.21 32.0302 228.74 31.399C228.27 30.7679 227.612 30.4523 226.766 30.4523C226.095 30.4523 225.47 30.647 224.893 31.0364C224.329 31.4259 223.879 31.9496 223.543 32.6076C223.208 33.2656 223.04 33.9639 223.04 34.7024V40H222.435ZM236.962 44.0286C235.901 44.0286 234.988 43.7533 234.222 43.2027C233.457 42.6656 232.953 41.927 232.711 40.987L233.275 40.8863C233.477 41.692 233.907 42.3231 234.565 42.7797C235.236 43.2363 236.035 43.4646 236.962 43.4646C238.116 43.4646 239.016 43.102 239.661 42.3769C240.305 41.6517 240.628 40.6177 240.628 39.2749V37.0994H240.527C240.151 37.9723 239.627 38.6437 238.956 39.1137C238.284 39.5703 237.539 39.7986 236.72 39.7986C235.928 39.7986 235.209 39.5904 234.565 39.1741C233.933 38.7444 233.437 38.1536 233.074 37.4016C232.711 36.6496 232.53 35.7969 232.53 34.8434C232.53 33.9034 232.711 33.0574 233.074 32.3054C233.437 31.5534 233.933 30.9693 234.565 30.553C235.209 30.1233 235.928 29.9084 236.72 29.9084C237.539 29.9084 238.284 30.1434 238.956 30.6134C239.627 31.07 240.158 31.7347 240.547 32.6076H240.648V30.1099H241.232V39.2749C241.232 40.7789 240.849 41.9471 240.084 42.7797C239.332 43.6123 238.291 44.0286 236.962 44.0286ZM236.76 39.2346C237.485 39.2346 238.143 39.0399 238.734 38.6504C239.325 38.261 239.788 37.7306 240.124 37.0591C240.46 36.3877 240.628 35.6492 240.628 34.8434C240.628 34.0377 240.46 33.2992 240.124 32.6277C239.788 31.9563 239.325 31.4259 238.734 31.0364C238.143 30.647 237.485 30.4523 236.76 30.4523C236.062 30.4523 235.437 30.6403 234.887 31.0163C234.336 31.3923 233.9 31.916 233.578 32.5874C233.269 33.2589 233.114 34.0109 233.114 34.8434C233.114 35.6894 233.269 36.4481 233.578 37.1196C233.9 37.7776 234.336 38.2946 234.887 38.6706C235.437 39.0466 236.062 39.2346 236.76 39.2346ZM252.151 40C251.413 40 250.862 39.812 250.5 39.436C250.151 39.06 249.976 38.4624 249.976 37.6433V30.6537H247.619V30.1099H249.976L250.097 27.2899H250.58V30.1099H253.924V30.6537H250.58V37.6433C250.58 38.2879 250.701 38.7511 250.943 39.0331C251.198 39.3017 251.614 39.436 252.192 39.436H254.025V40H252.151ZM259.562 40.2014C258.703 40.2014 257.937 39.9866 257.266 39.5569C256.608 39.1137 256.091 38.5027 255.715 37.7239C255.352 36.9316 255.171 36.0386 255.171 35.0449C255.171 34.0512 255.352 33.1649 255.715 32.386C256.091 31.6072 256.608 31.0029 257.266 30.5732C257.937 30.13 258.703 29.9084 259.562 29.9084C260.422 29.9084 261.187 30.13 261.859 30.5732C262.53 31.0029 263.047 31.6072 263.41 32.386C263.786 33.1649 263.974 34.0512 263.974 35.0449C263.974 36.0386 263.786 36.9316 263.41 37.7239C263.047 38.5027 262.53 39.1137 261.859 39.5569C261.187 39.9866 260.422 40.2014 259.562 40.2014ZM259.562 39.6374C260.314 39.6374 260.979 39.4427 261.556 39.0533C262.134 38.6639 262.577 38.1267 262.886 37.4419C263.208 36.7436 263.369 35.9446 263.369 35.0449C263.369 34.1586 263.208 33.3663 262.886 32.668C262.577 31.9697 262.134 31.4259 261.556 31.0364C260.979 30.647 260.314 30.4523 259.562 30.4523C258.81 30.4523 258.146 30.647 257.568 31.0364C256.991 31.4259 256.541 31.9697 256.219 32.668C255.91 33.3663 255.755 34.1586 255.755 35.0449C255.755 35.9446 255.91 36.7436 256.219 37.4419C256.541 38.1267 256.991 38.6639 257.568 39.0533C258.146 39.4427 258.81 39.6374 259.562 39.6374ZM273.627 40.2014C272.607 40.2014 271.747 39.953 271.049 39.4561C270.351 38.9593 269.894 38.2543 269.679 37.3411L270.243 37.2404C270.391 37.979 270.767 38.5631 271.371 38.9929C271.975 39.4226 272.727 39.6374 273.627 39.6374C274.513 39.6374 275.212 39.4293 275.722 39.013C276.232 38.5967 276.487 38.0461 276.487 37.3613C276.487 36.8779 276.353 36.4951 276.085 36.2131C275.829 35.9312 275.5 35.723 275.098 35.5887C274.695 35.441 274.171 35.3 273.526 35.1657C272.801 35.0046 272.217 34.8434 271.774 34.6823C271.331 34.5212 270.955 34.266 270.646 33.9169C270.337 33.5543 270.183 33.0709 270.183 32.4666C270.183 31.6877 270.492 31.07 271.109 30.6134C271.727 30.1434 272.499 29.9084 273.426 29.9084C274.325 29.9084 275.091 30.1367 275.722 30.5933C276.367 31.0364 276.783 31.6944 276.971 32.5673L276.407 32.6479C276.286 31.963 275.95 31.4259 275.4 31.0364C274.863 30.647 274.205 30.4523 273.426 30.4523C272.674 30.4523 272.043 30.6336 271.532 30.9962C271.022 31.3587 270.767 31.8489 270.767 32.4666C270.767 32.95 270.894 33.3327 271.15 33.6147C271.418 33.8833 271.747 34.0914 272.137 34.2392C272.539 34.3734 273.07 34.5077 273.728 34.642C274.466 34.8166 275.051 34.9844 275.48 35.1456C275.923 35.3067 276.299 35.5686 276.608 35.9312C276.917 36.2803 277.072 36.757 277.072 37.3613C277.072 38.2341 276.756 38.9257 276.125 39.436C275.494 39.9463 274.661 40.2014 273.627 40.2014ZM283.246 40.2014C282.386 40.2014 281.621 39.9866 280.95 39.5569C280.292 39.1137 279.775 38.5027 279.399 37.7239C279.036 36.9316 278.855 36.0386 278.855 35.0449C278.855 34.0512 279.036 33.1649 279.399 32.386C279.775 31.6072 280.292 31.0029 280.95 30.5732C281.621 30.13 282.386 29.9084 283.246 29.9084C284.105 29.9084 284.871 30.13 285.542 30.5732C286.214 31.0029 286.731 31.6072 287.093 32.386C287.469 33.1649 287.657 34.0512 287.657 35.0449C287.657 36.0386 287.469 36.9316 287.093 37.7239C286.731 38.5027 286.214 39.1137 285.542 39.5569C284.871 39.9866 284.105 40.2014 283.246 40.2014ZM283.246 39.6374C283.998 39.6374 284.663 39.4427 285.24 39.0533C285.817 38.6639 286.261 38.1267 286.569 37.4419C286.892 36.7436 287.053 35.9446 287.053 35.0449C287.053 34.1586 286.892 33.3663 286.569 32.668C286.261 31.9697 285.817 31.4259 285.24 31.0364C284.663 30.647 283.998 30.4523 283.246 30.4523C282.494 30.4523 281.829 30.647 281.252 31.0364C280.674 31.4259 280.224 31.9697 279.902 32.668C279.593 33.3663 279.439 34.1586 279.439 35.0449C279.439 35.9446 279.593 36.7436 279.902 37.4419C280.224 38.1267 280.674 38.6639 281.252 39.0533C281.829 39.4427 282.494 39.6374 283.246 39.6374ZM290.24 40V30.1099H290.825V32.5069H290.925C291.248 31.7146 291.704 31.0834 292.295 30.6134C292.899 30.1434 293.571 29.9084 294.309 29.9084C295.048 29.9084 295.659 30.1569 296.142 30.6537C296.639 31.1372 296.961 31.822 297.109 32.7083H297.21C297.586 31.8086 298.076 31.117 298.68 30.6336C299.285 30.1502 299.963 29.9084 300.715 29.9084C301.655 29.9084 302.38 30.2643 302.89 30.976C303.414 31.6743 303.676 32.6747 303.676 33.9773V40H303.092V34.0176C303.092 32.8762 302.877 31.9966 302.447 31.3789C302.031 30.7612 301.433 30.4523 300.654 30.4523C300.037 30.4523 299.466 30.6403 298.942 31.0163C298.432 31.3923 298.022 31.9093 297.713 32.5673C297.405 33.2119 297.25 33.9169 297.25 34.6823V40H296.666V34.0176C296.666 32.8627 296.451 31.9832 296.021 31.3789C295.605 30.7612 295.008 30.4523 294.229 30.4523C293.611 30.4523 293.04 30.6403 292.517 31.0163C292.006 31.3923 291.597 31.9026 291.288 32.5472C290.992 33.1917 290.845 33.9034 290.845 34.6823V40H290.24ZM314.759 34.6622C314.759 34.8099 314.738 34.9643 314.698 35.1254H306.742C306.769 36.4817 307.131 37.5761 307.83 38.4087C308.541 39.2279 309.481 39.6374 310.649 39.6374C311.442 39.6374 312.1 39.4494 312.623 39.0734C313.161 38.684 313.584 38.1737 313.892 37.5426L314.456 37.6433C314.121 38.4356 313.631 39.06 312.986 39.5166C312.341 39.9731 311.563 40.2014 310.649 40.2014C309.763 40.2014 308.978 39.9866 308.293 39.5569C307.621 39.1137 307.098 38.5027 306.722 37.7239C306.346 36.9316 306.158 36.0386 306.158 35.0449C306.158 34.0512 306.339 33.1649 306.702 32.386C307.078 31.6072 307.588 31.0029 308.232 30.5732C308.89 30.13 309.642 29.9084 310.488 29.9084C311.307 29.9084 312.039 30.1099 312.684 30.5127C313.342 30.9156 313.852 31.4796 314.215 32.2047C314.577 32.9164 314.759 33.7356 314.759 34.6622ZM310.488 30.4523C309.441 30.4523 308.575 30.835 307.89 31.6004C307.219 32.3524 306.843 33.3462 306.762 34.5816H314.195C314.141 33.3193 313.772 32.3189 313.087 31.5803C312.415 30.8283 311.549 30.4523 310.488 30.4523ZM320.232 40C319.493 40 318.943 39.812 318.58 39.436C318.231 39.06 318.056 38.4624 318.056 37.6433V30.6537H315.7V30.1099H318.056L318.177 27.2899H318.661V30.1099H322.004V30.6537H318.661V37.6433C318.661 38.2879 318.782 38.7511 319.023 39.0331C319.278 39.3017 319.695 39.436 320.272 39.436H322.105V40H320.232ZM324.234 40V25.9H324.838V32.5874H324.939C325.315 31.7414 325.825 31.0834 326.47 30.6134C327.114 30.1434 327.833 29.9084 328.625 29.9084C329.632 29.9084 330.418 30.271 330.982 30.9962C331.559 31.7079 331.848 32.7083 331.848 33.9974V40H331.243V34.0377C331.243 32.9097 331.008 32.0302 330.538 31.399C330.068 30.7679 329.41 30.4523 328.564 30.4523C327.893 30.4523 327.269 30.647 326.691 31.0364C326.127 31.4259 325.677 31.9496 325.342 32.6076C325.006 33.2656 324.838 33.9639 324.838 34.7024V40H324.234ZM335.696 40H335.112V30.1099H335.696V40ZM335.877 27.9344H334.951V26.9072H335.877V27.9344ZM339.083 40V30.1099H339.667V32.6076H339.768C340.157 31.7482 340.674 31.0834 341.319 30.6134C341.963 30.1434 342.682 29.9084 343.474 29.9084C344.481 29.9084 345.267 30.271 345.831 30.9962C346.408 31.7079 346.697 32.7083 346.697 33.9974V40H346.093V34.0377C346.093 32.9097 345.858 32.0302 345.388 31.399C344.918 30.7679 344.26 30.4523 343.414 30.4523C342.742 30.4523 342.118 30.647 341.54 31.0364C340.976 31.4259 340.526 31.9496 340.191 32.6076C339.855 33.2656 339.687 33.9639 339.687 34.7024V40H339.083ZM353.609 44.0286C352.548 44.0286 351.635 43.7533 350.87 43.2027C350.104 42.6656 349.601 41.927 349.359 40.987L349.923 40.8863C350.124 41.692 350.554 42.3231 351.212 42.7797C351.883 43.2363 352.682 43.4646 353.609 43.4646C354.764 43.4646 355.664 43.102 356.308 42.3769C356.953 41.6517 357.275 40.6177 357.275 39.2749V37.0994H357.174C356.798 37.9723 356.275 38.6437 355.603 39.1137C354.932 39.5703 354.186 39.7986 353.367 39.7986C352.575 39.7986 351.857 39.5904 351.212 39.1741C350.581 38.7444 350.084 38.1536 349.721 37.4016C349.359 36.6496 349.178 35.7969 349.178 34.8434C349.178 33.9034 349.359 33.0574 349.721 32.3054C350.084 31.5534 350.581 30.9693 351.212 30.553C351.857 30.1233 352.575 29.9084 353.367 29.9084C354.186 29.9084 354.932 30.1434 355.603 30.6134C356.275 31.07 356.805 31.7347 357.194 32.6076H357.295V30.1099H357.879V39.2749C357.879 40.7789 357.497 41.9471 356.731 42.7797C355.979 43.6123 354.938 44.0286 353.609 44.0286ZM353.408 39.2346C354.133 39.2346 354.791 39.0399 355.382 38.6504C355.972 38.261 356.436 37.7306 356.771 37.0591C357.107 36.3877 357.275 35.6492 357.275 34.8434C357.275 34.0377 357.107 33.2992 356.771 32.6277C356.436 31.9563 355.972 31.4259 355.382 31.0364C354.791 30.647 354.133 30.4523 353.408 30.4523C352.709 30.4523 352.085 30.6403 351.534 31.0163C350.984 31.3923 350.547 31.916 350.225 32.5874C349.916 33.2589 349.762 34.0109 349.762 34.8434C349.762 35.6894 349.916 36.4481 350.225 37.1196C350.547 37.7776 350.984 38.2946 351.534 38.6706C352.085 39.0466 352.709 39.2346 353.408 39.2346ZM368.799 40C368.06 40 367.51 39.812 367.147 39.436C366.798 39.06 366.623 38.4624 366.623 37.6433V30.6537H364.267V30.1099H366.623L366.744 27.2899H367.228V30.1099H370.571V30.6537H367.228V37.6433C367.228 38.2879 367.349 38.7511 367.59 39.0331C367.845 39.3017 368.262 39.436 368.839 39.436H370.672V40H368.799ZM372.801 40V25.9H373.405V32.5874H373.506C373.882 31.7414 374.392 31.0834 375.037 30.6134C375.681 30.1434 376.4 29.9084 377.192 29.9084C378.199 29.9084 378.985 30.271 379.549 30.9962C380.126 31.7079 380.415 32.7083 380.415 33.9974V40H379.81V34.0377C379.81 32.9097 379.575 32.0302 379.105 31.399C378.635 30.7679 377.977 30.4523 377.132 30.4523C376.46 30.4523 375.836 30.647 375.258 31.0364C374.694 31.4259 374.244 31.9496 373.909 32.6076C373.573 33.2656 373.405 33.9639 373.405 34.7024V40H372.801ZM391.575 39.4763V40H391.031C390.655 40 390.346 39.8791 390.104 39.6374C389.876 39.3957 389.762 39.06 389.762 38.6303V37.4821H389.661C389.299 38.3416 388.775 39.013 388.09 39.4964C387.419 39.9664 386.68 40.2014 385.874 40.2014C385.015 40.2014 384.29 39.9463 383.699 39.436C383.108 38.9123 382.813 38.2341 382.813 37.4016C382.813 36.8107 382.967 36.287 383.276 35.8304C383.585 35.3739 384.008 35.018 384.545 34.7629C385.095 34.5077 385.706 34.3802 386.378 34.3802H389.722V33.6349C389.722 32.6814 389.46 31.916 388.936 31.3386C388.412 30.7477 387.687 30.4523 386.761 30.4523C386.022 30.4523 385.391 30.6537 384.867 31.0566C384.343 31.4594 383.974 32.0234 383.759 32.7486L383.195 32.668C383.437 31.822 383.86 31.1506 384.464 30.6537C385.082 30.1569 385.847 29.9084 386.761 29.9084C387.862 29.9084 388.728 30.2576 389.359 30.9559C389.99 31.6407 390.306 32.5337 390.306 33.6349V38.59C390.306 38.872 390.373 39.0936 390.507 39.2547C390.655 39.4024 390.85 39.4763 391.091 39.4763H391.575ZM385.894 39.6374C386.606 39.6374 387.251 39.4427 387.828 39.0533C388.419 38.6639 388.882 38.1469 389.218 37.5023C389.554 36.8443 389.722 36.1393 389.722 35.3873V34.9442H386.398C385.539 34.9442 384.82 35.1724 384.243 35.629C383.679 36.0856 383.397 36.6764 383.397 37.4016C383.397 38.073 383.632 38.6169 384.102 39.0331C384.572 39.436 385.169 39.6374 385.894 39.6374ZM396.476 40C395.737 40 395.186 39.812 394.824 39.436C394.475 39.06 394.3 38.4624 394.3 37.6433V30.6537H391.943V30.1099H394.3L394.421 27.2899H394.904V30.1099H398.248V30.6537H394.904V37.6433C394.904 38.2879 395.025 38.7511 395.267 39.0331C395.522 39.3017 395.938 39.436 396.516 39.436H398.349V40H396.476ZM9.5477 59.6622C9.5477 59.8099 9.52755 59.9643 9.48727 60.1254H1.53085C1.55771 61.4817 1.92028 62.5761 2.61857 63.4087C3.33028 64.2279 4.27028 64.6374 5.43856 64.6374C6.23085 64.6374 6.88885 64.4494 7.41256 64.0734C7.9497 63.684 8.3727 63.1737 8.68156 62.5426L9.24555 62.6433C8.90984 63.4356 8.4197 64.06 7.77513 64.5166C7.13056 64.9731 6.3517 65.2014 5.43856 65.2014C4.55228 65.2014 3.76671 64.9866 3.08185 64.5569C2.41042 64.1137 1.88671 63.5027 1.51071 62.7239C1.13471 61.9316 0.946713 61.0386 0.946713 60.0449C0.946713 59.0512 1.128 58.1649 1.49057 57.386C1.86657 56.6072 2.37685 56.0029 3.02142 55.5732C3.67942 55.13 4.43142 54.9084 5.27742 54.9084C6.09656 54.9084 6.82842 55.1099 7.47299 55.5127C8.13099 55.9156 8.64127 56.4796 9.00384 57.2047C9.36641 57.9164 9.5477 58.7356 9.5477 59.6622ZM5.27742 55.4523C4.22999 55.4523 3.36385 55.835 2.679 56.6004C2.00757 57.3524 1.63157 58.3462 1.551 59.5816H8.9837C8.92998 58.3193 8.5607 57.3189 7.87584 56.5803C7.20442 55.8283 6.33827 55.4523 5.27742 55.4523ZM18.2887 55.1099L14.8645 60.0046L18.4902 65H17.7852L14.522 60.4679H14.4213L11.1783 65H10.4733L14.099 60.0046L10.6748 55.1099H11.3596L14.4415 59.5212H14.5422L17.624 55.1099H18.2887ZM21.161 65H20.5768V55.1099H21.161V65ZM21.3423 52.9344H20.4157V51.9072H21.3423V52.9344ZM27.4284 65.2014C26.4078 65.2014 25.5484 64.953 24.8501 64.4561C24.1518 63.9593 23.6952 63.2543 23.4804 62.3411L24.0444 62.2404C24.1921 62.979 24.5681 63.5631 25.1724 63.9929C25.7767 64.4226 26.5287 64.6374 27.4284 64.6374C28.3147 64.6374 29.013 64.4293 29.5232 64.013C30.0335 63.5967 30.2887 63.0461 30.2887 62.3613C30.2887 61.8779 30.1544 61.4951 29.8858 61.2131C29.6307 60.9312 29.3017 60.723 28.8988 60.5887C28.496 60.441 27.9722 60.3 27.3277 60.1657C26.6025 60.0046 26.0184 59.8434 25.5752 59.6823C25.1321 59.5212 24.7561 59.266 24.4472 58.9169C24.1384 58.5543 23.984 58.0709 23.984 57.4666C23.984 56.6877 24.2928 56.07 24.9105 55.6134C25.5282 55.1434 26.3004 54.9084 27.227 54.9084C28.1267 54.9084 28.8921 55.1367 29.5232 55.5933C30.1678 56.0364 30.5841 56.6944 30.7721 57.5673L30.2081 57.6479C30.0872 56.963 29.7515 56.4259 29.201 56.0364C28.6638 55.647 28.0058 55.4523 27.227 55.4523C26.475 55.4523 25.8438 55.6336 25.3335 55.9962C24.8232 56.3587 24.5681 56.8489 24.5681 57.4666C24.5681 57.95 24.6957 58.3327 24.9508 58.6147C25.2194 58.8833 25.5484 59.0914 25.9378 59.2392C26.3407 59.3734 26.8711 59.5077 27.5291 59.642C28.2677 59.8166 28.8518 59.9844 29.2815 60.1456C29.7247 60.3067 30.1007 60.5686 30.4095 60.9312C30.7184 61.2803 30.8728 61.757 30.8728 62.3613C30.8728 63.2341 30.5572 63.9257 29.9261 64.436C29.295 64.9463 28.4624 65.2014 27.4284 65.2014ZM36.2259 65C35.4873 65 34.9368 64.812 34.5742 64.436C34.2251 64.06 34.0505 63.4624 34.0505 62.6433V55.6537H31.6938V55.1099H34.0505L34.1713 52.2899H34.6548V55.1099H37.9985V55.6537H34.6548V62.6433C34.6548 63.2879 34.7756 63.7511 35.0173 64.0331C35.2725 64.3017 35.6888 64.436 36.2662 64.436H38.0992V65H36.2259ZM43.0076 65.2014C41.987 65.2014 41.1276 64.953 40.4293 64.4561C39.731 63.9593 39.2745 63.2543 39.0596 62.3411L39.6236 62.2404C39.7713 62.979 40.1473 63.5631 40.7516 63.9929C41.3559 64.4226 42.1079 64.6374 43.0076 64.6374C43.8939 64.6374 44.5922 64.4293 45.1025 64.013C45.6127 63.5967 45.8679 63.0461 45.8679 62.3613C45.8679 61.8779 45.7336 61.4951 45.465 61.2131C45.2099 60.9312 44.8809 60.723 44.478 60.5887C44.0752 60.441 43.5515 60.3 42.9069 60.1657C42.1817 60.0046 41.5976 59.8434 41.1545 59.6823C40.7113 59.5212 40.3353 59.266 40.0265 58.9169C39.7176 58.5543 39.5632 58.0709 39.5632 57.4666C39.5632 56.6877 39.872 56.07 40.4897 55.6134C41.1075 55.1434 41.8796 54.9084 42.8062 54.9084C43.7059 54.9084 44.4713 55.1367 45.1025 55.5933C45.747 56.0364 46.1633 56.6944 46.3513 57.5673L45.7873 57.6479C45.6664 56.963 45.3307 56.4259 44.7802 56.0364C44.243 55.647 43.585 55.4523 42.8062 55.4523C42.0542 55.4523 41.423 55.6336 40.9127 55.9962C40.4025 56.3587 40.1473 56.8489 40.1473 57.4666C40.1473 57.95 40.2749 58.3327 40.53 58.6147C40.7986 58.8833 41.1276 59.0914 41.517 59.2392C41.9199 59.3734 42.4503 59.5077 43.1083 59.642C43.8469 59.8166 44.431 59.9844 44.8607 60.1456C45.3039 60.3067 45.6799 60.5686 45.9887 60.9312C46.2976 61.2803 46.452 61.757 46.452 62.3613C46.452 63.2341 46.1364 63.9257 45.5053 64.436C44.8742 64.9463 44.0416 65.2014 43.0076 65.2014ZM58.1563 65.2014C57.3103 65.2014 56.5448 64.9597 55.86 64.4763C55.1885 63.9929 54.6648 63.3013 54.2888 62.4016H54.1881V65H53.604V50.9H54.2083V57.668H54.309C54.685 56.7952 55.2087 56.117 55.8801 55.6336C56.5515 55.1502 57.3103 54.9084 58.1563 54.9084C58.962 54.9084 59.6871 55.13 60.3317 55.5732C60.9897 56.0029 61.5 56.6072 61.8625 57.386C62.2251 58.1649 62.4064 59.0512 62.4064 60.0449C62.4064 61.0386 62.2251 61.9316 61.8625 62.7239C61.5 63.5027 60.9897 64.1137 60.3317 64.5569C59.6871 64.9866 58.962 65.2014 58.1563 65.2014ZM58.116 64.6374C58.8277 64.6374 59.4655 64.4427 60.0295 64.0533C60.5935 63.6639 61.03 63.1267 61.3388 62.4419C61.6611 61.7436 61.8223 60.9446 61.8223 60.0449C61.8223 59.1452 61.6611 58.3529 61.3388 57.668C61.03 56.9697 60.5935 56.4259 60.0295 56.0364C59.4655 55.647 58.8277 55.4523 58.116 55.4523C57.3774 55.4523 56.7127 55.6537 56.1218 56.0566C55.531 56.4594 55.061 57.01 54.7118 57.7083C54.3761 58.4066 54.2083 59.1854 54.2083 60.0449C54.2083 60.9043 54.3761 61.6831 54.7118 62.3814C55.061 63.0797 55.531 63.6303 56.1218 64.0331C56.7127 64.436 57.3774 64.6374 58.116 64.6374ZM68.0527 65.2014C67.0858 65.2014 66.3137 64.8389 65.7363 64.1137C65.1723 63.3751 64.8903 62.368 64.8903 61.0923V55.1099H65.4945V61.0721C65.4945 62.1867 65.7295 63.0596 66.1995 63.6907C66.6695 64.3219 67.3074 64.6374 68.1131 64.6374C68.7711 64.6374 69.3821 64.4427 69.9461 64.0533C70.5101 63.6639 70.96 63.1401 71.2957 62.4821C71.6314 61.8241 71.7992 61.1259 71.7992 60.3873V55.1099H72.4035V65H71.8194V62.5023H71.7187C71.3292 63.3483 70.8122 64.013 70.1677 64.4964C69.5365 64.9664 68.8315 65.2014 68.0527 65.2014ZM78.754 65C78.0155 65 77.4649 64.812 77.1023 64.436C76.7532 64.06 76.5786 63.4624 76.5786 62.6433V55.6537H74.2219V55.1099H76.5786L76.6995 52.2899H77.1829V55.1099H80.5266V55.6537H77.1829V62.6433C77.1829 63.2879 77.3037 63.7511 77.5455 64.0331C77.8006 64.3017 78.2169 64.436 78.7943 64.436H80.6273V65H78.754ZM87.9234 65H87.3393V55.1099H87.9234V65ZM88.1047 52.9344H87.1781V51.9072H88.1047V52.9344ZM94.1908 65.2014C93.1702 65.2014 92.3108 64.953 91.6125 64.4561C90.9143 63.9593 90.4577 63.2543 90.2428 62.3411L90.8068 62.2404C90.9545 62.979 91.3305 63.5631 91.9348 63.9929C92.5391 64.4226 93.2911 64.6374 94.1908 64.6374C95.0771 64.6374 95.7754 64.4293 96.2857 64.013C96.796 63.5967 97.0511 63.0461 97.0511 62.3613C97.0511 61.8779 96.9168 61.4951 96.6482 61.2131C96.3931 60.9312 96.0641 60.723 95.6612 60.5887C95.2584 60.441 94.7347 60.3 94.0901 60.1657C93.365 60.0046 92.7808 59.8434 92.3377 59.6823C91.8945 59.5212 91.5185 59.266 91.2097 58.9169C90.9008 58.5543 90.7464 58.0709 90.7464 57.4666C90.7464 56.6877 91.0553 56.07 91.673 55.6134C92.2907 55.1434 93.0628 54.9084 93.9894 54.9084C94.8891 54.9084 95.6545 55.1367 96.2857 55.5933C96.9302 56.0364 97.3465 56.6944 97.5345 57.5673L96.9705 57.6479C96.8497 56.963 96.514 56.4259 95.9634 56.0364C95.4262 55.647 94.7682 55.4523 93.9894 55.4523C93.2374 55.4523 92.6062 55.6336 92.096 55.9962C91.5857 56.3587 91.3305 56.8489 91.3305 57.4666C91.3305 57.95 91.4581 58.3327 91.7133 58.6147C91.9818 58.8833 92.3108 59.0914 92.7002 59.2392C93.1031 59.3734 93.6335 59.5077 94.2915 59.642C95.0301 59.8166 95.6142 59.9844 96.044 60.1456C96.4871 60.3067 96.8631 60.5686 97.172 60.9312C97.4808 61.2803 97.6352 61.757 97.6352 62.3613C97.6352 63.2341 97.3197 63.9257 96.6885 64.436C96.0574 64.9463 95.2248 65.2014 94.1908 65.2014ZM104.686 65V55.1099H105.271V57.6076H105.371C105.761 56.7482 106.278 56.0834 106.922 55.6134C107.567 55.1434 108.285 54.9084 109.078 54.9084C110.085 54.9084 110.87 55.271 111.434 55.9962C112.012 56.7079 112.3 57.7083 112.3 58.9974V65H111.696V59.0377C111.696 57.9097 111.461 57.0302 110.991 56.399C110.521 55.7679 109.863 55.4523 109.017 55.4523C108.346 55.4523 107.721 55.647 107.144 56.0364C106.58 56.4259 106.13 56.9496 105.794 57.6076C105.459 58.2656 105.291 58.9639 105.291 59.7024V65H104.686ZM119.172 65.2014C118.313 65.2014 117.547 64.9866 116.876 64.5569C116.218 64.1137 115.701 63.5027 115.325 62.7239C114.962 61.9316 114.781 61.0386 114.781 60.0449C114.781 59.0512 114.962 58.1649 115.325 57.386C115.701 56.6072 116.218 56.0029 116.876 55.5732C117.547 55.13 118.313 54.9084 119.172 54.9084C120.032 54.9084 120.797 55.13 121.469 55.5732C122.14 56.0029 122.657 56.6072 123.02 57.386C123.396 58.1649 123.584 59.0512 123.584 60.0449C123.584 61.0386 123.396 61.9316 123.02 62.7239C122.657 63.5027 122.14 64.1137 121.469 64.5569C120.797 64.9866 120.032 65.2014 119.172 65.2014ZM119.172 64.6374C119.924 64.6374 120.589 64.4427 121.166 64.0533C121.744 63.6639 122.187 63.1267 122.496 62.4419C122.818 61.7436 122.979 60.9446 122.979 60.0449C122.979 59.1586 122.818 58.3663 122.496 57.668C122.187 56.9697 121.744 56.4259 121.166 56.0364C120.589 55.647 119.924 55.4523 119.172 55.4523C118.42 55.4523 117.756 55.647 117.178 56.0364C116.601 56.4259 116.151 56.9697 115.829 57.668C115.52 58.3663 115.365 59.1586 115.365 60.0449C115.365 60.9446 115.52 61.7436 115.829 62.4419C116.151 63.1267 116.601 63.6639 117.178 64.0533C117.756 64.4427 118.42 64.6374 119.172 64.6374ZM129.052 65C128.313 65 127.763 64.812 127.4 64.436C127.051 64.06 126.877 63.4624 126.877 62.6433V55.6537H124.52V55.1099H126.877L126.997 52.2899H127.481V55.1099H130.825V55.6537H127.481V62.6433C127.481 63.2879 127.602 63.7511 127.843 64.0331C128.099 64.3017 128.515 64.436 129.092 64.436H130.925V65H129.052ZM140.225 65C139.486 65 138.936 64.812 138.573 64.436C138.224 64.06 138.05 63.4624 138.05 62.6433V55.6537H135.693V55.1099H138.05L138.17 52.2899H138.654V55.1099H141.998V55.6537H138.654V62.6433C138.654 63.2879 138.775 63.7511 139.016 64.0331C139.272 64.3017 139.688 64.436 140.265 64.436H142.098V65H140.225ZM152.123 64.4763V65H151.579C151.203 65 150.894 64.8791 150.653 64.6374C150.424 64.3957 150.31 64.06 150.31 63.6303V62.4821H150.209C149.847 63.3416 149.323 64.013 148.638 64.4964C147.967 64.9664 147.228 65.2014 146.423 65.2014C145.563 65.2014 144.838 64.9463 144.247 64.436C143.656 63.9123 143.361 63.2341 143.361 62.4016C143.361 61.8107 143.515 61.287 143.824 60.8304C144.133 60.3739 144.556 60.018 145.093 59.7629C145.644 59.5077 146.255 59.3802 146.926 59.3802H150.27V58.6349C150.27 57.6814 150.008 56.916 149.484 56.3386C148.961 55.7477 148.235 55.4523 147.309 55.4523C146.57 55.4523 145.939 55.6537 145.415 56.0566C144.892 56.4594 144.522 57.0234 144.308 57.7486L143.744 57.668C143.985 56.822 144.408 56.1506 145.013 55.6537C145.63 55.1569 146.396 54.9084 147.309 54.9084C148.41 54.9084 149.276 55.2576 149.907 55.9559C150.538 56.6407 150.854 57.5337 150.854 58.6349V63.59C150.854 63.872 150.921 64.0936 151.055 64.2547C151.203 64.4024 151.398 64.4763 151.64 64.4763H152.123ZM146.443 64.6374C147.154 64.6374 147.799 64.4427 148.376 64.0533C148.967 63.6639 149.431 63.1469 149.766 62.5023C150.102 61.8443 150.27 61.1393 150.27 60.3873V59.9442H146.946C146.087 59.9442 145.368 60.1724 144.791 60.629C144.227 61.0856 143.945 61.6764 143.945 62.4016C143.945 63.073 144.18 63.6169 144.65 64.0331C145.12 64.436 145.718 64.6374 146.443 64.6374ZM154.139 65V55.1099H154.723V57.6076H154.824C155.213 56.7482 155.73 56.0834 156.375 55.6134C157.019 55.1434 157.738 54.9084 158.53 54.9084C159.537 54.9084 160.323 55.271 160.887 55.9962C161.464 56.7079 161.753 57.7083 161.753 58.9974V65H161.148V59.0377C161.148 57.9097 160.913 57.0302 160.443 56.399C159.973 55.7679 159.315 55.4523 158.469 55.4523C157.798 55.4523 157.174 55.647 156.596 56.0364C156.032 56.4259 155.582 56.9496 155.247 57.6076C154.911 58.2656 154.743 58.9639 154.743 59.7024V65H154.139ZM168.665 69.0286C167.604 69.0286 166.691 68.7533 165.925 68.2027C165.16 67.6656 164.656 66.927 164.415 65.987L164.979 65.8863C165.18 66.692 165.61 67.3231 166.268 67.7797C166.939 68.2363 167.738 68.4646 168.665 68.4646C169.82 68.4646 170.719 68.102 171.364 67.3769C172.009 66.6517 172.331 65.6177 172.331 64.2749V62.0994H172.23C171.854 62.9723 171.33 63.6437 170.659 64.1137C169.988 64.5703 169.242 64.7986 168.423 64.7986C167.631 64.7986 166.912 64.5904 166.268 64.1741C165.637 63.7444 165.14 63.1536 164.777 62.4016C164.415 61.6496 164.233 60.7969 164.233 59.8434C164.233 58.9034 164.415 58.0574 164.777 57.3054C165.14 56.5534 165.637 55.9693 166.268 55.553C166.912 55.1233 167.631 54.9084 168.423 54.9084C169.242 54.9084 169.988 55.1434 170.659 55.6134C171.33 56.07 171.861 56.7347 172.25 57.6076H172.351V55.1099H172.935V64.2749C172.935 65.7789 172.552 66.9471 171.787 67.7797C171.035 68.6123 169.994 69.0286 168.665 69.0286ZM168.463 64.2346C169.189 64.2346 169.847 64.0399 170.437 63.6504C171.028 63.261 171.492 62.7306 171.827 62.0591C172.163 61.3877 172.331 60.6492 172.331 59.8434C172.331 59.0377 172.163 58.2992 171.827 57.6277C171.492 56.9563 171.028 56.4259 170.437 56.0364C169.847 55.647 169.189 55.4523 168.463 55.4523C167.765 55.4523 167.141 55.6403 166.59 56.0163C166.04 56.3923 165.603 56.916 165.281 57.5874C164.972 58.2589 164.818 59.0109 164.818 59.8434C164.818 60.6894 164.972 61.4481 165.281 62.1196C165.603 62.7776 166.04 63.2946 166.59 63.6706C167.141 64.0466 167.765 64.2346 168.463 64.2346ZM176.874 65H176.29V55.1099H176.874V65ZM177.056 52.9344H176.129V51.9072H177.056V52.9344ZM184.914 65.2014C184.068 65.2014 183.303 64.9597 182.618 64.4763C181.947 63.9929 181.423 63.3013 181.047 62.4016H180.946V65H180.362V50.9H180.966V57.668H181.067C181.443 56.7952 181.967 56.117 182.638 55.6336C183.31 55.1502 184.068 54.9084 184.914 54.9084C185.72 54.9084 186.445 55.13 187.09 55.5732C187.748 56.0029 188.258 56.6072 188.621 57.386C188.983 58.1649 189.165 59.0512 189.165 60.0449C189.165 61.0386 188.983 61.9316 188.621 62.7239C188.258 63.5027 187.748 64.1137 187.09 64.5569C186.445 64.9866 185.72 65.2014 184.914 65.2014ZM184.874 64.6374C185.586 64.6374 186.224 64.4427 186.788 64.0533C187.352 63.6639 187.788 63.1267 188.097 62.4419C188.419 61.7436 188.58 60.9446 188.58 60.0449C188.58 59.1452 188.419 58.3529 188.097 57.668C187.788 56.9697 187.352 56.4259 186.788 56.0364C186.224 55.647 185.586 55.4523 184.874 55.4523C184.136 55.4523 183.471 55.6537 182.88 56.0566C182.289 56.4594 181.819 57.01 181.47 57.7083C181.134 58.4066 180.966 59.1854 180.966 60.0449C180.966 60.9043 181.134 61.6831 181.47 62.3814C181.819 63.0797 182.289 63.6303 182.88 64.0331C183.471 64.436 184.136 64.6374 184.874 64.6374ZM192.454 65H191.85V50.9H192.454V65ZM203.737 59.6622C203.737 59.8099 203.717 59.9643 203.677 60.1254H195.72C195.747 61.4817 196.11 62.5761 196.808 63.4087C197.52 64.2279 198.46 64.6374 199.628 64.6374C200.42 64.6374 201.078 64.4494 201.602 64.0734C202.139 63.684 202.562 63.1737 202.871 62.5426L203.435 62.6433C203.099 63.4356 202.609 64.06 201.965 64.5166C201.32 64.9731 200.541 65.2014 199.628 65.2014C198.742 65.2014 197.956 64.9866 197.271 64.5569C196.6 64.1137 196.076 63.5027 195.7 62.7239C195.324 61.9316 195.136 61.0386 195.136 60.0449C195.136 59.0512 195.317 58.1649 195.68 57.386C196.056 56.6072 196.566 56.0029 197.211 55.5732C197.869 55.13 198.621 54.9084 199.467 54.9084C200.286 54.9084 201.018 55.1099 201.662 55.5127C202.32 55.9156 202.831 56.4796 203.193 57.2047C203.556 57.9164 203.737 58.7356 203.737 59.6622ZM199.467 55.4523C198.419 55.4523 197.553 55.835 196.868 56.6004C196.197 57.3524 195.821 58.3462 195.74 59.5816H203.173C203.119 58.3193 202.75 57.3189 202.065 56.5803C201.394 55.8283 200.528 55.4523 199.467 55.4523ZM214.221 65.2014C213.362 65.2014 212.596 64.9866 211.925 64.5569C211.267 64.1137 210.75 63.5027 210.374 62.7239C210.011 61.9316 209.83 61.0386 209.83 60.0449C209.83 59.0512 210.011 58.1649 210.374 57.386C210.75 56.6072 211.267 56.0029 211.925 55.5732C212.596 55.13 213.362 54.9084 214.221 54.9084C215.081 54.9084 215.846 55.13 216.518 55.5732C217.189 56.0029 217.706 56.6072 218.069 57.386C218.445 58.1649 218.633 59.0512 218.633 60.0449C218.633 61.0386 218.445 61.9316 218.069 62.7239C217.706 63.5027 217.189 64.1137 216.518 64.5569C215.846 64.9866 215.081 65.2014 214.221 65.2014ZM214.221 64.6374C214.973 64.6374 215.638 64.4427 216.215 64.0533C216.793 63.6639 217.236 63.1267 217.545 62.4419C217.867 61.7436 218.028 60.9446 218.028 60.0449C218.028 59.1586 217.867 58.3663 217.545 57.668C217.236 56.9697 216.793 56.4259 216.215 56.0364C215.638 55.647 214.973 55.4523 214.221 55.4523C213.469 55.4523 212.805 55.647 212.227 56.0364C211.65 56.4259 211.2 56.9697 210.878 57.668C210.569 58.3663 210.414 59.1586 210.414 60.0449C210.414 60.9446 210.569 61.7436 210.878 62.4419C211.2 63.1267 211.65 63.6639 212.227 64.0533C212.805 64.4427 213.469 64.6374 214.221 64.6374ZM221.216 65V55.1099H221.8V57.6076H221.901C222.263 56.8019 222.733 56.1842 223.311 55.7544C223.888 55.3247 224.566 55.1099 225.345 55.1099H226.252V55.6739H225.244C224.6 55.6739 224.016 55.8686 223.492 56.258C222.968 56.634 222.559 57.1309 222.263 57.7486C221.968 58.3663 221.82 59.0243 221.82 59.7226V65H221.216ZM232.566 65V55.1099H233.15V57.6076H233.251C233.613 56.8019 234.083 56.1842 234.661 55.7544C235.238 55.3247 235.916 55.1099 236.695 55.1099H237.602V55.6739H236.594C235.95 55.6739 235.366 55.8686 234.842 56.258C234.318 56.634 233.909 57.1309 233.613 57.7486C233.318 58.3663 233.17 59.0243 233.17 59.7226V65H232.566ZM247.052 59.6622C247.052 59.8099 247.032 59.9643 246.992 60.1254H239.035C239.062 61.4817 239.425 62.5761 240.123 63.4087C240.835 64.2279 241.775 64.6374 242.943 64.6374C243.735 64.6374 244.393 64.4494 244.917 64.0734C245.454 63.684 245.877 63.1737 246.186 62.5426L246.75 62.6433C246.414 63.4356 245.924 64.06 245.279 64.5166C244.635 64.9731 243.856 65.2014 242.943 65.2014C242.057 65.2014 241.271 64.9866 240.586 64.5569C239.915 64.1137 239.391 63.5027 239.015 62.7239C238.639 61.9316 238.451 61.0386 238.451 60.0449C238.451 59.0512 238.632 58.1649 238.995 57.386C239.371 56.6072 239.881 56.0029 240.526 55.5732C241.184 55.13 241.936 54.9084 242.782 54.9084C243.601 54.9084 244.333 55.1099 244.977 55.5127C245.635 55.9156 246.146 56.4796 246.508 57.2047C246.871 57.9164 247.052 58.7356 247.052 59.6622ZM242.782 55.4523C241.734 55.4523 240.868 55.835 240.183 56.6004C239.512 57.3524 239.136 58.3462 239.055 59.5816H246.488C246.434 58.3193 246.065 57.3189 245.38 56.5803C244.709 55.8283 243.843 55.4523 242.782 55.4523ZM257.637 64.4763V65H257.093C256.717 65 256.408 64.8791 256.166 64.6374C255.938 64.3957 255.824 64.06 255.824 63.6303V62.4821H255.723C255.361 63.3416 254.837 64.013 254.152 64.4964C253.481 64.9664 252.742 65.2014 251.936 65.2014C251.077 65.2014 250.352 64.9463 249.761 64.436C249.17 63.9123 248.875 63.2341 248.875 62.4016C248.875 61.8107 249.029 61.287 249.338 60.8304C249.647 60.3739 250.07 60.018 250.607 59.7629C251.157 59.5077 251.768 59.3802 252.44 59.3802H255.784V58.6349C255.784 57.6814 255.522 56.916 254.998 56.3386C254.474 55.7477 253.749 55.4523 252.823 55.4523C252.084 55.4523 251.453 55.6537 250.929 56.0566C250.405 56.4594 250.036 57.0234 249.821 57.7486L249.257 57.668C249.499 56.822 249.922 56.1506 250.526 55.6537C251.144 55.1569 251.909 54.9084 252.823 54.9084C253.924 54.9084 254.79 55.2576 255.421 55.9559C256.052 56.6407 256.368 57.5337 256.368 58.6349V63.59C256.368 63.872 256.435 64.0936 256.569 64.2547C256.717 64.4024 256.912 64.4763 257.153 64.4763H257.637ZM251.956 64.6374C252.668 64.6374 253.313 64.4427 253.89 64.0533C254.481 63.6639 254.944 63.1469 255.28 62.5023C255.616 61.8443 255.784 61.1393 255.784 60.3873V59.9442H252.46C251.601 59.9442 250.882 60.1724 250.305 60.629C249.741 61.0856 249.459 61.6764 249.459 62.4016C249.459 63.073 249.694 63.6169 250.164 64.0331C250.634 64.436 251.231 64.6374 251.956 64.6374ZM260.357 65H259.753V50.9H260.357V65Z" fill="black"/>
</svg>
